####################################
# netfabb Wavefront export         #
####################################
v 80.33048 -80.33043 0.00000
v 85.75695 -55.70432 0.00000
v 0.00000 0.00000 0.00000
v 85.75695 -55.70432 14.00000
v 80.33048 -80.33043 14.00000
v 0.00000 0.00000 14.00000
v 87.51262 -41.93330 0.00000
v 87.51262 -41.93330 14.00000
v 87.67830 -34.24738 0.00000
v 87.67830 -34.24738 14.00000
v 88.33477 -27.87654 0.00000
v 88.33477 -27.87654 14.00000
v 91.56290 -18.05077 0.00000
v 91.56290 -18.05077 14.00000
v 99.44344 0.00000 0.00000
v 99.44344 0.00000 14.00000
v 116.79523 30.82738 0.00000
v 116.79523 30.82738 14.00000
v 143.03847 71.78963 0.00000
v 143.03847 71.78963 14.00000
v 172.15613 116.86664 0.00000
v 172.15613 116.86664 14.00000
v 198.13113 160.03828 0.00000
v 198.13113 160.03828 14.00000
v 214.94647 195.28447 0.00000
v 214.94647 195.28447 14.00000
v 216.58505 216.58505 0.00000
v 216.58505 216.58505 14.00000
v 200.04906 220.28745 0.00000
v 200.04906 220.28745 14.00000
v 169.46417 210.61414 0.00000
v 169.46417 210.61414 14.00000
v 129.49861 193.35760 0.00000
v 129.49861 193.35760 14.00000
v 84.82056 174.31030 0.00000
v 84.82056 174.31030 14.00000
v 40.09832 159.26480 0.00000
v 40.09832 159.26480 14.00000
v -0.00001 154.01350 0.00000
v -0.00001 154.01350 14.00000
v -40.48125 162.91446 0.00000
v -40.48125 162.91446 14.00000
v -86.48393 182.22276 0.00000
v -86.48393 182.22276 14.00000
v -133.53726 205.57663 0.00000
v -133.53726 205.57663 14.00000
v -177.17044 226.61420 0.00000
v -177.17044 226.61420 14.00000
v -212.91266 238.97368 0.00000
v -212.91266 238.97368 14.00000
v -236.29317 236.29317 0.00000
v -236.29317 236.29317 14.00000
v -244.48846 215.24110 0.00000
v -244.48846 215.24110 14.00000
v -240.68510 180.10367 0.00000
v -240.68510 180.10367 14.00000
v -229.42715 135.94589 0.00000
v -229.42715 135.94589 14.00000
v -215.25873 87.83269 0.00000
v -215.25873 87.83269 14.00000
v -202.72398 40.82910 0.00000
v -202.72398 40.82910 14.00000
v -196.36699 -0.00002 0.00000
v -196.36699 -0.00002 14.00000
v -198.66518 -36.52190 0.00000
v -198.66518 -36.52190 14.00000
v -206.45923 -73.56259 0.00000
v -206.45923 -73.56259 14.00000
v -215.83826 -110.49521 0.00000
v -215.83826 -110.49521 14.00000
v -222.89125 -146.69286 0.00000
v -222.89125 -146.69286 14.00000
v -223.70738 -181.52863 0.00000
v -223.70738 -181.52863 14.00000
v -214.37558 -214.37566 0.00000
v -214.37558 -214.37566 14.00000
v -190.86116 -251.25984 0.00000
v -190.86116 -251.25984 14.00000
v -155.31129 -294.23947 0.00000
v -155.31129 -294.23947 14.00000
v -113.08813 -336.73627 0.00000
v -113.08813 -336.73627 14.00000
v -69.55378 -372.17178 0.00000
v -69.55378 -372.17178 14.00000
v -30.07039 -393.96786 0.00000
v -30.07039 -393.96786 14.00000
v 0.00000 -395.54593 0.00000
v 0.00000 -395.54593 14.00000
v 21.21804 -369.14465 0.00000
v 21.21804 -369.14465 14.00000
v 38.24753 -318.35513 0.00000
v 38.24753 -318.35513 14.00000
v 51.88100 -253.62823 0.00000
v 51.88100 -253.62823 14.00000
v 62.91096 -185.41460 0.00000
v 62.91096 -185.41460 14.00000
v 72.12994 -124.16513 0.00000
v 72.12994 -124.16513 14.00000
####################################
vn 0.000 0.000 -1.000
vn 0.977 -0.215 0.000
vn 0.977 -0.215 0.000
vn 0.000 0.000 1.000
vn 0.000 0.000 -1.000
vn 0.992 -0.126 0.000
vn 0.992 -0.126 0.000
vn 0.000 0.000 1.000
vn 0.000 0.000 -1.000
vn 1.000 -0.022 0.000
vn 1.000 -0.022 0.000
vn 0.000 0.000 1.000
vn 0.000 0.000 -1.000
vn 0.995 -0.103 0.000
vn 0.995 -0.103 0.000
vn 0.000 0.000 1.000
vn 0.000 0.000 -1.000
vn 0.950 -0.312 0.000
vn 0.950 -0.312 0.000
vn 0.000 0.000 1.000
vn 0.000 0.000 -1.000
vn 0.916 -0.400 0.000
vn 0.916 -0.400 0.000
vn 0.000 0.000 1.000
vn 0.000 0.000 -1.000
vn 0.871 -0.491 0.000
vn 0.871 -0.491 0.000
vn 0.000 0.000 1.000
vn 0.000 0.000 -1.000
vn 0.842 -0.539 0.000
vn 0.842 -0.539 0.000
vn 0.000 0.000 1.000
vn 0.000 0.000 -1.000
vn 0.840 -0.543 0.000
vn 0.840 -0.543 0.000
vn 0.000 0.000 1.000
vn 0.000 0.000 -1.000
vn 0.857 -0.516 0.000
vn 0.857 -0.516 0.000
vn 0.000 0.000 1.000
vn 0.000 0.000 -1.000
vn 0.903 -0.431 0.000
vn 0.903 -0.431 0.000
vn 0.000 0.000 1.000
vn 0.000 0.000 -1.000
vn 0.997 -0.077 0.000
vn 0.997 -0.077 0.000
vn 0.000 0.000 1.000
vn 0.000 0.000 -1.000
vn 0.218 0.976 0.000
vn 0.218 0.976 0.000
vn 0.000 0.000 1.000
vn 0.000 0.000 -1.000
vn -0.302 0.953 0.000
vn -0.302 0.953 0.000
vn 0.000 0.000 1.000
vn 0.000 0.000 -1.000
vn -0.396 0.918 0.000
vn -0.396 0.918 0.000
vn 0.000 0.000 1.000
vn 0.000 0.000 -1.000
vn -0.392 0.920 0.000
vn -0.392 0.920 0.000
vn 0.000 0.000 1.000
vn 0.000 0.000 -1.000
vn -0.319 0.948 0.000
vn -0.319 0.948 0.000
vn 0.000 0.000 1.000
vn 0.000 0.000 -1.000
vn -0.130 0.992 0.000
vn -0.130 0.992 0.000
vn 0.000 0.000 1.000
vn 0.000 0.000 -1.000
vn 0.215 0.977 0.000
vn 0.215 0.977 0.000
vn 0.000 0.000 1.000
vn 0.000 0.000 -1.000
vn 0.387 0.922 0.000
vn 0.387 0.922 0.000
vn 0.000 0.000 1.000
vn 0.000 0.000 -1.000
vn 0.445 0.896 0.000
vn 0.445 0.896 0.000
vn 0.000 0.000 1.000
vn 0.000 0.000 -1.000
vn 0.434 0.901 0.000
vn 0.434 0.901 0.000
vn 0.000 0.000 1.000
vn 0.000 0.000 -1.000
vn 0.327 0.945 0.000
vn 0.327 0.945 0.000
vn 0.000 0.000 1.000
vn 0.000 0.000 -1.000
vn -0.114 0.993 0.000
vn -0.114 0.993 0.000
vn 0.000 0.000 1.000
vn 0.000 0.000 -1.000
vn -0.932 0.363 0.000
vn -0.932 0.363 0.000
vn 0.000 0.000 1.000
vn 0.000 0.000 -1.000
vn -0.994 -0.108 0.000
vn -0.994 -0.108 0.000
vn 0.000 0.000 1.000
vn 0.000 0.000 -1.000
vn -0.969 -0.247 0.000
vn -0.969 -0.247 0.000
vn 0.000 0.000 1.000
vn 0.000 0.000 -1.000
vn -0.959 -0.282 0.000
vn -0.959 -0.282 0.000
vn 0.000 0.000 1.000
vn 0.000 0.000 -1.000
vn -0.966 -0.258 0.000
vn -0.966 -0.258 0.000
vn 0.000 0.000 1.000
vn 0.000 0.000 -1.000
vn -0.988 -0.154 0.000
vn -0.988 -0.154 0.000
vn 0.000 0.000 1.000
vn 0.000 0.000 -1.000
vn -0.998 0.063 0.000
vn -0.998 0.063 0.000
vn 0.000 0.000 1.000
vn 0.000 0.000 -1.000
vn -0.979 0.206 0.000
vn -0.979 0.206 0.000
vn 0.000 0.000 1.000
vn 0.000 0.000 -1.000
vn -0.969 0.246 0.000
vn -0.969 0.246 0.000
vn 0.000 0.000 1.000
vn 0.000 0.000 -1.000
vn -0.982 0.191 0.000
vn -0.982 0.191 0.000
vn 0.000 0.000 1.000
vn 0.000 0.000 -1.000
vn -1.000 0.023 0.000
vn -1.000 0.023 0.000
vn 0.000 0.000 1.000
vn 0.000 0.000 -1.000
vn -0.962 -0.273 0.000
vn -0.962 -0.273 0.000
vn 0.000 0.000 1.000
vn 0.000 0.000 -1.000
vn -0.843 -0.538 0.000
vn -0.843 -0.538 0.000
vn 0.000 0.000 1.000
vn 0.000 0.000 -1.000
vn -0.771 -0.637 0.000
vn -0.771 -0.637 0.000
vn 0.000 0.000 1.000
vn 0.000 0.000 -1.000
vn -0.709 -0.705 0.000
vn -0.709 -0.705 0.000
vn 0.000 0.000 1.000
vn 0.000 0.000 -1.000
vn -0.631 -0.776 0.000
vn -0.631 -0.776 0.000
vn 0.000 0.000 1.000
vn 0.000 0.000 -1.000
vn -0.483 -0.875 0.000
vn -0.483 -0.875 0.000
vn 0.000 0.000 1.000
vn 0.000 0.000 -1.000
vn -0.052 -0.999 0.000
vn -0.052 -0.999 0.000
vn 0.000 0.000 1.000
vn 0.000 0.000 -1.000
vn 0.779 -0.626 0.000
vn 0.779 -0.626 0.000
vn 0.000 0.000 1.000
vn 0.000 0.000 -1.000
vn 0.948 -0.318 0.000
vn 0.948 -0.318 0.000
vn 0.000 0.000 1.000
vn 0.000 0.000 -1.000
vn 0.979 -0.206 0.000
vn 0.979 -0.206 0.000
vn 0.000 0.000 1.000
vn 0.000 0.000 -1.000
vn 0.987 -0.160 0.000
vn 0.987 -0.160 0.000
vn 0.000 0.000 1.000
vn 0.000 0.000 -1.000
vn 0.989 -0.149 0.000
vn 0.989 -0.149 0.000
vn 0.000 0.000 1.000
vn 0.000 0.000 -1.000
vn 0.983 -0.184 0.000
vn 0.983 -0.184 0.000
vn 0.000 0.000 1.000
####################################
f 3//1 2//1 1//1
f 1//2 2//2 4//2
f 1//3 4//3 5//3
f 5//4 4//4 6//4
f 3//5 7//5 2//5
f 2//6 7//6 8//6
f 2//7 8//7 4//7
f 4//8 8//8 6//8
f 3//9 9//9 7//9
f 7//10 9//10 10//10
f 7//11 10//11 8//11
f 8//12 10//12 6//12
f 3//13 11//13 9//13
f 9//14 11//14 12//14
f 9//15 12//15 10//15
f 10//16 12//16 6//16
f 3//17 13//17 11//17
f 11//18 13//18 14//18
f 11//19 14//19 12//19
f 12//20 14//20 6//20
f 3//21 15//21 13//21
f 13//22 15//22 16//22
f 13//23 16//23 14//23
f 14//24 16//24 6//24
f 3//25 17//25 15//25
f 15//26 17//26 18//26
f 15//27 18//27 16//27
f 16//28 18//28 6//28
f 3//29 19//29 17//29
f 17//30 19//30 20//30
f 17//31 20//31 18//31
f 18//32 20//32 6//32
f 3//33 21//33 19//33
f 19//34 21//34 22//34
f 19//35 22//35 20//35
f 20//36 22//36 6//36
f 3//37 23//37 21//37
f 21//38 23//38 24//38
f 21//39 24//39 22//39
f 22//40 24//40 6//40
f 3//41 25//41 23//41
f 23//42 25//42 26//42
f 23//43 26//43 24//43
f 24//44 26//44 6//44
f 3//45 27//45 25//45
f 25//46 27//46 28//46
f 25//47 28//47 26//47
f 26//48 28//48 6//48
f 3//49 29//49 27//49
f 27//50 29//50 30//50
f 27//51 30//51 28//51
f 28//52 30//52 6//52
f 3//53 31//53 29//53
f 29//54 31//54 32//54
f 29//55 32//55 30//55
f 30//56 32//56 6//56
f 3//57 33//57 31//57
f 31//58 33//58 34//58
f 31//59 34//59 32//59
f 32//60 34//60 6//60
f 3//61 35//61 33//61
f 33//62 35//62 36//62
f 33//63 36//63 34//63
f 34//64 36//64 6//64
f 3//65 37//65 35//65
f 35//66 37//66 38//66
f 35//67 38//67 36//67
f 36//68 38//68 6//68
f 3//69 39//69 37//69
f 37//70 39//70 40//70
f 37//71 40//71 38//71
f 38//72 40//72 6//72
f 3//73 41//73 39//73
f 39//74 41//74 42//74
f 39//75 42//75 40//75
f 40//76 42//76 6//76
f 3//77 43//77 41//77
f 41//78 43//78 44//78
f 41//79 44//79 42//79
f 42//80 44//80 6//80
f 3//81 45//81 43//81
f 43//82 45//82 46//82
f 43//83 46//83 44//83
f 44//84 46//84 6//84
f 3//85 47//85 45//85
f 45//86 47//86 48//86
f 45//87 48//87 46//87
f 46//88 48//88 6//88
f 3//89 49//89 47//89
f 47//90 49//90 50//90
f 47//91 50//91 48//91
f 48//92 50//92 6//92
f 3//93 51//93 49//93
f 49//94 51//94 52//94
f 49//95 52//95 50//95
f 50//96 52//96 6//96
f 3//97 53//97 51//97
f 51//98 53//98 54//98
f 51//99 54//99 52//99
f 52//100 54//100 6//100
f 3//101 55//101 53//101
f 53//102 55//102 56//102
f 53//103 56//103 54//103
f 54//104 56//104 6//104
f 3//105 57//105 55//105
f 55//106 57//106 58//106
f 55//107 58//107 56//107
f 56//108 58//108 6//108
f 3//109 59//109 57//109
f 57//110 59//110 60//110
f 57//111 60//111 58//111
f 58//112 60//112 6//112
f 3//113 61//113 59//113
f 59//114 61//114 62//114
f 59//115 62//115 60//115
f 60//116 62//116 6//116
f 3//117 63//117 61//117
f 61//118 63//118 64//118
f 61//119 64//119 62//119
f 62//120 64//120 6//120
f 3//121 65//121 63//121
f 63//122 65//122 66//122
f 63//123 66//123 64//123
f 64//124 66//124 6//124
f 3//125 67//125 65//125
f 65//126 67//126 68//126
f 65//127 68//127 66//127
f 66//128 68//128 6//128
f 3//129 69//129 67//129
f 67//130 69//130 70//130
f 67//131 70//131 68//131
f 68//132 70//132 6//132
f 3//133 71//133 69//133
f 69//134 71//134 72//134
f 69//135 72//135 70//135
f 70//136 72//136 6//136
f 3//137 73//137 71//137
f 71//138 73//138 74//138
f 71//139 74//139 72//139
f 72//140 74//140 6//140
f 3//141 75//141 73//141
f 73//142 75//142 76//142
f 73//143 76//143 74//143
f 74//144 76//144 6//144
f 3//145 77//145 75//145
f 75//146 77//146 78//146
f 75//147 78//147 76//147
f 76//148 78//148 6//148
f 3//149 79//149 77//149
f 77//150 79//150 80//150
f 77//151 80//151 78//151
f 78//152 80//152 6//152
f 3//153 81//153 79//153
f 79//154 81//154 82//154
f 79//155 82//155 80//155
f 80//156 82//156 6//156
f 3//157 83//157 81//157
f 81//158 83//158 84//158
f 81//159 84//159 82//159
f 82//160 84//160 6//160
f 3//161 85//161 83//161
f 83//162 85//162 86//162
f 83//163 86//163 84//163
f 84//164 86//164 6//164
f 3//165 87//165 85//165
f 85//166 87//166 88//166
f 85//167 88//167 86//167
f 86//168 88//168 6//168
f 3//169 89//169 87//169
f 87//170 89//170 90//170
f 87//171 90//171 88//171
f 88//172 90//172 6//172
f 3//173 91//173 89//173
f 89//174 91//174 92//174
f 89//175 92//175 90//175
f 90//176 92//176 6//176
f 3//177 93//177 91//177
f 91//178 93//178 94//178
f 91//179 94//179 92//179
f 92//180 94//180 6//180
f 3//181 95//181 93//181
f 93//182 95//182 96//182
f 93//183 96//183 94//183
f 94//184 96//184 6//184
f 3//185 97//185 95//185
f 95//186 97//186 98//186
f 95//187 98//187 96//187
f 96//188 98//188 6//188
f 3//189 1//189 97//189
f 97//190 1//190 5//190
f 97//191 5//191 98//191
f 98//192 5//192 6//192
####################################
