<?xml version="1.0" standalone="no"?>
<!DOCTYPE svg PUBLIC "-//W3C//DTD SVG 1.1//EN" "http://www.w3.org/Graphics/SVG/1.1/DTD/svg11.dtd">
<svg width="100%" height="100%" version="1.1" xmlns="http://www.w3.org/2000/svg">
<g  style="fill:#FEFEFE;stroke:#0000FF;stroke-width:0.1;" >
<path d="M331.0239 472.20642 L327.5026 472.13757 L323.46573 471.9347 L319.42886 471.7318 L315.392 471.52893 L311.35513 471.32605 L307.31827 471.12317 L303.2814 470.9203 L299.24454 470.7174 L295.7329 470.38388 L291.77563 469.56088 L287.81836 468.73788 L284.35574 468.01776 L280.39847 467.19476 L276.4412 466.37177 L272.48392 465.54877 L269.25415 464.17645 L265.76245 462.0495 L262.27075 459.92255 L258.77905 457.7956 L255.72382 455.9345 L252.66867 454.0734 L250.04721 451.02554 L247.42575 447.9777 L244.80429 444.92984 L242.18283 441.882 L239.56137 438.83414 L237.33344 436.1111 L235.2403 432.61453 L233.14716 429.11795 L231.05402 425.62137 L229.22252 422.56186 L227.12938 419.06528 L225.03624 415.5687 L223.41284 412.44543 L221.59753 408.8629 L219.78223 405.2804 L217.96692 401.69788 L216.15161 398.11536 L214.3363 394.53284 L212.73901 391.4041 L210.88928 387.846 L209.03955 384.2879 L207.18982 380.7298 L205.34009 377.1717 L203.49036 373.6136 L201.87161 370.5002 L199.62198 367.09933 L197.65355 364.12357 L195.40392 360.7227 L193.15428 357.3218 L190.90465 353.92093 L188.72885 351.13284 L185.92587 348.23367 L183.1229 345.3345 L180.31992 342.43533 L177.51694 339.53616 L174.99164 337.08554 L171.89728 334.53305 L169.18971 332.29962 L166.09535 329.74713 L163.00099 327.19464 L160.29353 324.9616 L157.11555 322.49164 L153.93758 320.02167 L150.7596 317.5517 L147.58162 315.08173 L144.80075 312.92096 L141.75693 310.2547 L138.7131 307.58844 L135.66928 304.92218 L132.62546 302.25592 L130.0813 299.80978 L127.51512 296.69308 L124.9489 293.5764 L122.382675 290.4597 L120.13723 287.73257 L118.47507 284.60687 L116.84201 280.8532 L115.208954 277.09955 L113.5759 273.3459 L112.411804 269.9901 L111.90936 266.4555 L111.335144 262.41595 L110.760925 258.3764 L110.18671 254.33685 L109.61249 250.2973 L109.500786 246.74812 L109.447624 242.68916 L109.40111 239.13757 L109.347946 235.07861 L109.294785 231.01965 L109.24162 226.9607 L109.195145 223.40872 L109.5403 219.40189 L109.88545 215.39505 L110.230606 211.38821 L110.57576 207.38138 L110.92091 203.37454 L111.26607 199.3677 L111.61122 195.36087 L112.30746 191.90097 L113.10299 187.94638 L113.79908 184.48611 L114.59461 180.53152 L115.390144 176.57693 L116.18568 172.62234 L116.88191 169.16194 L118.37599 165.373 L119.87007 161.58406 L121.36415 157.79512 L122.85823 154.00618 L124.16555 150.69086 L125.80295 147.575 L128.6172 144.5833 L131.43141 141.5916 L134.24562 138.5999 L136.35638 136.35632 L140.40753 136.19849 L144.45868 136.04065 L148.50983 135.88281 L152.56097 135.72498 L155.84294 136.99356 L159.59355 138.44315 L163.34416 139.89273 L167.09477 141.34232 L170.84538 142.7919 L174.12697 144.06006 L177.66652 145.9978 L181.20607 147.93555 L184.74562 149.87329 L187.84273 151.56882 L191.38228 153.50656 L194.92183 155.4443 L198.46138 157.38205 L201.53131 159.15524 L205.03473 161.19675 L208.53815 163.23825 L212.04156 165.27975 L215.54498 167.32126 L219.0484 169.36276 L222.55182 171.40427 L225.19148 172.91336 L228.79134 174.77689 L232.39119 176.64041 L235.99104 178.50394 L239.5909 180.36746 L243.19075 182.23099 L246.7906 184.09451 L249.96823 185.64389 L253.7922 186.85812 L257.61618 188.07236 L261.44016 189.28659 L265.26413 190.50082 L269.0881 191.71506 L272.53525 192.2569 L276.1175 192.10416 L280.2115 191.9296 L284.30548 191.75504 L288.39948 191.58047 L291.94028 191.19258 L295.37726 190.21579 L299.30524 189.09946 L303.23322 187.98312 L307.1612 186.86679 L311.08917 185.75046 L314.4277 184.4608 L317.7491 183.11882 L321.545 181.58513 L325.3409 180.05144 L329.1368 178.51775 L332.45044 177.16861 L335.74365 175.801 L339.50732 174.238 L343.271 172.67502 L347.03467 171.11203 L350.35126 169.87012 L354.2094 168.80945 L358.06757 167.74878 L361.92572 166.68811 L363.85443 166.15764 L373.5548 168.44525 L374.7567 172.42523 L375.95862 176.40521 L375.59375 179.90012 L374.66193 183.40012 L373.597 187.40012 L372.66525 190.90012 L371.14035 194.69516 L369.80606 198.01582 L368.28116 201.81087 L366.75626 205.60591 L365.45697 208.93802 L364.07172 212.77945 L362.68646 216.62088 L361.47437 219.98213 L360.0891 223.82356 L358.70386 227.665 L358.003 231.13753 L357.20197 235.10591 L356.40094 239.0743 L355.5999 243.04268 L354.7989 247.01106 L354.50128 250.49548 L354.77716 254.49634 L355.01855 257.99713 L355.29443 261.9981 L355.5703 265.99908 L355.8462 270.00006 L356.91782 273.33566 L358.5211 277.07272 L360.12436 280.80978 L361.72763 284.54684 L363.3309 288.2839 L364.93417 292.02097 L366.53745 295.75803 L367.98785 298.4113 L370.08624 301.8488 L372.18463 305.2863 L374.28302 308.7238 L376.3814 312.1613 L378.4798 315.5988 L380.5782 319.0363 L382.67657 322.4738 L384.77496 325.9113 L386.65054 328.88553 L388.8571 332.23074 L391.06363 335.57596 L393.27017 338.92117 L395.4767 342.2664 L397.68326 345.6116 L399.8898 348.95682 L402.09634 352.30203 L404.3029 355.64725 L406.50943 358.99246 L408.4025 361.9453 L410.50797 365.3567 L412.61343 368.76807 L414.7189 372.17944 L416.82437 375.59082 L418.92984 379.0022 L421.0353 382.41357 L423.14078 385.82495 L425.24625 389.23633 L427.3517 392.6477 L428.8133 395.8355 L430.48322 399.47858 L432.15314 403.12164 L433.82306 406.7647 L435.49298 410.40778 L437.1629 414.05084 L438.83282 417.6939 L440.10373 420.93768 L440.2383 424.51245 L440.39212 428.5979 L440.54593 432.68335 L440.69974 436.7688 L440.85355 440.85425 L438.6187 442.96252 L435.63824 445.7738 L432.65778 448.58508 L429.6773 451.39636 L426.69684 454.20764 L423.4756 455.60455 L419.67725 456.9986 L416.3537 458.21838 L412.55536 459.61243 L408.75702 461.00647 L404.95868 462.4005 L401.16034 463.79456 L397.752 464.66287 L393.78302 465.35452 L389.81403 466.04617 L385.84503 466.73782 L381.87604 467.42947 L377.90704 468.12112 L373.93805 468.81277 L369.96906 469.50443 L366.00006 470.19608 L362.50275 470.39725 L358.50543 470.62698 L354.50812 470.85672 L351.01047 471.05774 L347.01315 471.28748 L343.01584 471.5172 L339.01852 471.74695 L335.0212 471.97668 L331.0239 472.20642 Z M277.74 292.41278 L278.74802 289.84 L286.8149 289.84 L289.84 289.33615 L289.84 285.3027 L289.84 281.26926 L289.83987 277.74 L293.95633 277.74 L295.5 276.22513 L295.5 272.1851 L295.5 268.14505 L295.5 264.105 L292.41278 263.6 L289.84 262.59665 L289.84 258.58395 L289.84 254.57121 L289.84033 251.06 L277.74 251.06 L277.74 247.9727 L276.73013 245.4 L264.61002 245.4 L263.6 247.97275 L263.0982 251.05975 L259.0838 251.05817 L255.0694 251.05658 L251.055 251.055 L251.06 263.6 L246.42908 263.6 L245.4 266.12488 L245.4 270.16492 L245.4 274.20496 L245.40004 277.74 L249.51637 277.74 L251.06 279.75638 L251.06 283.28564 L251.06 287.3191 L252.06339 289.84 L260.0889 289.84 L263.6 289.83987 L263.6 293.95633 L265.61987 295.5 L277.74 295.5 L277.74 292.41278 Z "/>
<g  style="stroke:#FF0000;stroke-width:0.1;" >
<path d="M290.0 271.0 L355.91577 271.0 L290.0 271.0 Z "/>
</g>
<g  style="stroke:#00FF00;stroke-width:0.1;" >
<path d="M318.52 276.0 L318.52 266.0 L318.52 276.0 Z "/>
</g>
<g  style="stroke:#00FF00;stroke-width:0.1;" >
<path d="M275.752 273.0 L275.752 269.0 L275.752 273.0 Z "/>
</g>
<g  style="stroke:#00FF00;stroke-width:0.1;" >
<path d="M280.504 273.0 L280.504 269.0 L280.504 273.0 Z "/>
</g>
<g  style="stroke:#00FF00;stroke-width:0.1;" >
<path d="M285.256 273.0 L285.256 269.0 L285.256 273.0 Z "/>
</g>
<g  style="stroke:#00FF00;stroke-width:0.1;" >
<path d="M290.008 273.0 L290.008 269.0 L290.008 273.0 Z "/>
</g>
<g  style="stroke:#00FF00;stroke-width:0.1;" >
<path d="M294.75998 273.0 L294.75998 269.0 L294.75998 273.0 Z "/>
</g>
<g  style="stroke:#00FF00;stroke-width:0.1;" >
<path d="M299.51196 273.0 L299.51196 269.0 L299.51196 273.0 Z "/>
</g>
<g  style="stroke:#00FF00;stroke-width:0.1;" >
<path d="M304.26398 273.0 L304.26398 269.0 L304.26398 273.0 Z "/>
</g>
<g  style="stroke:#00FF00;stroke-width:0.1;" >
<path d="M309.016 273.0 L309.016 269.0 L309.016 273.0 Z "/>
</g>
<g  style="stroke:#00FF00;stroke-width:0.1;" >
<path d="M313.768 273.0 L313.768 269.0 L313.768 273.0 Z "/>
</g>
<g  style="stroke:#00FF00;stroke-width:0.1;" >
<path d="M323.27197 273.0 L323.27197 269.0 L323.27197 273.0 Z "/>
</g>
<g  style="stroke:#00FF00;stroke-width:0.1;" >
<path d="M328.024 273.0 L328.024 269.0 L328.024 273.0 Z "/>
</g>
<g  style="stroke:#00FF00;stroke-width:0.1;" >
<path d="M332.776 273.0 L332.776 269.0 L332.776 273.0 Z "/>
</g>
<g  style="stroke:#00FF00;stroke-width:0.1;" >
<path d="M337.52798 273.0 L337.52798 269.0 L337.52798 273.0 Z "/>
</g>
<g  style="stroke:#00FF00;stroke-width:0.1;" >
<path d="M342.27997 273.0 L342.27997 269.0 L342.27997 273.0 Z "/>
</g>
<g  style="stroke:#00FF00;stroke-width:0.1;" >
<path d="M347.03198 273.0 L347.03198 269.0 L347.03198 273.0 Z "/>
</g>
<g  style="stroke:#00FF00;stroke-width:0.1;" >
<path d="M351.784 273.0 L351.784 269.0 L351.784 273.0 Z "/>
</g>
<g  style="fill:#F6921E;stroke:#F6921E;stroke-width:0.1;" >
<path d="M539.5 542.0 L3.5 542.0 L1.0 541.0 L1.0 537.0 L1.0 533.0 L1.0 529.0 L1.0 525.0 L1.0 521.0 L1.0 517.0 L1.0 513.0 L1.0 509.0 L1.0 505.0 L1.0 501.0 L1.0 497.0 L1.0 493.0 L1.0 489.0 L1.0 485.0 L1.0 481.0 L1.0 477.0 L1.0 473.0 L1.0 469.0 L1.0 465.0 L1.0 461.0 L1.0 457.0 L1.0 453.0 L1.0 449.0 L1.0 445.0 L1.0 441.0 L1.0 437.0 L1.0 433.0 L1.0 429.0 L1.0 425.0 L1.0 421.0 L1.0 417.0 L1.0 413.0 L1.0 409.0 L1.0 405.0 L1.0 401.0 L1.0 397.0 L1.0 393.0 L1.0 389.0 L1.0 385.0 L1.0 381.0 L1.0 377.0 L1.0 373.0 L1.0 369.0 L1.0 365.0 L1.0 361.0 L1.0 357.0 L1.0 353.0 L1.0 349.0 L1.0 345.0 L1.0 341.0 L1.0 337.0 L1.0 333.0 L1.0 329.0 L1.0 325.0 L1.0 321.0 L1.0 317.0 L1.0 313.0 L1.0 309.0 L1.0 305.0 L1.0 301.0 L1.0 297.0 L1.0 293.0 L1.0 289.0 L1.0 285.0 L1.0 281.0 L1.0 277.0 L1.0 273.0 L1.0 269.0 L1.0 265.0 L1.0 261.0 L1.0 257.0 L1.0 253.0 L1.0 249.0 L1.0 245.0 L1.0 241.0 L1.0 237.0 L1.0 233.0 L1.0 229.0 L1.0 225.0 L1.0 221.0 L1.0 217.0 L1.0 213.0 L1.0 209.0 L1.0 205.0 L1.0 201.0 L1.0 197.0 L1.0 193.0 L1.0 189.0 L1.0 185.0 L1.0 181.0 L1.0 177.0 L1.0 173.0 L1.0 169.0 L1.0 165.0 L1.0 161.0 L1.0 157.0 L1.0 153.0 L1.0 149.0 L1.0 145.0 L1.0 141.0 L1.0 137.0 L1.0 133.0 L1.0 129.0 L1.0 125.0 L1.0 121.0 L1.0 117.0 L1.0 113.0 L1.0 109.0 L1.0 105.0 L1.0 101.0 L1.0 97.0 L1.0 93.0 L1.0 89.0 L1.0 85.0 L1.0 81.0 L1.0 77.0 L1.0 73.0 L1.0 69.0 L1.0 65.0 L1.0 61.0 L1.0 57.0 L1.0 53.0 L1.0 49.0 L1.0 45.0 L1.0 41.0 L1.0 37.0 L1.0 33.0 L1.0 29.0 L1.0 25.0 L1.0 21.0 L1.0 17.0 L1.0 13.0 L1.0 9.0 L1.0 5.0 L1.0 1.0 L542.0 1.0 L542.0 5.0 L542.0 9.0 L542.0 13.0 L542.0 17.0 L542.0 21.0 L542.0 25.0 L542.0 29.0 L542.0 33.0 L542.0 37.0 L542.0 41.0 L542.0 45.0 L542.0 49.0 L542.0 53.0 L542.0 57.0 L542.0 61.0 L542.0 65.0 L542.0 69.0 L542.0 73.0 L542.0 77.0 L542.0 81.0 L542.0 85.0 L542.0 89.0 L542.0 93.0 L542.0 97.0 L542.0 101.0 L542.0 105.0 L542.0 109.0 L542.0 113.0 L542.0 117.0 L542.0 121.0 L542.0 125.0 L542.0 129.0 L542.0 133.0 L542.0 137.0 L542.0 141.0 L542.0 145.0 L542.0 149.0 L542.0 153.0 L542.0 157.0 L542.0 161.0 L542.0 165.0 L542.0 169.0 L542.0 173.0 L542.0 177.0 L542.0 181.0 L542.0 185.0 L542.0 189.0 L542.0 193.0 L542.0 197.0 L542.0 201.0 L542.0 205.0 L542.0 209.0 L542.0 213.0 L542.0 217.0 L542.0 221.0 L542.0 225.0 L542.0 229.0 L542.0 233.0 L542.0 237.0 L542.0 241.0 L542.0 245.0 L542.0 249.0 L542.0 253.0 L542.0 257.0 L542.0 261.0 L542.0 265.0 L542.0 269.0 L542.0 273.0 L542.0 277.0 L542.0 281.0 L542.0 285.0 L542.0 289.0 L542.0 293.0 L542.0 297.0 L542.0 301.0 L542.0 305.0 L542.0 309.0 L542.0 313.0 L542.0 317.0 L542.0 321.0 L542.0 325.0 L542.0 329.0 L542.0 333.0 L542.0 337.0 L542.0 341.0 L542.0 345.0 L542.0 349.0 L542.0 353.0 L542.0 357.0 L542.0 361.0 L542.0 365.0 L542.0 369.0 L542.0 373.0 L542.0 377.0 L542.0 381.0 L542.0 385.0 L542.0 389.0 L542.0 393.0 L542.0 397.0 L542.0 401.0 L542.0 405.0 L542.0 409.0 L542.0 413.0 L542.0 417.0 L542.0 421.0 L542.0 425.0 L542.0 429.0 L542.0 433.0 L542.0 437.0 L542.0 441.0 L542.0 445.0 L542.0 449.0 L542.0 453.0 L542.0 457.0 L542.0 461.0 L542.0 465.0 L542.0 469.0 L542.0 473.0 L542.0 477.0 L542.0 481.0 L542.0 485.0 L542.0 489.0 L542.0 493.0 L542.0 497.0 L542.0 501.0 L542.0 505.0 L542.0 509.0 L542.0 513.0 L542.0 517.0 L542.0 521.0 L542.0 525.0 L542.0 529.0 L542.0 533.0 L542.0 537.0 L542.0 541.0 L539.5 542.0 Z M528.0 525.5 L528.0 521.5 L528.0 517.5 L528.0 513.5 L528.0 509.5 L528.0 505.5 L528.0 501.5 L528.0 497.5 L528.0 493.5 L528.0 489.5 L528.0 485.5 L528.0 481.5 L528.0 477.5 L528.0 473.5 L528.0 469.5 L528.0 465.5 L528.0 461.5 L528.0 457.5 L528.0 453.5 L528.0 449.5 L528.0 445.5 L528.0 441.5 L528.0 437.5 L528.0 433.5 L528.0 429.5 L528.0 425.5 L528.0 421.5 L528.0 417.5 L528.0 413.5 L528.0 409.5 L528.0 405.5 L528.0 401.5 L528.0 397.5 L528.0 393.5 L528.0 389.5 L528.0 385.5 L528.0 381.5 L528.0 377.5 L528.0 373.5 L528.0 369.5 L528.0 365.5 L528.0 361.5 L528.0 357.5 L528.0 353.5 L528.0 349.5 L528.0 345.5 L528.0 341.5 L528.0 337.5 L528.0 333.5 L528.0 329.5 L528.0 325.5 L528.0 321.5 L528.0 317.5 L528.0 313.5 L528.0 309.5 L528.0 305.5 L528.0 301.5 L528.0 297.5 L528.0 293.5 L528.0 289.5 L528.0 285.5 L528.0 281.5 L528.0 277.5 L528.0 273.5 L528.0 269.5 L528.0 265.5 L528.0 261.5 L528.0 257.5 L528.0 253.5 L528.0 249.5 L528.0 245.5 L528.0 241.5 L528.0 237.5 L528.0 233.5 L528.0 229.5 L528.0 225.5 L528.0 221.5 L528.0 217.5 L528.0 213.5 L528.0 209.5 L528.0 205.5 L528.0 201.5 L528.0 197.5 L528.0 193.5 L528.0 189.5 L528.0 185.5 L528.0 181.5 L528.0 177.5 L528.0 173.5 L528.0 169.5 L528.0 165.5 L528.0 161.5 L528.0 157.5 L528.0 153.5 L528.0 149.5 L528.0 145.5 L528.0 141.5 L528.0 137.5 L528.0 133.5 L528.0 129.5 L528.0 125.5 L528.0 121.5 L528.0 117.5 L528.0 113.5 L528.0 109.5 L528.0 105.5 L528.0 101.5 L528.0 97.5 L528.0 93.5 L528.0 89.5 L528.0 85.5 L528.0 81.5 L528.0 77.5 L528.0 73.5 L528.0 69.5 L528.0 65.5 L528.0 61.5 L528.0 57.5 L528.0 53.5 L528.0 49.5 L528.0 45.5 L528.0 41.5 L528.0 37.5 L528.0 33.5 L528.0 29.5 L528.0 25.5 L528.0 21.5 L528.0 17.5 L527.0 15.0 L15.0 15.0 L15.0 528.0 L527.0 528.0 L528.0 525.5 Z "/>
</g>
<g  style="stroke:#FF0000;stroke-width:0.1;" >
<path d="M284.43503 284.43503 L440.85406 440.85406 L284.43503 284.43503 Z "/>
</g>
<g  style="stroke:#00FF00;stroke-width:0.1;" >
<path d="M272.94592 275.7744 L275.77435 272.94598 L272.94592 275.7744 Z "/>
</g>
<g  style="stroke:#00FF00;stroke-width:0.1;" >
<path d="M276.3061 279.13455 L279.13452 276.30612 L276.3061 279.13455 Z "/>
</g>
<g  style="stroke:#00FF00;stroke-width:0.1;" >
<path d="M279.66626 282.49475 L282.4947 279.66632 L279.66626 282.49475 Z "/>
</g>
<g  style="stroke:#00FF00;stroke-width:0.1;" >
<path d="M283.02643 285.8549 L285.85486 283.02646 L283.02643 285.8549 Z "/>
</g>
<g  style="stroke:#00FF00;stroke-width:0.1;" >
<path d="M286.3866 289.21506 L289.21503 286.38663 L286.3866 289.21506 Z "/>
</g>
<g  style="stroke:#00FF00;stroke-width:0.1;" >
<path d="M289.74677 292.57526 L292.5752 289.74683 L289.74677 292.57526 Z "/>
</g>
<g  style="stroke:#00FF00;stroke-width:0.1;" >
<path d="M293.10693 295.93542 L295.93536 293.107 L293.10693 295.93542 Z "/>
</g>
<g  style="stroke:#00FF00;stroke-width:0.1;" >
<path d="M296.4671 299.2956 L299.29553 296.46716 L296.4671 299.2956 Z "/>
</g>
<g  style="stroke:#00FF00;stroke-width:0.1;" >
<path d="M299.8273 302.65576 L302.65573 299.82733 L299.8273 302.65576 Z "/>
</g>
<g  style="stroke:#00FF00;stroke-width:0.1;" >
<path d="M306.54764 309.3761 L309.37607 306.54767 L306.54764 309.3761 Z "/>
</g>
<g  style="stroke:#00FF00;stroke-width:0.1;" >
<path d="M309.9078 312.73627 L312.73624 309.90784 L309.9078 312.73627 Z "/>
</g>
<g  style="stroke:#00FF00;stroke-width:0.1;" >
<path d="M313.26797 316.09644 L316.0964 313.268 L313.26797 316.09644 Z "/>
</g>
<g  style="stroke:#00FF00;stroke-width:0.1;" >
<path d="M316.62814 319.4566 L319.45657 316.62817 L316.62814 319.4566 Z "/>
</g>
<g  style="stroke:#00FF00;stroke-width:0.1;" >
<path d="M319.98834 322.81677 L322.81677 319.98834 L319.98834 322.81677 Z "/>
</g>
<g  style="stroke:#00FF00;stroke-width:0.1;" >
<path d="M323.3485 326.17694 L326.17694 323.3485 L323.3485 326.17694 Z "/>
</g>
<g  style="stroke:#00FF00;stroke-width:0.1;" >
<path d="M326.70868 329.5371 L329.5371 326.70868 L326.70868 329.5371 Z "/>
</g>
<g  style="stroke:#00FF00;stroke-width:0.1;" >
<path d="M330.06885 332.89728 L332.89728 330.06885 L330.06885 332.89728 Z "/>
</g>
<g  style="stroke:#00FF00;stroke-width:0.1;" >
<path d="M333.42902 336.25745 L336.25745 333.42902 L333.42902 336.25745 Z "/>
</g>
<g  style="stroke:#00FF00;stroke-width:0.1;" >
<path d="M340.14935 342.9778 L342.97778 340.14938 L340.14935 342.9778 Z "/>
</g>
<g  style="stroke:#00FF00;stroke-width:0.1;" >
<path d="M343.50952 346.33798 L346.33795 343.50955 L343.50952 346.33798 Z "/>
</g>
<g  style="stroke:#00FF00;stroke-width:0.1;" >
<path d="M346.8697 349.69815 L349.69812 346.86972 L346.8697 349.69815 Z "/>
</g>
<g  style="stroke:#00FF00;stroke-width:0.1;" >
<path d="M350.22986 353.05832 L353.0583 350.2299 L350.22986 353.05832 Z "/>
</g>
<g  style="stroke:#00FF00;stroke-width:0.1;" >
<path d="M353.59003 356.4185 L356.41846 353.59006 L353.59003 356.4185 Z "/>
</g>
<g  style="stroke:#00FF00;stroke-width:0.1;" >
<path d="M356.9502 359.7787 L359.77863 356.95026 L356.9502 359.7787 Z "/>
</g>
<g  style="stroke:#00FF00;stroke-width:0.1;" >
<path d="M360.31036 363.13885 L363.1388 360.31042 L360.31036 363.13885 Z "/>
</g>
<g  style="stroke:#00FF00;stroke-width:0.1;" >
<path d="M363.67053 366.49902 L366.49896 363.6706 L363.67053 366.49902 Z "/>
</g>
<g  style="stroke:#00FF00;stroke-width:0.1;" >
<path d="M367.0307 369.8592 L369.85913 367.03076 L367.0307 369.8592 Z "/>
</g>
<g  style="stroke:#00FF00;stroke-width:0.1;" >
<path d="M373.75107 376.57953 L376.5795 373.7511 L373.75107 376.57953 Z "/>
</g>
<g  style="stroke:#00FF00;stroke-width:0.1;" >
<path d="M377.11124 379.9397 L379.93967 377.11127 L377.11124 379.9397 Z "/>
</g>
<g  style="stroke:#00FF00;stroke-width:0.1;" >
<path d="M380.4714 383.29987 L383.29984 380.47144 L380.4714 383.29987 Z "/>
</g>
<g  style="stroke:#00FF00;stroke-width:0.1;" >
<path d="M383.83157 386.66003 L386.66 383.8316 L383.83157 386.66003 Z "/>
</g>
<g  style="stroke:#00FF00;stroke-width:0.1;" >
<path d="M387.19177 390.0202 L390.0202 387.19177 L387.19177 390.0202 Z "/>
</g>
<g  style="stroke:#00FF00;stroke-width:0.1;" >
<path d="M390.5519 393.38037 L393.38034 390.55194 L390.5519 393.38037 Z "/>
</g>
<g  style="stroke:#00FF00;stroke-width:0.1;" >
<path d="M393.9121 396.74054 L396.74054 393.9121 L393.9121 396.74054 Z "/>
</g>
<g  style="stroke:#00FF00;stroke-width:0.1;" >
<path d="M397.27228 400.1007 L400.1007 397.27228 L397.27228 400.1007 Z "/>
</g>
<g  style="stroke:#00FF00;stroke-width:0.1;" >
<path d="M400.63245 403.46088 L403.46088 400.63245 L400.63245 403.46088 Z "/>
</g>
<g  style="stroke:#00FF00;stroke-width:0.1;" >
<path d="M407.35278 410.18124 L410.1812 407.3528 L407.35278 410.18124 Z "/>
</g>
<g  style="stroke:#00FF00;stroke-width:0.1;" >
<path d="M410.71295 413.5414 L413.54138 410.71298 L410.71295 413.5414 Z "/>
</g>
<g  style="stroke:#00FF00;stroke-width:0.1;" >
<path d="M414.07312 416.90158 L416.90155 414.07315 L414.07312 416.90158 Z "/>
</g>
<g  style="stroke:#00FF00;stroke-width:0.1;" >
<path d="M417.4333 420.26175 L420.26172 417.43332 L417.4333 420.26175 Z "/>
</g>
<g  style="stroke:#00FF00;stroke-width:0.1;" >
<path d="M420.79346 423.62192 L423.6219 420.7935 L420.79346 423.62192 Z "/>
</g>
<g  style="stroke:#00FF00;stroke-width:0.1;" >
<path d="M424.15363 426.9821 L426.98206 424.15366 L424.15363 426.9821 Z "/>
</g>
<g  style="stroke:#00FF00;stroke-width:0.1;" >
<path d="M427.5138 430.3423 L430.34222 427.51385 L427.5138 430.3423 Z "/>
</g>
<g  style="stroke:#00FF00;stroke-width:0.1;" >
<path d="M430.87396 433.70245 L433.7024 430.87402 L430.87396 433.70245 Z "/>
</g>
<g  style="stroke:#00FF00;stroke-width:0.1;" >
<path d="M434.23413 437.06262 L437.06256 434.2342 L434.23413 437.06262 Z "/>
</g>
<g  style="fill:#F6921E;stroke:#F6921E;stroke-width:0.1;" >
<path d="M539.5 542.0 L3.5 542.0 L1.0 541.0 L1.0 537.0 L1.0 533.0 L1.0 529.0 L1.0 525.0 L1.0 521.0 L1.0 517.0 L1.0 513.0 L1.0 509.0 L1.0 505.0 L1.0 501.0 L1.0 497.0 L1.0 493.0 L1.0 489.0 L1.0 485.0 L1.0 481.0 L1.0 477.0 L1.0 473.0 L1.0 469.0 L1.0 465.0 L1.0 461.0 L1.0 457.0 L1.0 453.0 L1.0 449.0 L1.0 445.0 L1.0 441.0 L1.0 437.0 L1.0 433.0 L1.0 429.0 L1.0 425.0 L1.0 421.0 L1.0 417.0 L1.0 413.0 L1.0 409.0 L1.0 405.0 L1.0 401.0 L1.0 397.0 L1.0 393.0 L1.0 389.0 L1.0 385.0 L1.0 381.0 L1.0 377.0 L1.0 373.0 L1.0 369.0 L1.0 365.0 L1.0 361.0 L1.0 357.0 L1.0 353.0 L1.0 349.0 L1.0 345.0 L1.0 341.0 L1.0 337.0 L1.0 333.0 L1.0 329.0 L1.0 325.0 L1.0 321.0 L1.0 317.0 L1.0 313.0 L1.0 309.0 L1.0 305.0 L1.0 301.0 L1.0 297.0 L1.0 293.0 L1.0 289.0 L1.0 285.0 L1.0 281.0 L1.0 277.0 L1.0 273.0 L1.0 269.0 L1.0 265.0 L1.0 261.0 L1.0 257.0 L1.0 253.0 L1.0 249.0 L1.0 245.0 L1.0 241.0 L1.0 237.0 L1.0 233.0 L1.0 229.0 L1.0 225.0 L1.0 221.0 L1.0 217.0 L1.0 213.0 L1.0 209.0 L1.0 205.0 L1.0 201.0 L1.0 197.0 L1.0 193.0 L1.0 189.0 L1.0 185.0 L1.0 181.0 L1.0 177.0 L1.0 173.0 L1.0 169.0 L1.0 165.0 L1.0 161.0 L1.0 157.0 L1.0 153.0 L1.0 149.0 L1.0 145.0 L1.0 141.0 L1.0 137.0 L1.0 133.0 L1.0 129.0 L1.0 125.0 L1.0 121.0 L1.0 117.0 L1.0 113.0 L1.0 109.0 L1.0 105.0 L1.0 101.0 L1.0 97.0 L1.0 93.0 L1.0 89.0 L1.0 85.0 L1.0 81.0 L1.0 77.0 L1.0 73.0 L1.0 69.0 L1.0 65.0 L1.0 61.0 L1.0 57.0 L1.0 53.0 L1.0 49.0 L1.0 45.0 L1.0 41.0 L1.0 37.0 L1.0 33.0 L1.0 29.0 L1.0 25.0 L1.0 21.0 L1.0 17.0 L1.0 13.0 L1.0 9.0 L1.0 5.0 L1.0 1.0 L542.0 1.0 L542.0 5.0 L542.0 9.0 L542.0 13.0 L542.0 17.0 L542.0 21.0 L542.0 25.0 L542.0 29.0 L542.0 33.0 L542.0 37.0 L542.0 41.0 L542.0 45.0 L542.0 49.0 L542.0 53.0 L542.0 57.0 L542.0 61.0 L542.0 65.0 L542.0 69.0 L542.0 73.0 L542.0 77.0 L542.0 81.0 L542.0 85.0 L542.0 89.0 L542.0 93.0 L542.0 97.0 L542.0 101.0 L542.0 105.0 L542.0 109.0 L542.0 113.0 L542.0 117.0 L542.0 121.0 L542.0 125.0 L542.0 129.0 L542.0 133.0 L542.0 137.0 L542.0 141.0 L542.0 145.0 L542.0 149.0 L542.0 153.0 L542.0 157.0 L542.0 161.0 L542.0 165.0 L542.0 169.0 L542.0 173.0 L542.0 177.0 L542.0 181.0 L542.0 185.0 L542.0 189.0 L542.0 193.0 L542.0 197.0 L542.0 201.0 L542.0 205.0 L542.0 209.0 L542.0 213.0 L542.0 217.0 L542.0 221.0 L542.0 225.0 L542.0 229.0 L542.0 233.0 L542.0 237.0 L542.0 241.0 L542.0 245.0 L542.0 249.0 L542.0 253.0 L542.0 257.0 L542.0 261.0 L542.0 265.0 L542.0 269.0 L542.0 273.0 L542.0 277.0 L542.0 281.0 L542.0 285.0 L542.0 289.0 L542.0 293.0 L542.0 297.0 L542.0 301.0 L542.0 305.0 L542.0 309.0 L542.0 313.0 L542.0 317.0 L542.0 321.0 L542.0 325.0 L542.0 329.0 L542.0 333.0 L542.0 337.0 L542.0 341.0 L542.0 345.0 L542.0 349.0 L542.0 353.0 L542.0 357.0 L542.0 361.0 L542.0 365.0 L542.0 369.0 L542.0 373.0 L542.0 377.0 L542.0 381.0 L542.0 385.0 L542.0 389.0 L542.0 393.0 L542.0 397.0 L542.0 401.0 L542.0 405.0 L542.0 409.0 L542.0 413.0 L542.0 417.0 L542.0 421.0 L542.0 425.0 L542.0 429.0 L542.0 433.0 L542.0 437.0 L542.0 441.0 L542.0 445.0 L542.0 449.0 L542.0 453.0 L542.0 457.0 L542.0 461.0 L542.0 465.0 L542.0 469.0 L542.0 473.0 L542.0 477.0 L542.0 481.0 L542.0 485.0 L542.0 489.0 L542.0 493.0 L542.0 497.0 L542.0 501.0 L542.0 505.0 L542.0 509.0 L542.0 513.0 L542.0 517.0 L542.0 521.0 L542.0 525.0 L542.0 529.0 L542.0 533.0 L542.0 537.0 L542.0 541.0 L539.5 542.0 Z M528.0 525.5 L528.0 521.5 L528.0 517.5 L528.0 513.5 L528.0 509.5 L528.0 505.5 L528.0 501.5 L528.0 497.5 L528.0 493.5 L528.0 489.5 L528.0 485.5 L528.0 481.5 L528.0 477.5 L528.0 473.5 L528.0 469.5 L528.0 465.5 L528.0 461.5 L528.0 457.5 L528.0 453.5 L528.0 449.5 L528.0 445.5 L528.0 441.5 L528.0 437.5 L528.0 433.5 L528.0 429.5 L528.0 425.5 L528.0 421.5 L528.0 417.5 L528.0 413.5 L528.0 409.5 L528.0 405.5 L528.0 401.5 L528.0 397.5 L528.0 393.5 L528.0 389.5 L528.0 385.5 L528.0 381.5 L528.0 377.5 L528.0 373.5 L528.0 369.5 L528.0 365.5 L528.0 361.5 L528.0 357.5 L528.0 353.5 L528.0 349.5 L528.0 345.5 L528.0 341.5 L528.0 337.5 L528.0 333.5 L528.0 329.5 L528.0 325.5 L528.0 321.5 L528.0 317.5 L528.0 313.5 L528.0 309.5 L528.0 305.5 L528.0 301.5 L528.0 297.5 L528.0 293.5 L528.0 289.5 L528.0 285.5 L528.0 281.5 L528.0 277.5 L528.0 273.5 L528.0 269.5 L528.0 265.5 L528.0 261.5 L528.0 257.5 L528.0 253.5 L528.0 249.5 L528.0 245.5 L528.0 241.5 L528.0 237.5 L528.0 233.5 L528.0 229.5 L528.0 225.5 L528.0 221.5 L528.0 217.5 L528.0 213.5 L528.0 209.5 L528.0 205.5 L528.0 201.5 L528.0 197.5 L528.0 193.5 L528.0 189.5 L528.0 185.5 L528.0 181.5 L528.0 177.5 L528.0 173.5 L528.0 169.5 L528.0 165.5 L528.0 161.5 L528.0 157.5 L528.0 153.5 L528.0 149.5 L528.0 145.5 L528.0 141.5 L528.0 137.5 L528.0 133.5 L528.0 129.5 L528.0 125.5 L528.0 121.5 L528.0 117.5 L528.0 113.5 L528.0 109.5 L528.0 105.5 L528.0 101.5 L528.0 97.5 L528.0 93.5 L528.0 89.5 L528.0 85.5 L528.0 81.5 L528.0 77.5 L528.0 73.5 L528.0 69.5 L528.0 65.5 L528.0 61.5 L528.0 57.5 L528.0 53.5 L528.0 49.5 L528.0 45.5 L528.0 41.5 L528.0 37.5 L528.0 33.5 L528.0 29.5 L528.0 25.5 L528.0 21.5 L528.0 17.5 L527.0 15.0 L15.0 15.0 L15.0 528.0 L527.0 528.0 L528.0 525.5 Z "/>
</g>
<g  style="stroke:#FF0000;stroke-width:0.1;" >
<path d="M271.0 290.0 L271.0 465.23993 L271.0 290.0 Z "/>
</g>
<g  style="stroke:#00FF00;stroke-width:0.1;" >
<path d="M266.00003 318.51996 L276.00003 318.51996 L266.00003 318.51996 Z "/>
</g>
<g  style="stroke:#00FF00;stroke-width:0.1;" >
<path d="M266.00003 366.03998 L276.00003 366.03998 L266.00003 366.03998 Z "/>
</g>
<g  style="stroke:#00FF00;stroke-width:0.1;" >
<path d="M266.0 413.56 L276.0 413.56 L266.0 413.56 Z "/>
</g>
<g  style="stroke:#00FF00;stroke-width:0.1;" >
<path d="M266.0 461.08 L276.0 461.08 L266.0 461.08 Z "/>
</g>
<g  style="stroke:#00FF00;stroke-width:0.1;" >
<path d="M269.00003 275.75198 L273.00003 275.75198 L269.00003 275.75198 Z "/>
</g>
<g  style="stroke:#00FF00;stroke-width:0.1;" >
<path d="M269.00003 280.50397 L273.00003 280.50397 L269.00003 280.50397 Z "/>
</g>
<g  style="stroke:#00FF00;stroke-width:0.1;" >
<path d="M269.00003 285.25598 L273.00003 285.25598 L269.00003 285.25598 Z "/>
</g>
<g  style="stroke:#00FF00;stroke-width:0.1;" >
<path d="M269.00003 290.00797 L273.00003 290.00797 L269.00003 290.00797 Z "/>
</g>
<g  style="stroke:#00FF00;stroke-width:0.1;" >
<path d="M269.00003 294.75995 L273.00003 294.75995 L269.00003 294.75995 Z "/>
</g>
<g  style="stroke:#00FF00;stroke-width:0.1;" >
<path d="M269.00003 299.51196 L273.00003 299.51196 L269.00003 299.51196 Z "/>
</g>
<g  style="stroke:#00FF00;stroke-width:0.1;" >
<path d="M269.00003 304.26398 L273.00003 304.26398 L269.00003 304.26398 Z "/>
</g>
<g  style="stroke:#00FF00;stroke-width:0.1;" >
<path d="M269.00003 309.01596 L273.00003 309.01596 L269.00003 309.01596 Z "/>
</g>
<g  style="stroke:#00FF00;stroke-width:0.1;" >
<path d="M269.00003 313.76797 L273.00003 313.76797 L269.00003 313.76797 Z "/>
</g>
<g  style="stroke:#00FF00;stroke-width:0.1;" >
<path d="M269.00003 323.27197 L273.00003 323.27197 L269.00003 323.27197 Z "/>
</g>
<g  style="stroke:#00FF00;stroke-width:0.1;" >
<path d="M269.00003 328.024 L273.00003 328.024 L269.00003 328.024 Z "/>
</g>
<g  style="stroke:#00FF00;stroke-width:0.1;" >
<path d="M269.00003 332.77597 L273.00003 332.77597 L269.00003 332.77597 Z "/>
</g>
<g  style="stroke:#00FF00;stroke-width:0.1;" >
<path d="M269.00003 337.52795 L273.00003 337.52795 L269.00003 337.52795 Z "/>
</g>
<g  style="stroke:#00FF00;stroke-width:0.1;" >
<path d="M269.00003 342.27997 L273.00003 342.27997 L269.00003 342.27997 Z "/>
</g>
<g  style="stroke:#00FF00;stroke-width:0.1;" >
<path d="M269.00003 347.03198 L273.00003 347.03198 L269.00003 347.03198 Z "/>
</g>
<g  style="stroke:#00FF00;stroke-width:0.1;" >
<path d="M269.00003 351.78397 L273.00003 351.78397 L269.00003 351.78397 Z "/>
</g>
<g  style="stroke:#00FF00;stroke-width:0.1;" >
<path d="M269.00003 356.53595 L273.00003 356.53595 L269.00003 356.53595 Z "/>
</g>
<g  style="stroke:#00FF00;stroke-width:0.1;" >
<path d="M269.00003 361.28796 L273.00003 361.28796 L269.00003 361.28796 Z "/>
</g>
<g  style="stroke:#00FF00;stroke-width:0.1;" >
<path d="M269.0 370.79196 L273.0 370.79196 L269.0 370.79196 Z "/>
</g>
<g  style="stroke:#00FF00;stroke-width:0.1;" >
<path d="M269.0 375.54398 L273.0 375.54398 L269.0 375.54398 Z "/>
</g>
<g  style="stroke:#00FF00;stroke-width:0.1;" >
<path d="M269.0 380.29596 L273.0 380.29596 L269.0 380.29596 Z "/>
</g>
<g  style="stroke:#00FF00;stroke-width:0.1;" >
<path d="M269.0 385.04797 L273.0 385.04797 L269.0 385.04797 Z "/>
</g>
<g  style="stroke:#00FF00;stroke-width:0.1;" >
<path d="M269.0 389.8 L273.0 389.8 L269.0 389.8 Z "/>
</g>
<g  style="stroke:#00FF00;stroke-width:0.1;" >
<path d="M269.0 394.55197 L273.0 394.55197 L269.0 394.55197 Z "/>
</g>
<g  style="stroke:#00FF00;stroke-width:0.1;" >
<path d="M269.0 399.30396 L273.0 399.30396 L269.0 399.30396 Z "/>
</g>
<g  style="stroke:#00FF00;stroke-width:0.1;" >
<path d="M269.0 404.05597 L273.0 404.05597 L269.0 404.05597 Z "/>
</g>
<g  style="stroke:#00FF00;stroke-width:0.1;" >
<path d="M269.0 408.80798 L273.0 408.80798 L269.0 408.80798 Z "/>
</g>
<g  style="stroke:#00FF00;stroke-width:0.1;" >
<path d="M269.0 418.31198 L273.0 418.31198 L269.0 418.31198 Z "/>
</g>
<g  style="stroke:#00FF00;stroke-width:0.1;" >
<path d="M269.0 423.06396 L273.0 423.06396 L269.0 423.06396 Z "/>
</g>
<g  style="stroke:#00FF00;stroke-width:0.1;" >
<path d="M269.0 427.81598 L273.0 427.81598 L269.0 427.81598 Z "/>
</g>
<g  style="stroke:#00FF00;stroke-width:0.1;" >
<path d="M269.0 432.568 L273.0 432.568 L269.0 432.568 Z "/>
</g>
<g  style="stroke:#00FF00;stroke-width:0.1;" >
<path d="M269.0 437.31998 L273.0 437.31998 L269.0 437.31998 Z "/>
</g>
<g  style="stroke:#00FF00;stroke-width:0.1;" >
<path d="M269.0 442.07196 L273.0 442.07196 L269.0 442.07196 Z "/>
</g>
<g  style="stroke:#00FF00;stroke-width:0.1;" >
<path d="M269.0 446.82397 L273.0 446.82397 L269.0 446.82397 Z "/>
</g>
<g  style="stroke:#00FF00;stroke-width:0.1;" >
<path d="M269.0 451.576 L273.0 451.576 L269.0 451.576 Z "/>
</g>
<g  style="stroke:#00FF00;stroke-width:0.1;" >
<path d="M269.0 456.32797 L273.0 456.32797 L269.0 456.32797 Z "/>
</g>
<g  style="fill:#F6921E;stroke:#F6921E;stroke-width:0.1;" >
<path d="M539.5 542.0 L3.5 542.0 L1.0 541.0 L1.0 537.0 L1.0 533.0 L1.0 529.0 L1.0 525.0 L1.0 521.0 L1.0 517.0 L1.0 513.0 L1.0 509.0 L1.0 505.0 L1.0 501.0 L1.0 497.0 L1.0 493.0 L1.0 489.0 L1.0 485.0 L1.0 481.0 L1.0 477.0 L1.0 473.0 L1.0 469.0 L1.0 465.0 L1.0 461.0 L1.0 457.0 L1.0 453.0 L1.0 449.0 L1.0 445.0 L1.0 441.0 L1.0 437.0 L1.0 433.0 L1.0 429.0 L1.0 425.0 L1.0 421.0 L1.0 417.0 L1.0 413.0 L1.0 409.0 L1.0 405.0 L1.0 401.0 L1.0 397.0 L1.0 393.0 L1.0 389.0 L1.0 385.0 L1.0 381.0 L1.0 377.0 L1.0 373.0 L1.0 369.0 L1.0 365.0 L1.0 361.0 L1.0 357.0 L1.0 353.0 L1.0 349.0 L1.0 345.0 L1.0 341.0 L1.0 337.0 L1.0 333.0 L1.0 329.0 L1.0 325.0 L1.0 321.0 L1.0 317.0 L1.0 313.0 L1.0 309.0 L1.0 305.0 L1.0 301.0 L1.0 297.0 L1.0 293.0 L1.0 289.0 L1.0 285.0 L1.0 281.0 L1.0 277.0 L1.0 273.0 L1.0 269.0 L1.0 265.0 L1.0 261.0 L1.0 257.0 L1.0 253.0 L1.0 249.0 L1.0 245.0 L1.0 241.0 L1.0 237.0 L1.0 233.0 L1.0 229.0 L1.0 225.0 L1.0 221.0 L1.0 217.0 L1.0 213.0 L1.0 209.0 L1.0 205.0 L1.0 201.0 L1.0 197.0 L1.0 193.0 L1.0 189.0 L1.0 185.0 L1.0 181.0 L1.0 177.0 L1.0 173.0 L1.0 169.0 L1.0 165.0 L1.0 161.0 L1.0 157.0 L1.0 153.0 L1.0 149.0 L1.0 145.0 L1.0 141.0 L1.0 137.0 L1.0 133.0 L1.0 129.0 L1.0 125.0 L1.0 121.0 L1.0 117.0 L1.0 113.0 L1.0 109.0 L1.0 105.0 L1.0 101.0 L1.0 97.0 L1.0 93.0 L1.0 89.0 L1.0 85.0 L1.0 81.0 L1.0 77.0 L1.0 73.0 L1.0 69.0 L1.0 65.0 L1.0 61.0 L1.0 57.0 L1.0 53.0 L1.0 49.0 L1.0 45.0 L1.0 41.0 L1.0 37.0 L1.0 33.0 L1.0 29.0 L1.0 25.0 L1.0 21.0 L1.0 17.0 L1.0 13.0 L1.0 9.0 L1.0 5.0 L1.0 1.0 L542.0 1.0 L542.0 5.0 L542.0 9.0 L542.0 13.0 L542.0 17.0 L542.0 21.0 L542.0 25.0 L542.0 29.0 L542.0 33.0 L542.0 37.0 L542.0 41.0 L542.0 45.0 L542.0 49.0 L542.0 53.0 L542.0 57.0 L542.0 61.0 L542.0 65.0 L542.0 69.0 L542.0 73.0 L542.0 77.0 L542.0 81.0 L542.0 85.0 L542.0 89.0 L542.0 93.0 L542.0 97.0 L542.0 101.0 L542.0 105.0 L542.0 109.0 L542.0 113.0 L542.0 117.0 L542.0 121.0 L542.0 125.0 L542.0 129.0 L542.0 133.0 L542.0 137.0 L542.0 141.0 L542.0 145.0 L542.0 149.0 L542.0 153.0 L542.0 157.0 L542.0 161.0 L542.0 165.0 L542.0 169.0 L542.0 173.0 L542.0 177.0 L542.0 181.0 L542.0 185.0 L542.0 189.0 L542.0 193.0 L542.0 197.0 L542.0 201.0 L542.0 205.0 L542.0 209.0 L542.0 213.0 L542.0 217.0 L542.0 221.0 L542.0 225.0 L542.0 229.0 L542.0 233.0 L542.0 237.0 L542.0 241.0 L542.0 245.0 L542.0 249.0 L542.0 253.0 L542.0 257.0 L542.0 261.0 L542.0 265.0 L542.0 269.0 L542.0 273.0 L542.0 277.0 L542.0 281.0 L542.0 285.0 L542.0 289.0 L542.0 293.0 L542.0 297.0 L542.0 301.0 L542.0 305.0 L542.0 309.0 L542.0 313.0 L542.0 317.0 L542.0 321.0 L542.0 325.0 L542.0 329.0 L542.0 333.0 L542.0 337.0 L542.0 341.0 L542.0 345.0 L542.0 349.0 L542.0 353.0 L542.0 357.0 L542.0 361.0 L542.0 365.0 L542.0 369.0 L542.0 373.0 L542.0 377.0 L542.0 381.0 L542.0 385.0 L542.0 389.0 L542.0 393.0 L542.0 397.0 L542.0 401.0 L542.0 405.0 L542.0 409.0 L542.0 413.0 L542.0 417.0 L542.0 421.0 L542.0 425.0 L542.0 429.0 L542.0 433.0 L542.0 437.0 L542.0 441.0 L542.0 445.0 L542.0 449.0 L542.0 453.0 L542.0 457.0 L542.0 461.0 L542.0 465.0 L542.0 469.0 L542.0 473.0 L542.0 477.0 L542.0 481.0 L542.0 485.0 L542.0 489.0 L542.0 493.0 L542.0 497.0 L542.0 501.0 L542.0 505.0 L542.0 509.0 L542.0 513.0 L542.0 517.0 L542.0 521.0 L542.0 525.0 L542.0 529.0 L542.0 533.0 L542.0 537.0 L542.0 541.0 L539.5 542.0 Z M528.0 525.5 L528.0 521.5 L528.0 517.5 L528.0 513.5 L528.0 509.5 L528.0 505.5 L528.0 501.5 L528.0 497.5 L528.0 493.5 L528.0 489.5 L528.0 485.5 L528.0 481.5 L528.0 477.5 L528.0 473.5 L528.0 469.5 L528.0 465.5 L528.0 461.5 L528.0 457.5 L528.0 453.5 L528.0 449.5 L528.0 445.5 L528.0 441.5 L528.0 437.5 L528.0 433.5 L528.0 429.5 L528.0 425.5 L528.0 421.5 L528.0 417.5 L528.0 413.5 L528.0 409.5 L528.0 405.5 L528.0 401.5 L528.0 397.5 L528.0 393.5 L528.0 389.5 L528.0 385.5 L528.0 381.5 L528.0 377.5 L528.0 373.5 L528.0 369.5 L528.0 365.5 L528.0 361.5 L528.0 357.5 L528.0 353.5 L528.0 349.5 L528.0 345.5 L528.0 341.5 L528.0 337.5 L528.0 333.5 L528.0 329.5 L528.0 325.5 L528.0 321.5 L528.0 317.5 L528.0 313.5 L528.0 309.5 L528.0 305.5 L528.0 301.5 L528.0 297.5 L528.0 293.5 L528.0 289.5 L528.0 285.5 L528.0 281.5 L528.0 277.5 L528.0 273.5 L528.0 269.5 L528.0 265.5 L528.0 261.5 L528.0 257.5 L528.0 253.5 L528.0 249.5 L528.0 245.5 L528.0 241.5 L528.0 237.5 L528.0 233.5 L528.0 229.5 L528.0 225.5 L528.0 221.5 L528.0 217.5 L528.0 213.5 L528.0 209.5 L528.0 205.5 L528.0 201.5 L528.0 197.5 L528.0 193.5 L528.0 189.5 L528.0 185.5 L528.0 181.5 L528.0 177.5 L528.0 173.5 L528.0 169.5 L528.0 165.5 L528.0 161.5 L528.0 157.5 L528.0 153.5 L528.0 149.5 L528.0 145.5 L528.0 141.5 L528.0 137.5 L528.0 133.5 L528.0 129.5 L528.0 125.5 L528.0 121.5 L528.0 117.5 L528.0 113.5 L528.0 109.5 L528.0 105.5 L528.0 101.5 L528.0 97.5 L528.0 93.5 L528.0 89.5 L528.0 85.5 L528.0 81.5 L528.0 77.5 L528.0 73.5 L528.0 69.5 L528.0 65.5 L528.0 61.5 L528.0 57.5 L528.0 53.5 L528.0 49.5 L528.0 45.5 L528.0 41.5 L528.0 37.5 L528.0 33.5 L528.0 29.5 L528.0 25.5 L528.0 21.5 L528.0 17.5 L527.0 15.0 L15.0 15.0 L15.0 528.0 L527.0 528.0 L528.0 525.5 Z "/>
</g>
<g  style="stroke:#FF0000;stroke-width:0.1;" >
<path d="M257.56497 284.43503 L189.77997 352.22003 L257.56497 284.43503 Z "/>
</g>
<g  style="stroke:#00FF00;stroke-width:0.1;" >
<path d="M233.86275 301.06616 L240.93382 308.1372 L233.86275 301.06616 Z "/>
</g>
<g  style="stroke:#00FF00;stroke-width:0.1;" >
<path d="M200.26102 334.66785 L207.33209 341.73892 L200.26102 334.66785 Z "/>
</g>
<g  style="stroke:#00FF00;stroke-width:0.1;" >
<path d="M266.2256 272.94592 L269.05402 275.77435 L266.2256 272.94592 Z "/>
</g>
<g  style="stroke:#00FF00;stroke-width:0.1;" >
<path d="M262.86545 276.3061 L265.69388 279.13452 L262.86545 276.3061 Z "/>
</g>
<g  style="stroke:#00FF00;stroke-width:0.1;" >
<path d="M259.50525 279.66626 L262.33368 282.4947 L259.50525 279.66626 Z "/>
</g>
<g  style="stroke:#00FF00;stroke-width:0.1;" >
<path d="M256.1451 283.02643 L258.97354 285.85486 L256.1451 283.02643 Z "/>
</g>
<g  style="stroke:#00FF00;stroke-width:0.1;" >
<path d="M252.78493 286.3866 L255.61336 289.21503 L252.78493 286.3866 Z "/>
</g>
<g  style="stroke:#00FF00;stroke-width:0.1;" >
<path d="M249.42476 289.74677 L252.25319 292.5752 L249.42476 289.74677 Z "/>
</g>
<g  style="stroke:#00FF00;stroke-width:0.1;" >
<path d="M246.06458 293.10693 L248.893 295.93536 L246.06458 293.10693 Z "/>
</g>
<g  style="stroke:#00FF00;stroke-width:0.1;" >
<path d="M242.70442 296.4671 L245.53285 299.29553 L242.70442 296.4671 Z "/>
</g>
<g  style="stroke:#00FF00;stroke-width:0.1;" >
<path d="M239.34424 299.8273 L242.17267 302.65573 L239.34424 299.8273 Z "/>
</g>
<g  style="stroke:#00FF00;stroke-width:0.1;" >
<path d="M232.6239 306.54764 L235.45233 309.37607 L232.6239 306.54764 Z "/>
</g>
<g  style="stroke:#00FF00;stroke-width:0.1;" >
<path d="M229.26373 309.9078 L232.09216 312.73624 L229.26373 309.9078 Z "/>
</g>
<g  style="stroke:#00FF00;stroke-width:0.1;" >
<path d="M225.90355 313.26797 L228.73198 316.0964 L225.90355 313.26797 Z "/>
</g>
<g  style="stroke:#00FF00;stroke-width:0.1;" >
<path d="M222.54338 316.62814 L225.37181 319.45657 L222.54338 316.62814 Z "/>
</g>
<g  style="stroke:#00FF00;stroke-width:0.1;" >
<path d="M219.18321 319.9883 L222.01164 322.81674 L219.18321 319.9883 Z "/>
</g>
<g  style="stroke:#00FF00;stroke-width:0.1;" >
<path d="M215.82304 323.34848 L218.65147 326.1769 L215.82304 323.34848 Z "/>
</g>
<g  style="stroke:#00FF00;stroke-width:0.1;" >
<path d="M212.46288 326.70865 L215.2913 329.53708 L212.46288 326.70865 Z "/>
</g>
<g  style="stroke:#00FF00;stroke-width:0.1;" >
<path d="M209.10269 330.06882 L211.93112 332.89725 L209.10269 330.06882 Z "/>
</g>
<g  style="stroke:#00FF00;stroke-width:0.1;" >
<path d="M205.74252 333.429 L208.57095 336.25742 L205.74252 333.429 Z "/>
</g>
<g  style="stroke:#00FF00;stroke-width:0.1;" >
<path d="M199.02219 340.14932 L201.85062 342.97775 L199.02219 340.14932 Z "/>
</g>
<g  style="stroke:#00FF00;stroke-width:0.1;" >
<path d="M195.662 343.50952 L198.49043 346.33795 L195.662 343.50952 Z "/>
</g>
<g  style="stroke:#00FF00;stroke-width:0.1;" >
<path d="M192.30185 346.8697 L195.13028 349.69812 L192.30185 346.8697 Z "/>
</g>
<g  style="stroke:#00FF00;stroke-width:0.1;" >
<path d="M188.94165 350.22986 L191.77008 353.0583 L188.94165 350.22986 Z "/>
</g>
<g  style="fill:#F6921E;stroke:#F6921E;stroke-width:0.1;" >
<path d="M539.5 542.0 L3.5 542.0 L1.0 541.0 L1.0 537.0 L1.0 533.0 L1.0 529.0 L1.0 525.0 L1.0 521.0 L1.0 517.0 L1.0 513.0 L1.0 509.0 L1.0 505.0 L1.0 501.0 L1.0 497.0 L1.0 493.0 L1.0 489.0 L1.0 485.0 L1.0 481.0 L1.0 477.0 L1.0 473.0 L1.0 469.0 L1.0 465.0 L1.0 461.0 L1.0 457.0 L1.0 453.0 L1.0 449.0 L1.0 445.0 L1.0 441.0 L1.0 437.0 L1.0 433.0 L1.0 429.0 L1.0 425.0 L1.0 421.0 L1.0 417.0 L1.0 413.0 L1.0 409.0 L1.0 405.0 L1.0 401.0 L1.0 397.0 L1.0 393.0 L1.0 389.0 L1.0 385.0 L1.0 381.0 L1.0 377.0 L1.0 373.0 L1.0 369.0 L1.0 365.0 L1.0 361.0 L1.0 357.0 L1.0 353.0 L1.0 349.0 L1.0 345.0 L1.0 341.0 L1.0 337.0 L1.0 333.0 L1.0 329.0 L1.0 325.0 L1.0 321.0 L1.0 317.0 L1.0 313.0 L1.0 309.0 L1.0 305.0 L1.0 301.0 L1.0 297.0 L1.0 293.0 L1.0 289.0 L1.0 285.0 L1.0 281.0 L1.0 277.0 L1.0 273.0 L1.0 269.0 L1.0 265.0 L1.0 261.0 L1.0 257.0 L1.0 253.0 L1.0 249.0 L1.0 245.0 L1.0 241.0 L1.0 237.0 L1.0 233.0 L1.0 229.0 L1.0 225.0 L1.0 221.0 L1.0 217.0 L1.0 213.0 L1.0 209.0 L1.0 205.0 L1.0 201.0 L1.0 197.0 L1.0 193.0 L1.0 189.0 L1.0 185.0 L1.0 181.0 L1.0 177.0 L1.0 173.0 L1.0 169.0 L1.0 165.0 L1.0 161.0 L1.0 157.0 L1.0 153.0 L1.0 149.0 L1.0 145.0 L1.0 141.0 L1.0 137.0 L1.0 133.0 L1.0 129.0 L1.0 125.0 L1.0 121.0 L1.0 117.0 L1.0 113.0 L1.0 109.0 L1.0 105.0 L1.0 101.0 L1.0 97.0 L1.0 93.0 L1.0 89.0 L1.0 85.0 L1.0 81.0 L1.0 77.0 L1.0 73.0 L1.0 69.0 L1.0 65.0 L1.0 61.0 L1.0 57.0 L1.0 53.0 L1.0 49.0 L1.0 45.0 L1.0 41.0 L1.0 37.0 L1.0 33.0 L1.0 29.0 L1.0 25.0 L1.0 21.0 L1.0 17.0 L1.0 13.0 L1.0 9.0 L1.0 5.0 L1.0 1.0 L542.0 1.0 L542.0 5.0 L542.0 9.0 L542.0 13.0 L542.0 17.0 L542.0 21.0 L542.0 25.0 L542.0 29.0 L542.0 33.0 L542.0 37.0 L542.0 41.0 L542.0 45.0 L542.0 49.0 L542.0 53.0 L542.0 57.0 L542.0 61.0 L542.0 65.0 L542.0 69.0 L542.0 73.0 L542.0 77.0 L542.0 81.0 L542.0 85.0 L542.0 89.0 L542.0 93.0 L542.0 97.0 L542.0 101.0 L542.0 105.0 L542.0 109.0 L542.0 113.0 L542.0 117.0 L542.0 121.0 L542.0 125.0 L542.0 129.0 L542.0 133.0 L542.0 137.0 L542.0 141.0 L542.0 145.0 L542.0 149.0 L542.0 153.0 L542.0 157.0 L542.0 161.0 L542.0 165.0 L542.0 169.0 L542.0 173.0 L542.0 177.0 L542.0 181.0 L542.0 185.0 L542.0 189.0 L542.0 193.0 L542.0 197.0 L542.0 201.0 L542.0 205.0 L542.0 209.0 L542.0 213.0 L542.0 217.0 L542.0 221.0 L542.0 225.0 L542.0 229.0 L542.0 233.0 L542.0 237.0 L542.0 241.0 L542.0 245.0 L542.0 249.0 L542.0 253.0 L542.0 257.0 L542.0 261.0 L542.0 265.0 L542.0 269.0 L542.0 273.0 L542.0 277.0 L542.0 281.0 L542.0 285.0 L542.0 289.0 L542.0 293.0 L542.0 297.0 L542.0 301.0 L542.0 305.0 L542.0 309.0 L542.0 313.0 L542.0 317.0 L542.0 321.0 L542.0 325.0 L542.0 329.0 L542.0 333.0 L542.0 337.0 L542.0 341.0 L542.0 345.0 L542.0 349.0 L542.0 353.0 L542.0 357.0 L542.0 361.0 L542.0 365.0 L542.0 369.0 L542.0 373.0 L542.0 377.0 L542.0 381.0 L542.0 385.0 L542.0 389.0 L542.0 393.0 L542.0 397.0 L542.0 401.0 L542.0 405.0 L542.0 409.0 L542.0 413.0 L542.0 417.0 L542.0 421.0 L542.0 425.0 L542.0 429.0 L542.0 433.0 L542.0 437.0 L542.0 441.0 L542.0 445.0 L542.0 449.0 L542.0 453.0 L542.0 457.0 L542.0 461.0 L542.0 465.0 L542.0 469.0 L542.0 473.0 L542.0 477.0 L542.0 481.0 L542.0 485.0 L542.0 489.0 L542.0 493.0 L542.0 497.0 L542.0 501.0 L542.0 505.0 L542.0 509.0 L542.0 513.0 L542.0 517.0 L542.0 521.0 L542.0 525.0 L542.0 529.0 L542.0 533.0 L542.0 537.0 L542.0 541.0 L539.5 542.0 Z M528.0 525.5 L528.0 521.5 L528.0 517.5 L528.0 513.5 L528.0 509.5 L528.0 505.5 L528.0 501.5 L528.0 497.5 L528.0 493.5 L528.0 489.5 L528.0 485.5 L528.0 481.5 L528.0 477.5 L528.0 473.5 L528.0 469.5 L528.0 465.5 L528.0 461.5 L528.0 457.5 L528.0 453.5 L528.0 449.5 L528.0 445.5 L528.0 441.5 L528.0 437.5 L528.0 433.5 L528.0 429.5 L528.0 425.5 L528.0 421.5 L528.0 417.5 L528.0 413.5 L528.0 409.5 L528.0 405.5 L528.0 401.5 L528.0 397.5 L528.0 393.5 L528.0 389.5 L528.0 385.5 L528.0 381.5 L528.0 377.5 L528.0 373.5 L528.0 369.5 L528.0 365.5 L528.0 361.5 L528.0 357.5 L528.0 353.5 L528.0 349.5 L528.0 345.5 L528.0 341.5 L528.0 337.5 L528.0 333.5 L528.0 329.5 L528.0 325.5 L528.0 321.5 L528.0 317.5 L528.0 313.5 L528.0 309.5 L528.0 305.5 L528.0 301.5 L528.0 297.5 L528.0 293.5 L528.0 289.5 L528.0 285.5 L528.0 281.5 L528.0 277.5 L528.0 273.5 L528.0 269.5 L528.0 265.5 L528.0 261.5 L528.0 257.5 L528.0 253.5 L528.0 249.5 L528.0 245.5 L528.0 241.5 L528.0 237.5 L528.0 233.5 L528.0 229.5 L528.0 225.5 L528.0 221.5 L528.0 217.5 L528.0 213.5 L528.0 209.5 L528.0 205.5 L528.0 201.5 L528.0 197.5 L528.0 193.5 L528.0 189.5 L528.0 185.5 L528.0 181.5 L528.0 177.5 L528.0 173.5 L528.0 169.5 L528.0 165.5 L528.0 161.5 L528.0 157.5 L528.0 153.5 L528.0 149.5 L528.0 145.5 L528.0 141.5 L528.0 137.5 L528.0 133.5 L528.0 129.5 L528.0 125.5 L528.0 121.5 L528.0 117.5 L528.0 113.5 L528.0 109.5 L528.0 105.5 L528.0 101.5 L528.0 97.5 L528.0 93.5 L528.0 89.5 L528.0 85.5 L528.0 81.5 L528.0 77.5 L528.0 73.5 L528.0 69.5 L528.0 65.5 L528.0 61.5 L528.0 57.5 L528.0 53.5 L528.0 49.5 L528.0 45.5 L528.0 41.5 L528.0 37.5 L528.0 33.5 L528.0 29.5 L528.0 25.5 L528.0 21.5 L528.0 17.5 L527.0 15.0 L15.0 15.0 L15.0 528.0 L527.0 528.0 L528.0 525.5 Z "/>
</g>
<g  style="stroke:#FF0000;stroke-width:0.1;" >
<path d="M252.0 271.0 L112.55536 271.0 L252.0 271.0 Z "/>
</g>
<g  style="stroke:#00FF00;stroke-width:0.1;" >
<path d="M223.48 266.0 L223.48 276.0 L223.48 266.0 Z "/>
</g>
<g  style="stroke:#00FF00;stroke-width:0.1;" >
<path d="M175.95999 266.0 L175.95999 276.0 L175.95999 266.0 Z "/>
</g>
<g  style="stroke:#00FF00;stroke-width:0.1;" >
<path d="M128.43999 266.0 L128.43999 276.0 L128.43999 266.0 Z "/>
</g>
<g  style="stroke:#00FF00;stroke-width:0.1;" >
<path d="M266.248 269.0 L266.248 273.0 L266.248 269.0 Z "/>
</g>
<g  style="stroke:#00FF00;stroke-width:0.1;" >
<path d="M261.496 269.0 L261.496 273.0 L261.496 269.0 Z "/>
</g>
<g  style="stroke:#00FF00;stroke-width:0.1;" >
<path d="M256.744 269.0 L256.744 273.0 L256.744 269.0 Z "/>
</g>
<g  style="stroke:#00FF00;stroke-width:0.1;" >
<path d="M251.992 269.0 L251.992 273.0 L251.992 269.0 Z "/>
</g>
<g  style="stroke:#00FF00;stroke-width:0.1;" >
<path d="M247.24 269.0 L247.24 273.0 L247.24 269.0 Z "/>
</g>
<g  style="stroke:#00FF00;stroke-width:0.1;" >
<path d="M242.488 269.0 L242.488 273.0 L242.488 269.0 Z "/>
</g>
<g  style="stroke:#00FF00;stroke-width:0.1;" >
<path d="M237.736 269.0 L237.736 273.0 L237.736 269.0 Z "/>
</g>
<g  style="stroke:#00FF00;stroke-width:0.1;" >
<path d="M232.98401 269.0 L232.98401 273.0 L232.98401 269.0 Z "/>
</g>
<g  style="stroke:#00FF00;stroke-width:0.1;" >
<path d="M228.232 269.0 L228.232 273.0 L228.232 269.0 Z "/>
</g>
<g  style="stroke:#00FF00;stroke-width:0.1;" >
<path d="M218.728 269.0 L218.728 273.0 L218.728 269.0 Z "/>
</g>
<g  style="stroke:#00FF00;stroke-width:0.1;" >
<path d="M213.976 269.0 L213.976 273.0 L213.976 269.0 Z "/>
</g>
<g  style="stroke:#00FF00;stroke-width:0.1;" >
<path d="M209.224 269.0 L209.224 273.0 L209.224 269.0 Z "/>
</g>
<g  style="stroke:#00FF00;stroke-width:0.1;" >
<path d="M204.472 269.0 L204.472 273.0 L204.472 269.0 Z "/>
</g>
<g  style="stroke:#00FF00;stroke-width:0.1;" >
<path d="M199.72 269.0 L199.72 273.0 L199.72 269.0 Z "/>
</g>
<g  style="stroke:#00FF00;stroke-width:0.1;" >
<path d="M194.968 269.0 L194.968 273.0 L194.968 269.0 Z "/>
</g>
<g  style="stroke:#00FF00;stroke-width:0.1;" >
<path d="M190.216 269.0 L190.216 273.0 L190.216 269.0 Z "/>
</g>
<g  style="stroke:#00FF00;stroke-width:0.1;" >
<path d="M185.464 269.0 L185.464 273.0 L185.464 269.0 Z "/>
</g>
<g  style="stroke:#00FF00;stroke-width:0.1;" >
<path d="M180.712 269.0 L180.712 273.0 L180.712 269.0 Z "/>
</g>
<g  style="stroke:#00FF00;stroke-width:0.1;" >
<path d="M171.20801 269.0 L171.20801 273.0 L171.20801 269.0 Z "/>
</g>
<g  style="stroke:#00FF00;stroke-width:0.1;" >
<path d="M166.456 269.0 L166.456 273.0 L166.456 269.0 Z "/>
</g>
<g  style="stroke:#00FF00;stroke-width:0.1;" >
<path d="M161.70401 269.0 L161.70401 273.0 L161.70401 269.0 Z "/>
</g>
<g  style="stroke:#00FF00;stroke-width:0.1;" >
<path d="M156.952 269.0 L156.952 273.0 L156.952 269.0 Z "/>
</g>
<g  style="stroke:#00FF00;stroke-width:0.1;" >
<path d="M152.2 269.0 L152.2 273.0 L152.2 269.0 Z "/>
</g>
<g  style="stroke:#00FF00;stroke-width:0.1;" >
<path d="M147.448 269.0 L147.448 273.0 L147.448 269.0 Z "/>
</g>
<g  style="stroke:#00FF00;stroke-width:0.1;" >
<path d="M142.696 269.0 L142.696 273.0 L142.696 269.0 Z "/>
</g>
<g  style="stroke:#00FF00;stroke-width:0.1;" >
<path d="M137.944 269.0 L137.944 273.0 L137.944 269.0 Z "/>
</g>
<g  style="stroke:#00FF00;stroke-width:0.1;" >
<path d="M133.192 269.0 L133.192 273.0 L133.192 269.0 Z "/>
</g>
<g  style="stroke:#00FF00;stroke-width:0.1;" >
<path d="M123.68799 269.0 L123.68799 273.0 L123.68799 269.0 Z "/>
</g>
<g  style="stroke:#00FF00;stroke-width:0.1;" >
<path d="M118.936005 269.0 L118.936005 273.0 L118.936005 269.0 Z "/>
</g>
<g  style="stroke:#00FF00;stroke-width:0.1;" >
<path d="M114.184006 269.0 L114.184006 273.0 L114.184006 269.0 Z "/>
</g>
<g  style="fill:#F6921E;stroke:#F6921E;stroke-width:0.1;" >
<path d="M539.5 542.0 L3.5 542.0 L1.0 541.0 L1.0 537.0 L1.0 533.0 L1.0 529.0 L1.0 525.0 L1.0 521.0 L1.0 517.0 L1.0 513.0 L1.0 509.0 L1.0 505.0 L1.0 501.0 L1.0 497.0 L1.0 493.0 L1.0 489.0 L1.0 485.0 L1.0 481.0 L1.0 477.0 L1.0 473.0 L1.0 469.0 L1.0 465.0 L1.0 461.0 L1.0 457.0 L1.0 453.0 L1.0 449.0 L1.0 445.0 L1.0 441.0 L1.0 437.0 L1.0 433.0 L1.0 429.0 L1.0 425.0 L1.0 421.0 L1.0 417.0 L1.0 413.0 L1.0 409.0 L1.0 405.0 L1.0 401.0 L1.0 397.0 L1.0 393.0 L1.0 389.0 L1.0 385.0 L1.0 381.0 L1.0 377.0 L1.0 373.0 L1.0 369.0 L1.0 365.0 L1.0 361.0 L1.0 357.0 L1.0 353.0 L1.0 349.0 L1.0 345.0 L1.0 341.0 L1.0 337.0 L1.0 333.0 L1.0 329.0 L1.0 325.0 L1.0 321.0 L1.0 317.0 L1.0 313.0 L1.0 309.0 L1.0 305.0 L1.0 301.0 L1.0 297.0 L1.0 293.0 L1.0 289.0 L1.0 285.0 L1.0 281.0 L1.0 277.0 L1.0 273.0 L1.0 269.0 L1.0 265.0 L1.0 261.0 L1.0 257.0 L1.0 253.0 L1.0 249.0 L1.0 245.0 L1.0 241.0 L1.0 237.0 L1.0 233.0 L1.0 229.0 L1.0 225.0 L1.0 221.0 L1.0 217.0 L1.0 213.0 L1.0 209.0 L1.0 205.0 L1.0 201.0 L1.0 197.0 L1.0 193.0 L1.0 189.0 L1.0 185.0 L1.0 181.0 L1.0 177.0 L1.0 173.0 L1.0 169.0 L1.0 165.0 L1.0 161.0 L1.0 157.0 L1.0 153.0 L1.0 149.0 L1.0 145.0 L1.0 141.0 L1.0 137.0 L1.0 133.0 L1.0 129.0 L1.0 125.0 L1.0 121.0 L1.0 117.0 L1.0 113.0 L1.0 109.0 L1.0 105.0 L1.0 101.0 L1.0 97.0 L1.0 93.0 L1.0 89.0 L1.0 85.0 L1.0 81.0 L1.0 77.0 L1.0 73.0 L1.0 69.0 L1.0 65.0 L1.0 61.0 L1.0 57.0 L1.0 53.0 L1.0 49.0 L1.0 45.0 L1.0 41.0 L1.0 37.0 L1.0 33.0 L1.0 29.0 L1.0 25.0 L1.0 21.0 L1.0 17.0 L1.0 13.0 L1.0 9.0 L1.0 5.0 L1.0 1.0 L542.0 1.0 L542.0 5.0 L542.0 9.0 L542.0 13.0 L542.0 17.0 L542.0 21.0 L542.0 25.0 L542.0 29.0 L542.0 33.0 L542.0 37.0 L542.0 41.0 L542.0 45.0 L542.0 49.0 L542.0 53.0 L542.0 57.0 L542.0 61.0 L542.0 65.0 L542.0 69.0 L542.0 73.0 L542.0 77.0 L542.0 81.0 L542.0 85.0 L542.0 89.0 L542.0 93.0 L542.0 97.0 L542.0 101.0 L542.0 105.0 L542.0 109.0 L542.0 113.0 L542.0 117.0 L542.0 121.0 L542.0 125.0 L542.0 129.0 L542.0 133.0 L542.0 137.0 L542.0 141.0 L542.0 145.0 L542.0 149.0 L542.0 153.0 L542.0 157.0 L542.0 161.0 L542.0 165.0 L542.0 169.0 L542.0 173.0 L542.0 177.0 L542.0 181.0 L542.0 185.0 L542.0 189.0 L542.0 193.0 L542.0 197.0 L542.0 201.0 L542.0 205.0 L542.0 209.0 L542.0 213.0 L542.0 217.0 L542.0 221.0 L542.0 225.0 L542.0 229.0 L542.0 233.0 L542.0 237.0 L542.0 241.0 L542.0 245.0 L542.0 249.0 L542.0 253.0 L542.0 257.0 L542.0 261.0 L542.0 265.0 L542.0 269.0 L542.0 273.0 L542.0 277.0 L542.0 281.0 L542.0 285.0 L542.0 289.0 L542.0 293.0 L542.0 297.0 L542.0 301.0 L542.0 305.0 L542.0 309.0 L542.0 313.0 L542.0 317.0 L542.0 321.0 L542.0 325.0 L542.0 329.0 L542.0 333.0 L542.0 337.0 L542.0 341.0 L542.0 345.0 L542.0 349.0 L542.0 353.0 L542.0 357.0 L542.0 361.0 L542.0 365.0 L542.0 369.0 L542.0 373.0 L542.0 377.0 L542.0 381.0 L542.0 385.0 L542.0 389.0 L542.0 393.0 L542.0 397.0 L542.0 401.0 L542.0 405.0 L542.0 409.0 L542.0 413.0 L542.0 417.0 L542.0 421.0 L542.0 425.0 L542.0 429.0 L542.0 433.0 L542.0 437.0 L542.0 441.0 L542.0 445.0 L542.0 449.0 L542.0 453.0 L542.0 457.0 L542.0 461.0 L542.0 465.0 L542.0 469.0 L542.0 473.0 L542.0 477.0 L542.0 481.0 L542.0 485.0 L542.0 489.0 L542.0 493.0 L542.0 497.0 L542.0 501.0 L542.0 505.0 L542.0 509.0 L542.0 513.0 L542.0 517.0 L542.0 521.0 L542.0 525.0 L542.0 529.0 L542.0 533.0 L542.0 537.0 L542.0 541.0 L539.5 542.0 Z M528.0 525.5 L528.0 521.5 L528.0 517.5 L528.0 513.5 L528.0 509.5 L528.0 505.5 L528.0 501.5 L528.0 497.5 L528.0 493.5 L528.0 489.5 L528.0 485.5 L528.0 481.5 L528.0 477.5 L528.0 473.5 L528.0 469.5 L528.0 465.5 L528.0 461.5 L528.0 457.5 L528.0 453.5 L528.0 449.5 L528.0 445.5 L528.0 441.5 L528.0 437.5 L528.0 433.5 L528.0 429.5 L528.0 425.5 L528.0 421.5 L528.0 417.5 L528.0 413.5 L528.0 409.5 L528.0 405.5 L528.0 401.5 L528.0 397.5 L528.0 393.5 L528.0 389.5 L528.0 385.5 L528.0 381.5 L528.0 377.5 L528.0 373.5 L528.0 369.5 L528.0 365.5 L528.0 361.5 L528.0 357.5 L528.0 353.5 L528.0 349.5 L528.0 345.5 L528.0 341.5 L528.0 337.5 L528.0 333.5 L528.0 329.5 L528.0 325.5 L528.0 321.5 L528.0 317.5 L528.0 313.5 L528.0 309.5 L528.0 305.5 L528.0 301.5 L528.0 297.5 L528.0 293.5 L528.0 289.5 L528.0 285.5 L528.0 281.5 L528.0 277.5 L528.0 273.5 L528.0 269.5 L528.0 265.5 L528.0 261.5 L528.0 257.5 L528.0 253.5 L528.0 249.5 L528.0 245.5 L528.0 241.5 L528.0 237.5 L528.0 233.5 L528.0 229.5 L528.0 225.5 L528.0 221.5 L528.0 217.5 L528.0 213.5 L528.0 209.5 L528.0 205.5 L528.0 201.5 L528.0 197.5 L528.0 193.5 L528.0 189.5 L528.0 185.5 L528.0 181.5 L528.0 177.5 L528.0 173.5 L528.0 169.5 L528.0 165.5 L528.0 161.5 L528.0 157.5 L528.0 153.5 L528.0 149.5 L528.0 145.5 L528.0 141.5 L528.0 137.5 L528.0 133.5 L528.0 129.5 L528.0 125.5 L528.0 121.5 L528.0 117.5 L528.0 113.5 L528.0 109.5 L528.0 105.5 L528.0 101.5 L528.0 97.5 L528.0 93.5 L528.0 89.5 L528.0 85.5 L528.0 81.5 L528.0 77.5 L528.0 73.5 L528.0 69.5 L528.0 65.5 L528.0 61.5 L528.0 57.5 L528.0 53.5 L528.0 49.5 L528.0 45.5 L528.0 41.5 L528.0 37.5 L528.0 33.5 L528.0 29.5 L528.0 25.5 L528.0 21.5 L528.0 17.5 L527.0 15.0 L15.0 15.0 L15.0 528.0 L527.0 528.0 L528.0 525.5 Z "/>
</g>
<g  style="stroke:#FF0000;stroke-width:0.1;" >
<path d="M257.56497 257.56497 L136.35638 136.35632 L257.56497 257.56497 Z "/>
</g>
<g  style="stroke:#00FF00;stroke-width:0.1;" >
<path d="M240.93384 233.86275 L233.86276 240.93382 L240.93384 233.86275 Z "/>
</g>
<g  style="stroke:#00FF00;stroke-width:0.1;" >
<path d="M207.33212 200.26102 L200.26108 207.33209 L207.33212 200.26102 Z "/>
</g>
<g  style="stroke:#00FF00;stroke-width:0.1;" >
<path d="M173.73044 166.65929 L166.65936 173.73036 L173.73044 166.65929 Z "/>
</g>
<g  style="stroke:#00FF00;stroke-width:0.1;" >
<path d="M140.12872 133.05757 L133.05766 140.12865 L140.12872 133.05757 Z "/>
</g>
<g  style="stroke:#00FF00;stroke-width:0.1;" >
<path d="M269.05405 266.22562 L266.22562 269.05405 L269.05405 266.22562 Z "/>
</g>
<g  style="stroke:#00FF00;stroke-width:0.1;" >
<path d="M265.69388 262.86545 L262.86545 265.69388 L265.69388 262.86545 Z "/>
</g>
<g  style="stroke:#00FF00;stroke-width:0.1;" >
<path d="M262.3337 259.50525 L259.50528 262.33368 L262.3337 259.50525 Z "/>
</g>
<g  style="stroke:#00FF00;stroke-width:0.1;" >
<path d="M258.97354 256.1451 L256.1451 258.97354 L258.97354 256.1451 Z "/>
</g>
<g  style="stroke:#00FF00;stroke-width:0.1;" >
<path d="M255.61337 252.78493 L252.78494 255.61336 L255.61337 252.78493 Z "/>
</g>
<g  style="stroke:#00FF00;stroke-width:0.1;" >
<path d="M252.2532 249.42476 L249.42477 252.25319 L252.2532 249.42476 Z "/>
</g>
<g  style="stroke:#00FF00;stroke-width:0.1;" >
<path d="M248.89304 246.06458 L246.0646 248.893 L248.89304 246.06458 Z "/>
</g>
<g  style="stroke:#00FF00;stroke-width:0.1;" >
<path d="M245.53287 242.70442 L242.70444 245.53285 L245.53287 242.70442 Z "/>
</g>
<g  style="stroke:#00FF00;stroke-width:0.1;" >
<path d="M242.1727 239.34424 L239.34427 242.17267 L242.1727 239.34424 Z "/>
</g>
<g  style="stroke:#00FF00;stroke-width:0.1;" >
<path d="M235.45236 232.62389 L232.62393 235.45232 L235.45236 232.62389 Z "/>
</g>
<g  style="stroke:#00FF00;stroke-width:0.1;" >
<path d="M232.0922 229.26372 L229.26376 232.09215 L232.0922 229.26372 Z "/>
</g>
<g  style="stroke:#00FF00;stroke-width:0.1;" >
<path d="M228.732 225.90355 L225.9036 228.73198 L228.732 225.90355 Z "/>
</g>
<g  style="stroke:#00FF00;stroke-width:0.1;" >
<path d="M225.37183 222.54338 L222.54343 225.37181 L225.37183 222.54338 Z "/>
</g>
<g  style="stroke:#00FF00;stroke-width:0.1;" >
<path d="M222.01166 219.18321 L219.18326 222.01164 L222.01166 219.18321 Z "/>
</g>
<g  style="stroke:#00FF00;stroke-width:0.1;" >
<path d="M218.65149 215.82303 L215.82309 218.65146 L218.65149 215.82303 Z "/>
</g>
<g  style="stroke:#00FF00;stroke-width:0.1;" >
<path d="M215.29132 212.46286 L212.46292 215.29129 L215.29132 212.46286 Z "/>
</g>
<g  style="stroke:#00FF00;stroke-width:0.1;" >
<path d="M211.93115 209.10269 L209.10275 211.93112 L211.93115 209.10269 Z "/>
</g>
<g  style="stroke:#00FF00;stroke-width:0.1;" >
<path d="M208.57098 205.74252 L205.74258 208.57095 L208.57098 205.74252 Z "/>
</g>
<g  style="stroke:#00FF00;stroke-width:0.1;" >
<path d="M201.85065 199.02219 L199.02225 201.85062 L201.85065 199.02219 Z "/>
</g>
<g  style="stroke:#00FF00;stroke-width:0.1;" >
<path d="M198.49045 195.66199 L195.66205 198.49042 L198.49045 195.66199 Z "/>
</g>
<g  style="stroke:#00FF00;stroke-width:0.1;" >
<path d="M195.13031 192.30183 L192.30191 195.13026 L195.13031 192.30183 Z "/>
</g>
<g  style="stroke:#00FF00;stroke-width:0.1;" >
<path d="M191.77011 188.94165 L188.94171 191.77008 L191.77011 188.94165 Z "/>
</g>
<g  style="stroke:#00FF00;stroke-width:0.1;" >
<path d="M188.40994 185.58148 L185.58154 188.40991 L188.40994 185.58148 Z "/>
</g>
<g  style="stroke:#00FF00;stroke-width:0.1;" >
<path d="M185.04977 182.22131 L182.22137 185.04974 L185.04977 182.22131 Z "/>
</g>
<g  style="stroke:#00FF00;stroke-width:0.1;" >
<path d="M181.6896 178.86115 L178.8612 181.68958 L181.6896 178.86115 Z "/>
</g>
<g  style="stroke:#00FF00;stroke-width:0.1;" >
<path d="M178.32944 175.50096 L175.50104 178.32939 L178.32944 175.50096 Z "/>
</g>
<g  style="stroke:#00FF00;stroke-width:0.1;" >
<path d="M174.96927 172.1408 L172.14087 174.96922 L174.96927 172.1408 Z "/>
</g>
<g  style="stroke:#00FF00;stroke-width:0.1;" >
<path d="M168.24893 165.42044 L165.4205 168.24887 L168.24893 165.42044 Z "/>
</g>
<g  style="stroke:#00FF00;stroke-width:0.1;" >
<path d="M164.88876 162.06027 L162.06036 164.8887 L164.88876 162.06027 Z "/>
</g>
<g  style="stroke:#00FF00;stroke-width:0.1;" >
<path d="M161.5286 158.7001 L158.7002 161.52853 L161.5286 158.7001 Z "/>
</g>
<g  style="stroke:#00FF00;stroke-width:0.1;" >
<path d="M158.16843 155.33992 L155.34 158.16835 L158.16843 155.33992 Z "/>
</g>
<g  style="stroke:#00FF00;stroke-width:0.1;" >
<path d="M154.80826 151.97975 L151.97983 154.80818 L154.80826 151.97975 Z "/>
</g>
<g  style="stroke:#00FF00;stroke-width:0.1;" >
<path d="M151.44809 148.6196 L148.61966 151.44803 L151.44809 148.6196 Z "/>
</g>
<g  style="stroke:#00FF00;stroke-width:0.1;" >
<path d="M148.08792 145.2594 L145.25949 148.08783 L148.08792 145.2594 Z "/>
</g>
<g  style="stroke:#00FF00;stroke-width:0.1;" >
<path d="M144.72775 141.89923 L141.89932 144.72766 L144.72775 141.89923 Z "/>
</g>
<g  style="stroke:#00FF00;stroke-width:0.1;" >
<path d="M141.36757 138.53906 L138.53915 141.3675 L141.36757 138.53906 Z "/>
</g>
<g  style="fill:#F6921E;stroke:#F6921E;stroke-width:0.1;" >
<path d="M539.5 542.0 L3.5 542.0 L1.0 541.0 L1.0 537.0 L1.0 533.0 L1.0 529.0 L1.0 525.0 L1.0 521.0 L1.0 517.0 L1.0 513.0 L1.0 509.0 L1.0 505.0 L1.0 501.0 L1.0 497.0 L1.0 493.0 L1.0 489.0 L1.0 485.0 L1.0 481.0 L1.0 477.0 L1.0 473.0 L1.0 469.0 L1.0 465.0 L1.0 461.0 L1.0 457.0 L1.0 453.0 L1.0 449.0 L1.0 445.0 L1.0 441.0 L1.0 437.0 L1.0 433.0 L1.0 429.0 L1.0 425.0 L1.0 421.0 L1.0 417.0 L1.0 413.0 L1.0 409.0 L1.0 405.0 L1.0 401.0 L1.0 397.0 L1.0 393.0 L1.0 389.0 L1.0 385.0 L1.0 381.0 L1.0 377.0 L1.0 373.0 L1.0 369.0 L1.0 365.0 L1.0 361.0 L1.0 357.0 L1.0 353.0 L1.0 349.0 L1.0 345.0 L1.0 341.0 L1.0 337.0 L1.0 333.0 L1.0 329.0 L1.0 325.0 L1.0 321.0 L1.0 317.0 L1.0 313.0 L1.0 309.0 L1.0 305.0 L1.0 301.0 L1.0 297.0 L1.0 293.0 L1.0 289.0 L1.0 285.0 L1.0 281.0 L1.0 277.0 L1.0 273.0 L1.0 269.0 L1.0 265.0 L1.0 261.0 L1.0 257.0 L1.0 253.0 L1.0 249.0 L1.0 245.0 L1.0 241.0 L1.0 237.0 L1.0 233.0 L1.0 229.0 L1.0 225.0 L1.0 221.0 L1.0 217.0 L1.0 213.0 L1.0 209.0 L1.0 205.0 L1.0 201.0 L1.0 197.0 L1.0 193.0 L1.0 189.0 L1.0 185.0 L1.0 181.0 L1.0 177.0 L1.0 173.0 L1.0 169.0 L1.0 165.0 L1.0 161.0 L1.0 157.0 L1.0 153.0 L1.0 149.0 L1.0 145.0 L1.0 141.0 L1.0 137.0 L1.0 133.0 L1.0 129.0 L1.0 125.0 L1.0 121.0 L1.0 117.0 L1.0 113.0 L1.0 109.0 L1.0 105.0 L1.0 101.0 L1.0 97.0 L1.0 93.0 L1.0 89.0 L1.0 85.0 L1.0 81.0 L1.0 77.0 L1.0 73.0 L1.0 69.0 L1.0 65.0 L1.0 61.0 L1.0 57.0 L1.0 53.0 L1.0 49.0 L1.0 45.0 L1.0 41.0 L1.0 37.0 L1.0 33.0 L1.0 29.0 L1.0 25.0 L1.0 21.0 L1.0 17.0 L1.0 13.0 L1.0 9.0 L1.0 5.0 L1.0 1.0 L542.0 1.0 L542.0 5.0 L542.0 9.0 L542.0 13.0 L542.0 17.0 L542.0 21.0 L542.0 25.0 L542.0 29.0 L542.0 33.0 L542.0 37.0 L542.0 41.0 L542.0 45.0 L542.0 49.0 L542.0 53.0 L542.0 57.0 L542.0 61.0 L542.0 65.0 L542.0 69.0 L542.0 73.0 L542.0 77.0 L542.0 81.0 L542.0 85.0 L542.0 89.0 L542.0 93.0 L542.0 97.0 L542.0 101.0 L542.0 105.0 L542.0 109.0 L542.0 113.0 L542.0 117.0 L542.0 121.0 L542.0 125.0 L542.0 129.0 L542.0 133.0 L542.0 137.0 L542.0 141.0 L542.0 145.0 L542.0 149.0 L542.0 153.0 L542.0 157.0 L542.0 161.0 L542.0 165.0 L542.0 169.0 L542.0 173.0 L542.0 177.0 L542.0 181.0 L542.0 185.0 L542.0 189.0 L542.0 193.0 L542.0 197.0 L542.0 201.0 L542.0 205.0 L542.0 209.0 L542.0 213.0 L542.0 217.0 L542.0 221.0 L542.0 225.0 L542.0 229.0 L542.0 233.0 L542.0 237.0 L542.0 241.0 L542.0 245.0 L542.0 249.0 L542.0 253.0 L542.0 257.0 L542.0 261.0 L542.0 265.0 L542.0 269.0 L542.0 273.0 L542.0 277.0 L542.0 281.0 L542.0 285.0 L542.0 289.0 L542.0 293.0 L542.0 297.0 L542.0 301.0 L542.0 305.0 L542.0 309.0 L542.0 313.0 L542.0 317.0 L542.0 321.0 L542.0 325.0 L542.0 329.0 L542.0 333.0 L542.0 337.0 L542.0 341.0 L542.0 345.0 L542.0 349.0 L542.0 353.0 L542.0 357.0 L542.0 361.0 L542.0 365.0 L542.0 369.0 L542.0 373.0 L542.0 377.0 L542.0 381.0 L542.0 385.0 L542.0 389.0 L542.0 393.0 L542.0 397.0 L542.0 401.0 L542.0 405.0 L542.0 409.0 L542.0 413.0 L542.0 417.0 L542.0 421.0 L542.0 425.0 L542.0 429.0 L542.0 433.0 L542.0 437.0 L542.0 441.0 L542.0 445.0 L542.0 449.0 L542.0 453.0 L542.0 457.0 L542.0 461.0 L542.0 465.0 L542.0 469.0 L542.0 473.0 L542.0 477.0 L542.0 481.0 L542.0 485.0 L542.0 489.0 L542.0 493.0 L542.0 497.0 L542.0 501.0 L542.0 505.0 L542.0 509.0 L542.0 513.0 L542.0 517.0 L542.0 521.0 L542.0 525.0 L542.0 529.0 L542.0 533.0 L542.0 537.0 L542.0 541.0 L539.5 542.0 Z M528.0 525.5 L528.0 521.5 L528.0 517.5 L528.0 513.5 L528.0 509.5 L528.0 505.5 L528.0 501.5 L528.0 497.5 L528.0 493.5 L528.0 489.5 L528.0 485.5 L528.0 481.5 L528.0 477.5 L528.0 473.5 L528.0 469.5 L528.0 465.5 L528.0 461.5 L528.0 457.5 L528.0 453.5 L528.0 449.5 L528.0 445.5 L528.0 441.5 L528.0 437.5 L528.0 433.5 L528.0 429.5 L528.0 425.5 L528.0 421.5 L528.0 417.5 L528.0 413.5 L528.0 409.5 L528.0 405.5 L528.0 401.5 L528.0 397.5 L528.0 393.5 L528.0 389.5 L528.0 385.5 L528.0 381.5 L528.0 377.5 L528.0 373.5 L528.0 369.5 L528.0 365.5 L528.0 361.5 L528.0 357.5 L528.0 353.5 L528.0 349.5 L528.0 345.5 L528.0 341.5 L528.0 337.5 L528.0 333.5 L528.0 329.5 L528.0 325.5 L528.0 321.5 L528.0 317.5 L528.0 313.5 L528.0 309.5 L528.0 305.5 L528.0 301.5 L528.0 297.5 L528.0 293.5 L528.0 289.5 L528.0 285.5 L528.0 281.5 L528.0 277.5 L528.0 273.5 L528.0 269.5 L528.0 265.5 L528.0 261.5 L528.0 257.5 L528.0 253.5 L528.0 249.5 L528.0 245.5 L528.0 241.5 L528.0 237.5 L528.0 233.5 L528.0 229.5 L528.0 225.5 L528.0 221.5 L528.0 217.5 L528.0 213.5 L528.0 209.5 L528.0 205.5 L528.0 201.5 L528.0 197.5 L528.0 193.5 L528.0 189.5 L528.0 185.5 L528.0 181.5 L528.0 177.5 L528.0 173.5 L528.0 169.5 L528.0 165.5 L528.0 161.5 L528.0 157.5 L528.0 153.5 L528.0 149.5 L528.0 145.5 L528.0 141.5 L528.0 137.5 L528.0 133.5 L528.0 129.5 L528.0 125.5 L528.0 121.5 L528.0 117.5 L528.0 113.5 L528.0 109.5 L528.0 105.5 L528.0 101.5 L528.0 97.5 L528.0 93.5 L528.0 89.5 L528.0 85.5 L528.0 81.5 L528.0 77.5 L528.0 73.5 L528.0 69.5 L528.0 65.5 L528.0 61.5 L528.0 57.5 L528.0 53.5 L528.0 49.5 L528.0 45.5 L528.0 41.5 L528.0 37.5 L528.0 33.5 L528.0 29.5 L528.0 25.5 L528.0 21.5 L528.0 17.5 L527.0 15.0 L15.0 15.0 L15.0 528.0 L527.0 528.0 L528.0 525.5 Z "/>
</g>
<g  style="stroke:#FF0000;stroke-width:0.1;" >
<path d="M271.0 252.0 L271.0 192.32236 L271.0 252.0 Z "/>
</g>
<g  style="stroke:#00FF00;stroke-width:0.1;" >
<path d="M276.00003 223.47998 L266.00003 223.47998 L276.00003 223.47998 Z "/>
</g>
<g  style="stroke:#00FF00;stroke-width:0.1;" >
<path d="M273.0 266.248 L269.0 266.248 L273.0 266.248 Z "/>
</g>
<g  style="stroke:#00FF00;stroke-width:0.1;" >
<path d="M273.00003 261.496 L269.00003 261.496 L273.00003 261.496 Z "/>
</g>
<g  style="stroke:#00FF00;stroke-width:0.1;" >
<path d="M273.00003 256.744 L269.00003 256.744 L273.00003 256.744 Z "/>
</g>
<g  style="stroke:#00FF00;stroke-width:0.1;" >
<path d="M273.00003 251.99199 L269.00003 251.99199 L273.00003 251.99199 Z "/>
</g>
<g  style="stroke:#00FF00;stroke-width:0.1;" >
<path d="M273.00003 247.23999 L269.00003 247.23999 L273.00003 247.23999 Z "/>
</g>
<g  style="stroke:#00FF00;stroke-width:0.1;" >
<path d="M273.00003 242.48799 L269.00003 242.48799 L273.00003 242.48799 Z "/>
</g>
<g  style="stroke:#00FF00;stroke-width:0.1;" >
<path d="M273.00003 237.73598 L269.00003 237.73598 L273.00003 237.73598 Z "/>
</g>
<g  style="stroke:#00FF00;stroke-width:0.1;" >
<path d="M273.00003 232.984 L269.00003 232.984 L273.00003 232.984 Z "/>
</g>
<g  style="stroke:#00FF00;stroke-width:0.1;" >
<path d="M273.00003 228.23198 L269.00003 228.23198 L273.00003 228.23198 Z "/>
</g>
<g  style="stroke:#00FF00;stroke-width:0.1;" >
<path d="M273.00003 218.72798 L269.00003 218.72798 L273.00003 218.72798 Z "/>
</g>
<g  style="stroke:#00FF00;stroke-width:0.1;" >
<path d="M273.00003 213.97598 L269.00003 213.97598 L273.00003 213.97598 Z "/>
</g>
<g  style="stroke:#00FF00;stroke-width:0.1;" >
<path d="M273.00003 209.22398 L269.00003 209.22398 L273.00003 209.22398 Z "/>
</g>
<g  style="stroke:#00FF00;stroke-width:0.1;" >
<path d="M273.00003 204.47198 L269.00003 204.47198 L273.00003 204.47198 Z "/>
</g>
<g  style="stroke:#00FF00;stroke-width:0.1;" >
<path d="M273.00003 199.71999 L269.00003 199.71999 L273.00003 199.71999 Z "/>
</g>
<g  style="stroke:#00FF00;stroke-width:0.1;" >
<path d="M273.00003 194.96799 L269.00003 194.96799 L273.00003 194.96799 Z "/>
</g>
<g  style="fill:#F6921E;stroke:#F6921E;stroke-width:0.1;" >
<path d="M539.5 542.0 L3.5 542.0 L1.0 541.0 L1.0 537.0 L1.0 533.0 L1.0 529.0 L1.0 525.0 L1.0 521.0 L1.0 517.0 L1.0 513.0 L1.0 509.0 L1.0 505.0 L1.0 501.0 L1.0 497.0 L1.0 493.0 L1.0 489.0 L1.0 485.0 L1.0 481.0 L1.0 477.0 L1.0 473.0 L1.0 469.0 L1.0 465.0 L1.0 461.0 L1.0 457.0 L1.0 453.0 L1.0 449.0 L1.0 445.0 L1.0 441.0 L1.0 437.0 L1.0 433.0 L1.0 429.0 L1.0 425.0 L1.0 421.0 L1.0 417.0 L1.0 413.0 L1.0 409.0 L1.0 405.0 L1.0 401.0 L1.0 397.0 L1.0 393.0 L1.0 389.0 L1.0 385.0 L1.0 381.0 L1.0 377.0 L1.0 373.0 L1.0 369.0 L1.0 365.0 L1.0 361.0 L1.0 357.0 L1.0 353.0 L1.0 349.0 L1.0 345.0 L1.0 341.0 L1.0 337.0 L1.0 333.0 L1.0 329.0 L1.0 325.0 L1.0 321.0 L1.0 317.0 L1.0 313.0 L1.0 309.0 L1.0 305.0 L1.0 301.0 L1.0 297.0 L1.0 293.0 L1.0 289.0 L1.0 285.0 L1.0 281.0 L1.0 277.0 L1.0 273.0 L1.0 269.0 L1.0 265.0 L1.0 261.0 L1.0 257.0 L1.0 253.0 L1.0 249.0 L1.0 245.0 L1.0 241.0 L1.0 237.0 L1.0 233.0 L1.0 229.0 L1.0 225.0 L1.0 221.0 L1.0 217.0 L1.0 213.0 L1.0 209.0 L1.0 205.0 L1.0 201.0 L1.0 197.0 L1.0 193.0 L1.0 189.0 L1.0 185.0 L1.0 181.0 L1.0 177.0 L1.0 173.0 L1.0 169.0 L1.0 165.0 L1.0 161.0 L1.0 157.0 L1.0 153.0 L1.0 149.0 L1.0 145.0 L1.0 141.0 L1.0 137.0 L1.0 133.0 L1.0 129.0 L1.0 125.0 L1.0 121.0 L1.0 117.0 L1.0 113.0 L1.0 109.0 L1.0 105.0 L1.0 101.0 L1.0 97.0 L1.0 93.0 L1.0 89.0 L1.0 85.0 L1.0 81.0 L1.0 77.0 L1.0 73.0 L1.0 69.0 L1.0 65.0 L1.0 61.0 L1.0 57.0 L1.0 53.0 L1.0 49.0 L1.0 45.0 L1.0 41.0 L1.0 37.0 L1.0 33.0 L1.0 29.0 L1.0 25.0 L1.0 21.0 L1.0 17.0 L1.0 13.0 L1.0 9.0 L1.0 5.0 L1.0 1.0 L542.0 1.0 L542.0 5.0 L542.0 9.0 L542.0 13.0 L542.0 17.0 L542.0 21.0 L542.0 25.0 L542.0 29.0 L542.0 33.0 L542.0 37.0 L542.0 41.0 L542.0 45.0 L542.0 49.0 L542.0 53.0 L542.0 57.0 L542.0 61.0 L542.0 65.0 L542.0 69.0 L542.0 73.0 L542.0 77.0 L542.0 81.0 L542.0 85.0 L542.0 89.0 L542.0 93.0 L542.0 97.0 L542.0 101.0 L542.0 105.0 L542.0 109.0 L542.0 113.0 L542.0 117.0 L542.0 121.0 L542.0 125.0 L542.0 129.0 L542.0 133.0 L542.0 137.0 L542.0 141.0 L542.0 145.0 L542.0 149.0 L542.0 153.0 L542.0 157.0 L542.0 161.0 L542.0 165.0 L542.0 169.0 L542.0 173.0 L542.0 177.0 L542.0 181.0 L542.0 185.0 L542.0 189.0 L542.0 193.0 L542.0 197.0 L542.0 201.0 L542.0 205.0 L542.0 209.0 L542.0 213.0 L542.0 217.0 L542.0 221.0 L542.0 225.0 L542.0 229.0 L542.0 233.0 L542.0 237.0 L542.0 241.0 L542.0 245.0 L542.0 249.0 L542.0 253.0 L542.0 257.0 L542.0 261.0 L542.0 265.0 L542.0 269.0 L542.0 273.0 L542.0 277.0 L542.0 281.0 L542.0 285.0 L542.0 289.0 L542.0 293.0 L542.0 297.0 L542.0 301.0 L542.0 305.0 L542.0 309.0 L542.0 313.0 L542.0 317.0 L542.0 321.0 L542.0 325.0 L542.0 329.0 L542.0 333.0 L542.0 337.0 L542.0 341.0 L542.0 345.0 L542.0 349.0 L542.0 353.0 L542.0 357.0 L542.0 361.0 L542.0 365.0 L542.0 369.0 L542.0 373.0 L542.0 377.0 L542.0 381.0 L542.0 385.0 L542.0 389.0 L542.0 393.0 L542.0 397.0 L542.0 401.0 L542.0 405.0 L542.0 409.0 L542.0 413.0 L542.0 417.0 L542.0 421.0 L542.0 425.0 L542.0 429.0 L542.0 433.0 L542.0 437.0 L542.0 441.0 L542.0 445.0 L542.0 449.0 L542.0 453.0 L542.0 457.0 L542.0 461.0 L542.0 465.0 L542.0 469.0 L542.0 473.0 L542.0 477.0 L542.0 481.0 L542.0 485.0 L542.0 489.0 L542.0 493.0 L542.0 497.0 L542.0 501.0 L542.0 505.0 L542.0 509.0 L542.0 513.0 L542.0 517.0 L542.0 521.0 L542.0 525.0 L542.0 529.0 L542.0 533.0 L542.0 537.0 L542.0 541.0 L539.5 542.0 Z M528.0 525.5 L528.0 521.5 L528.0 517.5 L528.0 513.5 L528.0 509.5 L528.0 505.5 L528.0 501.5 L528.0 497.5 L528.0 493.5 L528.0 489.5 L528.0 485.5 L528.0 481.5 L528.0 477.5 L528.0 473.5 L528.0 469.5 L528.0 465.5 L528.0 461.5 L528.0 457.5 L528.0 453.5 L528.0 449.5 L528.0 445.5 L528.0 441.5 L528.0 437.5 L528.0 433.5 L528.0 429.5 L528.0 425.5 L528.0 421.5 L528.0 417.5 L528.0 413.5 L528.0 409.5 L528.0 405.5 L528.0 401.5 L528.0 397.5 L528.0 393.5 L528.0 389.5 L528.0 385.5 L528.0 381.5 L528.0 377.5 L528.0 373.5 L528.0 369.5 L528.0 365.5 L528.0 361.5 L528.0 357.5 L528.0 353.5 L528.0 349.5 L528.0 345.5 L528.0 341.5 L528.0 337.5 L528.0 333.5 L528.0 329.5 L528.0 325.5 L528.0 321.5 L528.0 317.5 L528.0 313.5 L528.0 309.5 L528.0 305.5 L528.0 301.5 L528.0 297.5 L528.0 293.5 L528.0 289.5 L528.0 285.5 L528.0 281.5 L528.0 277.5 L528.0 273.5 L528.0 269.5 L528.0 265.5 L528.0 261.5 L528.0 257.5 L528.0 253.5 L528.0 249.5 L528.0 245.5 L528.0 241.5 L528.0 237.5 L528.0 233.5 L528.0 229.5 L528.0 225.5 L528.0 221.5 L528.0 217.5 L528.0 213.5 L528.0 209.5 L528.0 205.5 L528.0 201.5 L528.0 197.5 L528.0 193.5 L528.0 189.5 L528.0 185.5 L528.0 181.5 L528.0 177.5 L528.0 173.5 L528.0 169.5 L528.0 165.5 L528.0 161.5 L528.0 157.5 L528.0 153.5 L528.0 149.5 L528.0 145.5 L528.0 141.5 L528.0 137.5 L528.0 133.5 L528.0 129.5 L528.0 125.5 L528.0 121.5 L528.0 117.5 L528.0 113.5 L528.0 109.5 L528.0 105.5 L528.0 101.5 L528.0 97.5 L528.0 93.5 L528.0 89.5 L528.0 85.5 L528.0 81.5 L528.0 77.5 L528.0 73.5 L528.0 69.5 L528.0 65.5 L528.0 61.5 L528.0 57.5 L528.0 53.5 L528.0 49.5 L528.0 45.5 L528.0 41.5 L528.0 37.5 L528.0 33.5 L528.0 29.5 L528.0 25.5 L528.0 21.5 L528.0 17.5 L527.0 15.0 L15.0 15.0 L15.0 528.0 L527.0 528.0 L528.0 525.5 Z "/>
</g>
<g  style="stroke:#FF0000;stroke-width:0.1;" >
<path d="M284.43503 257.56497 L373.5548 168.44525 L284.43503 257.56497 Z "/>
</g>
<g  style="stroke:#00FF00;stroke-width:0.1;" >
<path d="M308.13727 240.9338 L301.06616 233.86276 L308.13727 240.9338 Z "/>
</g>
<g  style="stroke:#00FF00;stroke-width:0.1;" >
<path d="M341.73895 207.33212 L334.6679 200.26102 L341.73895 207.33212 Z "/>
</g>
<g  style="stroke:#00FF00;stroke-width:0.1;" >
<path d="M375.3407 173.73038 L368.2696 166.65933 L375.3407 173.73038 Z "/>
</g>
<g  style="stroke:#00FF00;stroke-width:0.1;" >
<path d="M275.7744 269.05405 L272.94598 266.22562 L275.7744 269.05405 Z "/>
</g>
<g  style="stroke:#00FF00;stroke-width:0.1;" >
<path d="M279.13455 265.69388 L276.30612 262.86545 L279.13455 265.69388 Z "/>
</g>
<g  style="stroke:#00FF00;stroke-width:0.1;" >
<path d="M282.49475 262.3337 L279.66632 259.50528 L282.49475 262.3337 Z "/>
</g>
<g  style="stroke:#00FF00;stroke-width:0.1;" >
<path d="M285.8549 258.97354 L283.02646 256.1451 L285.8549 258.97354 Z "/>
</g>
<g  style="stroke:#00FF00;stroke-width:0.1;" >
<path d="M289.21506 255.61337 L286.38663 252.78494 L289.21506 255.61337 Z "/>
</g>
<g  style="stroke:#00FF00;stroke-width:0.1;" >
<path d="M292.57526 252.2532 L289.74683 249.42477 L292.57526 252.2532 Z "/>
</g>
<g  style="stroke:#00FF00;stroke-width:0.1;" >
<path d="M295.93542 248.89304 L293.107 246.0646 L295.93542 248.89304 Z "/>
</g>
<g  style="stroke:#00FF00;stroke-width:0.1;" >
<path d="M299.2956 245.53287 L296.46716 242.70444 L299.2956 245.53287 Z "/>
</g>
<g  style="stroke:#00FF00;stroke-width:0.1;" >
<path d="M302.65576 242.17267 L299.82733 239.34424 L302.65576 242.17267 Z "/>
</g>
<g  style="stroke:#00FF00;stroke-width:0.1;" >
<path d="M309.3761 235.45233 L306.54767 232.6239 L309.3761 235.45233 Z "/>
</g>
<g  style="stroke:#00FF00;stroke-width:0.1;" >
<path d="M312.73627 232.09216 L309.90784 229.26373 L312.73627 232.09216 Z "/>
</g>
<g  style="stroke:#00FF00;stroke-width:0.1;" >
<path d="M316.09644 228.732 L313.268 225.90356 L316.09644 228.732 Z "/>
</g>
<g  style="stroke:#00FF00;stroke-width:0.1;" >
<path d="M319.4566 225.37183 L316.62817 222.5434 L319.4566 225.37183 Z "/>
</g>
<g  style="stroke:#00FF00;stroke-width:0.1;" >
<path d="M322.81677 222.01163 L319.98834 219.1832 L322.81677 222.01163 Z "/>
</g>
<g  style="stroke:#00FF00;stroke-width:0.1;" >
<path d="M326.17694 218.65146 L323.3485 215.82303 L326.17694 218.65146 Z "/>
</g>
<g  style="stroke:#00FF00;stroke-width:0.1;" >
<path d="M329.5371 215.29129 L326.70868 212.46286 L329.5371 215.29129 Z "/>
</g>
<g  style="stroke:#00FF00;stroke-width:0.1;" >
<path d="M332.89728 211.93112 L330.06885 209.10269 L332.89728 211.93112 Z "/>
</g>
<g  style="stroke:#00FF00;stroke-width:0.1;" >
<path d="M336.25745 208.57095 L333.42902 205.74252 L336.25745 208.57095 Z "/>
</g>
<g  style="stroke:#00FF00;stroke-width:0.1;" >
<path d="M342.9778 201.85062 L340.14938 199.02219 L342.9778 201.85062 Z "/>
</g>
<g  style="stroke:#00FF00;stroke-width:0.1;" >
<path d="M346.33798 198.49045 L343.50955 195.66202 L346.33798 198.49045 Z "/>
</g>
<g  style="stroke:#00FF00;stroke-width:0.1;" >
<path d="M349.69815 195.13028 L346.86972 192.30185 L349.69815 195.13028 Z "/>
</g>
<g  style="stroke:#00FF00;stroke-width:0.1;" >
<path d="M353.05832 191.77011 L350.2299 188.94168 L353.05832 191.77011 Z "/>
</g>
<g  style="stroke:#00FF00;stroke-width:0.1;" >
<path d="M356.4185 188.40994 L353.59006 185.58151 L356.4185 188.40994 Z "/>
</g>
<g  style="stroke:#00FF00;stroke-width:0.1;" >
<path d="M359.7787 185.04977 L356.95026 182.22134 L359.7787 185.04977 Z "/>
</g>
<g  style="stroke:#00FF00;stroke-width:0.1;" >
<path d="M363.13885 181.6896 L360.31042 178.86118 L363.13885 181.6896 Z "/>
</g>
<g  style="stroke:#00FF00;stroke-width:0.1;" >
<path d="M366.49902 178.32944 L363.6706 175.501 L366.49902 178.32944 Z "/>
</g>
<g  style="stroke:#00FF00;stroke-width:0.1;" >
<path d="M369.8592 174.96927 L367.03076 172.14084 L369.8592 174.96927 Z "/>
</g>
<g  style="fill:#F6921E;stroke:#F6921E;stroke-width:0.1;" >
<path d="M539.5 542.0 L3.5 542.0 L1.0 541.0 L1.0 537.0 L1.0 533.0 L1.0 529.0 L1.0 525.0 L1.0 521.0 L1.0 517.0 L1.0 513.0 L1.0 509.0 L1.0 505.0 L1.0 501.0 L1.0 497.0 L1.0 493.0 L1.0 489.0 L1.0 485.0 L1.0 481.0 L1.0 477.0 L1.0 473.0 L1.0 469.0 L1.0 465.0 L1.0 461.0 L1.0 457.0 L1.0 453.0 L1.0 449.0 L1.0 445.0 L1.0 441.0 L1.0 437.0 L1.0 433.0 L1.0 429.0 L1.0 425.0 L1.0 421.0 L1.0 417.0 L1.0 413.0 L1.0 409.0 L1.0 405.0 L1.0 401.0 L1.0 397.0 L1.0 393.0 L1.0 389.0 L1.0 385.0 L1.0 381.0 L1.0 377.0 L1.0 373.0 L1.0 369.0 L1.0 365.0 L1.0 361.0 L1.0 357.0 L1.0 353.0 L1.0 349.0 L1.0 345.0 L1.0 341.0 L1.0 337.0 L1.0 333.0 L1.0 329.0 L1.0 325.0 L1.0 321.0 L1.0 317.0 L1.0 313.0 L1.0 309.0 L1.0 305.0 L1.0 301.0 L1.0 297.0 L1.0 293.0 L1.0 289.0 L1.0 285.0 L1.0 281.0 L1.0 277.0 L1.0 273.0 L1.0 269.0 L1.0 265.0 L1.0 261.0 L1.0 257.0 L1.0 253.0 L1.0 249.0 L1.0 245.0 L1.0 241.0 L1.0 237.0 L1.0 233.0 L1.0 229.0 L1.0 225.0 L1.0 221.0 L1.0 217.0 L1.0 213.0 L1.0 209.0 L1.0 205.0 L1.0 201.0 L1.0 197.0 L1.0 193.0 L1.0 189.0 L1.0 185.0 L1.0 181.0 L1.0 177.0 L1.0 173.0 L1.0 169.0 L1.0 165.0 L1.0 161.0 L1.0 157.0 L1.0 153.0 L1.0 149.0 L1.0 145.0 L1.0 141.0 L1.0 137.0 L1.0 133.0 L1.0 129.0 L1.0 125.0 L1.0 121.0 L1.0 117.0 L1.0 113.0 L1.0 109.0 L1.0 105.0 L1.0 101.0 L1.0 97.0 L1.0 93.0 L1.0 89.0 L1.0 85.0 L1.0 81.0 L1.0 77.0 L1.0 73.0 L1.0 69.0 L1.0 65.0 L1.0 61.0 L1.0 57.0 L1.0 53.0 L1.0 49.0 L1.0 45.0 L1.0 41.0 L1.0 37.0 L1.0 33.0 L1.0 29.0 L1.0 25.0 L1.0 21.0 L1.0 17.0 L1.0 13.0 L1.0 9.0 L1.0 5.0 L1.0 1.0 L542.0 1.0 L542.0 5.0 L542.0 9.0 L542.0 13.0 L542.0 17.0 L542.0 21.0 L542.0 25.0 L542.0 29.0 L542.0 33.0 L542.0 37.0 L542.0 41.0 L542.0 45.0 L542.0 49.0 L542.0 53.0 L542.0 57.0 L542.0 61.0 L542.0 65.0 L542.0 69.0 L542.0 73.0 L542.0 77.0 L542.0 81.0 L542.0 85.0 L542.0 89.0 L542.0 93.0 L542.0 97.0 L542.0 101.0 L542.0 105.0 L542.0 109.0 L542.0 113.0 L542.0 117.0 L542.0 121.0 L542.0 125.0 L542.0 129.0 L542.0 133.0 L542.0 137.0 L542.0 141.0 L542.0 145.0 L542.0 149.0 L542.0 153.0 L542.0 157.0 L542.0 161.0 L542.0 165.0 L542.0 169.0 L542.0 173.0 L542.0 177.0 L542.0 181.0 L542.0 185.0 L542.0 189.0 L542.0 193.0 L542.0 197.0 L542.0 201.0 L542.0 205.0 L542.0 209.0 L542.0 213.0 L542.0 217.0 L542.0 221.0 L542.0 225.0 L542.0 229.0 L542.0 233.0 L542.0 237.0 L542.0 241.0 L542.0 245.0 L542.0 249.0 L542.0 253.0 L542.0 257.0 L542.0 261.0 L542.0 265.0 L542.0 269.0 L542.0 273.0 L542.0 277.0 L542.0 281.0 L542.0 285.0 L542.0 289.0 L542.0 293.0 L542.0 297.0 L542.0 301.0 L542.0 305.0 L542.0 309.0 L542.0 313.0 L542.0 317.0 L542.0 321.0 L542.0 325.0 L542.0 329.0 L542.0 333.0 L542.0 337.0 L542.0 341.0 L542.0 345.0 L542.0 349.0 L542.0 353.0 L542.0 357.0 L542.0 361.0 L542.0 365.0 L542.0 369.0 L542.0 373.0 L542.0 377.0 L542.0 381.0 L542.0 385.0 L542.0 389.0 L542.0 393.0 L542.0 397.0 L542.0 401.0 L542.0 405.0 L542.0 409.0 L542.0 413.0 L542.0 417.0 L542.0 421.0 L542.0 425.0 L542.0 429.0 L542.0 433.0 L542.0 437.0 L542.0 441.0 L542.0 445.0 L542.0 449.0 L542.0 453.0 L542.0 457.0 L542.0 461.0 L542.0 465.0 L542.0 469.0 L542.0 473.0 L542.0 477.0 L542.0 481.0 L542.0 485.0 L542.0 489.0 L542.0 493.0 L542.0 497.0 L542.0 501.0 L542.0 505.0 L542.0 509.0 L542.0 513.0 L542.0 517.0 L542.0 521.0 L542.0 525.0 L542.0 529.0 L542.0 533.0 L542.0 537.0 L542.0 541.0 L539.5 542.0 Z M528.0 525.5 L528.0 521.5 L528.0 517.5 L528.0 513.5 L528.0 509.5 L528.0 505.5 L528.0 501.5 L528.0 497.5 L528.0 493.5 L528.0 489.5 L528.0 485.5 L528.0 481.5 L528.0 477.5 L528.0 473.5 L528.0 469.5 L528.0 465.5 L528.0 461.5 L528.0 457.5 L528.0 453.5 L528.0 449.5 L528.0 445.5 L528.0 441.5 L528.0 437.5 L528.0 433.5 L528.0 429.5 L528.0 425.5 L528.0 421.5 L528.0 417.5 L528.0 413.5 L528.0 409.5 L528.0 405.5 L528.0 401.5 L528.0 397.5 L528.0 393.5 L528.0 389.5 L528.0 385.5 L528.0 381.5 L528.0 377.5 L528.0 373.5 L528.0 369.5 L528.0 365.5 L528.0 361.5 L528.0 357.5 L528.0 353.5 L528.0 349.5 L528.0 345.5 L528.0 341.5 L528.0 337.5 L528.0 333.5 L528.0 329.5 L528.0 325.5 L528.0 321.5 L528.0 317.5 L528.0 313.5 L528.0 309.5 L528.0 305.5 L528.0 301.5 L528.0 297.5 L528.0 293.5 L528.0 289.5 L528.0 285.5 L528.0 281.5 L528.0 277.5 L528.0 273.5 L528.0 269.5 L528.0 265.5 L528.0 261.5 L528.0 257.5 L528.0 253.5 L528.0 249.5 L528.0 245.5 L528.0 241.5 L528.0 237.5 L528.0 233.5 L528.0 229.5 L528.0 225.5 L528.0 221.5 L528.0 217.5 L528.0 213.5 L528.0 209.5 L528.0 205.5 L528.0 201.5 L528.0 197.5 L528.0 193.5 L528.0 189.5 L528.0 185.5 L528.0 181.5 L528.0 177.5 L528.0 173.5 L528.0 169.5 L528.0 165.5 L528.0 161.5 L528.0 157.5 L528.0 153.5 L528.0 149.5 L528.0 145.5 L528.0 141.5 L528.0 137.5 L528.0 133.5 L528.0 129.5 L528.0 125.5 L528.0 121.5 L528.0 117.5 L528.0 113.5 L528.0 109.5 L528.0 105.5 L528.0 101.5 L528.0 97.5 L528.0 93.5 L528.0 89.5 L528.0 85.5 L528.0 81.5 L528.0 77.5 L528.0 73.5 L528.0 69.5 L528.0 65.5 L528.0 61.5 L528.0 57.5 L528.0 53.5 L528.0 49.5 L528.0 45.5 L528.0 41.5 L528.0 37.5 L528.0 33.5 L528.0 29.5 L528.0 25.5 L528.0 21.5 L528.0 17.5 L527.0 15.0 L15.0 15.0 L15.0 528.0 L527.0 528.0 L528.0 525.5 Z "/>
</g>
</g>
</svg>
