<?xml version="1.0" standalone="no"?>
<!DOCTYPE svg PUBLIC "-//W3C//DTD SVG 1.1//EN" "http://www.w3.org/Graphics/SVG/1.1/DTD/svg11.dtd">
<svg width="100%" height="100%" version="1.1" xmlns="http://www.w3.org/2000/svg">
<g  style="fill:#FCFCFC;stroke:#0000FF;stroke-width:0.1;" >
<path d="M323.64917 458.1471 L319.60547 458.1278 L315.56177 458.10852 L311.51807 458.08923 L307.47437 458.06995 L303.93613 458.05307 L299.89243 458.03378 L295.84872 458.0145 L292.35437 457.633 L288.38147 457.02997 L284.40857 456.42694 L280.43567 455.8239 L276.46277 455.2209 L272.48987 454.61786 L269.17053 453.5155 L265.5116 451.7616 L261.85266 450.0077 L258.19373 448.25378 L254.53485 446.49988 L251.95456 444.95956 L248.9498 442.30698 L245.94504 439.6544 L242.94028 437.0018 L239.93552 434.3492 L236.93076 431.69662 L234.6214 428.99283 L232.04266 425.83023 L229.46393 422.66763 L226.8852 419.50504 L224.30646 416.34244 L222.05006 413.57516 L220.06075 410.69107 L217.78694 407.39493 L215.51314 404.0988 L213.23933 400.80264 L210.96553 397.5065 L208.69173 394.21036 L206.71428 391.25748 L204.45451 387.88272 L202.19475 384.50797 L199.93498 381.1332 L197.67522 377.75845 L195.67407 374.8211 L193.2229 371.5733 L191.07812 368.73148 L188.62695 365.48367 L186.17578 362.23587 L183.72461 358.98807 L181.34958 356.3717 L178.5914 353.42493 L175.83322 350.47815 L173.07504 347.53137 L170.31686 344.5846 L168.14613 342.44873 L165.22475 339.6211 L162.30336 336.79346 L159.38197 333.96582 L156.46059 331.13818 L153.9069 328.6268 L150.99004 325.74057 L148.43777 323.21512 L145.5209 320.3289 L142.60403 317.44266 L140.21431 314.81058 L137.55782 311.7537 L134.90132 308.6968 L132.24483 305.63992 L129.9204 302.96515 L127.954 299.99878 L125.77474 296.5537 L123.59548 293.10864 L121.41622 289.66357 L119.72469 286.53925 L118.57172 283.14008 L117.25403 279.2553 L115.93634 275.37054 L114.61865 271.48578 L114.18094 268.00714 L113.8168 264.01666 L113.45267 260.02618 L113.08853 256.0357 L112.724396 252.04523 L112.65762 248.53764 L112.79721 244.51591 L112.9368 240.49419 L113.076385 236.47246 L113.21597 232.45073 L113.33811 228.93172 L113.51081 225.41711 L114.05543 221.42859 L114.600044 217.44006 L115.14466 213.45154 L115.68928 209.46301 L116.233894 205.47449 L116.77851 201.48596 L117.477684 198.04425 L118.46786 194.15167 L119.45803 190.2591 L120.448204 186.36652 L121.43838 182.47394 L122.42855 178.58136 L123.37596 175.20047 L125.01341 171.5087 L126.65086 167.81693 L128.28831 164.12515 L129.92577 160.43338 L131.56322 156.74161 L133.35178 154.3076 L136.11008 151.2849 L138.86838 148.26219 L141.62668 145.23949 L144.32849 143.13745 L148.24023 142.28528 L152.15198 141.4331 L156.06372 140.58093 L159.49492 140.03009 L163.47307 140.73505 L167.45122 141.44 L170.9321 142.05684 L174.91025 142.7618 L178.8884 143.46675 L182.23413 144.52681 L186.03198 145.82271 L189.82983 147.1186 L193.62769 148.4145 L197.42554 149.7104 L201.22339 151.0063 L204.51418 152.22786 L208.2477 153.6993 L211.98122 155.17073 L215.71474 156.64217 L219.44826 158.1136 L223.18178 159.58504 L226.9153 161.05647 L230.25911 162.27016 L234.08064 163.657 L237.90218 165.04384 L241.24602 166.25732 L245.06755 167.64417 L248.88908 169.031 L252.29126 170.00165 L256.22998 170.90216 L260.1687 171.80267 L264.10742 172.70319 L268.04614 173.6037 L271.50037 174.27303 L275.5033 174.2231 L279.50623 174.17317 L283.50916 174.12325 L287.5121 174.07332 L291.0099 173.95602 L294.97327 173.31577 L298.93665 172.6755 L302.90002 172.03525 L306.8634 171.39499 L310.33136 170.83476 L313.80188 170.10803 L317.76917 169.24585 L321.73645 168.38367 L325.70374 167.52148 L329.67102 166.6593 L333.1746 165.98077 L337.19388 165.2403 L340.71075 164.59238 L344.73004 163.8519 L348.74933 163.11142 L352.26453 163.03076 L356.28162 162.93872 L360.2987 162.84668 L363.8141 162.76633 L374.5829 167.4172 L376.38782 171.12985 L378.19275 174.8425 L379.5444 178.13898 L379.52805 182.23578 L379.51373 185.82048 L379.49738 189.91728 L379.23965 193.46451 L378.57437 197.46158 L377.9091 201.45865 L377.2438 205.45572 L376.57852 209.45279 L376.02502 212.47675 L375.28723 216.5086 L374.54944 220.54047 L373.81165 224.57233 L373.07385 228.60419 L372.7235 231.64986 L372.31067 235.71675 L371.89783 239.78365 L371.485 243.85054 L371.07214 247.91743 L370.97552 251.45412 L371.26752 255.46352 L371.5595 259.47302 L371.8515 263.48254 L372.1435 267.49207 L372.399 271.0004 L373.50137 274.33423 L374.7609 278.14478 L376.02042 281.95532 L377.27994 285.76587 L378.53946 289.57642 L379.79898 293.38696 L381.12732 296.6544 L382.83875 300.33286 L384.55017 304.01132 L386.2616 307.6898 L387.97302 311.36826 L389.68445 315.04672 L391.39587 318.7252 L392.89337 321.94385 L394.4281 325.11163 L396.1996 328.70758 L397.97107 332.30353 L399.74255 335.89948 L401.51404 339.49542 L403.28552 343.09137 L405.057 346.68732 L406.8285 350.28326 L408.34106 353.4546 L409.9629 357.15332 L411.58472 360.85205 L413.20654 364.55078 L414.82837 368.2495 L416.4502 371.94824 L418.07202 375.64697 L419.69385 379.3457 L420.91077 382.66885 L421.85925 386.1069 L422.94324 390.0361 L424.02722 393.9653 L425.1112 397.8945 L426.1952 401.8237 L427.27917 405.7529 L427.03296 409.2944 L426.5869 412.8538 L426.07715 416.92166 L425.56738 420.98953 L425.05762 425.0574 L422.4744 427.42896 L419.5225 430.1394 L416.5706 432.84985 L413.61868 435.5603 L410.66678 438.27075 L407.41498 439.61145 L403.6989 441.1432 L399.98285 442.67493 L396.26678 444.20667 L393.01523 445.54694 L389.29916 447.07867 L386.02042 448.33694 L382.08853 449.20853 L378.15665 450.0801 L374.22476 450.9517 L370.29288 451.82327 L366.361 452.69485 L362.4291 453.56644 L358.49722 454.43802 L355.03674 455.02686 L351.05286 455.43677 L347.06897 455.84668 L343.08508 456.2566 L339.1012 456.6665 L335.1173 457.07642 L331.13342 457.48633 L327.14954 457.89624 L323.64917 458.1471 Z M277.74 292.41278 L278.74802 289.84 L286.8149 289.84 L289.84 289.33615 L289.84 285.3027 L289.84 281.26926 L289.83987 277.74 L293.95633 277.74 L295.5 276.22513 L295.5 272.1851 L295.5 268.14505 L295.5 264.105 L292.41278 263.6 L289.84 262.59665 L289.84 258.58395 L289.84 254.57121 L289.84033 251.06 L277.74 251.06 L277.74 247.9727 L276.73013 245.4 L264.61002 245.4 L263.6 247.97275 L263.0982 251.05975 L259.0838 251.05817 L255.0694 251.05658 L251.055 251.055 L251.06 263.6 L246.42908 263.6 L245.4 266.12488 L245.4 270.16492 L245.4 274.20496 L245.40004 277.74 L249.51637 277.74 L251.06 279.75638 L251.06 283.28564 L251.06 287.3191 L252.06339 289.84 L260.0889 289.84 L263.6 289.83987 L263.6 293.95633 L265.61987 295.5 L277.74 295.5 L277.74 292.41278 Z "/>
<g  style="stroke:#FF0000;stroke-width:0.1;" >
<path d="M290.0 271.0 L372.3993 271.0 L290.0 271.0 Z "/>
</g>
<g  style="stroke:#00FF00;stroke-width:0.1;" >
<path d="M318.52 276.0 L318.52 266.0 L318.52 276.0 Z "/>
</g>
<g  style="stroke:#00FF00;stroke-width:0.1;" >
<path d="M366.03998 276.0 L366.03998 266.0 L366.03998 276.0 Z "/>
</g>
<g  style="stroke:#00FF00;stroke-width:0.1;" >
<path d="M275.752 273.0 L275.752 269.0 L275.752 273.0 Z "/>
</g>
<g  style="stroke:#00FF00;stroke-width:0.1;" >
<path d="M280.504 273.0 L280.504 269.0 L280.504 273.0 Z "/>
</g>
<g  style="stroke:#00FF00;stroke-width:0.1;" >
<path d="M285.256 273.0 L285.256 269.0 L285.256 273.0 Z "/>
</g>
<g  style="stroke:#00FF00;stroke-width:0.1;" >
<path d="M290.008 273.0 L290.008 269.0 L290.008 273.0 Z "/>
</g>
<g  style="stroke:#00FF00;stroke-width:0.1;" >
<path d="M294.75998 273.0 L294.75998 269.0 L294.75998 273.0 Z "/>
</g>
<g  style="stroke:#00FF00;stroke-width:0.1;" >
<path d="M299.51196 273.0 L299.51196 269.0 L299.51196 273.0 Z "/>
</g>
<g  style="stroke:#00FF00;stroke-width:0.1;" >
<path d="M304.26398 273.0 L304.26398 269.0 L304.26398 273.0 Z "/>
</g>
<g  style="stroke:#00FF00;stroke-width:0.1;" >
<path d="M309.016 273.0 L309.016 269.0 L309.016 273.0 Z "/>
</g>
<g  style="stroke:#00FF00;stroke-width:0.1;" >
<path d="M313.768 273.0 L313.768 269.0 L313.768 273.0 Z "/>
</g>
<g  style="stroke:#00FF00;stroke-width:0.1;" >
<path d="M323.27197 273.0 L323.27197 269.0 L323.27197 273.0 Z "/>
</g>
<g  style="stroke:#00FF00;stroke-width:0.1;" >
<path d="M328.024 273.0 L328.024 269.0 L328.024 273.0 Z "/>
</g>
<g  style="stroke:#00FF00;stroke-width:0.1;" >
<path d="M332.776 273.0 L332.776 269.0 L332.776 273.0 Z "/>
</g>
<g  style="stroke:#00FF00;stroke-width:0.1;" >
<path d="M337.52798 273.0 L337.52798 269.0 L337.52798 273.0 Z "/>
</g>
<g  style="stroke:#00FF00;stroke-width:0.1;" >
<path d="M342.27997 273.0 L342.27997 269.0 L342.27997 273.0 Z "/>
</g>
<g  style="stroke:#00FF00;stroke-width:0.1;" >
<path d="M347.03198 273.0 L347.03198 269.0 L347.03198 273.0 Z "/>
</g>
<g  style="stroke:#00FF00;stroke-width:0.1;" >
<path d="M351.784 273.0 L351.784 269.0 L351.784 273.0 Z "/>
</g>
<g  style="stroke:#00FF00;stroke-width:0.1;" >
<path d="M356.53598 273.0 L356.53598 269.0 L356.53598 273.0 Z "/>
</g>
<g  style="stroke:#00FF00;stroke-width:0.1;" >
<path d="M361.28796 273.0 L361.28796 269.0 L361.28796 273.0 Z "/>
</g>
<g  style="stroke:#00FF00;stroke-width:0.1;" >
<path d="M370.792 273.0 L370.792 269.0 L370.792 273.0 Z "/>
</g>
<g  style="fill:#F6921E;stroke:#F6921E;stroke-width:0.1;" >
<path d="M539.5 542.0 L3.5 542.0 L1.0 541.0 L1.0 537.0 L1.0 533.0 L1.0 529.0 L1.0 525.0 L1.0 521.0 L1.0 517.0 L1.0 513.0 L1.0 509.0 L1.0 505.0 L1.0 501.0 L1.0 497.0 L1.0 493.0 L1.0 489.0 L1.0 485.0 L1.0 481.0 L1.0 477.0 L1.0 473.0 L1.0 469.0 L1.0 465.0 L1.0 461.0 L1.0 457.0 L1.0 453.0 L1.0 449.0 L1.0 445.0 L1.0 441.0 L1.0 437.0 L1.0 433.0 L1.0 429.0 L1.0 425.0 L1.0 421.0 L1.0 417.0 L1.0 413.0 L1.0 409.0 L1.0 405.0 L1.0 401.0 L1.0 397.0 L1.0 393.0 L1.0 389.0 L1.0 385.0 L1.0 381.0 L1.0 377.0 L1.0 373.0 L1.0 369.0 L1.0 365.0 L1.0 361.0 L1.0 357.0 L1.0 353.0 L1.0 349.0 L1.0 345.0 L1.0 341.0 L1.0 337.0 L1.0 333.0 L1.0 329.0 L1.0 325.0 L1.0 321.0 L1.0 317.0 L1.0 313.0 L1.0 309.0 L1.0 305.0 L1.0 301.0 L1.0 297.0 L1.0 293.0 L1.0 289.0 L1.0 285.0 L1.0 281.0 L1.0 277.0 L1.0 273.0 L1.0 269.0 L1.0 265.0 L1.0 261.0 L1.0 257.0 L1.0 253.0 L1.0 249.0 L1.0 245.0 L1.0 241.0 L1.0 237.0 L1.0 233.0 L1.0 229.0 L1.0 225.0 L1.0 221.0 L1.0 217.0 L1.0 213.0 L1.0 209.0 L1.0 205.0 L1.0 201.0 L1.0 197.0 L1.0 193.0 L1.0 189.0 L1.0 185.0 L1.0 181.0 L1.0 177.0 L1.0 173.0 L1.0 169.0 L1.0 165.0 L1.0 161.0 L1.0 157.0 L1.0 153.0 L1.0 149.0 L1.0 145.0 L1.0 141.0 L1.0 137.0 L1.0 133.0 L1.0 129.0 L1.0 125.0 L1.0 121.0 L1.0 117.0 L1.0 113.0 L1.0 109.0 L1.0 105.0 L1.0 101.0 L1.0 97.0 L1.0 93.0 L1.0 89.0 L1.0 85.0 L1.0 81.0 L1.0 77.0 L1.0 73.0 L1.0 69.0 L1.0 65.0 L1.0 61.0 L1.0 57.0 L1.0 53.0 L1.0 49.0 L1.0 45.0 L1.0 41.0 L1.0 37.0 L1.0 33.0 L1.0 29.0 L1.0 25.0 L1.0 21.0 L1.0 17.0 L1.0 13.0 L1.0 9.0 L1.0 5.0 L1.0 1.0 L542.0 1.0 L542.0 5.0 L542.0 9.0 L542.0 13.0 L542.0 17.0 L542.0 21.0 L542.0 25.0 L542.0 29.0 L542.0 33.0 L542.0 37.0 L542.0 41.0 L542.0 45.0 L542.0 49.0 L542.0 53.0 L542.0 57.0 L542.0 61.0 L542.0 65.0 L542.0 69.0 L542.0 73.0 L542.0 77.0 L542.0 81.0 L542.0 85.0 L542.0 89.0 L542.0 93.0 L542.0 97.0 L542.0 101.0 L542.0 105.0 L542.0 109.0 L542.0 113.0 L542.0 117.0 L542.0 121.0 L542.0 125.0 L542.0 129.0 L542.0 133.0 L542.0 137.0 L542.0 141.0 L542.0 145.0 L542.0 149.0 L542.0 153.0 L542.0 157.0 L542.0 161.0 L542.0 165.0 L542.0 169.0 L542.0 173.0 L542.0 177.0 L542.0 181.0 L542.0 185.0 L542.0 189.0 L542.0 193.0 L542.0 197.0 L542.0 201.0 L542.0 205.0 L542.0 209.0 L542.0 213.0 L542.0 217.0 L542.0 221.0 L542.0 225.0 L542.0 229.0 L542.0 233.0 L542.0 237.0 L542.0 241.0 L542.0 245.0 L542.0 249.0 L542.0 253.0 L542.0 257.0 L542.0 261.0 L542.0 265.0 L542.0 269.0 L542.0 273.0 L542.0 277.0 L542.0 281.0 L542.0 285.0 L542.0 289.0 L542.0 293.0 L542.0 297.0 L542.0 301.0 L542.0 305.0 L542.0 309.0 L542.0 313.0 L542.0 317.0 L542.0 321.0 L542.0 325.0 L542.0 329.0 L542.0 333.0 L542.0 337.0 L542.0 341.0 L542.0 345.0 L542.0 349.0 L542.0 353.0 L542.0 357.0 L542.0 361.0 L542.0 365.0 L542.0 369.0 L542.0 373.0 L542.0 377.0 L542.0 381.0 L542.0 385.0 L542.0 389.0 L542.0 393.0 L542.0 397.0 L542.0 401.0 L542.0 405.0 L542.0 409.0 L542.0 413.0 L542.0 417.0 L542.0 421.0 L542.0 425.0 L542.0 429.0 L542.0 433.0 L542.0 437.0 L542.0 441.0 L542.0 445.0 L542.0 449.0 L542.0 453.0 L542.0 457.0 L542.0 461.0 L542.0 465.0 L542.0 469.0 L542.0 473.0 L542.0 477.0 L542.0 481.0 L542.0 485.0 L542.0 489.0 L542.0 493.0 L542.0 497.0 L542.0 501.0 L542.0 505.0 L542.0 509.0 L542.0 513.0 L542.0 517.0 L542.0 521.0 L542.0 525.0 L542.0 529.0 L542.0 533.0 L542.0 537.0 L542.0 541.0 L539.5 542.0 Z M528.0 525.5 L528.0 521.5 L528.0 517.5 L528.0 513.5 L528.0 509.5 L528.0 505.5 L528.0 501.5 L528.0 497.5 L528.0 493.5 L528.0 489.5 L528.0 485.5 L528.0 481.5 L528.0 477.5 L528.0 473.5 L528.0 469.5 L528.0 465.5 L528.0 461.5 L528.0 457.5 L528.0 453.5 L528.0 449.5 L528.0 445.5 L528.0 441.5 L528.0 437.5 L528.0 433.5 L528.0 429.5 L528.0 425.5 L528.0 421.5 L528.0 417.5 L528.0 413.5 L528.0 409.5 L528.0 405.5 L528.0 401.5 L528.0 397.5 L528.0 393.5 L528.0 389.5 L528.0 385.5 L528.0 381.5 L528.0 377.5 L528.0 373.5 L528.0 369.5 L528.0 365.5 L528.0 361.5 L528.0 357.5 L528.0 353.5 L528.0 349.5 L528.0 345.5 L528.0 341.5 L528.0 337.5 L528.0 333.5 L528.0 329.5 L528.0 325.5 L528.0 321.5 L528.0 317.5 L528.0 313.5 L528.0 309.5 L528.0 305.5 L528.0 301.5 L528.0 297.5 L528.0 293.5 L528.0 289.5 L528.0 285.5 L528.0 281.5 L528.0 277.5 L528.0 273.5 L528.0 269.5 L528.0 265.5 L528.0 261.5 L528.0 257.5 L528.0 253.5 L528.0 249.5 L528.0 245.5 L528.0 241.5 L528.0 237.5 L528.0 233.5 L528.0 229.5 L528.0 225.5 L528.0 221.5 L528.0 217.5 L528.0 213.5 L528.0 209.5 L528.0 205.5 L528.0 201.5 L528.0 197.5 L528.0 193.5 L528.0 189.5 L528.0 185.5 L528.0 181.5 L528.0 177.5 L528.0 173.5 L528.0 169.5 L528.0 165.5 L528.0 161.5 L528.0 157.5 L528.0 153.5 L528.0 149.5 L528.0 145.5 L528.0 141.5 L528.0 137.5 L528.0 133.5 L528.0 129.5 L528.0 125.5 L528.0 121.5 L528.0 117.5 L528.0 113.5 L528.0 109.5 L528.0 105.5 L528.0 101.5 L528.0 97.5 L528.0 93.5 L528.0 89.5 L528.0 85.5 L528.0 81.5 L528.0 77.5 L528.0 73.5 L528.0 69.5 L528.0 65.5 L528.0 61.5 L528.0 57.5 L528.0 53.5 L528.0 49.5 L528.0 45.5 L528.0 41.5 L528.0 37.5 L528.0 33.5 L528.0 29.5 L528.0 25.5 L528.0 21.5 L528.0 17.5 L527.0 15.0 L15.0 15.0 L15.0 528.0 L527.0 528.0 L528.0 525.5 Z "/>
</g>
<g  style="stroke:#FF0000;stroke-width:0.1;" >
<path d="M284.43503 284.43503 L425.0573 425.0573 L284.43503 284.43503 Z "/>
</g>
<g  style="stroke:#00FF00;stroke-width:0.1;" >
<path d="M301.06616 308.13727 L308.1372 301.06616 L301.06616 308.13727 Z "/>
</g>
<g  style="stroke:#00FF00;stroke-width:0.1;" >
<path d="M334.66785 341.73895 L341.73895 334.6679 L334.66785 341.73895 Z "/>
</g>
<g  style="stroke:#00FF00;stroke-width:0.1;" >
<path d="M368.2696 375.3407 L375.34064 368.2696 L368.2696 375.3407 Z "/>
</g>
<g  style="stroke:#00FF00;stroke-width:0.1;" >
<path d="M401.87128 408.94238 L408.94235 401.8713 L401.87128 408.94238 Z "/>
</g>
<g  style="stroke:#00FF00;stroke-width:0.1;" >
<path d="M272.94592 275.7744 L275.77435 272.94598 L272.94592 275.7744 Z "/>
</g>
<g  style="stroke:#00FF00;stroke-width:0.1;" >
<path d="M276.3061 279.13455 L279.13452 276.30612 L276.3061 279.13455 Z "/>
</g>
<g  style="stroke:#00FF00;stroke-width:0.1;" >
<path d="M279.66626 282.49475 L282.4947 279.66632 L279.66626 282.49475 Z "/>
</g>
<g  style="stroke:#00FF00;stroke-width:0.1;" >
<path d="M283.02643 285.8549 L285.85486 283.02646 L283.02643 285.8549 Z "/>
</g>
<g  style="stroke:#00FF00;stroke-width:0.1;" >
<path d="M286.3866 289.21506 L289.21503 286.38663 L286.3866 289.21506 Z "/>
</g>
<g  style="stroke:#00FF00;stroke-width:0.1;" >
<path d="M289.74677 292.57526 L292.5752 289.74683 L289.74677 292.57526 Z "/>
</g>
<g  style="stroke:#00FF00;stroke-width:0.1;" >
<path d="M293.10693 295.93542 L295.93536 293.107 L293.10693 295.93542 Z "/>
</g>
<g  style="stroke:#00FF00;stroke-width:0.1;" >
<path d="M296.4671 299.2956 L299.29553 296.46716 L296.4671 299.2956 Z "/>
</g>
<g  style="stroke:#00FF00;stroke-width:0.1;" >
<path d="M299.8273 302.65576 L302.65573 299.82733 L299.8273 302.65576 Z "/>
</g>
<g  style="stroke:#00FF00;stroke-width:0.1;" >
<path d="M306.54764 309.3761 L309.37607 306.54767 L306.54764 309.3761 Z "/>
</g>
<g  style="stroke:#00FF00;stroke-width:0.1;" >
<path d="M309.9078 312.73627 L312.73624 309.90784 L309.9078 312.73627 Z "/>
</g>
<g  style="stroke:#00FF00;stroke-width:0.1;" >
<path d="M313.26797 316.09644 L316.0964 313.268 L313.26797 316.09644 Z "/>
</g>
<g  style="stroke:#00FF00;stroke-width:0.1;" >
<path d="M316.62814 319.4566 L319.45657 316.62817 L316.62814 319.4566 Z "/>
</g>
<g  style="stroke:#00FF00;stroke-width:0.1;" >
<path d="M319.98834 322.81677 L322.81677 319.98834 L319.98834 322.81677 Z "/>
</g>
<g  style="stroke:#00FF00;stroke-width:0.1;" >
<path d="M323.3485 326.17694 L326.17694 323.3485 L323.3485 326.17694 Z "/>
</g>
<g  style="stroke:#00FF00;stroke-width:0.1;" >
<path d="M326.70868 329.5371 L329.5371 326.70868 L326.70868 329.5371 Z "/>
</g>
<g  style="stroke:#00FF00;stroke-width:0.1;" >
<path d="M330.06885 332.89728 L332.89728 330.06885 L330.06885 332.89728 Z "/>
</g>
<g  style="stroke:#00FF00;stroke-width:0.1;" >
<path d="M333.42902 336.25745 L336.25745 333.42902 L333.42902 336.25745 Z "/>
</g>
<g  style="stroke:#00FF00;stroke-width:0.1;" >
<path d="M340.14935 342.9778 L342.97778 340.14938 L340.14935 342.9778 Z "/>
</g>
<g  style="stroke:#00FF00;stroke-width:0.1;" >
<path d="M343.50952 346.33798 L346.33795 343.50955 L343.50952 346.33798 Z "/>
</g>
<g  style="stroke:#00FF00;stroke-width:0.1;" >
<path d="M346.8697 349.69815 L349.69812 346.86972 L346.8697 349.69815 Z "/>
</g>
<g  style="stroke:#00FF00;stroke-width:0.1;" >
<path d="M350.22986 353.05832 L353.0583 350.2299 L350.22986 353.05832 Z "/>
</g>
<g  style="stroke:#00FF00;stroke-width:0.1;" >
<path d="M353.59003 356.4185 L356.41846 353.59006 L353.59003 356.4185 Z "/>
</g>
<g  style="stroke:#00FF00;stroke-width:0.1;" >
<path d="M356.9502 359.7787 L359.77863 356.95026 L356.9502 359.7787 Z "/>
</g>
<g  style="stroke:#00FF00;stroke-width:0.1;" >
<path d="M360.31036 363.13885 L363.1388 360.31042 L360.31036 363.13885 Z "/>
</g>
<g  style="stroke:#00FF00;stroke-width:0.1;" >
<path d="M363.67053 366.49902 L366.49896 363.6706 L363.67053 366.49902 Z "/>
</g>
<g  style="stroke:#00FF00;stroke-width:0.1;" >
<path d="M367.0307 369.8592 L369.85913 367.03076 L367.0307 369.8592 Z "/>
</g>
<g  style="stroke:#00FF00;stroke-width:0.1;" >
<path d="M373.75107 376.57953 L376.5795 373.7511 L373.75107 376.57953 Z "/>
</g>
<g  style="stroke:#00FF00;stroke-width:0.1;" >
<path d="M377.11124 379.9397 L379.93967 377.11127 L377.11124 379.9397 Z "/>
</g>
<g  style="stroke:#00FF00;stroke-width:0.1;" >
<path d="M380.4714 383.29987 L383.29984 380.47144 L380.4714 383.29987 Z "/>
</g>
<g  style="stroke:#00FF00;stroke-width:0.1;" >
<path d="M383.83157 386.66003 L386.66 383.8316 L383.83157 386.66003 Z "/>
</g>
<g  style="stroke:#00FF00;stroke-width:0.1;" >
<path d="M387.19177 390.0202 L390.0202 387.19177 L387.19177 390.0202 Z "/>
</g>
<g  style="stroke:#00FF00;stroke-width:0.1;" >
<path d="M390.5519 393.38037 L393.38034 390.55194 L390.5519 393.38037 Z "/>
</g>
<g  style="stroke:#00FF00;stroke-width:0.1;" >
<path d="M393.9121 396.74054 L396.74054 393.9121 L393.9121 396.74054 Z "/>
</g>
<g  style="stroke:#00FF00;stroke-width:0.1;" >
<path d="M397.27228 400.1007 L400.1007 397.27228 L397.27228 400.1007 Z "/>
</g>
<g  style="stroke:#00FF00;stroke-width:0.1;" >
<path d="M400.63245 403.46088 L403.46088 400.63245 L400.63245 403.46088 Z "/>
</g>
<g  style="stroke:#00FF00;stroke-width:0.1;" >
<path d="M407.35278 410.18124 L410.1812 407.3528 L407.35278 410.18124 Z "/>
</g>
<g  style="stroke:#00FF00;stroke-width:0.1;" >
<path d="M410.71295 413.5414 L413.54138 410.71298 L410.71295 413.5414 Z "/>
</g>
<g  style="stroke:#00FF00;stroke-width:0.1;" >
<path d="M414.07312 416.90158 L416.90155 414.07315 L414.07312 416.90158 Z "/>
</g>
<g  style="stroke:#00FF00;stroke-width:0.1;" >
<path d="M417.4333 420.26175 L420.26172 417.43332 L417.4333 420.26175 Z "/>
</g>
<g  style="stroke:#00FF00;stroke-width:0.1;" >
<path d="M420.79346 423.62192 L423.6219 420.7935 L420.79346 423.62192 Z "/>
</g>
<g  style="fill:#F6921E;stroke:#F6921E;stroke-width:0.1;" >
<path d="M539.5 542.0 L3.5 542.0 L1.0 541.0 L1.0 537.0 L1.0 533.0 L1.0 529.0 L1.0 525.0 L1.0 521.0 L1.0 517.0 L1.0 513.0 L1.0 509.0 L1.0 505.0 L1.0 501.0 L1.0 497.0 L1.0 493.0 L1.0 489.0 L1.0 485.0 L1.0 481.0 L1.0 477.0 L1.0 473.0 L1.0 469.0 L1.0 465.0 L1.0 461.0 L1.0 457.0 L1.0 453.0 L1.0 449.0 L1.0 445.0 L1.0 441.0 L1.0 437.0 L1.0 433.0 L1.0 429.0 L1.0 425.0 L1.0 421.0 L1.0 417.0 L1.0 413.0 L1.0 409.0 L1.0 405.0 L1.0 401.0 L1.0 397.0 L1.0 393.0 L1.0 389.0 L1.0 385.0 L1.0 381.0 L1.0 377.0 L1.0 373.0 L1.0 369.0 L1.0 365.0 L1.0 361.0 L1.0 357.0 L1.0 353.0 L1.0 349.0 L1.0 345.0 L1.0 341.0 L1.0 337.0 L1.0 333.0 L1.0 329.0 L1.0 325.0 L1.0 321.0 L1.0 317.0 L1.0 313.0 L1.0 309.0 L1.0 305.0 L1.0 301.0 L1.0 297.0 L1.0 293.0 L1.0 289.0 L1.0 285.0 L1.0 281.0 L1.0 277.0 L1.0 273.0 L1.0 269.0 L1.0 265.0 L1.0 261.0 L1.0 257.0 L1.0 253.0 L1.0 249.0 L1.0 245.0 L1.0 241.0 L1.0 237.0 L1.0 233.0 L1.0 229.0 L1.0 225.0 L1.0 221.0 L1.0 217.0 L1.0 213.0 L1.0 209.0 L1.0 205.0 L1.0 201.0 L1.0 197.0 L1.0 193.0 L1.0 189.0 L1.0 185.0 L1.0 181.0 L1.0 177.0 L1.0 173.0 L1.0 169.0 L1.0 165.0 L1.0 161.0 L1.0 157.0 L1.0 153.0 L1.0 149.0 L1.0 145.0 L1.0 141.0 L1.0 137.0 L1.0 133.0 L1.0 129.0 L1.0 125.0 L1.0 121.0 L1.0 117.0 L1.0 113.0 L1.0 109.0 L1.0 105.0 L1.0 101.0 L1.0 97.0 L1.0 93.0 L1.0 89.0 L1.0 85.0 L1.0 81.0 L1.0 77.0 L1.0 73.0 L1.0 69.0 L1.0 65.0 L1.0 61.0 L1.0 57.0 L1.0 53.0 L1.0 49.0 L1.0 45.0 L1.0 41.0 L1.0 37.0 L1.0 33.0 L1.0 29.0 L1.0 25.0 L1.0 21.0 L1.0 17.0 L1.0 13.0 L1.0 9.0 L1.0 5.0 L1.0 1.0 L542.0 1.0 L542.0 5.0 L542.0 9.0 L542.0 13.0 L542.0 17.0 L542.0 21.0 L542.0 25.0 L542.0 29.0 L542.0 33.0 L542.0 37.0 L542.0 41.0 L542.0 45.0 L542.0 49.0 L542.0 53.0 L542.0 57.0 L542.0 61.0 L542.0 65.0 L542.0 69.0 L542.0 73.0 L542.0 77.0 L542.0 81.0 L542.0 85.0 L542.0 89.0 L542.0 93.0 L542.0 97.0 L542.0 101.0 L542.0 105.0 L542.0 109.0 L542.0 113.0 L542.0 117.0 L542.0 121.0 L542.0 125.0 L542.0 129.0 L542.0 133.0 L542.0 137.0 L542.0 141.0 L542.0 145.0 L542.0 149.0 L542.0 153.0 L542.0 157.0 L542.0 161.0 L542.0 165.0 L542.0 169.0 L542.0 173.0 L542.0 177.0 L542.0 181.0 L542.0 185.0 L542.0 189.0 L542.0 193.0 L542.0 197.0 L542.0 201.0 L542.0 205.0 L542.0 209.0 L542.0 213.0 L542.0 217.0 L542.0 221.0 L542.0 225.0 L542.0 229.0 L542.0 233.0 L542.0 237.0 L542.0 241.0 L542.0 245.0 L542.0 249.0 L542.0 253.0 L542.0 257.0 L542.0 261.0 L542.0 265.0 L542.0 269.0 L542.0 273.0 L542.0 277.0 L542.0 281.0 L542.0 285.0 L542.0 289.0 L542.0 293.0 L542.0 297.0 L542.0 301.0 L542.0 305.0 L542.0 309.0 L542.0 313.0 L542.0 317.0 L542.0 321.0 L542.0 325.0 L542.0 329.0 L542.0 333.0 L542.0 337.0 L542.0 341.0 L542.0 345.0 L542.0 349.0 L542.0 353.0 L542.0 357.0 L542.0 361.0 L542.0 365.0 L542.0 369.0 L542.0 373.0 L542.0 377.0 L542.0 381.0 L542.0 385.0 L542.0 389.0 L542.0 393.0 L542.0 397.0 L542.0 401.0 L542.0 405.0 L542.0 409.0 L542.0 413.0 L542.0 417.0 L542.0 421.0 L542.0 425.0 L542.0 429.0 L542.0 433.0 L542.0 437.0 L542.0 441.0 L542.0 445.0 L542.0 449.0 L542.0 453.0 L542.0 457.0 L542.0 461.0 L542.0 465.0 L542.0 469.0 L542.0 473.0 L542.0 477.0 L542.0 481.0 L542.0 485.0 L542.0 489.0 L542.0 493.0 L542.0 497.0 L542.0 501.0 L542.0 505.0 L542.0 509.0 L542.0 513.0 L542.0 517.0 L542.0 521.0 L542.0 525.0 L542.0 529.0 L542.0 533.0 L542.0 537.0 L542.0 541.0 L539.5 542.0 Z M528.0 525.5 L528.0 521.5 L528.0 517.5 L528.0 513.5 L528.0 509.5 L528.0 505.5 L528.0 501.5 L528.0 497.5 L528.0 493.5 L528.0 489.5 L528.0 485.5 L528.0 481.5 L528.0 477.5 L528.0 473.5 L528.0 469.5 L528.0 465.5 L528.0 461.5 L528.0 457.5 L528.0 453.5 L528.0 449.5 L528.0 445.5 L528.0 441.5 L528.0 437.5 L528.0 433.5 L528.0 429.5 L528.0 425.5 L528.0 421.5 L528.0 417.5 L528.0 413.5 L528.0 409.5 L528.0 405.5 L528.0 401.5 L528.0 397.5 L528.0 393.5 L528.0 389.5 L528.0 385.5 L528.0 381.5 L528.0 377.5 L528.0 373.5 L528.0 369.5 L528.0 365.5 L528.0 361.5 L528.0 357.5 L528.0 353.5 L528.0 349.5 L528.0 345.5 L528.0 341.5 L528.0 337.5 L528.0 333.5 L528.0 329.5 L528.0 325.5 L528.0 321.5 L528.0 317.5 L528.0 313.5 L528.0 309.5 L528.0 305.5 L528.0 301.5 L528.0 297.5 L528.0 293.5 L528.0 289.5 L528.0 285.5 L528.0 281.5 L528.0 277.5 L528.0 273.5 L528.0 269.5 L528.0 265.5 L528.0 261.5 L528.0 257.5 L528.0 253.5 L528.0 249.5 L528.0 245.5 L528.0 241.5 L528.0 237.5 L528.0 233.5 L528.0 229.5 L528.0 225.5 L528.0 221.5 L528.0 217.5 L528.0 213.5 L528.0 209.5 L528.0 205.5 L528.0 201.5 L528.0 197.5 L528.0 193.5 L528.0 189.5 L528.0 185.5 L528.0 181.5 L528.0 177.5 L528.0 173.5 L528.0 169.5 L528.0 165.5 L528.0 161.5 L528.0 157.5 L528.0 153.5 L528.0 149.5 L528.0 145.5 L528.0 141.5 L528.0 137.5 L528.0 133.5 L528.0 129.5 L528.0 125.5 L528.0 121.5 L528.0 117.5 L528.0 113.5 L528.0 109.5 L528.0 105.5 L528.0 101.5 L528.0 97.5 L528.0 93.5 L528.0 89.5 L528.0 85.5 L528.0 81.5 L528.0 77.5 L528.0 73.5 L528.0 69.5 L528.0 65.5 L528.0 61.5 L528.0 57.5 L528.0 53.5 L528.0 49.5 L528.0 45.5 L528.0 41.5 L528.0 37.5 L528.0 33.5 L528.0 29.5 L528.0 25.5 L528.0 21.5 L528.0 17.5 L527.0 15.0 L15.0 15.0 L15.0 528.0 L527.0 528.0 L528.0 525.5 Z "/>
</g>
<g  style="stroke:#FF0000;stroke-width:0.1;" >
<path d="M271.0 290.0 L271.0 454.39246 L271.0 290.0 Z "/>
</g>
<g  style="stroke:#00FF00;stroke-width:0.1;" >
<path d="M266.00003 318.51996 L276.00003 318.51996 L266.00003 318.51996 Z "/>
</g>
<g  style="stroke:#00FF00;stroke-width:0.1;" >
<path d="M266.00003 366.03998 L276.00003 366.03998 L266.00003 366.03998 Z "/>
</g>
<g  style="stroke:#00FF00;stroke-width:0.1;" >
<path d="M266.0 413.56 L276.0 413.56 L266.0 413.56 Z "/>
</g>
<g  style="stroke:#00FF00;stroke-width:0.1;" >
<path d="M269.00003 275.75198 L273.00003 275.75198 L269.00003 275.75198 Z "/>
</g>
<g  style="stroke:#00FF00;stroke-width:0.1;" >
<path d="M269.00003 280.50397 L273.00003 280.50397 L269.00003 280.50397 Z "/>
</g>
<g  style="stroke:#00FF00;stroke-width:0.1;" >
<path d="M269.00003 285.25598 L273.00003 285.25598 L269.00003 285.25598 Z "/>
</g>
<g  style="stroke:#00FF00;stroke-width:0.1;" >
<path d="M269.00003 290.00797 L273.00003 290.00797 L269.00003 290.00797 Z "/>
</g>
<g  style="stroke:#00FF00;stroke-width:0.1;" >
<path d="M269.00003 294.75995 L273.00003 294.75995 L269.00003 294.75995 Z "/>
</g>
<g  style="stroke:#00FF00;stroke-width:0.1;" >
<path d="M269.00003 299.51196 L273.00003 299.51196 L269.00003 299.51196 Z "/>
</g>
<g  style="stroke:#00FF00;stroke-width:0.1;" >
<path d="M269.00003 304.26398 L273.00003 304.26398 L269.00003 304.26398 Z "/>
</g>
<g  style="stroke:#00FF00;stroke-width:0.1;" >
<path d="M269.00003 309.01596 L273.00003 309.01596 L269.00003 309.01596 Z "/>
</g>
<g  style="stroke:#00FF00;stroke-width:0.1;" >
<path d="M269.00003 313.76797 L273.00003 313.76797 L269.00003 313.76797 Z "/>
</g>
<g  style="stroke:#00FF00;stroke-width:0.1;" >
<path d="M269.00003 323.27197 L273.00003 323.27197 L269.00003 323.27197 Z "/>
</g>
<g  style="stroke:#00FF00;stroke-width:0.1;" >
<path d="M269.00003 328.024 L273.00003 328.024 L269.00003 328.024 Z "/>
</g>
<g  style="stroke:#00FF00;stroke-width:0.1;" >
<path d="M269.00003 332.77597 L273.00003 332.77597 L269.00003 332.77597 Z "/>
</g>
<g  style="stroke:#00FF00;stroke-width:0.1;" >
<path d="M269.00003 337.52795 L273.00003 337.52795 L269.00003 337.52795 Z "/>
</g>
<g  style="stroke:#00FF00;stroke-width:0.1;" >
<path d="M269.00003 342.27997 L273.00003 342.27997 L269.00003 342.27997 Z "/>
</g>
<g  style="stroke:#00FF00;stroke-width:0.1;" >
<path d="M269.00003 347.03198 L273.00003 347.03198 L269.00003 347.03198 Z "/>
</g>
<g  style="stroke:#00FF00;stroke-width:0.1;" >
<path d="M269.00003 351.78397 L273.00003 351.78397 L269.00003 351.78397 Z "/>
</g>
<g  style="stroke:#00FF00;stroke-width:0.1;" >
<path d="M269.00003 356.53595 L273.00003 356.53595 L269.00003 356.53595 Z "/>
</g>
<g  style="stroke:#00FF00;stroke-width:0.1;" >
<path d="M269.00003 361.28796 L273.00003 361.28796 L269.00003 361.28796 Z "/>
</g>
<g  style="stroke:#00FF00;stroke-width:0.1;" >
<path d="M269.0 370.79196 L273.0 370.79196 L269.0 370.79196 Z "/>
</g>
<g  style="stroke:#00FF00;stroke-width:0.1;" >
<path d="M269.0 375.54398 L273.0 375.54398 L269.0 375.54398 Z "/>
</g>
<g  style="stroke:#00FF00;stroke-width:0.1;" >
<path d="M269.0 380.29596 L273.0 380.29596 L269.0 380.29596 Z "/>
</g>
<g  style="stroke:#00FF00;stroke-width:0.1;" >
<path d="M269.0 385.04797 L273.0 385.04797 L269.0 385.04797 Z "/>
</g>
<g  style="stroke:#00FF00;stroke-width:0.1;" >
<path d="M269.0 389.8 L273.0 389.8 L269.0 389.8 Z "/>
</g>
<g  style="stroke:#00FF00;stroke-width:0.1;" >
<path d="M269.0 394.55197 L273.0 394.55197 L269.0 394.55197 Z "/>
</g>
<g  style="stroke:#00FF00;stroke-width:0.1;" >
<path d="M269.0 399.30396 L273.0 399.30396 L269.0 399.30396 Z "/>
</g>
<g  style="stroke:#00FF00;stroke-width:0.1;" >
<path d="M269.0 404.05597 L273.0 404.05597 L269.0 404.05597 Z "/>
</g>
<g  style="stroke:#00FF00;stroke-width:0.1;" >
<path d="M269.0 408.80798 L273.0 408.80798 L269.0 408.80798 Z "/>
</g>
<g  style="stroke:#00FF00;stroke-width:0.1;" >
<path d="M269.0 418.31198 L273.0 418.31198 L269.0 418.31198 Z "/>
</g>
<g  style="stroke:#00FF00;stroke-width:0.1;" >
<path d="M269.0 423.06396 L273.0 423.06396 L269.0 423.06396 Z "/>
</g>
<g  style="stroke:#00FF00;stroke-width:0.1;" >
<path d="M269.0 427.81598 L273.0 427.81598 L269.0 427.81598 Z "/>
</g>
<g  style="stroke:#00FF00;stroke-width:0.1;" >
<path d="M269.0 432.568 L273.0 432.568 L269.0 432.568 Z "/>
</g>
<g  style="stroke:#00FF00;stroke-width:0.1;" >
<path d="M269.0 437.31998 L273.0 437.31998 L269.0 437.31998 Z "/>
</g>
<g  style="stroke:#00FF00;stroke-width:0.1;" >
<path d="M269.0 442.07196 L273.0 442.07196 L269.0 442.07196 Z "/>
</g>
<g  style="stroke:#00FF00;stroke-width:0.1;" >
<path d="M269.0 446.82397 L273.0 446.82397 L269.0 446.82397 Z "/>
</g>
<g  style="stroke:#00FF00;stroke-width:0.1;" >
<path d="M269.0 451.576 L273.0 451.576 L269.0 451.576 Z "/>
</g>
<g  style="fill:#F6921E;stroke:#F6921E;stroke-width:0.1;" >
<path d="M539.5 542.0 L3.5 542.0 L1.0 541.0 L1.0 537.0 L1.0 533.0 L1.0 529.0 L1.0 525.0 L1.0 521.0 L1.0 517.0 L1.0 513.0 L1.0 509.0 L1.0 505.0 L1.0 501.0 L1.0 497.0 L1.0 493.0 L1.0 489.0 L1.0 485.0 L1.0 481.0 L1.0 477.0 L1.0 473.0 L1.0 469.0 L1.0 465.0 L1.0 461.0 L1.0 457.0 L1.0 453.0 L1.0 449.0 L1.0 445.0 L1.0 441.0 L1.0 437.0 L1.0 433.0 L1.0 429.0 L1.0 425.0 L1.0 421.0 L1.0 417.0 L1.0 413.0 L1.0 409.0 L1.0 405.0 L1.0 401.0 L1.0 397.0 L1.0 393.0 L1.0 389.0 L1.0 385.0 L1.0 381.0 L1.0 377.0 L1.0 373.0 L1.0 369.0 L1.0 365.0 L1.0 361.0 L1.0 357.0 L1.0 353.0 L1.0 349.0 L1.0 345.0 L1.0 341.0 L1.0 337.0 L1.0 333.0 L1.0 329.0 L1.0 325.0 L1.0 321.0 L1.0 317.0 L1.0 313.0 L1.0 309.0 L1.0 305.0 L1.0 301.0 L1.0 297.0 L1.0 293.0 L1.0 289.0 L1.0 285.0 L1.0 281.0 L1.0 277.0 L1.0 273.0 L1.0 269.0 L1.0 265.0 L1.0 261.0 L1.0 257.0 L1.0 253.0 L1.0 249.0 L1.0 245.0 L1.0 241.0 L1.0 237.0 L1.0 233.0 L1.0 229.0 L1.0 225.0 L1.0 221.0 L1.0 217.0 L1.0 213.0 L1.0 209.0 L1.0 205.0 L1.0 201.0 L1.0 197.0 L1.0 193.0 L1.0 189.0 L1.0 185.0 L1.0 181.0 L1.0 177.0 L1.0 173.0 L1.0 169.0 L1.0 165.0 L1.0 161.0 L1.0 157.0 L1.0 153.0 L1.0 149.0 L1.0 145.0 L1.0 141.0 L1.0 137.0 L1.0 133.0 L1.0 129.0 L1.0 125.0 L1.0 121.0 L1.0 117.0 L1.0 113.0 L1.0 109.0 L1.0 105.0 L1.0 101.0 L1.0 97.0 L1.0 93.0 L1.0 89.0 L1.0 85.0 L1.0 81.0 L1.0 77.0 L1.0 73.0 L1.0 69.0 L1.0 65.0 L1.0 61.0 L1.0 57.0 L1.0 53.0 L1.0 49.0 L1.0 45.0 L1.0 41.0 L1.0 37.0 L1.0 33.0 L1.0 29.0 L1.0 25.0 L1.0 21.0 L1.0 17.0 L1.0 13.0 L1.0 9.0 L1.0 5.0 L1.0 1.0 L542.0 1.0 L542.0 5.0 L542.0 9.0 L542.0 13.0 L542.0 17.0 L542.0 21.0 L542.0 25.0 L542.0 29.0 L542.0 33.0 L542.0 37.0 L542.0 41.0 L542.0 45.0 L542.0 49.0 L542.0 53.0 L542.0 57.0 L542.0 61.0 L542.0 65.0 L542.0 69.0 L542.0 73.0 L542.0 77.0 L542.0 81.0 L542.0 85.0 L542.0 89.0 L542.0 93.0 L542.0 97.0 L542.0 101.0 L542.0 105.0 L542.0 109.0 L542.0 113.0 L542.0 117.0 L542.0 121.0 L542.0 125.0 L542.0 129.0 L542.0 133.0 L542.0 137.0 L542.0 141.0 L542.0 145.0 L542.0 149.0 L542.0 153.0 L542.0 157.0 L542.0 161.0 L542.0 165.0 L542.0 169.0 L542.0 173.0 L542.0 177.0 L542.0 181.0 L542.0 185.0 L542.0 189.0 L542.0 193.0 L542.0 197.0 L542.0 201.0 L542.0 205.0 L542.0 209.0 L542.0 213.0 L542.0 217.0 L542.0 221.0 L542.0 225.0 L542.0 229.0 L542.0 233.0 L542.0 237.0 L542.0 241.0 L542.0 245.0 L542.0 249.0 L542.0 253.0 L542.0 257.0 L542.0 261.0 L542.0 265.0 L542.0 269.0 L542.0 273.0 L542.0 277.0 L542.0 281.0 L542.0 285.0 L542.0 289.0 L542.0 293.0 L542.0 297.0 L542.0 301.0 L542.0 305.0 L542.0 309.0 L542.0 313.0 L542.0 317.0 L542.0 321.0 L542.0 325.0 L542.0 329.0 L542.0 333.0 L542.0 337.0 L542.0 341.0 L542.0 345.0 L542.0 349.0 L542.0 353.0 L542.0 357.0 L542.0 361.0 L542.0 365.0 L542.0 369.0 L542.0 373.0 L542.0 377.0 L542.0 381.0 L542.0 385.0 L542.0 389.0 L542.0 393.0 L542.0 397.0 L542.0 401.0 L542.0 405.0 L542.0 409.0 L542.0 413.0 L542.0 417.0 L542.0 421.0 L542.0 425.0 L542.0 429.0 L542.0 433.0 L542.0 437.0 L542.0 441.0 L542.0 445.0 L542.0 449.0 L542.0 453.0 L542.0 457.0 L542.0 461.0 L542.0 465.0 L542.0 469.0 L542.0 473.0 L542.0 477.0 L542.0 481.0 L542.0 485.0 L542.0 489.0 L542.0 493.0 L542.0 497.0 L542.0 501.0 L542.0 505.0 L542.0 509.0 L542.0 513.0 L542.0 517.0 L542.0 521.0 L542.0 525.0 L542.0 529.0 L542.0 533.0 L542.0 537.0 L542.0 541.0 L539.5 542.0 Z M528.0 525.5 L528.0 521.5 L528.0 517.5 L528.0 513.5 L528.0 509.5 L528.0 505.5 L528.0 501.5 L528.0 497.5 L528.0 493.5 L528.0 489.5 L528.0 485.5 L528.0 481.5 L528.0 477.5 L528.0 473.5 L528.0 469.5 L528.0 465.5 L528.0 461.5 L528.0 457.5 L528.0 453.5 L528.0 449.5 L528.0 445.5 L528.0 441.5 L528.0 437.5 L528.0 433.5 L528.0 429.5 L528.0 425.5 L528.0 421.5 L528.0 417.5 L528.0 413.5 L528.0 409.5 L528.0 405.5 L528.0 401.5 L528.0 397.5 L528.0 393.5 L528.0 389.5 L528.0 385.5 L528.0 381.5 L528.0 377.5 L528.0 373.5 L528.0 369.5 L528.0 365.5 L528.0 361.5 L528.0 357.5 L528.0 353.5 L528.0 349.5 L528.0 345.5 L528.0 341.5 L528.0 337.5 L528.0 333.5 L528.0 329.5 L528.0 325.5 L528.0 321.5 L528.0 317.5 L528.0 313.5 L528.0 309.5 L528.0 305.5 L528.0 301.5 L528.0 297.5 L528.0 293.5 L528.0 289.5 L528.0 285.5 L528.0 281.5 L528.0 277.5 L528.0 273.5 L528.0 269.5 L528.0 265.5 L528.0 261.5 L528.0 257.5 L528.0 253.5 L528.0 249.5 L528.0 245.5 L528.0 241.5 L528.0 237.5 L528.0 233.5 L528.0 229.5 L528.0 225.5 L528.0 221.5 L528.0 217.5 L528.0 213.5 L528.0 209.5 L528.0 205.5 L528.0 201.5 L528.0 197.5 L528.0 193.5 L528.0 189.5 L528.0 185.5 L528.0 181.5 L528.0 177.5 L528.0 173.5 L528.0 169.5 L528.0 165.5 L528.0 161.5 L528.0 157.5 L528.0 153.5 L528.0 149.5 L528.0 145.5 L528.0 141.5 L528.0 137.5 L528.0 133.5 L528.0 129.5 L528.0 125.5 L528.0 121.5 L528.0 117.5 L528.0 113.5 L528.0 109.5 L528.0 105.5 L528.0 101.5 L528.0 97.5 L528.0 93.5 L528.0 89.5 L528.0 85.5 L528.0 81.5 L528.0 77.5 L528.0 73.5 L528.0 69.5 L528.0 65.5 L528.0 61.5 L528.0 57.5 L528.0 53.5 L528.0 49.5 L528.0 45.5 L528.0 41.5 L528.0 37.5 L528.0 33.5 L528.0 29.5 L528.0 25.5 L528.0 21.5 L528.0 17.5 L527.0 15.0 L15.0 15.0 L15.0 528.0 L527.0 528.0 L528.0 525.5 Z "/>
</g>
<g  style="stroke:#FF0000;stroke-width:0.1;" >
<path d="M257.56497 284.43503 L183.41821 358.5818 L257.56497 284.43503 Z "/>
</g>
<g  style="stroke:#00FF00;stroke-width:0.1;" >
<path d="M233.86275 301.06616 L240.93382 308.1372 L233.86275 301.06616 Z "/>
</g>
<g  style="stroke:#00FF00;stroke-width:0.1;" >
<path d="M200.26102 334.66785 L207.33209 341.73892 L200.26102 334.66785 Z "/>
</g>
<g  style="stroke:#00FF00;stroke-width:0.1;" >
<path d="M266.2256 272.94592 L269.05402 275.77435 L266.2256 272.94592 Z "/>
</g>
<g  style="stroke:#00FF00;stroke-width:0.1;" >
<path d="M262.86545 276.3061 L265.69388 279.13452 L262.86545 276.3061 Z "/>
</g>
<g  style="stroke:#00FF00;stroke-width:0.1;" >
<path d="M259.50525 279.66626 L262.33368 282.4947 L259.50525 279.66626 Z "/>
</g>
<g  style="stroke:#00FF00;stroke-width:0.1;" >
<path d="M256.1451 283.02643 L258.97354 285.85486 L256.1451 283.02643 Z "/>
</g>
<g  style="stroke:#00FF00;stroke-width:0.1;" >
<path d="M252.78493 286.3866 L255.61336 289.21503 L252.78493 286.3866 Z "/>
</g>
<g  style="stroke:#00FF00;stroke-width:0.1;" >
<path d="M249.42476 289.74677 L252.25319 292.5752 L249.42476 289.74677 Z "/>
</g>
<g  style="stroke:#00FF00;stroke-width:0.1;" >
<path d="M246.06458 293.10693 L248.893 295.93536 L246.06458 293.10693 Z "/>
</g>
<g  style="stroke:#00FF00;stroke-width:0.1;" >
<path d="M242.70442 296.4671 L245.53285 299.29553 L242.70442 296.4671 Z "/>
</g>
<g  style="stroke:#00FF00;stroke-width:0.1;" >
<path d="M239.34424 299.8273 L242.17267 302.65573 L239.34424 299.8273 Z "/>
</g>
<g  style="stroke:#00FF00;stroke-width:0.1;" >
<path d="M232.6239 306.54764 L235.45233 309.37607 L232.6239 306.54764 Z "/>
</g>
<g  style="stroke:#00FF00;stroke-width:0.1;" >
<path d="M229.26373 309.9078 L232.09216 312.73624 L229.26373 309.9078 Z "/>
</g>
<g  style="stroke:#00FF00;stroke-width:0.1;" >
<path d="M225.90355 313.26797 L228.73198 316.0964 L225.90355 313.26797 Z "/>
</g>
<g  style="stroke:#00FF00;stroke-width:0.1;" >
<path d="M222.54338 316.62814 L225.37181 319.45657 L222.54338 316.62814 Z "/>
</g>
<g  style="stroke:#00FF00;stroke-width:0.1;" >
<path d="M219.18321 319.9883 L222.01164 322.81674 L219.18321 319.9883 Z "/>
</g>
<g  style="stroke:#00FF00;stroke-width:0.1;" >
<path d="M215.82304 323.34848 L218.65147 326.1769 L215.82304 323.34848 Z "/>
</g>
<g  style="stroke:#00FF00;stroke-width:0.1;" >
<path d="M212.46288 326.70865 L215.2913 329.53708 L212.46288 326.70865 Z "/>
</g>
<g  style="stroke:#00FF00;stroke-width:0.1;" >
<path d="M209.10269 330.06882 L211.93112 332.89725 L209.10269 330.06882 Z "/>
</g>
<g  style="stroke:#00FF00;stroke-width:0.1;" >
<path d="M205.74252 333.429 L208.57095 336.25742 L205.74252 333.429 Z "/>
</g>
<g  style="stroke:#00FF00;stroke-width:0.1;" >
<path d="M199.02219 340.14932 L201.85062 342.97775 L199.02219 340.14932 Z "/>
</g>
<g  style="stroke:#00FF00;stroke-width:0.1;" >
<path d="M195.662 343.50952 L198.49043 346.33795 L195.662 343.50952 Z "/>
</g>
<g  style="stroke:#00FF00;stroke-width:0.1;" >
<path d="M192.30185 346.8697 L195.13028 349.69812 L192.30185 346.8697 Z "/>
</g>
<g  style="stroke:#00FF00;stroke-width:0.1;" >
<path d="M188.94165 350.22986 L191.77008 353.0583 L188.94165 350.22986 Z "/>
</g>
<g  style="stroke:#00FF00;stroke-width:0.1;" >
<path d="M185.58148 353.59003 L188.40991 356.41846 L185.58148 353.59003 Z "/>
</g>
<g  style="stroke:#00FF00;stroke-width:0.1;" >
<path d="M182.22131 356.9502 L185.04974 359.77863 L182.22131 356.9502 Z "/>
</g>
<g  style="fill:#F6921E;stroke:#F6921E;stroke-width:0.1;" >
<path d="M539.5 542.0 L3.5 542.0 L1.0 541.0 L1.0 537.0 L1.0 533.0 L1.0 529.0 L1.0 525.0 L1.0 521.0 L1.0 517.0 L1.0 513.0 L1.0 509.0 L1.0 505.0 L1.0 501.0 L1.0 497.0 L1.0 493.0 L1.0 489.0 L1.0 485.0 L1.0 481.0 L1.0 477.0 L1.0 473.0 L1.0 469.0 L1.0 465.0 L1.0 461.0 L1.0 457.0 L1.0 453.0 L1.0 449.0 L1.0 445.0 L1.0 441.0 L1.0 437.0 L1.0 433.0 L1.0 429.0 L1.0 425.0 L1.0 421.0 L1.0 417.0 L1.0 413.0 L1.0 409.0 L1.0 405.0 L1.0 401.0 L1.0 397.0 L1.0 393.0 L1.0 389.0 L1.0 385.0 L1.0 381.0 L1.0 377.0 L1.0 373.0 L1.0 369.0 L1.0 365.0 L1.0 361.0 L1.0 357.0 L1.0 353.0 L1.0 349.0 L1.0 345.0 L1.0 341.0 L1.0 337.0 L1.0 333.0 L1.0 329.0 L1.0 325.0 L1.0 321.0 L1.0 317.0 L1.0 313.0 L1.0 309.0 L1.0 305.0 L1.0 301.0 L1.0 297.0 L1.0 293.0 L1.0 289.0 L1.0 285.0 L1.0 281.0 L1.0 277.0 L1.0 273.0 L1.0 269.0 L1.0 265.0 L1.0 261.0 L1.0 257.0 L1.0 253.0 L1.0 249.0 L1.0 245.0 L1.0 241.0 L1.0 237.0 L1.0 233.0 L1.0 229.0 L1.0 225.0 L1.0 221.0 L1.0 217.0 L1.0 213.0 L1.0 209.0 L1.0 205.0 L1.0 201.0 L1.0 197.0 L1.0 193.0 L1.0 189.0 L1.0 185.0 L1.0 181.0 L1.0 177.0 L1.0 173.0 L1.0 169.0 L1.0 165.0 L1.0 161.0 L1.0 157.0 L1.0 153.0 L1.0 149.0 L1.0 145.0 L1.0 141.0 L1.0 137.0 L1.0 133.0 L1.0 129.0 L1.0 125.0 L1.0 121.0 L1.0 117.0 L1.0 113.0 L1.0 109.0 L1.0 105.0 L1.0 101.0 L1.0 97.0 L1.0 93.0 L1.0 89.0 L1.0 85.0 L1.0 81.0 L1.0 77.0 L1.0 73.0 L1.0 69.0 L1.0 65.0 L1.0 61.0 L1.0 57.0 L1.0 53.0 L1.0 49.0 L1.0 45.0 L1.0 41.0 L1.0 37.0 L1.0 33.0 L1.0 29.0 L1.0 25.0 L1.0 21.0 L1.0 17.0 L1.0 13.0 L1.0 9.0 L1.0 5.0 L1.0 1.0 L542.0 1.0 L542.0 5.0 L542.0 9.0 L542.0 13.0 L542.0 17.0 L542.0 21.0 L542.0 25.0 L542.0 29.0 L542.0 33.0 L542.0 37.0 L542.0 41.0 L542.0 45.0 L542.0 49.0 L542.0 53.0 L542.0 57.0 L542.0 61.0 L542.0 65.0 L542.0 69.0 L542.0 73.0 L542.0 77.0 L542.0 81.0 L542.0 85.0 L542.0 89.0 L542.0 93.0 L542.0 97.0 L542.0 101.0 L542.0 105.0 L542.0 109.0 L542.0 113.0 L542.0 117.0 L542.0 121.0 L542.0 125.0 L542.0 129.0 L542.0 133.0 L542.0 137.0 L542.0 141.0 L542.0 145.0 L542.0 149.0 L542.0 153.0 L542.0 157.0 L542.0 161.0 L542.0 165.0 L542.0 169.0 L542.0 173.0 L542.0 177.0 L542.0 181.0 L542.0 185.0 L542.0 189.0 L542.0 193.0 L542.0 197.0 L542.0 201.0 L542.0 205.0 L542.0 209.0 L542.0 213.0 L542.0 217.0 L542.0 221.0 L542.0 225.0 L542.0 229.0 L542.0 233.0 L542.0 237.0 L542.0 241.0 L542.0 245.0 L542.0 249.0 L542.0 253.0 L542.0 257.0 L542.0 261.0 L542.0 265.0 L542.0 269.0 L542.0 273.0 L542.0 277.0 L542.0 281.0 L542.0 285.0 L542.0 289.0 L542.0 293.0 L542.0 297.0 L542.0 301.0 L542.0 305.0 L542.0 309.0 L542.0 313.0 L542.0 317.0 L542.0 321.0 L542.0 325.0 L542.0 329.0 L542.0 333.0 L542.0 337.0 L542.0 341.0 L542.0 345.0 L542.0 349.0 L542.0 353.0 L542.0 357.0 L542.0 361.0 L542.0 365.0 L542.0 369.0 L542.0 373.0 L542.0 377.0 L542.0 381.0 L542.0 385.0 L542.0 389.0 L542.0 393.0 L542.0 397.0 L542.0 401.0 L542.0 405.0 L542.0 409.0 L542.0 413.0 L542.0 417.0 L542.0 421.0 L542.0 425.0 L542.0 429.0 L542.0 433.0 L542.0 437.0 L542.0 441.0 L542.0 445.0 L542.0 449.0 L542.0 453.0 L542.0 457.0 L542.0 461.0 L542.0 465.0 L542.0 469.0 L542.0 473.0 L542.0 477.0 L542.0 481.0 L542.0 485.0 L542.0 489.0 L542.0 493.0 L542.0 497.0 L542.0 501.0 L542.0 505.0 L542.0 509.0 L542.0 513.0 L542.0 517.0 L542.0 521.0 L542.0 525.0 L542.0 529.0 L542.0 533.0 L542.0 537.0 L542.0 541.0 L539.5 542.0 Z M528.0 525.5 L528.0 521.5 L528.0 517.5 L528.0 513.5 L528.0 509.5 L528.0 505.5 L528.0 501.5 L528.0 497.5 L528.0 493.5 L528.0 489.5 L528.0 485.5 L528.0 481.5 L528.0 477.5 L528.0 473.5 L528.0 469.5 L528.0 465.5 L528.0 461.5 L528.0 457.5 L528.0 453.5 L528.0 449.5 L528.0 445.5 L528.0 441.5 L528.0 437.5 L528.0 433.5 L528.0 429.5 L528.0 425.5 L528.0 421.5 L528.0 417.5 L528.0 413.5 L528.0 409.5 L528.0 405.5 L528.0 401.5 L528.0 397.5 L528.0 393.5 L528.0 389.5 L528.0 385.5 L528.0 381.5 L528.0 377.5 L528.0 373.5 L528.0 369.5 L528.0 365.5 L528.0 361.5 L528.0 357.5 L528.0 353.5 L528.0 349.5 L528.0 345.5 L528.0 341.5 L528.0 337.5 L528.0 333.5 L528.0 329.5 L528.0 325.5 L528.0 321.5 L528.0 317.5 L528.0 313.5 L528.0 309.5 L528.0 305.5 L528.0 301.5 L528.0 297.5 L528.0 293.5 L528.0 289.5 L528.0 285.5 L528.0 281.5 L528.0 277.5 L528.0 273.5 L528.0 269.5 L528.0 265.5 L528.0 261.5 L528.0 257.5 L528.0 253.5 L528.0 249.5 L528.0 245.5 L528.0 241.5 L528.0 237.5 L528.0 233.5 L528.0 229.5 L528.0 225.5 L528.0 221.5 L528.0 217.5 L528.0 213.5 L528.0 209.5 L528.0 205.5 L528.0 201.5 L528.0 197.5 L528.0 193.5 L528.0 189.5 L528.0 185.5 L528.0 181.5 L528.0 177.5 L528.0 173.5 L528.0 169.5 L528.0 165.5 L528.0 161.5 L528.0 157.5 L528.0 153.5 L528.0 149.5 L528.0 145.5 L528.0 141.5 L528.0 137.5 L528.0 133.5 L528.0 129.5 L528.0 125.5 L528.0 121.5 L528.0 117.5 L528.0 113.5 L528.0 109.5 L528.0 105.5 L528.0 101.5 L528.0 97.5 L528.0 93.5 L528.0 89.5 L528.0 85.5 L528.0 81.5 L528.0 77.5 L528.0 73.5 L528.0 69.5 L528.0 65.5 L528.0 61.5 L528.0 57.5 L528.0 53.5 L528.0 49.5 L528.0 45.5 L528.0 41.5 L528.0 37.5 L528.0 33.5 L528.0 29.5 L528.0 25.5 L528.0 21.5 L528.0 17.5 L527.0 15.0 L15.0 15.0 L15.0 528.0 L527.0 528.0 L528.0 525.5 Z "/>
</g>
<g  style="stroke:#FF0000;stroke-width:0.1;" >
<path d="M252.0 271.0 L114.45404 271.0 L252.0 271.0 Z "/>
</g>
<g  style="stroke:#00FF00;stroke-width:0.1;" >
<path d="M223.48 266.0 L223.48 276.0 L223.48 266.0 Z "/>
</g>
<g  style="stroke:#00FF00;stroke-width:0.1;" >
<path d="M175.95999 266.0 L175.95999 276.0 L175.95999 266.0 Z "/>
</g>
<g  style="stroke:#00FF00;stroke-width:0.1;" >
<path d="M128.43999 266.0 L128.43999 276.0 L128.43999 266.0 Z "/>
</g>
<g  style="stroke:#00FF00;stroke-width:0.1;" >
<path d="M266.248 269.0 L266.248 273.0 L266.248 269.0 Z "/>
</g>
<g  style="stroke:#00FF00;stroke-width:0.1;" >
<path d="M261.496 269.0 L261.496 273.0 L261.496 269.0 Z "/>
</g>
<g  style="stroke:#00FF00;stroke-width:0.1;" >
<path d="M256.744 269.0 L256.744 273.0 L256.744 269.0 Z "/>
</g>
<g  style="stroke:#00FF00;stroke-width:0.1;" >
<path d="M251.992 269.0 L251.992 273.0 L251.992 269.0 Z "/>
</g>
<g  style="stroke:#00FF00;stroke-width:0.1;" >
<path d="M247.24 269.0 L247.24 273.0 L247.24 269.0 Z "/>
</g>
<g  style="stroke:#00FF00;stroke-width:0.1;" >
<path d="M242.488 269.0 L242.488 273.0 L242.488 269.0 Z "/>
</g>
<g  style="stroke:#00FF00;stroke-width:0.1;" >
<path d="M237.736 269.0 L237.736 273.0 L237.736 269.0 Z "/>
</g>
<g  style="stroke:#00FF00;stroke-width:0.1;" >
<path d="M232.98401 269.0 L232.98401 273.0 L232.98401 269.0 Z "/>
</g>
<g  style="stroke:#00FF00;stroke-width:0.1;" >
<path d="M228.232 269.0 L228.232 273.0 L228.232 269.0 Z "/>
</g>
<g  style="stroke:#00FF00;stroke-width:0.1;" >
<path d="M218.728 269.0 L218.728 273.0 L218.728 269.0 Z "/>
</g>
<g  style="stroke:#00FF00;stroke-width:0.1;" >
<path d="M213.976 269.0 L213.976 273.0 L213.976 269.0 Z "/>
</g>
<g  style="stroke:#00FF00;stroke-width:0.1;" >
<path d="M209.224 269.0 L209.224 273.0 L209.224 269.0 Z "/>
</g>
<g  style="stroke:#00FF00;stroke-width:0.1;" >
<path d="M204.472 269.0 L204.472 273.0 L204.472 269.0 Z "/>
</g>
<g  style="stroke:#00FF00;stroke-width:0.1;" >
<path d="M199.72 269.0 L199.72 273.0 L199.72 269.0 Z "/>
</g>
<g  style="stroke:#00FF00;stroke-width:0.1;" >
<path d="M194.968 269.0 L194.968 273.0 L194.968 269.0 Z "/>
</g>
<g  style="stroke:#00FF00;stroke-width:0.1;" >
<path d="M190.216 269.0 L190.216 273.0 L190.216 269.0 Z "/>
</g>
<g  style="stroke:#00FF00;stroke-width:0.1;" >
<path d="M185.464 269.0 L185.464 273.0 L185.464 269.0 Z "/>
</g>
<g  style="stroke:#00FF00;stroke-width:0.1;" >
<path d="M180.712 269.0 L180.712 273.0 L180.712 269.0 Z "/>
</g>
<g  style="stroke:#00FF00;stroke-width:0.1;" >
<path d="M171.20801 269.0 L171.20801 273.0 L171.20801 269.0 Z "/>
</g>
<g  style="stroke:#00FF00;stroke-width:0.1;" >
<path d="M166.456 269.0 L166.456 273.0 L166.456 269.0 Z "/>
</g>
<g  style="stroke:#00FF00;stroke-width:0.1;" >
<path d="M161.70401 269.0 L161.70401 273.0 L161.70401 269.0 Z "/>
</g>
<g  style="stroke:#00FF00;stroke-width:0.1;" >
<path d="M156.952 269.0 L156.952 273.0 L156.952 269.0 Z "/>
</g>
<g  style="stroke:#00FF00;stroke-width:0.1;" >
<path d="M152.2 269.0 L152.2 273.0 L152.2 269.0 Z "/>
</g>
<g  style="stroke:#00FF00;stroke-width:0.1;" >
<path d="M147.448 269.0 L147.448 273.0 L147.448 269.0 Z "/>
</g>
<g  style="stroke:#00FF00;stroke-width:0.1;" >
<path d="M142.696 269.0 L142.696 273.0 L142.696 269.0 Z "/>
</g>
<g  style="stroke:#00FF00;stroke-width:0.1;" >
<path d="M137.944 269.0 L137.944 273.0 L137.944 269.0 Z "/>
</g>
<g  style="stroke:#00FF00;stroke-width:0.1;" >
<path d="M133.192 269.0 L133.192 273.0 L133.192 269.0 Z "/>
</g>
<g  style="stroke:#00FF00;stroke-width:0.1;" >
<path d="M123.68799 269.0 L123.68799 273.0 L123.68799 269.0 Z "/>
</g>
<g  style="stroke:#00FF00;stroke-width:0.1;" >
<path d="M118.936005 269.0 L118.936005 273.0 L118.936005 269.0 Z "/>
</g>
<g  style="fill:#F6921E;stroke:#F6921E;stroke-width:0.1;" >
<path d="M539.5 542.0 L3.5 542.0 L1.0 541.0 L1.0 537.0 L1.0 533.0 L1.0 529.0 L1.0 525.0 L1.0 521.0 L1.0 517.0 L1.0 513.0 L1.0 509.0 L1.0 505.0 L1.0 501.0 L1.0 497.0 L1.0 493.0 L1.0 489.0 L1.0 485.0 L1.0 481.0 L1.0 477.0 L1.0 473.0 L1.0 469.0 L1.0 465.0 L1.0 461.0 L1.0 457.0 L1.0 453.0 L1.0 449.0 L1.0 445.0 L1.0 441.0 L1.0 437.0 L1.0 433.0 L1.0 429.0 L1.0 425.0 L1.0 421.0 L1.0 417.0 L1.0 413.0 L1.0 409.0 L1.0 405.0 L1.0 401.0 L1.0 397.0 L1.0 393.0 L1.0 389.0 L1.0 385.0 L1.0 381.0 L1.0 377.0 L1.0 373.0 L1.0 369.0 L1.0 365.0 L1.0 361.0 L1.0 357.0 L1.0 353.0 L1.0 349.0 L1.0 345.0 L1.0 341.0 L1.0 337.0 L1.0 333.0 L1.0 329.0 L1.0 325.0 L1.0 321.0 L1.0 317.0 L1.0 313.0 L1.0 309.0 L1.0 305.0 L1.0 301.0 L1.0 297.0 L1.0 293.0 L1.0 289.0 L1.0 285.0 L1.0 281.0 L1.0 277.0 L1.0 273.0 L1.0 269.0 L1.0 265.0 L1.0 261.0 L1.0 257.0 L1.0 253.0 L1.0 249.0 L1.0 245.0 L1.0 241.0 L1.0 237.0 L1.0 233.0 L1.0 229.0 L1.0 225.0 L1.0 221.0 L1.0 217.0 L1.0 213.0 L1.0 209.0 L1.0 205.0 L1.0 201.0 L1.0 197.0 L1.0 193.0 L1.0 189.0 L1.0 185.0 L1.0 181.0 L1.0 177.0 L1.0 173.0 L1.0 169.0 L1.0 165.0 L1.0 161.0 L1.0 157.0 L1.0 153.0 L1.0 149.0 L1.0 145.0 L1.0 141.0 L1.0 137.0 L1.0 133.0 L1.0 129.0 L1.0 125.0 L1.0 121.0 L1.0 117.0 L1.0 113.0 L1.0 109.0 L1.0 105.0 L1.0 101.0 L1.0 97.0 L1.0 93.0 L1.0 89.0 L1.0 85.0 L1.0 81.0 L1.0 77.0 L1.0 73.0 L1.0 69.0 L1.0 65.0 L1.0 61.0 L1.0 57.0 L1.0 53.0 L1.0 49.0 L1.0 45.0 L1.0 41.0 L1.0 37.0 L1.0 33.0 L1.0 29.0 L1.0 25.0 L1.0 21.0 L1.0 17.0 L1.0 13.0 L1.0 9.0 L1.0 5.0 L1.0 1.0 L542.0 1.0 L542.0 5.0 L542.0 9.0 L542.0 13.0 L542.0 17.0 L542.0 21.0 L542.0 25.0 L542.0 29.0 L542.0 33.0 L542.0 37.0 L542.0 41.0 L542.0 45.0 L542.0 49.0 L542.0 53.0 L542.0 57.0 L542.0 61.0 L542.0 65.0 L542.0 69.0 L542.0 73.0 L542.0 77.0 L542.0 81.0 L542.0 85.0 L542.0 89.0 L542.0 93.0 L542.0 97.0 L542.0 101.0 L542.0 105.0 L542.0 109.0 L542.0 113.0 L542.0 117.0 L542.0 121.0 L542.0 125.0 L542.0 129.0 L542.0 133.0 L542.0 137.0 L542.0 141.0 L542.0 145.0 L542.0 149.0 L542.0 153.0 L542.0 157.0 L542.0 161.0 L542.0 165.0 L542.0 169.0 L542.0 173.0 L542.0 177.0 L542.0 181.0 L542.0 185.0 L542.0 189.0 L542.0 193.0 L542.0 197.0 L542.0 201.0 L542.0 205.0 L542.0 209.0 L542.0 213.0 L542.0 217.0 L542.0 221.0 L542.0 225.0 L542.0 229.0 L542.0 233.0 L542.0 237.0 L542.0 241.0 L542.0 245.0 L542.0 249.0 L542.0 253.0 L542.0 257.0 L542.0 261.0 L542.0 265.0 L542.0 269.0 L542.0 273.0 L542.0 277.0 L542.0 281.0 L542.0 285.0 L542.0 289.0 L542.0 293.0 L542.0 297.0 L542.0 301.0 L542.0 305.0 L542.0 309.0 L542.0 313.0 L542.0 317.0 L542.0 321.0 L542.0 325.0 L542.0 329.0 L542.0 333.0 L542.0 337.0 L542.0 341.0 L542.0 345.0 L542.0 349.0 L542.0 353.0 L542.0 357.0 L542.0 361.0 L542.0 365.0 L542.0 369.0 L542.0 373.0 L542.0 377.0 L542.0 381.0 L542.0 385.0 L542.0 389.0 L542.0 393.0 L542.0 397.0 L542.0 401.0 L542.0 405.0 L542.0 409.0 L542.0 413.0 L542.0 417.0 L542.0 421.0 L542.0 425.0 L542.0 429.0 L542.0 433.0 L542.0 437.0 L542.0 441.0 L542.0 445.0 L542.0 449.0 L542.0 453.0 L542.0 457.0 L542.0 461.0 L542.0 465.0 L542.0 469.0 L542.0 473.0 L542.0 477.0 L542.0 481.0 L542.0 485.0 L542.0 489.0 L542.0 493.0 L542.0 497.0 L542.0 501.0 L542.0 505.0 L542.0 509.0 L542.0 513.0 L542.0 517.0 L542.0 521.0 L542.0 525.0 L542.0 529.0 L542.0 533.0 L542.0 537.0 L542.0 541.0 L539.5 542.0 Z M528.0 525.5 L528.0 521.5 L528.0 517.5 L528.0 513.5 L528.0 509.5 L528.0 505.5 L528.0 501.5 L528.0 497.5 L528.0 493.5 L528.0 489.5 L528.0 485.5 L528.0 481.5 L528.0 477.5 L528.0 473.5 L528.0 469.5 L528.0 465.5 L528.0 461.5 L528.0 457.5 L528.0 453.5 L528.0 449.5 L528.0 445.5 L528.0 441.5 L528.0 437.5 L528.0 433.5 L528.0 429.5 L528.0 425.5 L528.0 421.5 L528.0 417.5 L528.0 413.5 L528.0 409.5 L528.0 405.5 L528.0 401.5 L528.0 397.5 L528.0 393.5 L528.0 389.5 L528.0 385.5 L528.0 381.5 L528.0 377.5 L528.0 373.5 L528.0 369.5 L528.0 365.5 L528.0 361.5 L528.0 357.5 L528.0 353.5 L528.0 349.5 L528.0 345.5 L528.0 341.5 L528.0 337.5 L528.0 333.5 L528.0 329.5 L528.0 325.5 L528.0 321.5 L528.0 317.5 L528.0 313.5 L528.0 309.5 L528.0 305.5 L528.0 301.5 L528.0 297.5 L528.0 293.5 L528.0 289.5 L528.0 285.5 L528.0 281.5 L528.0 277.5 L528.0 273.5 L528.0 269.5 L528.0 265.5 L528.0 261.5 L528.0 257.5 L528.0 253.5 L528.0 249.5 L528.0 245.5 L528.0 241.5 L528.0 237.5 L528.0 233.5 L528.0 229.5 L528.0 225.5 L528.0 221.5 L528.0 217.5 L528.0 213.5 L528.0 209.5 L528.0 205.5 L528.0 201.5 L528.0 197.5 L528.0 193.5 L528.0 189.5 L528.0 185.5 L528.0 181.5 L528.0 177.5 L528.0 173.5 L528.0 169.5 L528.0 165.5 L528.0 161.5 L528.0 157.5 L528.0 153.5 L528.0 149.5 L528.0 145.5 L528.0 141.5 L528.0 137.5 L528.0 133.5 L528.0 129.5 L528.0 125.5 L528.0 121.5 L528.0 117.5 L528.0 113.5 L528.0 109.5 L528.0 105.5 L528.0 101.5 L528.0 97.5 L528.0 93.5 L528.0 89.5 L528.0 85.5 L528.0 81.5 L528.0 77.5 L528.0 73.5 L528.0 69.5 L528.0 65.5 L528.0 61.5 L528.0 57.5 L528.0 53.5 L528.0 49.5 L528.0 45.5 L528.0 41.5 L528.0 37.5 L528.0 33.5 L528.0 29.5 L528.0 25.5 L528.0 21.5 L528.0 17.5 L527.0 15.0 L15.0 15.0 L15.0 528.0 L527.0 528.0 L528.0 525.5 Z "/>
</g>
<g  style="stroke:#FF0000;stroke-width:0.1;" >
<path d="M257.56497 257.56497 L143.35056 143.3505 L257.56497 257.56497 Z "/>
</g>
<g  style="stroke:#00FF00;stroke-width:0.1;" >
<path d="M240.93384 233.86275 L233.86276 240.93382 L240.93384 233.86275 Z "/>
</g>
<g  style="stroke:#00FF00;stroke-width:0.1;" >
<path d="M207.33212 200.26102 L200.26108 207.33209 L207.33212 200.26102 Z "/>
</g>
<g  style="stroke:#00FF00;stroke-width:0.1;" >
<path d="M173.73044 166.65929 L166.65936 173.73036 L173.73044 166.65929 Z "/>
</g>
<g  style="stroke:#00FF00;stroke-width:0.1;" >
<path d="M269.05405 266.22562 L266.22562 269.05405 L269.05405 266.22562 Z "/>
</g>
<g  style="stroke:#00FF00;stroke-width:0.1;" >
<path d="M265.69388 262.86545 L262.86545 265.69388 L265.69388 262.86545 Z "/>
</g>
<g  style="stroke:#00FF00;stroke-width:0.1;" >
<path d="M262.3337 259.50525 L259.50528 262.33368 L262.3337 259.50525 Z "/>
</g>
<g  style="stroke:#00FF00;stroke-width:0.1;" >
<path d="M258.97354 256.1451 L256.1451 258.97354 L258.97354 256.1451 Z "/>
</g>
<g  style="stroke:#00FF00;stroke-width:0.1;" >
<path d="M255.61337 252.78493 L252.78494 255.61336 L255.61337 252.78493 Z "/>
</g>
<g  style="stroke:#00FF00;stroke-width:0.1;" >
<path d="M252.2532 249.42476 L249.42477 252.25319 L252.2532 249.42476 Z "/>
</g>
<g  style="stroke:#00FF00;stroke-width:0.1;" >
<path d="M248.89304 246.06458 L246.0646 248.893 L248.89304 246.06458 Z "/>
</g>
<g  style="stroke:#00FF00;stroke-width:0.1;" >
<path d="M245.53287 242.70442 L242.70444 245.53285 L245.53287 242.70442 Z "/>
</g>
<g  style="stroke:#00FF00;stroke-width:0.1;" >
<path d="M242.1727 239.34424 L239.34427 242.17267 L242.1727 239.34424 Z "/>
</g>
<g  style="stroke:#00FF00;stroke-width:0.1;" >
<path d="M235.45236 232.62389 L232.62393 235.45232 L235.45236 232.62389 Z "/>
</g>
<g  style="stroke:#00FF00;stroke-width:0.1;" >
<path d="M232.0922 229.26372 L229.26376 232.09215 L232.0922 229.26372 Z "/>
</g>
<g  style="stroke:#00FF00;stroke-width:0.1;" >
<path d="M228.732 225.90355 L225.9036 228.73198 L228.732 225.90355 Z "/>
</g>
<g  style="stroke:#00FF00;stroke-width:0.1;" >
<path d="M225.37183 222.54338 L222.54343 225.37181 L225.37183 222.54338 Z "/>
</g>
<g  style="stroke:#00FF00;stroke-width:0.1;" >
<path d="M222.01166 219.18321 L219.18326 222.01164 L222.01166 219.18321 Z "/>
</g>
<g  style="stroke:#00FF00;stroke-width:0.1;" >
<path d="M218.65149 215.82303 L215.82309 218.65146 L218.65149 215.82303 Z "/>
</g>
<g  style="stroke:#00FF00;stroke-width:0.1;" >
<path d="M215.29132 212.46286 L212.46292 215.29129 L215.29132 212.46286 Z "/>
</g>
<g  style="stroke:#00FF00;stroke-width:0.1;" >
<path d="M211.93115 209.10269 L209.10275 211.93112 L211.93115 209.10269 Z "/>
</g>
<g  style="stroke:#00FF00;stroke-width:0.1;" >
<path d="M208.57098 205.74252 L205.74258 208.57095 L208.57098 205.74252 Z "/>
</g>
<g  style="stroke:#00FF00;stroke-width:0.1;" >
<path d="M201.85065 199.02219 L199.02225 201.85062 L201.85065 199.02219 Z "/>
</g>
<g  style="stroke:#00FF00;stroke-width:0.1;" >
<path d="M198.49045 195.66199 L195.66205 198.49042 L198.49045 195.66199 Z "/>
</g>
<g  style="stroke:#00FF00;stroke-width:0.1;" >
<path d="M195.13031 192.30183 L192.30191 195.13026 L195.13031 192.30183 Z "/>
</g>
<g  style="stroke:#00FF00;stroke-width:0.1;" >
<path d="M191.77011 188.94165 L188.94171 191.77008 L191.77011 188.94165 Z "/>
</g>
<g  style="stroke:#00FF00;stroke-width:0.1;" >
<path d="M188.40994 185.58148 L185.58154 188.40991 L188.40994 185.58148 Z "/>
</g>
<g  style="stroke:#00FF00;stroke-width:0.1;" >
<path d="M185.04977 182.22131 L182.22137 185.04974 L185.04977 182.22131 Z "/>
</g>
<g  style="stroke:#00FF00;stroke-width:0.1;" >
<path d="M181.6896 178.86115 L178.8612 181.68958 L181.6896 178.86115 Z "/>
</g>
<g  style="stroke:#00FF00;stroke-width:0.1;" >
<path d="M178.32944 175.50096 L175.50104 178.32939 L178.32944 175.50096 Z "/>
</g>
<g  style="stroke:#00FF00;stroke-width:0.1;" >
<path d="M174.96927 172.1408 L172.14087 174.96922 L174.96927 172.1408 Z "/>
</g>
<g  style="stroke:#00FF00;stroke-width:0.1;" >
<path d="M168.24893 165.42044 L165.4205 168.24887 L168.24893 165.42044 Z "/>
</g>
<g  style="stroke:#00FF00;stroke-width:0.1;" >
<path d="M164.88876 162.06027 L162.06036 164.8887 L164.88876 162.06027 Z "/>
</g>
<g  style="stroke:#00FF00;stroke-width:0.1;" >
<path d="M161.5286 158.7001 L158.7002 161.52853 L161.5286 158.7001 Z "/>
</g>
<g  style="stroke:#00FF00;stroke-width:0.1;" >
<path d="M158.16843 155.33992 L155.34 158.16835 L158.16843 155.33992 Z "/>
</g>
<g  style="stroke:#00FF00;stroke-width:0.1;" >
<path d="M154.80826 151.97975 L151.97983 154.80818 L154.80826 151.97975 Z "/>
</g>
<g  style="stroke:#00FF00;stroke-width:0.1;" >
<path d="M151.44809 148.6196 L148.61966 151.44803 L151.44809 148.6196 Z "/>
</g>
<g  style="stroke:#00FF00;stroke-width:0.1;" >
<path d="M148.08792 145.2594 L145.25949 148.08783 L148.08792 145.2594 Z "/>
</g>
<g  style="fill:#F6921E;stroke:#F6921E;stroke-width:0.1;" >
<path d="M539.5 542.0 L3.5 542.0 L1.0 541.0 L1.0 537.0 L1.0 533.0 L1.0 529.0 L1.0 525.0 L1.0 521.0 L1.0 517.0 L1.0 513.0 L1.0 509.0 L1.0 505.0 L1.0 501.0 L1.0 497.0 L1.0 493.0 L1.0 489.0 L1.0 485.0 L1.0 481.0 L1.0 477.0 L1.0 473.0 L1.0 469.0 L1.0 465.0 L1.0 461.0 L1.0 457.0 L1.0 453.0 L1.0 449.0 L1.0 445.0 L1.0 441.0 L1.0 437.0 L1.0 433.0 L1.0 429.0 L1.0 425.0 L1.0 421.0 L1.0 417.0 L1.0 413.0 L1.0 409.0 L1.0 405.0 L1.0 401.0 L1.0 397.0 L1.0 393.0 L1.0 389.0 L1.0 385.0 L1.0 381.0 L1.0 377.0 L1.0 373.0 L1.0 369.0 L1.0 365.0 L1.0 361.0 L1.0 357.0 L1.0 353.0 L1.0 349.0 L1.0 345.0 L1.0 341.0 L1.0 337.0 L1.0 333.0 L1.0 329.0 L1.0 325.0 L1.0 321.0 L1.0 317.0 L1.0 313.0 L1.0 309.0 L1.0 305.0 L1.0 301.0 L1.0 297.0 L1.0 293.0 L1.0 289.0 L1.0 285.0 L1.0 281.0 L1.0 277.0 L1.0 273.0 L1.0 269.0 L1.0 265.0 L1.0 261.0 L1.0 257.0 L1.0 253.0 L1.0 249.0 L1.0 245.0 L1.0 241.0 L1.0 237.0 L1.0 233.0 L1.0 229.0 L1.0 225.0 L1.0 221.0 L1.0 217.0 L1.0 213.0 L1.0 209.0 L1.0 205.0 L1.0 201.0 L1.0 197.0 L1.0 193.0 L1.0 189.0 L1.0 185.0 L1.0 181.0 L1.0 177.0 L1.0 173.0 L1.0 169.0 L1.0 165.0 L1.0 161.0 L1.0 157.0 L1.0 153.0 L1.0 149.0 L1.0 145.0 L1.0 141.0 L1.0 137.0 L1.0 133.0 L1.0 129.0 L1.0 125.0 L1.0 121.0 L1.0 117.0 L1.0 113.0 L1.0 109.0 L1.0 105.0 L1.0 101.0 L1.0 97.0 L1.0 93.0 L1.0 89.0 L1.0 85.0 L1.0 81.0 L1.0 77.0 L1.0 73.0 L1.0 69.0 L1.0 65.0 L1.0 61.0 L1.0 57.0 L1.0 53.0 L1.0 49.0 L1.0 45.0 L1.0 41.0 L1.0 37.0 L1.0 33.0 L1.0 29.0 L1.0 25.0 L1.0 21.0 L1.0 17.0 L1.0 13.0 L1.0 9.0 L1.0 5.0 L1.0 1.0 L542.0 1.0 L542.0 5.0 L542.0 9.0 L542.0 13.0 L542.0 17.0 L542.0 21.0 L542.0 25.0 L542.0 29.0 L542.0 33.0 L542.0 37.0 L542.0 41.0 L542.0 45.0 L542.0 49.0 L542.0 53.0 L542.0 57.0 L542.0 61.0 L542.0 65.0 L542.0 69.0 L542.0 73.0 L542.0 77.0 L542.0 81.0 L542.0 85.0 L542.0 89.0 L542.0 93.0 L542.0 97.0 L542.0 101.0 L542.0 105.0 L542.0 109.0 L542.0 113.0 L542.0 117.0 L542.0 121.0 L542.0 125.0 L542.0 129.0 L542.0 133.0 L542.0 137.0 L542.0 141.0 L542.0 145.0 L542.0 149.0 L542.0 153.0 L542.0 157.0 L542.0 161.0 L542.0 165.0 L542.0 169.0 L542.0 173.0 L542.0 177.0 L542.0 181.0 L542.0 185.0 L542.0 189.0 L542.0 193.0 L542.0 197.0 L542.0 201.0 L542.0 205.0 L542.0 209.0 L542.0 213.0 L542.0 217.0 L542.0 221.0 L542.0 225.0 L542.0 229.0 L542.0 233.0 L542.0 237.0 L542.0 241.0 L542.0 245.0 L542.0 249.0 L542.0 253.0 L542.0 257.0 L542.0 261.0 L542.0 265.0 L542.0 269.0 L542.0 273.0 L542.0 277.0 L542.0 281.0 L542.0 285.0 L542.0 289.0 L542.0 293.0 L542.0 297.0 L542.0 301.0 L542.0 305.0 L542.0 309.0 L542.0 313.0 L542.0 317.0 L542.0 321.0 L542.0 325.0 L542.0 329.0 L542.0 333.0 L542.0 337.0 L542.0 341.0 L542.0 345.0 L542.0 349.0 L542.0 353.0 L542.0 357.0 L542.0 361.0 L542.0 365.0 L542.0 369.0 L542.0 373.0 L542.0 377.0 L542.0 381.0 L542.0 385.0 L542.0 389.0 L542.0 393.0 L542.0 397.0 L542.0 401.0 L542.0 405.0 L542.0 409.0 L542.0 413.0 L542.0 417.0 L542.0 421.0 L542.0 425.0 L542.0 429.0 L542.0 433.0 L542.0 437.0 L542.0 441.0 L542.0 445.0 L542.0 449.0 L542.0 453.0 L542.0 457.0 L542.0 461.0 L542.0 465.0 L542.0 469.0 L542.0 473.0 L542.0 477.0 L542.0 481.0 L542.0 485.0 L542.0 489.0 L542.0 493.0 L542.0 497.0 L542.0 501.0 L542.0 505.0 L542.0 509.0 L542.0 513.0 L542.0 517.0 L542.0 521.0 L542.0 525.0 L542.0 529.0 L542.0 533.0 L542.0 537.0 L542.0 541.0 L539.5 542.0 Z M528.0 525.5 L528.0 521.5 L528.0 517.5 L528.0 513.5 L528.0 509.5 L528.0 505.5 L528.0 501.5 L528.0 497.5 L528.0 493.5 L528.0 489.5 L528.0 485.5 L528.0 481.5 L528.0 477.5 L528.0 473.5 L528.0 469.5 L528.0 465.5 L528.0 461.5 L528.0 457.5 L528.0 453.5 L528.0 449.5 L528.0 445.5 L528.0 441.5 L528.0 437.5 L528.0 433.5 L528.0 429.5 L528.0 425.5 L528.0 421.5 L528.0 417.5 L528.0 413.5 L528.0 409.5 L528.0 405.5 L528.0 401.5 L528.0 397.5 L528.0 393.5 L528.0 389.5 L528.0 385.5 L528.0 381.5 L528.0 377.5 L528.0 373.5 L528.0 369.5 L528.0 365.5 L528.0 361.5 L528.0 357.5 L528.0 353.5 L528.0 349.5 L528.0 345.5 L528.0 341.5 L528.0 337.5 L528.0 333.5 L528.0 329.5 L528.0 325.5 L528.0 321.5 L528.0 317.5 L528.0 313.5 L528.0 309.5 L528.0 305.5 L528.0 301.5 L528.0 297.5 L528.0 293.5 L528.0 289.5 L528.0 285.5 L528.0 281.5 L528.0 277.5 L528.0 273.5 L528.0 269.5 L528.0 265.5 L528.0 261.5 L528.0 257.5 L528.0 253.5 L528.0 249.5 L528.0 245.5 L528.0 241.5 L528.0 237.5 L528.0 233.5 L528.0 229.5 L528.0 225.5 L528.0 221.5 L528.0 217.5 L528.0 213.5 L528.0 209.5 L528.0 205.5 L528.0 201.5 L528.0 197.5 L528.0 193.5 L528.0 189.5 L528.0 185.5 L528.0 181.5 L528.0 177.5 L528.0 173.5 L528.0 169.5 L528.0 165.5 L528.0 161.5 L528.0 157.5 L528.0 153.5 L528.0 149.5 L528.0 145.5 L528.0 141.5 L528.0 137.5 L528.0 133.5 L528.0 129.5 L528.0 125.5 L528.0 121.5 L528.0 117.5 L528.0 113.5 L528.0 109.5 L528.0 105.5 L528.0 101.5 L528.0 97.5 L528.0 93.5 L528.0 89.5 L528.0 85.5 L528.0 81.5 L528.0 77.5 L528.0 73.5 L528.0 69.5 L528.0 65.5 L528.0 61.5 L528.0 57.5 L528.0 53.5 L528.0 49.5 L528.0 45.5 L528.0 41.5 L528.0 37.5 L528.0 33.5 L528.0 29.5 L528.0 25.5 L528.0 21.5 L528.0 17.5 L527.0 15.0 L15.0 15.0 L15.0 528.0 L527.0 528.0 L528.0 525.5 Z "/>
</g>
<g  style="stroke:#FF0000;stroke-width:0.1;" >
<path d="M271.0 252.0 L271.0 174.27927 L271.0 252.0 Z "/>
</g>
<g  style="stroke:#00FF00;stroke-width:0.1;" >
<path d="M276.00003 223.47998 L266.00003 223.47998 L276.00003 223.47998 Z "/>
</g>
<g  style="stroke:#00FF00;stroke-width:0.1;" >
<path d="M276.00003 175.95998 L266.00003 175.95998 L276.00003 175.95998 Z "/>
</g>
<g  style="stroke:#00FF00;stroke-width:0.1;" >
<path d="M273.0 266.248 L269.0 266.248 L273.0 266.248 Z "/>
</g>
<g  style="stroke:#00FF00;stroke-width:0.1;" >
<path d="M273.00003 261.496 L269.00003 261.496 L273.00003 261.496 Z "/>
</g>
<g  style="stroke:#00FF00;stroke-width:0.1;" >
<path d="M273.00003 256.744 L269.00003 256.744 L273.00003 256.744 Z "/>
</g>
<g  style="stroke:#00FF00;stroke-width:0.1;" >
<path d="M273.00003 251.99199 L269.00003 251.99199 L273.00003 251.99199 Z "/>
</g>
<g  style="stroke:#00FF00;stroke-width:0.1;" >
<path d="M273.00003 247.23999 L269.00003 247.23999 L273.00003 247.23999 Z "/>
</g>
<g  style="stroke:#00FF00;stroke-width:0.1;" >
<path d="M273.00003 242.48799 L269.00003 242.48799 L273.00003 242.48799 Z "/>
</g>
<g  style="stroke:#00FF00;stroke-width:0.1;" >
<path d="M273.00003 237.73598 L269.00003 237.73598 L273.00003 237.73598 Z "/>
</g>
<g  style="stroke:#00FF00;stroke-width:0.1;" >
<path d="M273.00003 232.984 L269.00003 232.984 L273.00003 232.984 Z "/>
</g>
<g  style="stroke:#00FF00;stroke-width:0.1;" >
<path d="M273.00003 228.23198 L269.00003 228.23198 L273.00003 228.23198 Z "/>
</g>
<g  style="stroke:#00FF00;stroke-width:0.1;" >
<path d="M273.00003 218.72798 L269.00003 218.72798 L273.00003 218.72798 Z "/>
</g>
<g  style="stroke:#00FF00;stroke-width:0.1;" >
<path d="M273.00003 213.97598 L269.00003 213.97598 L273.00003 213.97598 Z "/>
</g>
<g  style="stroke:#00FF00;stroke-width:0.1;" >
<path d="M273.00003 209.22398 L269.00003 209.22398 L273.00003 209.22398 Z "/>
</g>
<g  style="stroke:#00FF00;stroke-width:0.1;" >
<path d="M273.00003 204.47198 L269.00003 204.47198 L273.00003 204.47198 Z "/>
</g>
<g  style="stroke:#00FF00;stroke-width:0.1;" >
<path d="M273.00003 199.71999 L269.00003 199.71999 L273.00003 199.71999 Z "/>
</g>
<g  style="stroke:#00FF00;stroke-width:0.1;" >
<path d="M273.00003 194.96799 L269.00003 194.96799 L273.00003 194.96799 Z "/>
</g>
<g  style="stroke:#00FF00;stroke-width:0.1;" >
<path d="M273.00003 190.21599 L269.00003 190.21599 L273.00003 190.21599 Z "/>
</g>
<g  style="stroke:#00FF00;stroke-width:0.1;" >
<path d="M273.00003 185.46399 L269.00003 185.46399 L273.00003 185.46399 Z "/>
</g>
<g  style="stroke:#00FF00;stroke-width:0.1;" >
<path d="M273.00003 180.71199 L269.00003 180.71199 L273.00003 180.71199 Z "/>
</g>
<g  style="fill:#F6921E;stroke:#F6921E;stroke-width:0.1;" >
<path d="M539.5 542.0 L3.5 542.0 L1.0 541.0 L1.0 537.0 L1.0 533.0 L1.0 529.0 L1.0 525.0 L1.0 521.0 L1.0 517.0 L1.0 513.0 L1.0 509.0 L1.0 505.0 L1.0 501.0 L1.0 497.0 L1.0 493.0 L1.0 489.0 L1.0 485.0 L1.0 481.0 L1.0 477.0 L1.0 473.0 L1.0 469.0 L1.0 465.0 L1.0 461.0 L1.0 457.0 L1.0 453.0 L1.0 449.0 L1.0 445.0 L1.0 441.0 L1.0 437.0 L1.0 433.0 L1.0 429.0 L1.0 425.0 L1.0 421.0 L1.0 417.0 L1.0 413.0 L1.0 409.0 L1.0 405.0 L1.0 401.0 L1.0 397.0 L1.0 393.0 L1.0 389.0 L1.0 385.0 L1.0 381.0 L1.0 377.0 L1.0 373.0 L1.0 369.0 L1.0 365.0 L1.0 361.0 L1.0 357.0 L1.0 353.0 L1.0 349.0 L1.0 345.0 L1.0 341.0 L1.0 337.0 L1.0 333.0 L1.0 329.0 L1.0 325.0 L1.0 321.0 L1.0 317.0 L1.0 313.0 L1.0 309.0 L1.0 305.0 L1.0 301.0 L1.0 297.0 L1.0 293.0 L1.0 289.0 L1.0 285.0 L1.0 281.0 L1.0 277.0 L1.0 273.0 L1.0 269.0 L1.0 265.0 L1.0 261.0 L1.0 257.0 L1.0 253.0 L1.0 249.0 L1.0 245.0 L1.0 241.0 L1.0 237.0 L1.0 233.0 L1.0 229.0 L1.0 225.0 L1.0 221.0 L1.0 217.0 L1.0 213.0 L1.0 209.0 L1.0 205.0 L1.0 201.0 L1.0 197.0 L1.0 193.0 L1.0 189.0 L1.0 185.0 L1.0 181.0 L1.0 177.0 L1.0 173.0 L1.0 169.0 L1.0 165.0 L1.0 161.0 L1.0 157.0 L1.0 153.0 L1.0 149.0 L1.0 145.0 L1.0 141.0 L1.0 137.0 L1.0 133.0 L1.0 129.0 L1.0 125.0 L1.0 121.0 L1.0 117.0 L1.0 113.0 L1.0 109.0 L1.0 105.0 L1.0 101.0 L1.0 97.0 L1.0 93.0 L1.0 89.0 L1.0 85.0 L1.0 81.0 L1.0 77.0 L1.0 73.0 L1.0 69.0 L1.0 65.0 L1.0 61.0 L1.0 57.0 L1.0 53.0 L1.0 49.0 L1.0 45.0 L1.0 41.0 L1.0 37.0 L1.0 33.0 L1.0 29.0 L1.0 25.0 L1.0 21.0 L1.0 17.0 L1.0 13.0 L1.0 9.0 L1.0 5.0 L1.0 1.0 L542.0 1.0 L542.0 5.0 L542.0 9.0 L542.0 13.0 L542.0 17.0 L542.0 21.0 L542.0 25.0 L542.0 29.0 L542.0 33.0 L542.0 37.0 L542.0 41.0 L542.0 45.0 L542.0 49.0 L542.0 53.0 L542.0 57.0 L542.0 61.0 L542.0 65.0 L542.0 69.0 L542.0 73.0 L542.0 77.0 L542.0 81.0 L542.0 85.0 L542.0 89.0 L542.0 93.0 L542.0 97.0 L542.0 101.0 L542.0 105.0 L542.0 109.0 L542.0 113.0 L542.0 117.0 L542.0 121.0 L542.0 125.0 L542.0 129.0 L542.0 133.0 L542.0 137.0 L542.0 141.0 L542.0 145.0 L542.0 149.0 L542.0 153.0 L542.0 157.0 L542.0 161.0 L542.0 165.0 L542.0 169.0 L542.0 173.0 L542.0 177.0 L542.0 181.0 L542.0 185.0 L542.0 189.0 L542.0 193.0 L542.0 197.0 L542.0 201.0 L542.0 205.0 L542.0 209.0 L542.0 213.0 L542.0 217.0 L542.0 221.0 L542.0 225.0 L542.0 229.0 L542.0 233.0 L542.0 237.0 L542.0 241.0 L542.0 245.0 L542.0 249.0 L542.0 253.0 L542.0 257.0 L542.0 261.0 L542.0 265.0 L542.0 269.0 L542.0 273.0 L542.0 277.0 L542.0 281.0 L542.0 285.0 L542.0 289.0 L542.0 293.0 L542.0 297.0 L542.0 301.0 L542.0 305.0 L542.0 309.0 L542.0 313.0 L542.0 317.0 L542.0 321.0 L542.0 325.0 L542.0 329.0 L542.0 333.0 L542.0 337.0 L542.0 341.0 L542.0 345.0 L542.0 349.0 L542.0 353.0 L542.0 357.0 L542.0 361.0 L542.0 365.0 L542.0 369.0 L542.0 373.0 L542.0 377.0 L542.0 381.0 L542.0 385.0 L542.0 389.0 L542.0 393.0 L542.0 397.0 L542.0 401.0 L542.0 405.0 L542.0 409.0 L542.0 413.0 L542.0 417.0 L542.0 421.0 L542.0 425.0 L542.0 429.0 L542.0 433.0 L542.0 437.0 L542.0 441.0 L542.0 445.0 L542.0 449.0 L542.0 453.0 L542.0 457.0 L542.0 461.0 L542.0 465.0 L542.0 469.0 L542.0 473.0 L542.0 477.0 L542.0 481.0 L542.0 485.0 L542.0 489.0 L542.0 493.0 L542.0 497.0 L542.0 501.0 L542.0 505.0 L542.0 509.0 L542.0 513.0 L542.0 517.0 L542.0 521.0 L542.0 525.0 L542.0 529.0 L542.0 533.0 L542.0 537.0 L542.0 541.0 L539.5 542.0 Z M528.0 525.5 L528.0 521.5 L528.0 517.5 L528.0 513.5 L528.0 509.5 L528.0 505.5 L528.0 501.5 L528.0 497.5 L528.0 493.5 L528.0 489.5 L528.0 485.5 L528.0 481.5 L528.0 477.5 L528.0 473.5 L528.0 469.5 L528.0 465.5 L528.0 461.5 L528.0 457.5 L528.0 453.5 L528.0 449.5 L528.0 445.5 L528.0 441.5 L528.0 437.5 L528.0 433.5 L528.0 429.5 L528.0 425.5 L528.0 421.5 L528.0 417.5 L528.0 413.5 L528.0 409.5 L528.0 405.5 L528.0 401.5 L528.0 397.5 L528.0 393.5 L528.0 389.5 L528.0 385.5 L528.0 381.5 L528.0 377.5 L528.0 373.5 L528.0 369.5 L528.0 365.5 L528.0 361.5 L528.0 357.5 L528.0 353.5 L528.0 349.5 L528.0 345.5 L528.0 341.5 L528.0 337.5 L528.0 333.5 L528.0 329.5 L528.0 325.5 L528.0 321.5 L528.0 317.5 L528.0 313.5 L528.0 309.5 L528.0 305.5 L528.0 301.5 L528.0 297.5 L528.0 293.5 L528.0 289.5 L528.0 285.5 L528.0 281.5 L528.0 277.5 L528.0 273.5 L528.0 269.5 L528.0 265.5 L528.0 261.5 L528.0 257.5 L528.0 253.5 L528.0 249.5 L528.0 245.5 L528.0 241.5 L528.0 237.5 L528.0 233.5 L528.0 229.5 L528.0 225.5 L528.0 221.5 L528.0 217.5 L528.0 213.5 L528.0 209.5 L528.0 205.5 L528.0 201.5 L528.0 197.5 L528.0 193.5 L528.0 189.5 L528.0 185.5 L528.0 181.5 L528.0 177.5 L528.0 173.5 L528.0 169.5 L528.0 165.5 L528.0 161.5 L528.0 157.5 L528.0 153.5 L528.0 149.5 L528.0 145.5 L528.0 141.5 L528.0 137.5 L528.0 133.5 L528.0 129.5 L528.0 125.5 L528.0 121.5 L528.0 117.5 L528.0 113.5 L528.0 109.5 L528.0 105.5 L528.0 101.5 L528.0 97.5 L528.0 93.5 L528.0 89.5 L528.0 85.5 L528.0 81.5 L528.0 77.5 L528.0 73.5 L528.0 69.5 L528.0 65.5 L528.0 61.5 L528.0 57.5 L528.0 53.5 L528.0 49.5 L528.0 45.5 L528.0 41.5 L528.0 37.5 L528.0 33.5 L528.0 29.5 L528.0 25.5 L528.0 21.5 L528.0 17.5 L527.0 15.0 L15.0 15.0 L15.0 528.0 L527.0 528.0 L528.0 525.5 Z "/>
</g>
<g  style="stroke:#FF0000;stroke-width:0.1;" >
<path d="M284.43503 257.56497 L374.5829 167.4172 L284.43503 257.56497 Z "/>
</g>
<g  style="stroke:#00FF00;stroke-width:0.1;" >
<path d="M308.13727 240.9338 L301.06616 233.86276 L308.13727 240.9338 Z "/>
</g>
<g  style="stroke:#00FF00;stroke-width:0.1;" >
<path d="M341.73895 207.33212 L334.6679 200.26102 L341.73895 207.33212 Z "/>
</g>
<g  style="stroke:#00FF00;stroke-width:0.1;" >
<path d="M375.3407 173.73038 L368.2696 166.65933 L375.3407 173.73038 Z "/>
</g>
<g  style="stroke:#00FF00;stroke-width:0.1;" >
<path d="M275.7744 269.05405 L272.94598 266.22562 L275.7744 269.05405 Z "/>
</g>
<g  style="stroke:#00FF00;stroke-width:0.1;" >
<path d="M279.13455 265.69388 L276.30612 262.86545 L279.13455 265.69388 Z "/>
</g>
<g  style="stroke:#00FF00;stroke-width:0.1;" >
<path d="M282.49475 262.3337 L279.66632 259.50528 L282.49475 262.3337 Z "/>
</g>
<g  style="stroke:#00FF00;stroke-width:0.1;" >
<path d="M285.8549 258.97354 L283.02646 256.1451 L285.8549 258.97354 Z "/>
</g>
<g  style="stroke:#00FF00;stroke-width:0.1;" >
<path d="M289.21506 255.61337 L286.38663 252.78494 L289.21506 255.61337 Z "/>
</g>
<g  style="stroke:#00FF00;stroke-width:0.1;" >
<path d="M292.57526 252.2532 L289.74683 249.42477 L292.57526 252.2532 Z "/>
</g>
<g  style="stroke:#00FF00;stroke-width:0.1;" >
<path d="M295.93542 248.89304 L293.107 246.0646 L295.93542 248.89304 Z "/>
</g>
<g  style="stroke:#00FF00;stroke-width:0.1;" >
<path d="M299.2956 245.53287 L296.46716 242.70444 L299.2956 245.53287 Z "/>
</g>
<g  style="stroke:#00FF00;stroke-width:0.1;" >
<path d="M302.65576 242.17267 L299.82733 239.34424 L302.65576 242.17267 Z "/>
</g>
<g  style="stroke:#00FF00;stroke-width:0.1;" >
<path d="M309.3761 235.45233 L306.54767 232.6239 L309.3761 235.45233 Z "/>
</g>
<g  style="stroke:#00FF00;stroke-width:0.1;" >
<path d="M312.73627 232.09216 L309.90784 229.26373 L312.73627 232.09216 Z "/>
</g>
<g  style="stroke:#00FF00;stroke-width:0.1;" >
<path d="M316.09644 228.732 L313.268 225.90356 L316.09644 228.732 Z "/>
</g>
<g  style="stroke:#00FF00;stroke-width:0.1;" >
<path d="M319.4566 225.37183 L316.62817 222.5434 L319.4566 225.37183 Z "/>
</g>
<g  style="stroke:#00FF00;stroke-width:0.1;" >
<path d="M322.81677 222.01163 L319.98834 219.1832 L322.81677 222.01163 Z "/>
</g>
<g  style="stroke:#00FF00;stroke-width:0.1;" >
<path d="M326.17694 218.65146 L323.3485 215.82303 L326.17694 218.65146 Z "/>
</g>
<g  style="stroke:#00FF00;stroke-width:0.1;" >
<path d="M329.5371 215.29129 L326.70868 212.46286 L329.5371 215.29129 Z "/>
</g>
<g  style="stroke:#00FF00;stroke-width:0.1;" >
<path d="M332.89728 211.93112 L330.06885 209.10269 L332.89728 211.93112 Z "/>
</g>
<g  style="stroke:#00FF00;stroke-width:0.1;" >
<path d="M336.25745 208.57095 L333.42902 205.74252 L336.25745 208.57095 Z "/>
</g>
<g  style="stroke:#00FF00;stroke-width:0.1;" >
<path d="M342.9778 201.85062 L340.14938 199.02219 L342.9778 201.85062 Z "/>
</g>
<g  style="stroke:#00FF00;stroke-width:0.1;" >
<path d="M346.33798 198.49045 L343.50955 195.66202 L346.33798 198.49045 Z "/>
</g>
<g  style="stroke:#00FF00;stroke-width:0.1;" >
<path d="M349.69815 195.13028 L346.86972 192.30185 L349.69815 195.13028 Z "/>
</g>
<g  style="stroke:#00FF00;stroke-width:0.1;" >
<path d="M353.05832 191.77011 L350.2299 188.94168 L353.05832 191.77011 Z "/>
</g>
<g  style="stroke:#00FF00;stroke-width:0.1;" >
<path d="M356.4185 188.40994 L353.59006 185.58151 L356.4185 188.40994 Z "/>
</g>
<g  style="stroke:#00FF00;stroke-width:0.1;" >
<path d="M359.7787 185.04977 L356.95026 182.22134 L359.7787 185.04977 Z "/>
</g>
<g  style="stroke:#00FF00;stroke-width:0.1;" >
<path d="M363.13885 181.6896 L360.31042 178.86118 L363.13885 181.6896 Z "/>
</g>
<g  style="stroke:#00FF00;stroke-width:0.1;" >
<path d="M366.49902 178.32944 L363.6706 175.501 L366.49902 178.32944 Z "/>
</g>
<g  style="stroke:#00FF00;stroke-width:0.1;" >
<path d="M369.8592 174.96927 L367.03076 172.14084 L369.8592 174.96927 Z "/>
</g>
<g  style="fill:#F6921E;stroke:#F6921E;stroke-width:0.1;" >
<path d="M539.5 542.0 L3.5 542.0 L1.0 541.0 L1.0 537.0 L1.0 533.0 L1.0 529.0 L1.0 525.0 L1.0 521.0 L1.0 517.0 L1.0 513.0 L1.0 509.0 L1.0 505.0 L1.0 501.0 L1.0 497.0 L1.0 493.0 L1.0 489.0 L1.0 485.0 L1.0 481.0 L1.0 477.0 L1.0 473.0 L1.0 469.0 L1.0 465.0 L1.0 461.0 L1.0 457.0 L1.0 453.0 L1.0 449.0 L1.0 445.0 L1.0 441.0 L1.0 437.0 L1.0 433.0 L1.0 429.0 L1.0 425.0 L1.0 421.0 L1.0 417.0 L1.0 413.0 L1.0 409.0 L1.0 405.0 L1.0 401.0 L1.0 397.0 L1.0 393.0 L1.0 389.0 L1.0 385.0 L1.0 381.0 L1.0 377.0 L1.0 373.0 L1.0 369.0 L1.0 365.0 L1.0 361.0 L1.0 357.0 L1.0 353.0 L1.0 349.0 L1.0 345.0 L1.0 341.0 L1.0 337.0 L1.0 333.0 L1.0 329.0 L1.0 325.0 L1.0 321.0 L1.0 317.0 L1.0 313.0 L1.0 309.0 L1.0 305.0 L1.0 301.0 L1.0 297.0 L1.0 293.0 L1.0 289.0 L1.0 285.0 L1.0 281.0 L1.0 277.0 L1.0 273.0 L1.0 269.0 L1.0 265.0 L1.0 261.0 L1.0 257.0 L1.0 253.0 L1.0 249.0 L1.0 245.0 L1.0 241.0 L1.0 237.0 L1.0 233.0 L1.0 229.0 L1.0 225.0 L1.0 221.0 L1.0 217.0 L1.0 213.0 L1.0 209.0 L1.0 205.0 L1.0 201.0 L1.0 197.0 L1.0 193.0 L1.0 189.0 L1.0 185.0 L1.0 181.0 L1.0 177.0 L1.0 173.0 L1.0 169.0 L1.0 165.0 L1.0 161.0 L1.0 157.0 L1.0 153.0 L1.0 149.0 L1.0 145.0 L1.0 141.0 L1.0 137.0 L1.0 133.0 L1.0 129.0 L1.0 125.0 L1.0 121.0 L1.0 117.0 L1.0 113.0 L1.0 109.0 L1.0 105.0 L1.0 101.0 L1.0 97.0 L1.0 93.0 L1.0 89.0 L1.0 85.0 L1.0 81.0 L1.0 77.0 L1.0 73.0 L1.0 69.0 L1.0 65.0 L1.0 61.0 L1.0 57.0 L1.0 53.0 L1.0 49.0 L1.0 45.0 L1.0 41.0 L1.0 37.0 L1.0 33.0 L1.0 29.0 L1.0 25.0 L1.0 21.0 L1.0 17.0 L1.0 13.0 L1.0 9.0 L1.0 5.0 L1.0 1.0 L542.0 1.0 L542.0 5.0 L542.0 9.0 L542.0 13.0 L542.0 17.0 L542.0 21.0 L542.0 25.0 L542.0 29.0 L542.0 33.0 L542.0 37.0 L542.0 41.0 L542.0 45.0 L542.0 49.0 L542.0 53.0 L542.0 57.0 L542.0 61.0 L542.0 65.0 L542.0 69.0 L542.0 73.0 L542.0 77.0 L542.0 81.0 L542.0 85.0 L542.0 89.0 L542.0 93.0 L542.0 97.0 L542.0 101.0 L542.0 105.0 L542.0 109.0 L542.0 113.0 L542.0 117.0 L542.0 121.0 L542.0 125.0 L542.0 129.0 L542.0 133.0 L542.0 137.0 L542.0 141.0 L542.0 145.0 L542.0 149.0 L542.0 153.0 L542.0 157.0 L542.0 161.0 L542.0 165.0 L542.0 169.0 L542.0 173.0 L542.0 177.0 L542.0 181.0 L542.0 185.0 L542.0 189.0 L542.0 193.0 L542.0 197.0 L542.0 201.0 L542.0 205.0 L542.0 209.0 L542.0 213.0 L542.0 217.0 L542.0 221.0 L542.0 225.0 L542.0 229.0 L542.0 233.0 L542.0 237.0 L542.0 241.0 L542.0 245.0 L542.0 249.0 L542.0 253.0 L542.0 257.0 L542.0 261.0 L542.0 265.0 L542.0 269.0 L542.0 273.0 L542.0 277.0 L542.0 281.0 L542.0 285.0 L542.0 289.0 L542.0 293.0 L542.0 297.0 L542.0 301.0 L542.0 305.0 L542.0 309.0 L542.0 313.0 L542.0 317.0 L542.0 321.0 L542.0 325.0 L542.0 329.0 L542.0 333.0 L542.0 337.0 L542.0 341.0 L542.0 345.0 L542.0 349.0 L542.0 353.0 L542.0 357.0 L542.0 361.0 L542.0 365.0 L542.0 369.0 L542.0 373.0 L542.0 377.0 L542.0 381.0 L542.0 385.0 L542.0 389.0 L542.0 393.0 L542.0 397.0 L542.0 401.0 L542.0 405.0 L542.0 409.0 L542.0 413.0 L542.0 417.0 L542.0 421.0 L542.0 425.0 L542.0 429.0 L542.0 433.0 L542.0 437.0 L542.0 441.0 L542.0 445.0 L542.0 449.0 L542.0 453.0 L542.0 457.0 L542.0 461.0 L542.0 465.0 L542.0 469.0 L542.0 473.0 L542.0 477.0 L542.0 481.0 L542.0 485.0 L542.0 489.0 L542.0 493.0 L542.0 497.0 L542.0 501.0 L542.0 505.0 L542.0 509.0 L542.0 513.0 L542.0 517.0 L542.0 521.0 L542.0 525.0 L542.0 529.0 L542.0 533.0 L542.0 537.0 L542.0 541.0 L539.5 542.0 Z M528.0 525.5 L528.0 521.5 L528.0 517.5 L528.0 513.5 L528.0 509.5 L528.0 505.5 L528.0 501.5 L528.0 497.5 L528.0 493.5 L528.0 489.5 L528.0 485.5 L528.0 481.5 L528.0 477.5 L528.0 473.5 L528.0 469.5 L528.0 465.5 L528.0 461.5 L528.0 457.5 L528.0 453.5 L528.0 449.5 L528.0 445.5 L528.0 441.5 L528.0 437.5 L528.0 433.5 L528.0 429.5 L528.0 425.5 L528.0 421.5 L528.0 417.5 L528.0 413.5 L528.0 409.5 L528.0 405.5 L528.0 401.5 L528.0 397.5 L528.0 393.5 L528.0 389.5 L528.0 385.5 L528.0 381.5 L528.0 377.5 L528.0 373.5 L528.0 369.5 L528.0 365.5 L528.0 361.5 L528.0 357.5 L528.0 353.5 L528.0 349.5 L528.0 345.5 L528.0 341.5 L528.0 337.5 L528.0 333.5 L528.0 329.5 L528.0 325.5 L528.0 321.5 L528.0 317.5 L528.0 313.5 L528.0 309.5 L528.0 305.5 L528.0 301.5 L528.0 297.5 L528.0 293.5 L528.0 289.5 L528.0 285.5 L528.0 281.5 L528.0 277.5 L528.0 273.5 L528.0 269.5 L528.0 265.5 L528.0 261.5 L528.0 257.5 L528.0 253.5 L528.0 249.5 L528.0 245.5 L528.0 241.5 L528.0 237.5 L528.0 233.5 L528.0 229.5 L528.0 225.5 L528.0 221.5 L528.0 217.5 L528.0 213.5 L528.0 209.5 L528.0 205.5 L528.0 201.5 L528.0 197.5 L528.0 193.5 L528.0 189.5 L528.0 185.5 L528.0 181.5 L528.0 177.5 L528.0 173.5 L528.0 169.5 L528.0 165.5 L528.0 161.5 L528.0 157.5 L528.0 153.5 L528.0 149.5 L528.0 145.5 L528.0 141.5 L528.0 137.5 L528.0 133.5 L528.0 129.5 L528.0 125.5 L528.0 121.5 L528.0 117.5 L528.0 113.5 L528.0 109.5 L528.0 105.5 L528.0 101.5 L528.0 97.5 L528.0 93.5 L528.0 89.5 L528.0 85.5 L528.0 81.5 L528.0 77.5 L528.0 73.5 L528.0 69.5 L528.0 65.5 L528.0 61.5 L528.0 57.5 L528.0 53.5 L528.0 49.5 L528.0 45.5 L528.0 41.5 L528.0 37.5 L528.0 33.5 L528.0 29.5 L528.0 25.5 L528.0 21.5 L528.0 17.5 L527.0 15.0 L15.0 15.0 L15.0 528.0 L527.0 528.0 L528.0 525.5 Z "/>
</g>
</g>
</svg>
