<?xml version="1.0" standalone="no"?>
<!DOCTYPE svg PUBLIC "-//W3C//DTD SVG 1.1//EN" "http://www.w3.org/Graphics/SVG/1.1/DTD/svg11.dtd">
<svg width="100%" height="100%" version="1.1" xmlns="http://www.w3.org/2000/svg">
<g  style="fill:#FAFAFA;stroke:#0000FF;stroke-width:0.1;" >
<path d="M294.97958 445.3227 L291.4558 445.30164 L287.46436 444.95886 L283.4729 444.6161 L279.48145 444.27332 L275.49 443.93054 L271.49854 443.58777 L268.11737 442.53882 L264.7543 441.36496 L260.9108 440.0234 L257.0673 438.68185 L253.2237 437.3403 L250.15874 435.5234 L246.7133 433.32516 L243.26787 431.12692 L240.25311 429.20346 L236.80768 427.00522 L234.00983 424.86392 L230.99786 422.2289 L227.9859 419.5939 L224.97394 416.9589 L221.96198 414.32388 L219.32634 412.01807 L216.50871 409.06152 L213.69109 406.10498 L210.87346 403.14844 L208.40804 400.56146 L205.59041 397.60492 L203.1751 394.97195 L200.49077 391.8914 L197.80644 388.81082 L195.12212 385.73026 L192.77333 383.03476 L190.089 379.9542 L187.75002 377.2597 L185.07655 374.1806 L182.40309 371.1015 L179.72963 368.0224 L177.39035 365.3282 L175.02316 362.69592 L172.3121 359.6991 L169.60104 356.70227 L166.88998 353.70544 L164.17892 350.70862 L161.84322 348.05045 L159.17403 345.01285 L156.50484 341.97525 L153.83565 338.93765 L151.16646 335.90005 L148.97345 333.1396 L146.46722 329.98505 L144.27428 327.22482 L141.76805 324.07028 L139.26183 320.91574 L137.29147 318.00357 L135.08212 314.64664 L132.87277 311.2897 L130.66342 307.93277 L128.45407 304.57584 L126.9294 301.36627 L125.186844 297.6978 L123.44429 294.02936 L121.70174 290.3609 L120.36909 287.09262 L119.39539 283.19125 L118.54341 279.77756 L117.56972 275.8762 L116.59602 271.97482 L116.26071 268.47498 L116.113495 264.43494 L115.96628 260.3949 L115.81906 256.35486 L115.671844 252.31482 L115.86338 248.76222 L116.2288 244.69435 L116.594215 240.62648 L116.913956 237.0671 L117.27937 232.99922 L117.64479 228.93135 L118.27325 225.44728 L119.05047 221.48012 L119.82769 217.51295 L120.60491 213.54579 L121.38213 209.57863 L122.159355 205.61147 L122.95864 202.70851 L124.1683 198.88588 L125.37795 195.06325 L126.58761 191.24062 L127.797264 187.41798 L129.00697 183.59535 L130.35448 180.36703 L132.1422 176.77719 L133.92992 173.18735 L135.71764 169.5975 L137.50536 166.00766 L139.18405 162.93349 L141.88962 159.8816 L144.59518 156.82973 L147.30075 153.77785 L150.00632 150.72597 L152.70241 149.3781 L156.47475 147.83159 L160.24709 146.28508 L164.01942 144.73857 L167.45625 144.042 L171.50056 143.80849 L175.54488 143.57497 L179.58919 143.34145 L183.12796 143.13712 L186.66745 143.2646 L190.71335 143.69441 L194.75925 144.12422 L198.80515 144.55403 L202.85104 144.98384 L206.39107 145.36018 L210.33858 146.06844 L214.28609 146.77669 L218.2336 147.48494 L222.1811 148.19319 L226.12862 148.90144 L229.59048 149.5279 L233.10074 150.19258 L237.11246 150.95222 L241.12418 151.71187 L245.1359 152.47151 L249.14761 153.23116 L252.64206 153.80762 L256.6113 154.33276 L260.58054 154.85791 L264.54977 155.38306 L268.519 155.9082 L272.00372 156.25537 L276.01862 156.33203 L280.0335 156.40869 L283.54654 156.47577 L287.56143 156.55243 L291.0707 156.56538 L295.07095 156.425 L299.0712 156.28462 L303.07144 156.14424 L307.0717 156.00386 L310.57834 155.88365 L314.6284 155.76659 L318.67844 155.64952 L322.7285 155.53246 L326.77853 155.41539 L330.32382 155.34892 L334.38974 155.51775 L338.45566 155.68657 L342.01334 155.83429 L346.07925 156.00311 L349.58057 156.39554 L353.49585 157.21744 L357.41113 158.03934 L361.32642 158.86124 L363.77368 159.375 L375.6109 166.38916 L377.75104 169.78601 L379.89117 173.18286 L382.0313 176.57971 L383.2825 179.81197 L384.18045 183.72871 L385.0784 187.64546 L385.97635 191.56221 L386.4319 195.07645 L386.66968 199.16714 L386.90747 203.25784 L387.14526 207.34854 L387.35333 210.9279 L387.3366 214.45006 L387.31732 218.4752 L387.29803 222.50035 L387.27875 226.5255 L387.25946 230.55064 L387.27225 234.11304 L387.28714 238.18408 L387.30203 242.25513 L387.31693 246.32617 L387.32996 249.88834 L387.5279 253.41779 L387.8377 257.43658 L388.14752 261.45538 L388.45734 265.47418 L388.76715 269.49298 L389.31207 272.9944 L390.17047 276.98315 L391.02887 280.97192 L391.88727 284.9607 L392.63837 288.45087 L393.49677 292.43964 L394.43707 295.84076 L395.54694 299.71136 L396.6568 303.58197 L397.76666 307.45258 L398.87653 311.32318 L399.9864 315.1938 L400.95657 318.58423 L402.05862 322.47998 L403.16068 326.37573 L404.26273 330.27148 L405.22702 333.68027 L406.32907 337.57602 L407.43112 341.47177 L408.3642 344.89087 L409.21088 348.8672 L410.05756 352.8435 L410.90424 356.81982 L411.75092 360.79614 L412.49176 364.27542 L413.33844 368.25174 L413.7555 371.7717 L413.95374 375.8293 L414.15198 379.88693 L414.35022 383.94455 L414.54846 388.00217 L414.7467 392.05978 L413.67944 395.40445 L412.46045 399.2267 L411.24146 403.04898 L410.02246 406.87125 L408.8855 409.59537 L405.885 412.27383 L402.88452 414.9523 L399.88403 417.63077 L396.88354 420.30923 L394.08435 422.4155 L390.3871 424.144 L386.68982 425.87253 L382.99255 427.60104 L379.2953 429.32956 L376.06018 430.842 L372.80157 432.27612 L368.91632 433.37402 L365.03107 434.47192 L361.1458 435.56982 L357.26056 436.66772 L353.3753 437.76562 L349.49005 438.86353 L346.06937 439.71036 L342.1028 440.3517 L338.13626 440.99307 L334.1697 441.63443 L330.20316 442.2758 L326.2366 442.91714 L322.27005 443.5585 L318.78796 444.06622 L315.24203 444.25336 L311.18954 444.46722 L307.13705 444.6811 L303.08456 444.89496 L299.03207 445.10883 L294.97958 445.3227 Z M277.74 292.41278 L278.74802 289.84 L286.8149 289.84 L289.84 289.33615 L289.84 285.3027 L289.84 281.26926 L289.83987 277.74 L293.95633 277.74 L295.5 276.22513 L295.5 272.1851 L295.5 268.14505 L295.5 264.105 L292.41278 263.6 L289.84 262.59665 L289.84 258.58395 L289.84 254.57121 L289.84033 251.06 L277.74 251.06 L277.74 247.9727 L276.73013 245.4 L264.61002 245.4 L263.6 247.97275 L263.0982 251.05975 L259.0838 251.05817 L255.0694 251.05658 L251.055 251.055 L251.06 263.6 L246.42908 263.6 L245.4 266.12488 L245.4 270.16492 L245.4 274.20496 L245.40004 277.74 L249.51637 277.74 L251.06 279.75638 L251.06 283.28564 L251.06 287.3191 L252.06339 289.84 L260.0889 289.84 L263.6 289.83987 L263.6 293.95633 L265.61987 295.5 L277.74 295.5 L277.74 292.41278 Z "/>
<g  style="stroke:#FF0000;stroke-width:0.1;" >
<path d="M290.0 271.0 L388.88287 271.0 L290.0 271.0 Z "/>
</g>
<g  style="stroke:#00FF00;stroke-width:0.1;" >
<path d="M318.52 276.0 L318.52 266.0 L318.52 276.0 Z "/>
</g>
<g  style="stroke:#00FF00;stroke-width:0.1;" >
<path d="M366.03998 276.0 L366.03998 266.0 L366.03998 276.0 Z "/>
</g>
<g  style="stroke:#00FF00;stroke-width:0.1;" >
<path d="M275.752 273.0 L275.752 269.0 L275.752 273.0 Z "/>
</g>
<g  style="stroke:#00FF00;stroke-width:0.1;" >
<path d="M280.504 273.0 L280.504 269.0 L280.504 273.0 Z "/>
</g>
<g  style="stroke:#00FF00;stroke-width:0.1;" >
<path d="M285.256 273.0 L285.256 269.0 L285.256 273.0 Z "/>
</g>
<g  style="stroke:#00FF00;stroke-width:0.1;" >
<path d="M290.008 273.0 L290.008 269.0 L290.008 273.0 Z "/>
</g>
<g  style="stroke:#00FF00;stroke-width:0.1;" >
<path d="M294.75998 273.0 L294.75998 269.0 L294.75998 273.0 Z "/>
</g>
<g  style="stroke:#00FF00;stroke-width:0.1;" >
<path d="M299.51196 273.0 L299.51196 269.0 L299.51196 273.0 Z "/>
</g>
<g  style="stroke:#00FF00;stroke-width:0.1;" >
<path d="M304.26398 273.0 L304.26398 269.0 L304.26398 273.0 Z "/>
</g>
<g  style="stroke:#00FF00;stroke-width:0.1;" >
<path d="M309.016 273.0 L309.016 269.0 L309.016 273.0 Z "/>
</g>
<g  style="stroke:#00FF00;stroke-width:0.1;" >
<path d="M313.768 273.0 L313.768 269.0 L313.768 273.0 Z "/>
</g>
<g  style="stroke:#00FF00;stroke-width:0.1;" >
<path d="M323.27197 273.0 L323.27197 269.0 L323.27197 273.0 Z "/>
</g>
<g  style="stroke:#00FF00;stroke-width:0.1;" >
<path d="M328.024 273.0 L328.024 269.0 L328.024 273.0 Z "/>
</g>
<g  style="stroke:#00FF00;stroke-width:0.1;" >
<path d="M332.776 273.0 L332.776 269.0 L332.776 273.0 Z "/>
</g>
<g  style="stroke:#00FF00;stroke-width:0.1;" >
<path d="M337.52798 273.0 L337.52798 269.0 L337.52798 273.0 Z "/>
</g>
<g  style="stroke:#00FF00;stroke-width:0.1;" >
<path d="M342.27997 273.0 L342.27997 269.0 L342.27997 273.0 Z "/>
</g>
<g  style="stroke:#00FF00;stroke-width:0.1;" >
<path d="M347.03198 273.0 L347.03198 269.0 L347.03198 273.0 Z "/>
</g>
<g  style="stroke:#00FF00;stroke-width:0.1;" >
<path d="M351.784 273.0 L351.784 269.0 L351.784 273.0 Z "/>
</g>
<g  style="stroke:#00FF00;stroke-width:0.1;" >
<path d="M356.53598 273.0 L356.53598 269.0 L356.53598 273.0 Z "/>
</g>
<g  style="stroke:#00FF00;stroke-width:0.1;" >
<path d="M361.28796 273.0 L361.28796 269.0 L361.28796 273.0 Z "/>
</g>
<g  style="stroke:#00FF00;stroke-width:0.1;" >
<path d="M370.792 273.0 L370.792 269.0 L370.792 273.0 Z "/>
</g>
<g  style="stroke:#00FF00;stroke-width:0.1;" >
<path d="M375.544 273.0 L375.544 269.0 L375.544 273.0 Z "/>
</g>
<g  style="stroke:#00FF00;stroke-width:0.1;" >
<path d="M380.29596 273.0 L380.29596 269.0 L380.29596 273.0 Z "/>
</g>
<g  style="stroke:#00FF00;stroke-width:0.1;" >
<path d="M385.04797 273.0 L385.04797 269.0 L385.04797 273.0 Z "/>
</g>
<g  style="fill:#F6921E;stroke:#F6921E;stroke-width:0.1;" >
<path d="M539.5 542.0 L3.5 542.0 L1.0 541.0 L1.0 537.0 L1.0 533.0 L1.0 529.0 L1.0 525.0 L1.0 521.0 L1.0 517.0 L1.0 513.0 L1.0 509.0 L1.0 505.0 L1.0 501.0 L1.0 497.0 L1.0 493.0 L1.0 489.0 L1.0 485.0 L1.0 481.0 L1.0 477.0 L1.0 473.0 L1.0 469.0 L1.0 465.0 L1.0 461.0 L1.0 457.0 L1.0 453.0 L1.0 449.0 L1.0 445.0 L1.0 441.0 L1.0 437.0 L1.0 433.0 L1.0 429.0 L1.0 425.0 L1.0 421.0 L1.0 417.0 L1.0 413.0 L1.0 409.0 L1.0 405.0 L1.0 401.0 L1.0 397.0 L1.0 393.0 L1.0 389.0 L1.0 385.0 L1.0 381.0 L1.0 377.0 L1.0 373.0 L1.0 369.0 L1.0 365.0 L1.0 361.0 L1.0 357.0 L1.0 353.0 L1.0 349.0 L1.0 345.0 L1.0 341.0 L1.0 337.0 L1.0 333.0 L1.0 329.0 L1.0 325.0 L1.0 321.0 L1.0 317.0 L1.0 313.0 L1.0 309.0 L1.0 305.0 L1.0 301.0 L1.0 297.0 L1.0 293.0 L1.0 289.0 L1.0 285.0 L1.0 281.0 L1.0 277.0 L1.0 273.0 L1.0 269.0 L1.0 265.0 L1.0 261.0 L1.0 257.0 L1.0 253.0 L1.0 249.0 L1.0 245.0 L1.0 241.0 L1.0 237.0 L1.0 233.0 L1.0 229.0 L1.0 225.0 L1.0 221.0 L1.0 217.0 L1.0 213.0 L1.0 209.0 L1.0 205.0 L1.0 201.0 L1.0 197.0 L1.0 193.0 L1.0 189.0 L1.0 185.0 L1.0 181.0 L1.0 177.0 L1.0 173.0 L1.0 169.0 L1.0 165.0 L1.0 161.0 L1.0 157.0 L1.0 153.0 L1.0 149.0 L1.0 145.0 L1.0 141.0 L1.0 137.0 L1.0 133.0 L1.0 129.0 L1.0 125.0 L1.0 121.0 L1.0 117.0 L1.0 113.0 L1.0 109.0 L1.0 105.0 L1.0 101.0 L1.0 97.0 L1.0 93.0 L1.0 89.0 L1.0 85.0 L1.0 81.0 L1.0 77.0 L1.0 73.0 L1.0 69.0 L1.0 65.0 L1.0 61.0 L1.0 57.0 L1.0 53.0 L1.0 49.0 L1.0 45.0 L1.0 41.0 L1.0 37.0 L1.0 33.0 L1.0 29.0 L1.0 25.0 L1.0 21.0 L1.0 17.0 L1.0 13.0 L1.0 9.0 L1.0 5.0 L1.0 1.0 L542.0 1.0 L542.0 5.0 L542.0 9.0 L542.0 13.0 L542.0 17.0 L542.0 21.0 L542.0 25.0 L542.0 29.0 L542.0 33.0 L542.0 37.0 L542.0 41.0 L542.0 45.0 L542.0 49.0 L542.0 53.0 L542.0 57.0 L542.0 61.0 L542.0 65.0 L542.0 69.0 L542.0 73.0 L542.0 77.0 L542.0 81.0 L542.0 85.0 L542.0 89.0 L542.0 93.0 L542.0 97.0 L542.0 101.0 L542.0 105.0 L542.0 109.0 L542.0 113.0 L542.0 117.0 L542.0 121.0 L542.0 125.0 L542.0 129.0 L542.0 133.0 L542.0 137.0 L542.0 141.0 L542.0 145.0 L542.0 149.0 L542.0 153.0 L542.0 157.0 L542.0 161.0 L542.0 165.0 L542.0 169.0 L542.0 173.0 L542.0 177.0 L542.0 181.0 L542.0 185.0 L542.0 189.0 L542.0 193.0 L542.0 197.0 L542.0 201.0 L542.0 205.0 L542.0 209.0 L542.0 213.0 L542.0 217.0 L542.0 221.0 L542.0 225.0 L542.0 229.0 L542.0 233.0 L542.0 237.0 L542.0 241.0 L542.0 245.0 L542.0 249.0 L542.0 253.0 L542.0 257.0 L542.0 261.0 L542.0 265.0 L542.0 269.0 L542.0 273.0 L542.0 277.0 L542.0 281.0 L542.0 285.0 L542.0 289.0 L542.0 293.0 L542.0 297.0 L542.0 301.0 L542.0 305.0 L542.0 309.0 L542.0 313.0 L542.0 317.0 L542.0 321.0 L542.0 325.0 L542.0 329.0 L542.0 333.0 L542.0 337.0 L542.0 341.0 L542.0 345.0 L542.0 349.0 L542.0 353.0 L542.0 357.0 L542.0 361.0 L542.0 365.0 L542.0 369.0 L542.0 373.0 L542.0 377.0 L542.0 381.0 L542.0 385.0 L542.0 389.0 L542.0 393.0 L542.0 397.0 L542.0 401.0 L542.0 405.0 L542.0 409.0 L542.0 413.0 L542.0 417.0 L542.0 421.0 L542.0 425.0 L542.0 429.0 L542.0 433.0 L542.0 437.0 L542.0 441.0 L542.0 445.0 L542.0 449.0 L542.0 453.0 L542.0 457.0 L542.0 461.0 L542.0 465.0 L542.0 469.0 L542.0 473.0 L542.0 477.0 L542.0 481.0 L542.0 485.0 L542.0 489.0 L542.0 493.0 L542.0 497.0 L542.0 501.0 L542.0 505.0 L542.0 509.0 L542.0 513.0 L542.0 517.0 L542.0 521.0 L542.0 525.0 L542.0 529.0 L542.0 533.0 L542.0 537.0 L542.0 541.0 L539.5 542.0 Z M528.0 525.5 L528.0 521.5 L528.0 517.5 L528.0 513.5 L528.0 509.5 L528.0 505.5 L528.0 501.5 L528.0 497.5 L528.0 493.5 L528.0 489.5 L528.0 485.5 L528.0 481.5 L528.0 477.5 L528.0 473.5 L528.0 469.5 L528.0 465.5 L528.0 461.5 L528.0 457.5 L528.0 453.5 L528.0 449.5 L528.0 445.5 L528.0 441.5 L528.0 437.5 L528.0 433.5 L528.0 429.5 L528.0 425.5 L528.0 421.5 L528.0 417.5 L528.0 413.5 L528.0 409.5 L528.0 405.5 L528.0 401.5 L528.0 397.5 L528.0 393.5 L528.0 389.5 L528.0 385.5 L528.0 381.5 L528.0 377.5 L528.0 373.5 L528.0 369.5 L528.0 365.5 L528.0 361.5 L528.0 357.5 L528.0 353.5 L528.0 349.5 L528.0 345.5 L528.0 341.5 L528.0 337.5 L528.0 333.5 L528.0 329.5 L528.0 325.5 L528.0 321.5 L528.0 317.5 L528.0 313.5 L528.0 309.5 L528.0 305.5 L528.0 301.5 L528.0 297.5 L528.0 293.5 L528.0 289.5 L528.0 285.5 L528.0 281.5 L528.0 277.5 L528.0 273.5 L528.0 269.5 L528.0 265.5 L528.0 261.5 L528.0 257.5 L528.0 253.5 L528.0 249.5 L528.0 245.5 L528.0 241.5 L528.0 237.5 L528.0 233.5 L528.0 229.5 L528.0 225.5 L528.0 221.5 L528.0 217.5 L528.0 213.5 L528.0 209.5 L528.0 205.5 L528.0 201.5 L528.0 197.5 L528.0 193.5 L528.0 189.5 L528.0 185.5 L528.0 181.5 L528.0 177.5 L528.0 173.5 L528.0 169.5 L528.0 165.5 L528.0 161.5 L528.0 157.5 L528.0 153.5 L528.0 149.5 L528.0 145.5 L528.0 141.5 L528.0 137.5 L528.0 133.5 L528.0 129.5 L528.0 125.5 L528.0 121.5 L528.0 117.5 L528.0 113.5 L528.0 109.5 L528.0 105.5 L528.0 101.5 L528.0 97.5 L528.0 93.5 L528.0 89.5 L528.0 85.5 L528.0 81.5 L528.0 77.5 L528.0 73.5 L528.0 69.5 L528.0 65.5 L528.0 61.5 L528.0 57.5 L528.0 53.5 L528.0 49.5 L528.0 45.5 L528.0 41.5 L528.0 37.5 L528.0 33.5 L528.0 29.5 L528.0 25.5 L528.0 21.5 L528.0 17.5 L527.0 15.0 L15.0 15.0 L15.0 528.0 L527.0 528.0 L528.0 525.5 Z "/>
</g>
<g  style="stroke:#FF0000;stroke-width:0.1;" >
<path d="M284.43503 284.43503 L409.26056 409.26056 L284.43503 284.43503 Z "/>
</g>
<g  style="stroke:#00FF00;stroke-width:0.1;" >
<path d="M301.06616 308.13727 L308.1372 301.06616 L301.06616 308.13727 Z "/>
</g>
<g  style="stroke:#00FF00;stroke-width:0.1;" >
<path d="M334.66785 341.73895 L341.73895 334.6679 L334.66785 341.73895 Z "/>
</g>
<g  style="stroke:#00FF00;stroke-width:0.1;" >
<path d="M368.2696 375.3407 L375.34064 368.2696 L368.2696 375.3407 Z "/>
</g>
<g  style="stroke:#00FF00;stroke-width:0.1;" >
<path d="M401.87128 408.94238 L408.94235 401.8713 L401.87128 408.94238 Z "/>
</g>
<g  style="stroke:#00FF00;stroke-width:0.1;" >
<path d="M272.94592 275.7744 L275.77435 272.94598 L272.94592 275.7744 Z "/>
</g>
<g  style="stroke:#00FF00;stroke-width:0.1;" >
<path d="M276.3061 279.13455 L279.13452 276.30612 L276.3061 279.13455 Z "/>
</g>
<g  style="stroke:#00FF00;stroke-width:0.1;" >
<path d="M279.66626 282.49475 L282.4947 279.66632 L279.66626 282.49475 Z "/>
</g>
<g  style="stroke:#00FF00;stroke-width:0.1;" >
<path d="M283.02643 285.8549 L285.85486 283.02646 L283.02643 285.8549 Z "/>
</g>
<g  style="stroke:#00FF00;stroke-width:0.1;" >
<path d="M286.3866 289.21506 L289.21503 286.38663 L286.3866 289.21506 Z "/>
</g>
<g  style="stroke:#00FF00;stroke-width:0.1;" >
<path d="M289.74677 292.57526 L292.5752 289.74683 L289.74677 292.57526 Z "/>
</g>
<g  style="stroke:#00FF00;stroke-width:0.1;" >
<path d="M293.10693 295.93542 L295.93536 293.107 L293.10693 295.93542 Z "/>
</g>
<g  style="stroke:#00FF00;stroke-width:0.1;" >
<path d="M296.4671 299.2956 L299.29553 296.46716 L296.4671 299.2956 Z "/>
</g>
<g  style="stroke:#00FF00;stroke-width:0.1;" >
<path d="M299.8273 302.65576 L302.65573 299.82733 L299.8273 302.65576 Z "/>
</g>
<g  style="stroke:#00FF00;stroke-width:0.1;" >
<path d="M306.54764 309.3761 L309.37607 306.54767 L306.54764 309.3761 Z "/>
</g>
<g  style="stroke:#00FF00;stroke-width:0.1;" >
<path d="M309.9078 312.73627 L312.73624 309.90784 L309.9078 312.73627 Z "/>
</g>
<g  style="stroke:#00FF00;stroke-width:0.1;" >
<path d="M313.26797 316.09644 L316.0964 313.268 L313.26797 316.09644 Z "/>
</g>
<g  style="stroke:#00FF00;stroke-width:0.1;" >
<path d="M316.62814 319.4566 L319.45657 316.62817 L316.62814 319.4566 Z "/>
</g>
<g  style="stroke:#00FF00;stroke-width:0.1;" >
<path d="M319.98834 322.81677 L322.81677 319.98834 L319.98834 322.81677 Z "/>
</g>
<g  style="stroke:#00FF00;stroke-width:0.1;" >
<path d="M323.3485 326.17694 L326.17694 323.3485 L323.3485 326.17694 Z "/>
</g>
<g  style="stroke:#00FF00;stroke-width:0.1;" >
<path d="M326.70868 329.5371 L329.5371 326.70868 L326.70868 329.5371 Z "/>
</g>
<g  style="stroke:#00FF00;stroke-width:0.1;" >
<path d="M330.06885 332.89728 L332.89728 330.06885 L330.06885 332.89728 Z "/>
</g>
<g  style="stroke:#00FF00;stroke-width:0.1;" >
<path d="M333.42902 336.25745 L336.25745 333.42902 L333.42902 336.25745 Z "/>
</g>
<g  style="stroke:#00FF00;stroke-width:0.1;" >
<path d="M340.14935 342.9778 L342.97778 340.14938 L340.14935 342.9778 Z "/>
</g>
<g  style="stroke:#00FF00;stroke-width:0.1;" >
<path d="M343.50952 346.33798 L346.33795 343.50955 L343.50952 346.33798 Z "/>
</g>
<g  style="stroke:#00FF00;stroke-width:0.1;" >
<path d="M346.8697 349.69815 L349.69812 346.86972 L346.8697 349.69815 Z "/>
</g>
<g  style="stroke:#00FF00;stroke-width:0.1;" >
<path d="M350.22986 353.05832 L353.0583 350.2299 L350.22986 353.05832 Z "/>
</g>
<g  style="stroke:#00FF00;stroke-width:0.1;" >
<path d="M353.59003 356.4185 L356.41846 353.59006 L353.59003 356.4185 Z "/>
</g>
<g  style="stroke:#00FF00;stroke-width:0.1;" >
<path d="M356.9502 359.7787 L359.77863 356.95026 L356.9502 359.7787 Z "/>
</g>
<g  style="stroke:#00FF00;stroke-width:0.1;" >
<path d="M360.31036 363.13885 L363.1388 360.31042 L360.31036 363.13885 Z "/>
</g>
<g  style="stroke:#00FF00;stroke-width:0.1;" >
<path d="M363.67053 366.49902 L366.49896 363.6706 L363.67053 366.49902 Z "/>
</g>
<g  style="stroke:#00FF00;stroke-width:0.1;" >
<path d="M367.0307 369.8592 L369.85913 367.03076 L367.0307 369.8592 Z "/>
</g>
<g  style="stroke:#00FF00;stroke-width:0.1;" >
<path d="M373.75107 376.57953 L376.5795 373.7511 L373.75107 376.57953 Z "/>
</g>
<g  style="stroke:#00FF00;stroke-width:0.1;" >
<path d="M377.11124 379.9397 L379.93967 377.11127 L377.11124 379.9397 Z "/>
</g>
<g  style="stroke:#00FF00;stroke-width:0.1;" >
<path d="M380.4714 383.29987 L383.29984 380.47144 L380.4714 383.29987 Z "/>
</g>
<g  style="stroke:#00FF00;stroke-width:0.1;" >
<path d="M383.83157 386.66003 L386.66 383.8316 L383.83157 386.66003 Z "/>
</g>
<g  style="stroke:#00FF00;stroke-width:0.1;" >
<path d="M387.19177 390.0202 L390.0202 387.19177 L387.19177 390.0202 Z "/>
</g>
<g  style="stroke:#00FF00;stroke-width:0.1;" >
<path d="M390.5519 393.38037 L393.38034 390.55194 L390.5519 393.38037 Z "/>
</g>
<g  style="stroke:#00FF00;stroke-width:0.1;" >
<path d="M393.9121 396.74054 L396.74054 393.9121 L393.9121 396.74054 Z "/>
</g>
<g  style="stroke:#00FF00;stroke-width:0.1;" >
<path d="M397.27228 400.1007 L400.1007 397.27228 L397.27228 400.1007 Z "/>
</g>
<g  style="stroke:#00FF00;stroke-width:0.1;" >
<path d="M400.63245 403.46088 L403.46088 400.63245 L400.63245 403.46088 Z "/>
</g>
<g  style="stroke:#00FF00;stroke-width:0.1;" >
<path d="M407.35278 410.18124 L410.1812 407.3528 L407.35278 410.18124 Z "/>
</g>
<g  style="fill:#F6921E;stroke:#F6921E;stroke-width:0.1;" >
<path d="M539.5 542.0 L3.5 542.0 L1.0 541.0 L1.0 537.0 L1.0 533.0 L1.0 529.0 L1.0 525.0 L1.0 521.0 L1.0 517.0 L1.0 513.0 L1.0 509.0 L1.0 505.0 L1.0 501.0 L1.0 497.0 L1.0 493.0 L1.0 489.0 L1.0 485.0 L1.0 481.0 L1.0 477.0 L1.0 473.0 L1.0 469.0 L1.0 465.0 L1.0 461.0 L1.0 457.0 L1.0 453.0 L1.0 449.0 L1.0 445.0 L1.0 441.0 L1.0 437.0 L1.0 433.0 L1.0 429.0 L1.0 425.0 L1.0 421.0 L1.0 417.0 L1.0 413.0 L1.0 409.0 L1.0 405.0 L1.0 401.0 L1.0 397.0 L1.0 393.0 L1.0 389.0 L1.0 385.0 L1.0 381.0 L1.0 377.0 L1.0 373.0 L1.0 369.0 L1.0 365.0 L1.0 361.0 L1.0 357.0 L1.0 353.0 L1.0 349.0 L1.0 345.0 L1.0 341.0 L1.0 337.0 L1.0 333.0 L1.0 329.0 L1.0 325.0 L1.0 321.0 L1.0 317.0 L1.0 313.0 L1.0 309.0 L1.0 305.0 L1.0 301.0 L1.0 297.0 L1.0 293.0 L1.0 289.0 L1.0 285.0 L1.0 281.0 L1.0 277.0 L1.0 273.0 L1.0 269.0 L1.0 265.0 L1.0 261.0 L1.0 257.0 L1.0 253.0 L1.0 249.0 L1.0 245.0 L1.0 241.0 L1.0 237.0 L1.0 233.0 L1.0 229.0 L1.0 225.0 L1.0 221.0 L1.0 217.0 L1.0 213.0 L1.0 209.0 L1.0 205.0 L1.0 201.0 L1.0 197.0 L1.0 193.0 L1.0 189.0 L1.0 185.0 L1.0 181.0 L1.0 177.0 L1.0 173.0 L1.0 169.0 L1.0 165.0 L1.0 161.0 L1.0 157.0 L1.0 153.0 L1.0 149.0 L1.0 145.0 L1.0 141.0 L1.0 137.0 L1.0 133.0 L1.0 129.0 L1.0 125.0 L1.0 121.0 L1.0 117.0 L1.0 113.0 L1.0 109.0 L1.0 105.0 L1.0 101.0 L1.0 97.0 L1.0 93.0 L1.0 89.0 L1.0 85.0 L1.0 81.0 L1.0 77.0 L1.0 73.0 L1.0 69.0 L1.0 65.0 L1.0 61.0 L1.0 57.0 L1.0 53.0 L1.0 49.0 L1.0 45.0 L1.0 41.0 L1.0 37.0 L1.0 33.0 L1.0 29.0 L1.0 25.0 L1.0 21.0 L1.0 17.0 L1.0 13.0 L1.0 9.0 L1.0 5.0 L1.0 1.0 L542.0 1.0 L542.0 5.0 L542.0 9.0 L542.0 13.0 L542.0 17.0 L542.0 21.0 L542.0 25.0 L542.0 29.0 L542.0 33.0 L542.0 37.0 L542.0 41.0 L542.0 45.0 L542.0 49.0 L542.0 53.0 L542.0 57.0 L542.0 61.0 L542.0 65.0 L542.0 69.0 L542.0 73.0 L542.0 77.0 L542.0 81.0 L542.0 85.0 L542.0 89.0 L542.0 93.0 L542.0 97.0 L542.0 101.0 L542.0 105.0 L542.0 109.0 L542.0 113.0 L542.0 117.0 L542.0 121.0 L542.0 125.0 L542.0 129.0 L542.0 133.0 L542.0 137.0 L542.0 141.0 L542.0 145.0 L542.0 149.0 L542.0 153.0 L542.0 157.0 L542.0 161.0 L542.0 165.0 L542.0 169.0 L542.0 173.0 L542.0 177.0 L542.0 181.0 L542.0 185.0 L542.0 189.0 L542.0 193.0 L542.0 197.0 L542.0 201.0 L542.0 205.0 L542.0 209.0 L542.0 213.0 L542.0 217.0 L542.0 221.0 L542.0 225.0 L542.0 229.0 L542.0 233.0 L542.0 237.0 L542.0 241.0 L542.0 245.0 L542.0 249.0 L542.0 253.0 L542.0 257.0 L542.0 261.0 L542.0 265.0 L542.0 269.0 L542.0 273.0 L542.0 277.0 L542.0 281.0 L542.0 285.0 L542.0 289.0 L542.0 293.0 L542.0 297.0 L542.0 301.0 L542.0 305.0 L542.0 309.0 L542.0 313.0 L542.0 317.0 L542.0 321.0 L542.0 325.0 L542.0 329.0 L542.0 333.0 L542.0 337.0 L542.0 341.0 L542.0 345.0 L542.0 349.0 L542.0 353.0 L542.0 357.0 L542.0 361.0 L542.0 365.0 L542.0 369.0 L542.0 373.0 L542.0 377.0 L542.0 381.0 L542.0 385.0 L542.0 389.0 L542.0 393.0 L542.0 397.0 L542.0 401.0 L542.0 405.0 L542.0 409.0 L542.0 413.0 L542.0 417.0 L542.0 421.0 L542.0 425.0 L542.0 429.0 L542.0 433.0 L542.0 437.0 L542.0 441.0 L542.0 445.0 L542.0 449.0 L542.0 453.0 L542.0 457.0 L542.0 461.0 L542.0 465.0 L542.0 469.0 L542.0 473.0 L542.0 477.0 L542.0 481.0 L542.0 485.0 L542.0 489.0 L542.0 493.0 L542.0 497.0 L542.0 501.0 L542.0 505.0 L542.0 509.0 L542.0 513.0 L542.0 517.0 L542.0 521.0 L542.0 525.0 L542.0 529.0 L542.0 533.0 L542.0 537.0 L542.0 541.0 L539.5 542.0 Z M528.0 525.5 L528.0 521.5 L528.0 517.5 L528.0 513.5 L528.0 509.5 L528.0 505.5 L528.0 501.5 L528.0 497.5 L528.0 493.5 L528.0 489.5 L528.0 485.5 L528.0 481.5 L528.0 477.5 L528.0 473.5 L528.0 469.5 L528.0 465.5 L528.0 461.5 L528.0 457.5 L528.0 453.5 L528.0 449.5 L528.0 445.5 L528.0 441.5 L528.0 437.5 L528.0 433.5 L528.0 429.5 L528.0 425.5 L528.0 421.5 L528.0 417.5 L528.0 413.5 L528.0 409.5 L528.0 405.5 L528.0 401.5 L528.0 397.5 L528.0 393.5 L528.0 389.5 L528.0 385.5 L528.0 381.5 L528.0 377.5 L528.0 373.5 L528.0 369.5 L528.0 365.5 L528.0 361.5 L528.0 357.5 L528.0 353.5 L528.0 349.5 L528.0 345.5 L528.0 341.5 L528.0 337.5 L528.0 333.5 L528.0 329.5 L528.0 325.5 L528.0 321.5 L528.0 317.5 L528.0 313.5 L528.0 309.5 L528.0 305.5 L528.0 301.5 L528.0 297.5 L528.0 293.5 L528.0 289.5 L528.0 285.5 L528.0 281.5 L528.0 277.5 L528.0 273.5 L528.0 269.5 L528.0 265.5 L528.0 261.5 L528.0 257.5 L528.0 253.5 L528.0 249.5 L528.0 245.5 L528.0 241.5 L528.0 237.5 L528.0 233.5 L528.0 229.5 L528.0 225.5 L528.0 221.5 L528.0 217.5 L528.0 213.5 L528.0 209.5 L528.0 205.5 L528.0 201.5 L528.0 197.5 L528.0 193.5 L528.0 189.5 L528.0 185.5 L528.0 181.5 L528.0 177.5 L528.0 173.5 L528.0 169.5 L528.0 165.5 L528.0 161.5 L528.0 157.5 L528.0 153.5 L528.0 149.5 L528.0 145.5 L528.0 141.5 L528.0 137.5 L528.0 133.5 L528.0 129.5 L528.0 125.5 L528.0 121.5 L528.0 117.5 L528.0 113.5 L528.0 109.5 L528.0 105.5 L528.0 101.5 L528.0 97.5 L528.0 93.5 L528.0 89.5 L528.0 85.5 L528.0 81.5 L528.0 77.5 L528.0 73.5 L528.0 69.5 L528.0 65.5 L528.0 61.5 L528.0 57.5 L528.0 53.5 L528.0 49.5 L528.0 45.5 L528.0 41.5 L528.0 37.5 L528.0 33.5 L528.0 29.5 L528.0 25.5 L528.0 21.5 L528.0 17.5 L527.0 15.0 L15.0 15.0 L15.0 528.0 L527.0 528.0 L528.0 525.5 Z "/>
</g>
<g  style="stroke:#FF0000;stroke-width:0.1;" >
<path d="M271.0 290.0 L271.0 443.54498 L271.0 290.0 Z "/>
</g>
<g  style="stroke:#00FF00;stroke-width:0.1;" >
<path d="M266.00003 318.51996 L276.00003 318.51996 L266.00003 318.51996 Z "/>
</g>
<g  style="stroke:#00FF00;stroke-width:0.1;" >
<path d="M266.00003 366.03998 L276.00003 366.03998 L266.00003 366.03998 Z "/>
</g>
<g  style="stroke:#00FF00;stroke-width:0.1;" >
<path d="M266.0 413.56 L276.0 413.56 L266.0 413.56 Z "/>
</g>
<g  style="stroke:#00FF00;stroke-width:0.1;" >
<path d="M269.00003 275.75198 L273.00003 275.75198 L269.00003 275.75198 Z "/>
</g>
<g  style="stroke:#00FF00;stroke-width:0.1;" >
<path d="M269.00003 280.50397 L273.00003 280.50397 L269.00003 280.50397 Z "/>
</g>
<g  style="stroke:#00FF00;stroke-width:0.1;" >
<path d="M269.00003 285.25598 L273.00003 285.25598 L269.00003 285.25598 Z "/>
</g>
<g  style="stroke:#00FF00;stroke-width:0.1;" >
<path d="M269.00003 290.00797 L273.00003 290.00797 L269.00003 290.00797 Z "/>
</g>
<g  style="stroke:#00FF00;stroke-width:0.1;" >
<path d="M269.00003 294.75995 L273.00003 294.75995 L269.00003 294.75995 Z "/>
</g>
<g  style="stroke:#00FF00;stroke-width:0.1;" >
<path d="M269.00003 299.51196 L273.00003 299.51196 L269.00003 299.51196 Z "/>
</g>
<g  style="stroke:#00FF00;stroke-width:0.1;" >
<path d="M269.00003 304.26398 L273.00003 304.26398 L269.00003 304.26398 Z "/>
</g>
<g  style="stroke:#00FF00;stroke-width:0.1;" >
<path d="M269.00003 309.01596 L273.00003 309.01596 L269.00003 309.01596 Z "/>
</g>
<g  style="stroke:#00FF00;stroke-width:0.1;" >
<path d="M269.00003 313.76797 L273.00003 313.76797 L269.00003 313.76797 Z "/>
</g>
<g  style="stroke:#00FF00;stroke-width:0.1;" >
<path d="M269.00003 323.27197 L273.00003 323.27197 L269.00003 323.27197 Z "/>
</g>
<g  style="stroke:#00FF00;stroke-width:0.1;" >
<path d="M269.00003 328.024 L273.00003 328.024 L269.00003 328.024 Z "/>
</g>
<g  style="stroke:#00FF00;stroke-width:0.1;" >
<path d="M269.00003 332.77597 L273.00003 332.77597 L269.00003 332.77597 Z "/>
</g>
<g  style="stroke:#00FF00;stroke-width:0.1;" >
<path d="M269.00003 337.52795 L273.00003 337.52795 L269.00003 337.52795 Z "/>
</g>
<g  style="stroke:#00FF00;stroke-width:0.1;" >
<path d="M269.00003 342.27997 L273.00003 342.27997 L269.00003 342.27997 Z "/>
</g>
<g  style="stroke:#00FF00;stroke-width:0.1;" >
<path d="M269.00003 347.03198 L273.00003 347.03198 L269.00003 347.03198 Z "/>
</g>
<g  style="stroke:#00FF00;stroke-width:0.1;" >
<path d="M269.00003 351.78397 L273.00003 351.78397 L269.00003 351.78397 Z "/>
</g>
<g  style="stroke:#00FF00;stroke-width:0.1;" >
<path d="M269.00003 356.53595 L273.00003 356.53595 L269.00003 356.53595 Z "/>
</g>
<g  style="stroke:#00FF00;stroke-width:0.1;" >
<path d="M269.00003 361.28796 L273.00003 361.28796 L269.00003 361.28796 Z "/>
</g>
<g  style="stroke:#00FF00;stroke-width:0.1;" >
<path d="M269.0 370.79196 L273.0 370.79196 L269.0 370.79196 Z "/>
</g>
<g  style="stroke:#00FF00;stroke-width:0.1;" >
<path d="M269.0 375.54398 L273.0 375.54398 L269.0 375.54398 Z "/>
</g>
<g  style="stroke:#00FF00;stroke-width:0.1;" >
<path d="M269.0 380.29596 L273.0 380.29596 L269.0 380.29596 Z "/>
</g>
<g  style="stroke:#00FF00;stroke-width:0.1;" >
<path d="M269.0 385.04797 L273.0 385.04797 L269.0 385.04797 Z "/>
</g>
<g  style="stroke:#00FF00;stroke-width:0.1;" >
<path d="M269.0 389.8 L273.0 389.8 L269.0 389.8 Z "/>
</g>
<g  style="stroke:#00FF00;stroke-width:0.1;" >
<path d="M269.0 394.55197 L273.0 394.55197 L269.0 394.55197 Z "/>
</g>
<g  style="stroke:#00FF00;stroke-width:0.1;" >
<path d="M269.0 399.30396 L273.0 399.30396 L269.0 399.30396 Z "/>
</g>
<g  style="stroke:#00FF00;stroke-width:0.1;" >
<path d="M269.0 404.05597 L273.0 404.05597 L269.0 404.05597 Z "/>
</g>
<g  style="stroke:#00FF00;stroke-width:0.1;" >
<path d="M269.0 408.80798 L273.0 408.80798 L269.0 408.80798 Z "/>
</g>
<g  style="stroke:#00FF00;stroke-width:0.1;" >
<path d="M269.0 418.31198 L273.0 418.31198 L269.0 418.31198 Z "/>
</g>
<g  style="stroke:#00FF00;stroke-width:0.1;" >
<path d="M269.0 423.06396 L273.0 423.06396 L269.0 423.06396 Z "/>
</g>
<g  style="stroke:#00FF00;stroke-width:0.1;" >
<path d="M269.0 427.81598 L273.0 427.81598 L269.0 427.81598 Z "/>
</g>
<g  style="stroke:#00FF00;stroke-width:0.1;" >
<path d="M269.0 432.568 L273.0 432.568 L269.0 432.568 Z "/>
</g>
<g  style="stroke:#00FF00;stroke-width:0.1;" >
<path d="M269.0 437.31998 L273.0 437.31998 L269.0 437.31998 Z "/>
</g>
<g  style="stroke:#00FF00;stroke-width:0.1;" >
<path d="M269.0 442.07196 L273.0 442.07196 L269.0 442.07196 Z "/>
</g>
<g  style="fill:#F6921E;stroke:#F6921E;stroke-width:0.1;" >
<path d="M539.5 542.0 L3.5 542.0 L1.0 541.0 L1.0 537.0 L1.0 533.0 L1.0 529.0 L1.0 525.0 L1.0 521.0 L1.0 517.0 L1.0 513.0 L1.0 509.0 L1.0 505.0 L1.0 501.0 L1.0 497.0 L1.0 493.0 L1.0 489.0 L1.0 485.0 L1.0 481.0 L1.0 477.0 L1.0 473.0 L1.0 469.0 L1.0 465.0 L1.0 461.0 L1.0 457.0 L1.0 453.0 L1.0 449.0 L1.0 445.0 L1.0 441.0 L1.0 437.0 L1.0 433.0 L1.0 429.0 L1.0 425.0 L1.0 421.0 L1.0 417.0 L1.0 413.0 L1.0 409.0 L1.0 405.0 L1.0 401.0 L1.0 397.0 L1.0 393.0 L1.0 389.0 L1.0 385.0 L1.0 381.0 L1.0 377.0 L1.0 373.0 L1.0 369.0 L1.0 365.0 L1.0 361.0 L1.0 357.0 L1.0 353.0 L1.0 349.0 L1.0 345.0 L1.0 341.0 L1.0 337.0 L1.0 333.0 L1.0 329.0 L1.0 325.0 L1.0 321.0 L1.0 317.0 L1.0 313.0 L1.0 309.0 L1.0 305.0 L1.0 301.0 L1.0 297.0 L1.0 293.0 L1.0 289.0 L1.0 285.0 L1.0 281.0 L1.0 277.0 L1.0 273.0 L1.0 269.0 L1.0 265.0 L1.0 261.0 L1.0 257.0 L1.0 253.0 L1.0 249.0 L1.0 245.0 L1.0 241.0 L1.0 237.0 L1.0 233.0 L1.0 229.0 L1.0 225.0 L1.0 221.0 L1.0 217.0 L1.0 213.0 L1.0 209.0 L1.0 205.0 L1.0 201.0 L1.0 197.0 L1.0 193.0 L1.0 189.0 L1.0 185.0 L1.0 181.0 L1.0 177.0 L1.0 173.0 L1.0 169.0 L1.0 165.0 L1.0 161.0 L1.0 157.0 L1.0 153.0 L1.0 149.0 L1.0 145.0 L1.0 141.0 L1.0 137.0 L1.0 133.0 L1.0 129.0 L1.0 125.0 L1.0 121.0 L1.0 117.0 L1.0 113.0 L1.0 109.0 L1.0 105.0 L1.0 101.0 L1.0 97.0 L1.0 93.0 L1.0 89.0 L1.0 85.0 L1.0 81.0 L1.0 77.0 L1.0 73.0 L1.0 69.0 L1.0 65.0 L1.0 61.0 L1.0 57.0 L1.0 53.0 L1.0 49.0 L1.0 45.0 L1.0 41.0 L1.0 37.0 L1.0 33.0 L1.0 29.0 L1.0 25.0 L1.0 21.0 L1.0 17.0 L1.0 13.0 L1.0 9.0 L1.0 5.0 L1.0 1.0 L542.0 1.0 L542.0 5.0 L542.0 9.0 L542.0 13.0 L542.0 17.0 L542.0 21.0 L542.0 25.0 L542.0 29.0 L542.0 33.0 L542.0 37.0 L542.0 41.0 L542.0 45.0 L542.0 49.0 L542.0 53.0 L542.0 57.0 L542.0 61.0 L542.0 65.0 L542.0 69.0 L542.0 73.0 L542.0 77.0 L542.0 81.0 L542.0 85.0 L542.0 89.0 L542.0 93.0 L542.0 97.0 L542.0 101.0 L542.0 105.0 L542.0 109.0 L542.0 113.0 L542.0 117.0 L542.0 121.0 L542.0 125.0 L542.0 129.0 L542.0 133.0 L542.0 137.0 L542.0 141.0 L542.0 145.0 L542.0 149.0 L542.0 153.0 L542.0 157.0 L542.0 161.0 L542.0 165.0 L542.0 169.0 L542.0 173.0 L542.0 177.0 L542.0 181.0 L542.0 185.0 L542.0 189.0 L542.0 193.0 L542.0 197.0 L542.0 201.0 L542.0 205.0 L542.0 209.0 L542.0 213.0 L542.0 217.0 L542.0 221.0 L542.0 225.0 L542.0 229.0 L542.0 233.0 L542.0 237.0 L542.0 241.0 L542.0 245.0 L542.0 249.0 L542.0 253.0 L542.0 257.0 L542.0 261.0 L542.0 265.0 L542.0 269.0 L542.0 273.0 L542.0 277.0 L542.0 281.0 L542.0 285.0 L542.0 289.0 L542.0 293.0 L542.0 297.0 L542.0 301.0 L542.0 305.0 L542.0 309.0 L542.0 313.0 L542.0 317.0 L542.0 321.0 L542.0 325.0 L542.0 329.0 L542.0 333.0 L542.0 337.0 L542.0 341.0 L542.0 345.0 L542.0 349.0 L542.0 353.0 L542.0 357.0 L542.0 361.0 L542.0 365.0 L542.0 369.0 L542.0 373.0 L542.0 377.0 L542.0 381.0 L542.0 385.0 L542.0 389.0 L542.0 393.0 L542.0 397.0 L542.0 401.0 L542.0 405.0 L542.0 409.0 L542.0 413.0 L542.0 417.0 L542.0 421.0 L542.0 425.0 L542.0 429.0 L542.0 433.0 L542.0 437.0 L542.0 441.0 L542.0 445.0 L542.0 449.0 L542.0 453.0 L542.0 457.0 L542.0 461.0 L542.0 465.0 L542.0 469.0 L542.0 473.0 L542.0 477.0 L542.0 481.0 L542.0 485.0 L542.0 489.0 L542.0 493.0 L542.0 497.0 L542.0 501.0 L542.0 505.0 L542.0 509.0 L542.0 513.0 L542.0 517.0 L542.0 521.0 L542.0 525.0 L542.0 529.0 L542.0 533.0 L542.0 537.0 L542.0 541.0 L539.5 542.0 Z M528.0 525.5 L528.0 521.5 L528.0 517.5 L528.0 513.5 L528.0 509.5 L528.0 505.5 L528.0 501.5 L528.0 497.5 L528.0 493.5 L528.0 489.5 L528.0 485.5 L528.0 481.5 L528.0 477.5 L528.0 473.5 L528.0 469.5 L528.0 465.5 L528.0 461.5 L528.0 457.5 L528.0 453.5 L528.0 449.5 L528.0 445.5 L528.0 441.5 L528.0 437.5 L528.0 433.5 L528.0 429.5 L528.0 425.5 L528.0 421.5 L528.0 417.5 L528.0 413.5 L528.0 409.5 L528.0 405.5 L528.0 401.5 L528.0 397.5 L528.0 393.5 L528.0 389.5 L528.0 385.5 L528.0 381.5 L528.0 377.5 L528.0 373.5 L528.0 369.5 L528.0 365.5 L528.0 361.5 L528.0 357.5 L528.0 353.5 L528.0 349.5 L528.0 345.5 L528.0 341.5 L528.0 337.5 L528.0 333.5 L528.0 329.5 L528.0 325.5 L528.0 321.5 L528.0 317.5 L528.0 313.5 L528.0 309.5 L528.0 305.5 L528.0 301.5 L528.0 297.5 L528.0 293.5 L528.0 289.5 L528.0 285.5 L528.0 281.5 L528.0 277.5 L528.0 273.5 L528.0 269.5 L528.0 265.5 L528.0 261.5 L528.0 257.5 L528.0 253.5 L528.0 249.5 L528.0 245.5 L528.0 241.5 L528.0 237.5 L528.0 233.5 L528.0 229.5 L528.0 225.5 L528.0 221.5 L528.0 217.5 L528.0 213.5 L528.0 209.5 L528.0 205.5 L528.0 201.5 L528.0 197.5 L528.0 193.5 L528.0 189.5 L528.0 185.5 L528.0 181.5 L528.0 177.5 L528.0 173.5 L528.0 169.5 L528.0 165.5 L528.0 161.5 L528.0 157.5 L528.0 153.5 L528.0 149.5 L528.0 145.5 L528.0 141.5 L528.0 137.5 L528.0 133.5 L528.0 129.5 L528.0 125.5 L528.0 121.5 L528.0 117.5 L528.0 113.5 L528.0 109.5 L528.0 105.5 L528.0 101.5 L528.0 97.5 L528.0 93.5 L528.0 89.5 L528.0 85.5 L528.0 81.5 L528.0 77.5 L528.0 73.5 L528.0 69.5 L528.0 65.5 L528.0 61.5 L528.0 57.5 L528.0 53.5 L528.0 49.5 L528.0 45.5 L528.0 41.5 L528.0 37.5 L528.0 33.5 L528.0 29.5 L528.0 25.5 L528.0 21.5 L528.0 17.5 L527.0 15.0 L15.0 15.0 L15.0 528.0 L527.0 528.0 L528.0 525.5 Z "/>
</g>
<g  style="stroke:#FF0000;stroke-width:0.1;" >
<path d="M257.56497 284.43503 L177.05646 364.94354 L257.56497 284.43503 Z "/>
</g>
<g  style="stroke:#00FF00;stroke-width:0.1;" >
<path d="M233.86275 301.06616 L240.93382 308.1372 L233.86275 301.06616 Z "/>
</g>
<g  style="stroke:#00FF00;stroke-width:0.1;" >
<path d="M200.26102 334.66785 L207.33209 341.73892 L200.26102 334.66785 Z "/>
</g>
<g  style="stroke:#00FF00;stroke-width:0.1;" >
<path d="M266.2256 272.94592 L269.05402 275.77435 L266.2256 272.94592 Z "/>
</g>
<g  style="stroke:#00FF00;stroke-width:0.1;" >
<path d="M262.86545 276.3061 L265.69388 279.13452 L262.86545 276.3061 Z "/>
</g>
<g  style="stroke:#00FF00;stroke-width:0.1;" >
<path d="M259.50525 279.66626 L262.33368 282.4947 L259.50525 279.66626 Z "/>
</g>
<g  style="stroke:#00FF00;stroke-width:0.1;" >
<path d="M256.1451 283.02643 L258.97354 285.85486 L256.1451 283.02643 Z "/>
</g>
<g  style="stroke:#00FF00;stroke-width:0.1;" >
<path d="M252.78493 286.3866 L255.61336 289.21503 L252.78493 286.3866 Z "/>
</g>
<g  style="stroke:#00FF00;stroke-width:0.1;" >
<path d="M249.42476 289.74677 L252.25319 292.5752 L249.42476 289.74677 Z "/>
</g>
<g  style="stroke:#00FF00;stroke-width:0.1;" >
<path d="M246.06458 293.10693 L248.893 295.93536 L246.06458 293.10693 Z "/>
</g>
<g  style="stroke:#00FF00;stroke-width:0.1;" >
<path d="M242.70442 296.4671 L245.53285 299.29553 L242.70442 296.4671 Z "/>
</g>
<g  style="stroke:#00FF00;stroke-width:0.1;" >
<path d="M239.34424 299.8273 L242.17267 302.65573 L239.34424 299.8273 Z "/>
</g>
<g  style="stroke:#00FF00;stroke-width:0.1;" >
<path d="M232.6239 306.54764 L235.45233 309.37607 L232.6239 306.54764 Z "/>
</g>
<g  style="stroke:#00FF00;stroke-width:0.1;" >
<path d="M229.26373 309.9078 L232.09216 312.73624 L229.26373 309.9078 Z "/>
</g>
<g  style="stroke:#00FF00;stroke-width:0.1;" >
<path d="M225.90355 313.26797 L228.73198 316.0964 L225.90355 313.26797 Z "/>
</g>
<g  style="stroke:#00FF00;stroke-width:0.1;" >
<path d="M222.54338 316.62814 L225.37181 319.45657 L222.54338 316.62814 Z "/>
</g>
<g  style="stroke:#00FF00;stroke-width:0.1;" >
<path d="M219.18321 319.9883 L222.01164 322.81674 L219.18321 319.9883 Z "/>
</g>
<g  style="stroke:#00FF00;stroke-width:0.1;" >
<path d="M215.82304 323.34848 L218.65147 326.1769 L215.82304 323.34848 Z "/>
</g>
<g  style="stroke:#00FF00;stroke-width:0.1;" >
<path d="M212.46288 326.70865 L215.2913 329.53708 L212.46288 326.70865 Z "/>
</g>
<g  style="stroke:#00FF00;stroke-width:0.1;" >
<path d="M209.10269 330.06882 L211.93112 332.89725 L209.10269 330.06882 Z "/>
</g>
<g  style="stroke:#00FF00;stroke-width:0.1;" >
<path d="M205.74252 333.429 L208.57095 336.25742 L205.74252 333.429 Z "/>
</g>
<g  style="stroke:#00FF00;stroke-width:0.1;" >
<path d="M199.02219 340.14932 L201.85062 342.97775 L199.02219 340.14932 Z "/>
</g>
<g  style="stroke:#00FF00;stroke-width:0.1;" >
<path d="M195.662 343.50952 L198.49043 346.33795 L195.662 343.50952 Z "/>
</g>
<g  style="stroke:#00FF00;stroke-width:0.1;" >
<path d="M192.30185 346.8697 L195.13028 349.69812 L192.30185 346.8697 Z "/>
</g>
<g  style="stroke:#00FF00;stroke-width:0.1;" >
<path d="M188.94165 350.22986 L191.77008 353.0583 L188.94165 350.22986 Z "/>
</g>
<g  style="stroke:#00FF00;stroke-width:0.1;" >
<path d="M185.58148 353.59003 L188.40991 356.41846 L185.58148 353.59003 Z "/>
</g>
<g  style="stroke:#00FF00;stroke-width:0.1;" >
<path d="M182.22131 356.9502 L185.04974 359.77863 L182.22131 356.9502 Z "/>
</g>
<g  style="stroke:#00FF00;stroke-width:0.1;" >
<path d="M178.86115 360.31036 L181.68958 363.1388 L178.86115 360.31036 Z "/>
</g>
<g  style="fill:#F6921E;stroke:#F6921E;stroke-width:0.1;" >
<path d="M539.5 542.0 L3.5 542.0 L1.0 541.0 L1.0 537.0 L1.0 533.0 L1.0 529.0 L1.0 525.0 L1.0 521.0 L1.0 517.0 L1.0 513.0 L1.0 509.0 L1.0 505.0 L1.0 501.0 L1.0 497.0 L1.0 493.0 L1.0 489.0 L1.0 485.0 L1.0 481.0 L1.0 477.0 L1.0 473.0 L1.0 469.0 L1.0 465.0 L1.0 461.0 L1.0 457.0 L1.0 453.0 L1.0 449.0 L1.0 445.0 L1.0 441.0 L1.0 437.0 L1.0 433.0 L1.0 429.0 L1.0 425.0 L1.0 421.0 L1.0 417.0 L1.0 413.0 L1.0 409.0 L1.0 405.0 L1.0 401.0 L1.0 397.0 L1.0 393.0 L1.0 389.0 L1.0 385.0 L1.0 381.0 L1.0 377.0 L1.0 373.0 L1.0 369.0 L1.0 365.0 L1.0 361.0 L1.0 357.0 L1.0 353.0 L1.0 349.0 L1.0 345.0 L1.0 341.0 L1.0 337.0 L1.0 333.0 L1.0 329.0 L1.0 325.0 L1.0 321.0 L1.0 317.0 L1.0 313.0 L1.0 309.0 L1.0 305.0 L1.0 301.0 L1.0 297.0 L1.0 293.0 L1.0 289.0 L1.0 285.0 L1.0 281.0 L1.0 277.0 L1.0 273.0 L1.0 269.0 L1.0 265.0 L1.0 261.0 L1.0 257.0 L1.0 253.0 L1.0 249.0 L1.0 245.0 L1.0 241.0 L1.0 237.0 L1.0 233.0 L1.0 229.0 L1.0 225.0 L1.0 221.0 L1.0 217.0 L1.0 213.0 L1.0 209.0 L1.0 205.0 L1.0 201.0 L1.0 197.0 L1.0 193.0 L1.0 189.0 L1.0 185.0 L1.0 181.0 L1.0 177.0 L1.0 173.0 L1.0 169.0 L1.0 165.0 L1.0 161.0 L1.0 157.0 L1.0 153.0 L1.0 149.0 L1.0 145.0 L1.0 141.0 L1.0 137.0 L1.0 133.0 L1.0 129.0 L1.0 125.0 L1.0 121.0 L1.0 117.0 L1.0 113.0 L1.0 109.0 L1.0 105.0 L1.0 101.0 L1.0 97.0 L1.0 93.0 L1.0 89.0 L1.0 85.0 L1.0 81.0 L1.0 77.0 L1.0 73.0 L1.0 69.0 L1.0 65.0 L1.0 61.0 L1.0 57.0 L1.0 53.0 L1.0 49.0 L1.0 45.0 L1.0 41.0 L1.0 37.0 L1.0 33.0 L1.0 29.0 L1.0 25.0 L1.0 21.0 L1.0 17.0 L1.0 13.0 L1.0 9.0 L1.0 5.0 L1.0 1.0 L542.0 1.0 L542.0 5.0 L542.0 9.0 L542.0 13.0 L542.0 17.0 L542.0 21.0 L542.0 25.0 L542.0 29.0 L542.0 33.0 L542.0 37.0 L542.0 41.0 L542.0 45.0 L542.0 49.0 L542.0 53.0 L542.0 57.0 L542.0 61.0 L542.0 65.0 L542.0 69.0 L542.0 73.0 L542.0 77.0 L542.0 81.0 L542.0 85.0 L542.0 89.0 L542.0 93.0 L542.0 97.0 L542.0 101.0 L542.0 105.0 L542.0 109.0 L542.0 113.0 L542.0 117.0 L542.0 121.0 L542.0 125.0 L542.0 129.0 L542.0 133.0 L542.0 137.0 L542.0 141.0 L542.0 145.0 L542.0 149.0 L542.0 153.0 L542.0 157.0 L542.0 161.0 L542.0 165.0 L542.0 169.0 L542.0 173.0 L542.0 177.0 L542.0 181.0 L542.0 185.0 L542.0 189.0 L542.0 193.0 L542.0 197.0 L542.0 201.0 L542.0 205.0 L542.0 209.0 L542.0 213.0 L542.0 217.0 L542.0 221.0 L542.0 225.0 L542.0 229.0 L542.0 233.0 L542.0 237.0 L542.0 241.0 L542.0 245.0 L542.0 249.0 L542.0 253.0 L542.0 257.0 L542.0 261.0 L542.0 265.0 L542.0 269.0 L542.0 273.0 L542.0 277.0 L542.0 281.0 L542.0 285.0 L542.0 289.0 L542.0 293.0 L542.0 297.0 L542.0 301.0 L542.0 305.0 L542.0 309.0 L542.0 313.0 L542.0 317.0 L542.0 321.0 L542.0 325.0 L542.0 329.0 L542.0 333.0 L542.0 337.0 L542.0 341.0 L542.0 345.0 L542.0 349.0 L542.0 353.0 L542.0 357.0 L542.0 361.0 L542.0 365.0 L542.0 369.0 L542.0 373.0 L542.0 377.0 L542.0 381.0 L542.0 385.0 L542.0 389.0 L542.0 393.0 L542.0 397.0 L542.0 401.0 L542.0 405.0 L542.0 409.0 L542.0 413.0 L542.0 417.0 L542.0 421.0 L542.0 425.0 L542.0 429.0 L542.0 433.0 L542.0 437.0 L542.0 441.0 L542.0 445.0 L542.0 449.0 L542.0 453.0 L542.0 457.0 L542.0 461.0 L542.0 465.0 L542.0 469.0 L542.0 473.0 L542.0 477.0 L542.0 481.0 L542.0 485.0 L542.0 489.0 L542.0 493.0 L542.0 497.0 L542.0 501.0 L542.0 505.0 L542.0 509.0 L542.0 513.0 L542.0 517.0 L542.0 521.0 L542.0 525.0 L542.0 529.0 L542.0 533.0 L542.0 537.0 L542.0 541.0 L539.5 542.0 Z M528.0 525.5 L528.0 521.5 L528.0 517.5 L528.0 513.5 L528.0 509.5 L528.0 505.5 L528.0 501.5 L528.0 497.5 L528.0 493.5 L528.0 489.5 L528.0 485.5 L528.0 481.5 L528.0 477.5 L528.0 473.5 L528.0 469.5 L528.0 465.5 L528.0 461.5 L528.0 457.5 L528.0 453.5 L528.0 449.5 L528.0 445.5 L528.0 441.5 L528.0 437.5 L528.0 433.5 L528.0 429.5 L528.0 425.5 L528.0 421.5 L528.0 417.5 L528.0 413.5 L528.0 409.5 L528.0 405.5 L528.0 401.5 L528.0 397.5 L528.0 393.5 L528.0 389.5 L528.0 385.5 L528.0 381.5 L528.0 377.5 L528.0 373.5 L528.0 369.5 L528.0 365.5 L528.0 361.5 L528.0 357.5 L528.0 353.5 L528.0 349.5 L528.0 345.5 L528.0 341.5 L528.0 337.5 L528.0 333.5 L528.0 329.5 L528.0 325.5 L528.0 321.5 L528.0 317.5 L528.0 313.5 L528.0 309.5 L528.0 305.5 L528.0 301.5 L528.0 297.5 L528.0 293.5 L528.0 289.5 L528.0 285.5 L528.0 281.5 L528.0 277.5 L528.0 273.5 L528.0 269.5 L528.0 265.5 L528.0 261.5 L528.0 257.5 L528.0 253.5 L528.0 249.5 L528.0 245.5 L528.0 241.5 L528.0 237.5 L528.0 233.5 L528.0 229.5 L528.0 225.5 L528.0 221.5 L528.0 217.5 L528.0 213.5 L528.0 209.5 L528.0 205.5 L528.0 201.5 L528.0 197.5 L528.0 193.5 L528.0 189.5 L528.0 185.5 L528.0 181.5 L528.0 177.5 L528.0 173.5 L528.0 169.5 L528.0 165.5 L528.0 161.5 L528.0 157.5 L528.0 153.5 L528.0 149.5 L528.0 145.5 L528.0 141.5 L528.0 137.5 L528.0 133.5 L528.0 129.5 L528.0 125.5 L528.0 121.5 L528.0 117.5 L528.0 113.5 L528.0 109.5 L528.0 105.5 L528.0 101.5 L528.0 97.5 L528.0 93.5 L528.0 89.5 L528.0 85.5 L528.0 81.5 L528.0 77.5 L528.0 73.5 L528.0 69.5 L528.0 65.5 L528.0 61.5 L528.0 57.5 L528.0 53.5 L528.0 49.5 L528.0 45.5 L528.0 41.5 L528.0 37.5 L528.0 33.5 L528.0 29.5 L528.0 25.5 L528.0 21.5 L528.0 17.5 L527.0 15.0 L15.0 15.0 L15.0 528.0 L527.0 528.0 L528.0 525.5 Z "/>
</g>
<g  style="stroke:#FF0000;stroke-width:0.1;" >
<path d="M252.0 271.0 L116.35272 271.0 L252.0 271.0 Z "/>
</g>
<g  style="stroke:#00FF00;stroke-width:0.1;" >
<path d="M223.48 266.0 L223.48 276.0 L223.48 266.0 Z "/>
</g>
<g  style="stroke:#00FF00;stroke-width:0.1;" >
<path d="M175.95999 266.0 L175.95999 276.0 L175.95999 266.0 Z "/>
</g>
<g  style="stroke:#00FF00;stroke-width:0.1;" >
<path d="M128.43999 266.0 L128.43999 276.0 L128.43999 266.0 Z "/>
</g>
<g  style="stroke:#00FF00;stroke-width:0.1;" >
<path d="M266.248 269.0 L266.248 273.0 L266.248 269.0 Z "/>
</g>
<g  style="stroke:#00FF00;stroke-width:0.1;" >
<path d="M261.496 269.0 L261.496 273.0 L261.496 269.0 Z "/>
</g>
<g  style="stroke:#00FF00;stroke-width:0.1;" >
<path d="M256.744 269.0 L256.744 273.0 L256.744 269.0 Z "/>
</g>
<g  style="stroke:#00FF00;stroke-width:0.1;" >
<path d="M251.992 269.0 L251.992 273.0 L251.992 269.0 Z "/>
</g>
<g  style="stroke:#00FF00;stroke-width:0.1;" >
<path d="M247.24 269.0 L247.24 273.0 L247.24 269.0 Z "/>
</g>
<g  style="stroke:#00FF00;stroke-width:0.1;" >
<path d="M242.488 269.0 L242.488 273.0 L242.488 269.0 Z "/>
</g>
<g  style="stroke:#00FF00;stroke-width:0.1;" >
<path d="M237.736 269.0 L237.736 273.0 L237.736 269.0 Z "/>
</g>
<g  style="stroke:#00FF00;stroke-width:0.1;" >
<path d="M232.98401 269.0 L232.98401 273.0 L232.98401 269.0 Z "/>
</g>
<g  style="stroke:#00FF00;stroke-width:0.1;" >
<path d="M228.232 269.0 L228.232 273.0 L228.232 269.0 Z "/>
</g>
<g  style="stroke:#00FF00;stroke-width:0.1;" >
<path d="M218.728 269.0 L218.728 273.0 L218.728 269.0 Z "/>
</g>
<g  style="stroke:#00FF00;stroke-width:0.1;" >
<path d="M213.976 269.0 L213.976 273.0 L213.976 269.0 Z "/>
</g>
<g  style="stroke:#00FF00;stroke-width:0.1;" >
<path d="M209.224 269.0 L209.224 273.0 L209.224 269.0 Z "/>
</g>
<g  style="stroke:#00FF00;stroke-width:0.1;" >
<path d="M204.472 269.0 L204.472 273.0 L204.472 269.0 Z "/>
</g>
<g  style="stroke:#00FF00;stroke-width:0.1;" >
<path d="M199.72 269.0 L199.72 273.0 L199.72 269.0 Z "/>
</g>
<g  style="stroke:#00FF00;stroke-width:0.1;" >
<path d="M194.968 269.0 L194.968 273.0 L194.968 269.0 Z "/>
</g>
<g  style="stroke:#00FF00;stroke-width:0.1;" >
<path d="M190.216 269.0 L190.216 273.0 L190.216 269.0 Z "/>
</g>
<g  style="stroke:#00FF00;stroke-width:0.1;" >
<path d="M185.464 269.0 L185.464 273.0 L185.464 269.0 Z "/>
</g>
<g  style="stroke:#00FF00;stroke-width:0.1;" >
<path d="M180.712 269.0 L180.712 273.0 L180.712 269.0 Z "/>
</g>
<g  style="stroke:#00FF00;stroke-width:0.1;" >
<path d="M171.20801 269.0 L171.20801 273.0 L171.20801 269.0 Z "/>
</g>
<g  style="stroke:#00FF00;stroke-width:0.1;" >
<path d="M166.456 269.0 L166.456 273.0 L166.456 269.0 Z "/>
</g>
<g  style="stroke:#00FF00;stroke-width:0.1;" >
<path d="M161.70401 269.0 L161.70401 273.0 L161.70401 269.0 Z "/>
</g>
<g  style="stroke:#00FF00;stroke-width:0.1;" >
<path d="M156.952 269.0 L156.952 273.0 L156.952 269.0 Z "/>
</g>
<g  style="stroke:#00FF00;stroke-width:0.1;" >
<path d="M152.2 269.0 L152.2 273.0 L152.2 269.0 Z "/>
</g>
<g  style="stroke:#00FF00;stroke-width:0.1;" >
<path d="M147.448 269.0 L147.448 273.0 L147.448 269.0 Z "/>
</g>
<g  style="stroke:#00FF00;stroke-width:0.1;" >
<path d="M142.696 269.0 L142.696 273.0 L142.696 269.0 Z "/>
</g>
<g  style="stroke:#00FF00;stroke-width:0.1;" >
<path d="M137.944 269.0 L137.944 273.0 L137.944 269.0 Z "/>
</g>
<g  style="stroke:#00FF00;stroke-width:0.1;" >
<path d="M133.192 269.0 L133.192 273.0 L133.192 269.0 Z "/>
</g>
<g  style="stroke:#00FF00;stroke-width:0.1;" >
<path d="M123.68799 269.0 L123.68799 273.0 L123.68799 269.0 Z "/>
</g>
<g  style="stroke:#00FF00;stroke-width:0.1;" >
<path d="M118.936005 269.0 L118.936005 273.0 L118.936005 269.0 Z "/>
</g>
<g  style="fill:#F6921E;stroke:#F6921E;stroke-width:0.1;" >
<path d="M539.5 542.0 L3.5 542.0 L1.0 541.0 L1.0 537.0 L1.0 533.0 L1.0 529.0 L1.0 525.0 L1.0 521.0 L1.0 517.0 L1.0 513.0 L1.0 509.0 L1.0 505.0 L1.0 501.0 L1.0 497.0 L1.0 493.0 L1.0 489.0 L1.0 485.0 L1.0 481.0 L1.0 477.0 L1.0 473.0 L1.0 469.0 L1.0 465.0 L1.0 461.0 L1.0 457.0 L1.0 453.0 L1.0 449.0 L1.0 445.0 L1.0 441.0 L1.0 437.0 L1.0 433.0 L1.0 429.0 L1.0 425.0 L1.0 421.0 L1.0 417.0 L1.0 413.0 L1.0 409.0 L1.0 405.0 L1.0 401.0 L1.0 397.0 L1.0 393.0 L1.0 389.0 L1.0 385.0 L1.0 381.0 L1.0 377.0 L1.0 373.0 L1.0 369.0 L1.0 365.0 L1.0 361.0 L1.0 357.0 L1.0 353.0 L1.0 349.0 L1.0 345.0 L1.0 341.0 L1.0 337.0 L1.0 333.0 L1.0 329.0 L1.0 325.0 L1.0 321.0 L1.0 317.0 L1.0 313.0 L1.0 309.0 L1.0 305.0 L1.0 301.0 L1.0 297.0 L1.0 293.0 L1.0 289.0 L1.0 285.0 L1.0 281.0 L1.0 277.0 L1.0 273.0 L1.0 269.0 L1.0 265.0 L1.0 261.0 L1.0 257.0 L1.0 253.0 L1.0 249.0 L1.0 245.0 L1.0 241.0 L1.0 237.0 L1.0 233.0 L1.0 229.0 L1.0 225.0 L1.0 221.0 L1.0 217.0 L1.0 213.0 L1.0 209.0 L1.0 205.0 L1.0 201.0 L1.0 197.0 L1.0 193.0 L1.0 189.0 L1.0 185.0 L1.0 181.0 L1.0 177.0 L1.0 173.0 L1.0 169.0 L1.0 165.0 L1.0 161.0 L1.0 157.0 L1.0 153.0 L1.0 149.0 L1.0 145.0 L1.0 141.0 L1.0 137.0 L1.0 133.0 L1.0 129.0 L1.0 125.0 L1.0 121.0 L1.0 117.0 L1.0 113.0 L1.0 109.0 L1.0 105.0 L1.0 101.0 L1.0 97.0 L1.0 93.0 L1.0 89.0 L1.0 85.0 L1.0 81.0 L1.0 77.0 L1.0 73.0 L1.0 69.0 L1.0 65.0 L1.0 61.0 L1.0 57.0 L1.0 53.0 L1.0 49.0 L1.0 45.0 L1.0 41.0 L1.0 37.0 L1.0 33.0 L1.0 29.0 L1.0 25.0 L1.0 21.0 L1.0 17.0 L1.0 13.0 L1.0 9.0 L1.0 5.0 L1.0 1.0 L542.0 1.0 L542.0 5.0 L542.0 9.0 L542.0 13.0 L542.0 17.0 L542.0 21.0 L542.0 25.0 L542.0 29.0 L542.0 33.0 L542.0 37.0 L542.0 41.0 L542.0 45.0 L542.0 49.0 L542.0 53.0 L542.0 57.0 L542.0 61.0 L542.0 65.0 L542.0 69.0 L542.0 73.0 L542.0 77.0 L542.0 81.0 L542.0 85.0 L542.0 89.0 L542.0 93.0 L542.0 97.0 L542.0 101.0 L542.0 105.0 L542.0 109.0 L542.0 113.0 L542.0 117.0 L542.0 121.0 L542.0 125.0 L542.0 129.0 L542.0 133.0 L542.0 137.0 L542.0 141.0 L542.0 145.0 L542.0 149.0 L542.0 153.0 L542.0 157.0 L542.0 161.0 L542.0 165.0 L542.0 169.0 L542.0 173.0 L542.0 177.0 L542.0 181.0 L542.0 185.0 L542.0 189.0 L542.0 193.0 L542.0 197.0 L542.0 201.0 L542.0 205.0 L542.0 209.0 L542.0 213.0 L542.0 217.0 L542.0 221.0 L542.0 225.0 L542.0 229.0 L542.0 233.0 L542.0 237.0 L542.0 241.0 L542.0 245.0 L542.0 249.0 L542.0 253.0 L542.0 257.0 L542.0 261.0 L542.0 265.0 L542.0 269.0 L542.0 273.0 L542.0 277.0 L542.0 281.0 L542.0 285.0 L542.0 289.0 L542.0 293.0 L542.0 297.0 L542.0 301.0 L542.0 305.0 L542.0 309.0 L542.0 313.0 L542.0 317.0 L542.0 321.0 L542.0 325.0 L542.0 329.0 L542.0 333.0 L542.0 337.0 L542.0 341.0 L542.0 345.0 L542.0 349.0 L542.0 353.0 L542.0 357.0 L542.0 361.0 L542.0 365.0 L542.0 369.0 L542.0 373.0 L542.0 377.0 L542.0 381.0 L542.0 385.0 L542.0 389.0 L542.0 393.0 L542.0 397.0 L542.0 401.0 L542.0 405.0 L542.0 409.0 L542.0 413.0 L542.0 417.0 L542.0 421.0 L542.0 425.0 L542.0 429.0 L542.0 433.0 L542.0 437.0 L542.0 441.0 L542.0 445.0 L542.0 449.0 L542.0 453.0 L542.0 457.0 L542.0 461.0 L542.0 465.0 L542.0 469.0 L542.0 473.0 L542.0 477.0 L542.0 481.0 L542.0 485.0 L542.0 489.0 L542.0 493.0 L542.0 497.0 L542.0 501.0 L542.0 505.0 L542.0 509.0 L542.0 513.0 L542.0 517.0 L542.0 521.0 L542.0 525.0 L542.0 529.0 L542.0 533.0 L542.0 537.0 L542.0 541.0 L539.5 542.0 Z M528.0 525.5 L528.0 521.5 L528.0 517.5 L528.0 513.5 L528.0 509.5 L528.0 505.5 L528.0 501.5 L528.0 497.5 L528.0 493.5 L528.0 489.5 L528.0 485.5 L528.0 481.5 L528.0 477.5 L528.0 473.5 L528.0 469.5 L528.0 465.5 L528.0 461.5 L528.0 457.5 L528.0 453.5 L528.0 449.5 L528.0 445.5 L528.0 441.5 L528.0 437.5 L528.0 433.5 L528.0 429.5 L528.0 425.5 L528.0 421.5 L528.0 417.5 L528.0 413.5 L528.0 409.5 L528.0 405.5 L528.0 401.5 L528.0 397.5 L528.0 393.5 L528.0 389.5 L528.0 385.5 L528.0 381.5 L528.0 377.5 L528.0 373.5 L528.0 369.5 L528.0 365.5 L528.0 361.5 L528.0 357.5 L528.0 353.5 L528.0 349.5 L528.0 345.5 L528.0 341.5 L528.0 337.5 L528.0 333.5 L528.0 329.5 L528.0 325.5 L528.0 321.5 L528.0 317.5 L528.0 313.5 L528.0 309.5 L528.0 305.5 L528.0 301.5 L528.0 297.5 L528.0 293.5 L528.0 289.5 L528.0 285.5 L528.0 281.5 L528.0 277.5 L528.0 273.5 L528.0 269.5 L528.0 265.5 L528.0 261.5 L528.0 257.5 L528.0 253.5 L528.0 249.5 L528.0 245.5 L528.0 241.5 L528.0 237.5 L528.0 233.5 L528.0 229.5 L528.0 225.5 L528.0 221.5 L528.0 217.5 L528.0 213.5 L528.0 209.5 L528.0 205.5 L528.0 201.5 L528.0 197.5 L528.0 193.5 L528.0 189.5 L528.0 185.5 L528.0 181.5 L528.0 177.5 L528.0 173.5 L528.0 169.5 L528.0 165.5 L528.0 161.5 L528.0 157.5 L528.0 153.5 L528.0 149.5 L528.0 145.5 L528.0 141.5 L528.0 137.5 L528.0 133.5 L528.0 129.5 L528.0 125.5 L528.0 121.5 L528.0 117.5 L528.0 113.5 L528.0 109.5 L528.0 105.5 L528.0 101.5 L528.0 97.5 L528.0 93.5 L528.0 89.5 L528.0 85.5 L528.0 81.5 L528.0 77.5 L528.0 73.5 L528.0 69.5 L528.0 65.5 L528.0 61.5 L528.0 57.5 L528.0 53.5 L528.0 49.5 L528.0 45.5 L528.0 41.5 L528.0 37.5 L528.0 33.5 L528.0 29.5 L528.0 25.5 L528.0 21.5 L528.0 17.5 L527.0 15.0 L15.0 15.0 L15.0 528.0 L527.0 528.0 L528.0 525.5 Z "/>
</g>
<g  style="stroke:#FF0000;stroke-width:0.1;" >
<path d="M257.56497 257.56497 L150.3447 150.34467 L257.56497 257.56497 Z "/>
</g>
<g  style="stroke:#00FF00;stroke-width:0.1;" >
<path d="M240.93384 233.86275 L233.86276 240.93382 L240.93384 233.86275 Z "/>
</g>
<g  style="stroke:#00FF00;stroke-width:0.1;" >
<path d="M207.33212 200.26102 L200.26108 207.33209 L207.33212 200.26102 Z "/>
</g>
<g  style="stroke:#00FF00;stroke-width:0.1;" >
<path d="M173.73044 166.65929 L166.65936 173.73036 L173.73044 166.65929 Z "/>
</g>
<g  style="stroke:#00FF00;stroke-width:0.1;" >
<path d="M269.05405 266.22562 L266.22562 269.05405 L269.05405 266.22562 Z "/>
</g>
<g  style="stroke:#00FF00;stroke-width:0.1;" >
<path d="M265.69388 262.86545 L262.86545 265.69388 L265.69388 262.86545 Z "/>
</g>
<g  style="stroke:#00FF00;stroke-width:0.1;" >
<path d="M262.3337 259.50525 L259.50528 262.33368 L262.3337 259.50525 Z "/>
</g>
<g  style="stroke:#00FF00;stroke-width:0.1;" >
<path d="M258.97354 256.1451 L256.1451 258.97354 L258.97354 256.1451 Z "/>
</g>
<g  style="stroke:#00FF00;stroke-width:0.1;" >
<path d="M255.61337 252.78493 L252.78494 255.61336 L255.61337 252.78493 Z "/>
</g>
<g  style="stroke:#00FF00;stroke-width:0.1;" >
<path d="M252.2532 249.42476 L249.42477 252.25319 L252.2532 249.42476 Z "/>
</g>
<g  style="stroke:#00FF00;stroke-width:0.1;" >
<path d="M248.89304 246.06458 L246.0646 248.893 L248.89304 246.06458 Z "/>
</g>
<g  style="stroke:#00FF00;stroke-width:0.1;" >
<path d="M245.53287 242.70442 L242.70444 245.53285 L245.53287 242.70442 Z "/>
</g>
<g  style="stroke:#00FF00;stroke-width:0.1;" >
<path d="M242.1727 239.34424 L239.34427 242.17267 L242.1727 239.34424 Z "/>
</g>
<g  style="stroke:#00FF00;stroke-width:0.1;" >
<path d="M235.45236 232.62389 L232.62393 235.45232 L235.45236 232.62389 Z "/>
</g>
<g  style="stroke:#00FF00;stroke-width:0.1;" >
<path d="M232.0922 229.26372 L229.26376 232.09215 L232.0922 229.26372 Z "/>
</g>
<g  style="stroke:#00FF00;stroke-width:0.1;" >
<path d="M228.732 225.90355 L225.9036 228.73198 L228.732 225.90355 Z "/>
</g>
<g  style="stroke:#00FF00;stroke-width:0.1;" >
<path d="M225.37183 222.54338 L222.54343 225.37181 L225.37183 222.54338 Z "/>
</g>
<g  style="stroke:#00FF00;stroke-width:0.1;" >
<path d="M222.01166 219.18321 L219.18326 222.01164 L222.01166 219.18321 Z "/>
</g>
<g  style="stroke:#00FF00;stroke-width:0.1;" >
<path d="M218.65149 215.82303 L215.82309 218.65146 L218.65149 215.82303 Z "/>
</g>
<g  style="stroke:#00FF00;stroke-width:0.1;" >
<path d="M215.29132 212.46286 L212.46292 215.29129 L215.29132 212.46286 Z "/>
</g>
<g  style="stroke:#00FF00;stroke-width:0.1;" >
<path d="M211.93115 209.10269 L209.10275 211.93112 L211.93115 209.10269 Z "/>
</g>
<g  style="stroke:#00FF00;stroke-width:0.1;" >
<path d="M208.57098 205.74252 L205.74258 208.57095 L208.57098 205.74252 Z "/>
</g>
<g  style="stroke:#00FF00;stroke-width:0.1;" >
<path d="M201.85065 199.02219 L199.02225 201.85062 L201.85065 199.02219 Z "/>
</g>
<g  style="stroke:#00FF00;stroke-width:0.1;" >
<path d="M198.49045 195.66199 L195.66205 198.49042 L198.49045 195.66199 Z "/>
</g>
<g  style="stroke:#00FF00;stroke-width:0.1;" >
<path d="M195.13031 192.30183 L192.30191 195.13026 L195.13031 192.30183 Z "/>
</g>
<g  style="stroke:#00FF00;stroke-width:0.1;" >
<path d="M191.77011 188.94165 L188.94171 191.77008 L191.77011 188.94165 Z "/>
</g>
<g  style="stroke:#00FF00;stroke-width:0.1;" >
<path d="M188.40994 185.58148 L185.58154 188.40991 L188.40994 185.58148 Z "/>
</g>
<g  style="stroke:#00FF00;stroke-width:0.1;" >
<path d="M185.04977 182.22131 L182.22137 185.04974 L185.04977 182.22131 Z "/>
</g>
<g  style="stroke:#00FF00;stroke-width:0.1;" >
<path d="M181.6896 178.86115 L178.8612 181.68958 L181.6896 178.86115 Z "/>
</g>
<g  style="stroke:#00FF00;stroke-width:0.1;" >
<path d="M178.32944 175.50096 L175.50104 178.32939 L178.32944 175.50096 Z "/>
</g>
<g  style="stroke:#00FF00;stroke-width:0.1;" >
<path d="M174.96927 172.1408 L172.14087 174.96922 L174.96927 172.1408 Z "/>
</g>
<g  style="stroke:#00FF00;stroke-width:0.1;" >
<path d="M168.24893 165.42044 L165.4205 168.24887 L168.24893 165.42044 Z "/>
</g>
<g  style="stroke:#00FF00;stroke-width:0.1;" >
<path d="M164.88876 162.06027 L162.06036 164.8887 L164.88876 162.06027 Z "/>
</g>
<g  style="stroke:#00FF00;stroke-width:0.1;" >
<path d="M161.5286 158.7001 L158.7002 161.52853 L161.5286 158.7001 Z "/>
</g>
<g  style="stroke:#00FF00;stroke-width:0.1;" >
<path d="M158.16843 155.33992 L155.34 158.16835 L158.16843 155.33992 Z "/>
</g>
<g  style="stroke:#00FF00;stroke-width:0.1;" >
<path d="M154.80826 151.97975 L151.97983 154.80818 L154.80826 151.97975 Z "/>
</g>
<g  style="fill:#F6921E;stroke:#F6921E;stroke-width:0.1;" >
<path d="M539.5 542.0 L3.5 542.0 L1.0 541.0 L1.0 537.0 L1.0 533.0 L1.0 529.0 L1.0 525.0 L1.0 521.0 L1.0 517.0 L1.0 513.0 L1.0 509.0 L1.0 505.0 L1.0 501.0 L1.0 497.0 L1.0 493.0 L1.0 489.0 L1.0 485.0 L1.0 481.0 L1.0 477.0 L1.0 473.0 L1.0 469.0 L1.0 465.0 L1.0 461.0 L1.0 457.0 L1.0 453.0 L1.0 449.0 L1.0 445.0 L1.0 441.0 L1.0 437.0 L1.0 433.0 L1.0 429.0 L1.0 425.0 L1.0 421.0 L1.0 417.0 L1.0 413.0 L1.0 409.0 L1.0 405.0 L1.0 401.0 L1.0 397.0 L1.0 393.0 L1.0 389.0 L1.0 385.0 L1.0 381.0 L1.0 377.0 L1.0 373.0 L1.0 369.0 L1.0 365.0 L1.0 361.0 L1.0 357.0 L1.0 353.0 L1.0 349.0 L1.0 345.0 L1.0 341.0 L1.0 337.0 L1.0 333.0 L1.0 329.0 L1.0 325.0 L1.0 321.0 L1.0 317.0 L1.0 313.0 L1.0 309.0 L1.0 305.0 L1.0 301.0 L1.0 297.0 L1.0 293.0 L1.0 289.0 L1.0 285.0 L1.0 281.0 L1.0 277.0 L1.0 273.0 L1.0 269.0 L1.0 265.0 L1.0 261.0 L1.0 257.0 L1.0 253.0 L1.0 249.0 L1.0 245.0 L1.0 241.0 L1.0 237.0 L1.0 233.0 L1.0 229.0 L1.0 225.0 L1.0 221.0 L1.0 217.0 L1.0 213.0 L1.0 209.0 L1.0 205.0 L1.0 201.0 L1.0 197.0 L1.0 193.0 L1.0 189.0 L1.0 185.0 L1.0 181.0 L1.0 177.0 L1.0 173.0 L1.0 169.0 L1.0 165.0 L1.0 161.0 L1.0 157.0 L1.0 153.0 L1.0 149.0 L1.0 145.0 L1.0 141.0 L1.0 137.0 L1.0 133.0 L1.0 129.0 L1.0 125.0 L1.0 121.0 L1.0 117.0 L1.0 113.0 L1.0 109.0 L1.0 105.0 L1.0 101.0 L1.0 97.0 L1.0 93.0 L1.0 89.0 L1.0 85.0 L1.0 81.0 L1.0 77.0 L1.0 73.0 L1.0 69.0 L1.0 65.0 L1.0 61.0 L1.0 57.0 L1.0 53.0 L1.0 49.0 L1.0 45.0 L1.0 41.0 L1.0 37.0 L1.0 33.0 L1.0 29.0 L1.0 25.0 L1.0 21.0 L1.0 17.0 L1.0 13.0 L1.0 9.0 L1.0 5.0 L1.0 1.0 L542.0 1.0 L542.0 5.0 L542.0 9.0 L542.0 13.0 L542.0 17.0 L542.0 21.0 L542.0 25.0 L542.0 29.0 L542.0 33.0 L542.0 37.0 L542.0 41.0 L542.0 45.0 L542.0 49.0 L542.0 53.0 L542.0 57.0 L542.0 61.0 L542.0 65.0 L542.0 69.0 L542.0 73.0 L542.0 77.0 L542.0 81.0 L542.0 85.0 L542.0 89.0 L542.0 93.0 L542.0 97.0 L542.0 101.0 L542.0 105.0 L542.0 109.0 L542.0 113.0 L542.0 117.0 L542.0 121.0 L542.0 125.0 L542.0 129.0 L542.0 133.0 L542.0 137.0 L542.0 141.0 L542.0 145.0 L542.0 149.0 L542.0 153.0 L542.0 157.0 L542.0 161.0 L542.0 165.0 L542.0 169.0 L542.0 173.0 L542.0 177.0 L542.0 181.0 L542.0 185.0 L542.0 189.0 L542.0 193.0 L542.0 197.0 L542.0 201.0 L542.0 205.0 L542.0 209.0 L542.0 213.0 L542.0 217.0 L542.0 221.0 L542.0 225.0 L542.0 229.0 L542.0 233.0 L542.0 237.0 L542.0 241.0 L542.0 245.0 L542.0 249.0 L542.0 253.0 L542.0 257.0 L542.0 261.0 L542.0 265.0 L542.0 269.0 L542.0 273.0 L542.0 277.0 L542.0 281.0 L542.0 285.0 L542.0 289.0 L542.0 293.0 L542.0 297.0 L542.0 301.0 L542.0 305.0 L542.0 309.0 L542.0 313.0 L542.0 317.0 L542.0 321.0 L542.0 325.0 L542.0 329.0 L542.0 333.0 L542.0 337.0 L542.0 341.0 L542.0 345.0 L542.0 349.0 L542.0 353.0 L542.0 357.0 L542.0 361.0 L542.0 365.0 L542.0 369.0 L542.0 373.0 L542.0 377.0 L542.0 381.0 L542.0 385.0 L542.0 389.0 L542.0 393.0 L542.0 397.0 L542.0 401.0 L542.0 405.0 L542.0 409.0 L542.0 413.0 L542.0 417.0 L542.0 421.0 L542.0 425.0 L542.0 429.0 L542.0 433.0 L542.0 437.0 L542.0 441.0 L542.0 445.0 L542.0 449.0 L542.0 453.0 L542.0 457.0 L542.0 461.0 L542.0 465.0 L542.0 469.0 L542.0 473.0 L542.0 477.0 L542.0 481.0 L542.0 485.0 L542.0 489.0 L542.0 493.0 L542.0 497.0 L542.0 501.0 L542.0 505.0 L542.0 509.0 L542.0 513.0 L542.0 517.0 L542.0 521.0 L542.0 525.0 L542.0 529.0 L542.0 533.0 L542.0 537.0 L542.0 541.0 L539.5 542.0 Z M528.0 525.5 L528.0 521.5 L528.0 517.5 L528.0 513.5 L528.0 509.5 L528.0 505.5 L528.0 501.5 L528.0 497.5 L528.0 493.5 L528.0 489.5 L528.0 485.5 L528.0 481.5 L528.0 477.5 L528.0 473.5 L528.0 469.5 L528.0 465.5 L528.0 461.5 L528.0 457.5 L528.0 453.5 L528.0 449.5 L528.0 445.5 L528.0 441.5 L528.0 437.5 L528.0 433.5 L528.0 429.5 L528.0 425.5 L528.0 421.5 L528.0 417.5 L528.0 413.5 L528.0 409.5 L528.0 405.5 L528.0 401.5 L528.0 397.5 L528.0 393.5 L528.0 389.5 L528.0 385.5 L528.0 381.5 L528.0 377.5 L528.0 373.5 L528.0 369.5 L528.0 365.5 L528.0 361.5 L528.0 357.5 L528.0 353.5 L528.0 349.5 L528.0 345.5 L528.0 341.5 L528.0 337.5 L528.0 333.5 L528.0 329.5 L528.0 325.5 L528.0 321.5 L528.0 317.5 L528.0 313.5 L528.0 309.5 L528.0 305.5 L528.0 301.5 L528.0 297.5 L528.0 293.5 L528.0 289.5 L528.0 285.5 L528.0 281.5 L528.0 277.5 L528.0 273.5 L528.0 269.5 L528.0 265.5 L528.0 261.5 L528.0 257.5 L528.0 253.5 L528.0 249.5 L528.0 245.5 L528.0 241.5 L528.0 237.5 L528.0 233.5 L528.0 229.5 L528.0 225.5 L528.0 221.5 L528.0 217.5 L528.0 213.5 L528.0 209.5 L528.0 205.5 L528.0 201.5 L528.0 197.5 L528.0 193.5 L528.0 189.5 L528.0 185.5 L528.0 181.5 L528.0 177.5 L528.0 173.5 L528.0 169.5 L528.0 165.5 L528.0 161.5 L528.0 157.5 L528.0 153.5 L528.0 149.5 L528.0 145.5 L528.0 141.5 L528.0 137.5 L528.0 133.5 L528.0 129.5 L528.0 125.5 L528.0 121.5 L528.0 117.5 L528.0 113.5 L528.0 109.5 L528.0 105.5 L528.0 101.5 L528.0 97.5 L528.0 93.5 L528.0 89.5 L528.0 85.5 L528.0 81.5 L528.0 77.5 L528.0 73.5 L528.0 69.5 L528.0 65.5 L528.0 61.5 L528.0 57.5 L528.0 53.5 L528.0 49.5 L528.0 45.5 L528.0 41.5 L528.0 37.5 L528.0 33.5 L528.0 29.5 L528.0 25.5 L528.0 21.5 L528.0 17.5 L527.0 15.0 L15.0 15.0 L15.0 528.0 L527.0 528.0 L528.0 525.5 Z "/>
</g>
<g  style="stroke:#FF0000;stroke-width:0.1;" >
<path d="M271.0 252.0 L271.0 156.2362 L271.0 252.0 Z "/>
</g>
<g  style="stroke:#00FF00;stroke-width:0.1;" >
<path d="M276.00003 223.47998 L266.00003 223.47998 L276.00003 223.47998 Z "/>
</g>
<g  style="stroke:#00FF00;stroke-width:0.1;" >
<path d="M276.00003 175.95998 L266.00003 175.95998 L276.00003 175.95998 Z "/>
</g>
<g  style="stroke:#00FF00;stroke-width:0.1;" >
<path d="M273.0 266.248 L269.0 266.248 L273.0 266.248 Z "/>
</g>
<g  style="stroke:#00FF00;stroke-width:0.1;" >
<path d="M273.00003 261.496 L269.00003 261.496 L273.00003 261.496 Z "/>
</g>
<g  style="stroke:#00FF00;stroke-width:0.1;" >
<path d="M273.00003 256.744 L269.00003 256.744 L273.00003 256.744 Z "/>
</g>
<g  style="stroke:#00FF00;stroke-width:0.1;" >
<path d="M273.00003 251.99199 L269.00003 251.99199 L273.00003 251.99199 Z "/>
</g>
<g  style="stroke:#00FF00;stroke-width:0.1;" >
<path d="M273.00003 247.23999 L269.00003 247.23999 L273.00003 247.23999 Z "/>
</g>
<g  style="stroke:#00FF00;stroke-width:0.1;" >
<path d="M273.00003 242.48799 L269.00003 242.48799 L273.00003 242.48799 Z "/>
</g>
<g  style="stroke:#00FF00;stroke-width:0.1;" >
<path d="M273.00003 237.73598 L269.00003 237.73598 L273.00003 237.73598 Z "/>
</g>
<g  style="stroke:#00FF00;stroke-width:0.1;" >
<path d="M273.00003 232.984 L269.00003 232.984 L273.00003 232.984 Z "/>
</g>
<g  style="stroke:#00FF00;stroke-width:0.1;" >
<path d="M273.00003 228.23198 L269.00003 228.23198 L273.00003 228.23198 Z "/>
</g>
<g  style="stroke:#00FF00;stroke-width:0.1;" >
<path d="M273.00003 218.72798 L269.00003 218.72798 L273.00003 218.72798 Z "/>
</g>
<g  style="stroke:#00FF00;stroke-width:0.1;" >
<path d="M273.00003 213.97598 L269.00003 213.97598 L273.00003 213.97598 Z "/>
</g>
<g  style="stroke:#00FF00;stroke-width:0.1;" >
<path d="M273.00003 209.22398 L269.00003 209.22398 L273.00003 209.22398 Z "/>
</g>
<g  style="stroke:#00FF00;stroke-width:0.1;" >
<path d="M273.00003 204.47198 L269.00003 204.47198 L273.00003 204.47198 Z "/>
</g>
<g  style="stroke:#00FF00;stroke-width:0.1;" >
<path d="M273.00003 199.71999 L269.00003 199.71999 L273.00003 199.71999 Z "/>
</g>
<g  style="stroke:#00FF00;stroke-width:0.1;" >
<path d="M273.00003 194.96799 L269.00003 194.96799 L273.00003 194.96799 Z "/>
</g>
<g  style="stroke:#00FF00;stroke-width:0.1;" >
<path d="M273.00003 190.21599 L269.00003 190.21599 L273.00003 190.21599 Z "/>
</g>
<g  style="stroke:#00FF00;stroke-width:0.1;" >
<path d="M273.00003 185.46399 L269.00003 185.46399 L273.00003 185.46399 Z "/>
</g>
<g  style="stroke:#00FF00;stroke-width:0.1;" >
<path d="M273.00003 180.71199 L269.00003 180.71199 L273.00003 180.71199 Z "/>
</g>
<g  style="stroke:#00FF00;stroke-width:0.1;" >
<path d="M273.00003 171.208 L269.00003 171.208 L273.00003 171.208 Z "/>
</g>
<g  style="stroke:#00FF00;stroke-width:0.1;" >
<path d="M273.00003 166.45598 L269.00003 166.45598 L273.00003 166.45598 Z "/>
</g>
<g  style="stroke:#00FF00;stroke-width:0.1;" >
<path d="M273.00003 161.704 L269.00003 161.704 L273.00003 161.704 Z "/>
</g>
<g  style="stroke:#00FF00;stroke-width:0.1;" >
<path d="M273.00003 156.95198 L269.00003 156.95198 L273.00003 156.95198 Z "/>
</g>
<g  style="fill:#F6921E;stroke:#F6921E;stroke-width:0.1;" >
<path d="M539.5 542.0 L3.5 542.0 L1.0 541.0 L1.0 537.0 L1.0 533.0 L1.0 529.0 L1.0 525.0 L1.0 521.0 L1.0 517.0 L1.0 513.0 L1.0 509.0 L1.0 505.0 L1.0 501.0 L1.0 497.0 L1.0 493.0 L1.0 489.0 L1.0 485.0 L1.0 481.0 L1.0 477.0 L1.0 473.0 L1.0 469.0 L1.0 465.0 L1.0 461.0 L1.0 457.0 L1.0 453.0 L1.0 449.0 L1.0 445.0 L1.0 441.0 L1.0 437.0 L1.0 433.0 L1.0 429.0 L1.0 425.0 L1.0 421.0 L1.0 417.0 L1.0 413.0 L1.0 409.0 L1.0 405.0 L1.0 401.0 L1.0 397.0 L1.0 393.0 L1.0 389.0 L1.0 385.0 L1.0 381.0 L1.0 377.0 L1.0 373.0 L1.0 369.0 L1.0 365.0 L1.0 361.0 L1.0 357.0 L1.0 353.0 L1.0 349.0 L1.0 345.0 L1.0 341.0 L1.0 337.0 L1.0 333.0 L1.0 329.0 L1.0 325.0 L1.0 321.0 L1.0 317.0 L1.0 313.0 L1.0 309.0 L1.0 305.0 L1.0 301.0 L1.0 297.0 L1.0 293.0 L1.0 289.0 L1.0 285.0 L1.0 281.0 L1.0 277.0 L1.0 273.0 L1.0 269.0 L1.0 265.0 L1.0 261.0 L1.0 257.0 L1.0 253.0 L1.0 249.0 L1.0 245.0 L1.0 241.0 L1.0 237.0 L1.0 233.0 L1.0 229.0 L1.0 225.0 L1.0 221.0 L1.0 217.0 L1.0 213.0 L1.0 209.0 L1.0 205.0 L1.0 201.0 L1.0 197.0 L1.0 193.0 L1.0 189.0 L1.0 185.0 L1.0 181.0 L1.0 177.0 L1.0 173.0 L1.0 169.0 L1.0 165.0 L1.0 161.0 L1.0 157.0 L1.0 153.0 L1.0 149.0 L1.0 145.0 L1.0 141.0 L1.0 137.0 L1.0 133.0 L1.0 129.0 L1.0 125.0 L1.0 121.0 L1.0 117.0 L1.0 113.0 L1.0 109.0 L1.0 105.0 L1.0 101.0 L1.0 97.0 L1.0 93.0 L1.0 89.0 L1.0 85.0 L1.0 81.0 L1.0 77.0 L1.0 73.0 L1.0 69.0 L1.0 65.0 L1.0 61.0 L1.0 57.0 L1.0 53.0 L1.0 49.0 L1.0 45.0 L1.0 41.0 L1.0 37.0 L1.0 33.0 L1.0 29.0 L1.0 25.0 L1.0 21.0 L1.0 17.0 L1.0 13.0 L1.0 9.0 L1.0 5.0 L1.0 1.0 L542.0 1.0 L542.0 5.0 L542.0 9.0 L542.0 13.0 L542.0 17.0 L542.0 21.0 L542.0 25.0 L542.0 29.0 L542.0 33.0 L542.0 37.0 L542.0 41.0 L542.0 45.0 L542.0 49.0 L542.0 53.0 L542.0 57.0 L542.0 61.0 L542.0 65.0 L542.0 69.0 L542.0 73.0 L542.0 77.0 L542.0 81.0 L542.0 85.0 L542.0 89.0 L542.0 93.0 L542.0 97.0 L542.0 101.0 L542.0 105.0 L542.0 109.0 L542.0 113.0 L542.0 117.0 L542.0 121.0 L542.0 125.0 L542.0 129.0 L542.0 133.0 L542.0 137.0 L542.0 141.0 L542.0 145.0 L542.0 149.0 L542.0 153.0 L542.0 157.0 L542.0 161.0 L542.0 165.0 L542.0 169.0 L542.0 173.0 L542.0 177.0 L542.0 181.0 L542.0 185.0 L542.0 189.0 L542.0 193.0 L542.0 197.0 L542.0 201.0 L542.0 205.0 L542.0 209.0 L542.0 213.0 L542.0 217.0 L542.0 221.0 L542.0 225.0 L542.0 229.0 L542.0 233.0 L542.0 237.0 L542.0 241.0 L542.0 245.0 L542.0 249.0 L542.0 253.0 L542.0 257.0 L542.0 261.0 L542.0 265.0 L542.0 269.0 L542.0 273.0 L542.0 277.0 L542.0 281.0 L542.0 285.0 L542.0 289.0 L542.0 293.0 L542.0 297.0 L542.0 301.0 L542.0 305.0 L542.0 309.0 L542.0 313.0 L542.0 317.0 L542.0 321.0 L542.0 325.0 L542.0 329.0 L542.0 333.0 L542.0 337.0 L542.0 341.0 L542.0 345.0 L542.0 349.0 L542.0 353.0 L542.0 357.0 L542.0 361.0 L542.0 365.0 L542.0 369.0 L542.0 373.0 L542.0 377.0 L542.0 381.0 L542.0 385.0 L542.0 389.0 L542.0 393.0 L542.0 397.0 L542.0 401.0 L542.0 405.0 L542.0 409.0 L542.0 413.0 L542.0 417.0 L542.0 421.0 L542.0 425.0 L542.0 429.0 L542.0 433.0 L542.0 437.0 L542.0 441.0 L542.0 445.0 L542.0 449.0 L542.0 453.0 L542.0 457.0 L542.0 461.0 L542.0 465.0 L542.0 469.0 L542.0 473.0 L542.0 477.0 L542.0 481.0 L542.0 485.0 L542.0 489.0 L542.0 493.0 L542.0 497.0 L542.0 501.0 L542.0 505.0 L542.0 509.0 L542.0 513.0 L542.0 517.0 L542.0 521.0 L542.0 525.0 L542.0 529.0 L542.0 533.0 L542.0 537.0 L542.0 541.0 L539.5 542.0 Z M528.0 525.5 L528.0 521.5 L528.0 517.5 L528.0 513.5 L528.0 509.5 L528.0 505.5 L528.0 501.5 L528.0 497.5 L528.0 493.5 L528.0 489.5 L528.0 485.5 L528.0 481.5 L528.0 477.5 L528.0 473.5 L528.0 469.5 L528.0 465.5 L528.0 461.5 L528.0 457.5 L528.0 453.5 L528.0 449.5 L528.0 445.5 L528.0 441.5 L528.0 437.5 L528.0 433.5 L528.0 429.5 L528.0 425.5 L528.0 421.5 L528.0 417.5 L528.0 413.5 L528.0 409.5 L528.0 405.5 L528.0 401.5 L528.0 397.5 L528.0 393.5 L528.0 389.5 L528.0 385.5 L528.0 381.5 L528.0 377.5 L528.0 373.5 L528.0 369.5 L528.0 365.5 L528.0 361.5 L528.0 357.5 L528.0 353.5 L528.0 349.5 L528.0 345.5 L528.0 341.5 L528.0 337.5 L528.0 333.5 L528.0 329.5 L528.0 325.5 L528.0 321.5 L528.0 317.5 L528.0 313.5 L528.0 309.5 L528.0 305.5 L528.0 301.5 L528.0 297.5 L528.0 293.5 L528.0 289.5 L528.0 285.5 L528.0 281.5 L528.0 277.5 L528.0 273.5 L528.0 269.5 L528.0 265.5 L528.0 261.5 L528.0 257.5 L528.0 253.5 L528.0 249.5 L528.0 245.5 L528.0 241.5 L528.0 237.5 L528.0 233.5 L528.0 229.5 L528.0 225.5 L528.0 221.5 L528.0 217.5 L528.0 213.5 L528.0 209.5 L528.0 205.5 L528.0 201.5 L528.0 197.5 L528.0 193.5 L528.0 189.5 L528.0 185.5 L528.0 181.5 L528.0 177.5 L528.0 173.5 L528.0 169.5 L528.0 165.5 L528.0 161.5 L528.0 157.5 L528.0 153.5 L528.0 149.5 L528.0 145.5 L528.0 141.5 L528.0 137.5 L528.0 133.5 L528.0 129.5 L528.0 125.5 L528.0 121.5 L528.0 117.5 L528.0 113.5 L528.0 109.5 L528.0 105.5 L528.0 101.5 L528.0 97.5 L528.0 93.5 L528.0 89.5 L528.0 85.5 L528.0 81.5 L528.0 77.5 L528.0 73.5 L528.0 69.5 L528.0 65.5 L528.0 61.5 L528.0 57.5 L528.0 53.5 L528.0 49.5 L528.0 45.5 L528.0 41.5 L528.0 37.5 L528.0 33.5 L528.0 29.5 L528.0 25.5 L528.0 21.5 L528.0 17.5 L527.0 15.0 L15.0 15.0 L15.0 528.0 L527.0 528.0 L528.0 525.5 Z "/>
</g>
<g  style="stroke:#FF0000;stroke-width:0.1;" >
<path d="M284.43503 257.56497 L375.6109 166.38916 L284.43503 257.56497 Z "/>
</g>
<g  style="stroke:#00FF00;stroke-width:0.1;" >
<path d="M308.13727 240.9338 L301.06616 233.86276 L308.13727 240.9338 Z "/>
</g>
<g  style="stroke:#00FF00;stroke-width:0.1;" >
<path d="M341.73895 207.33212 L334.6679 200.26102 L341.73895 207.33212 Z "/>
</g>
<g  style="stroke:#00FF00;stroke-width:0.1;" >
<path d="M375.3407 173.73038 L368.2696 166.65933 L375.3407 173.73038 Z "/>
</g>
<g  style="stroke:#00FF00;stroke-width:0.1;" >
<path d="M275.7744 269.05405 L272.94598 266.22562 L275.7744 269.05405 Z "/>
</g>
<g  style="stroke:#00FF00;stroke-width:0.1;" >
<path d="M279.13455 265.69388 L276.30612 262.86545 L279.13455 265.69388 Z "/>
</g>
<g  style="stroke:#00FF00;stroke-width:0.1;" >
<path d="M282.49475 262.3337 L279.66632 259.50528 L282.49475 262.3337 Z "/>
</g>
<g  style="stroke:#00FF00;stroke-width:0.1;" >
<path d="M285.8549 258.97354 L283.02646 256.1451 L285.8549 258.97354 Z "/>
</g>
<g  style="stroke:#00FF00;stroke-width:0.1;" >
<path d="M289.21506 255.61337 L286.38663 252.78494 L289.21506 255.61337 Z "/>
</g>
<g  style="stroke:#00FF00;stroke-width:0.1;" >
<path d="M292.57526 252.2532 L289.74683 249.42477 L292.57526 252.2532 Z "/>
</g>
<g  style="stroke:#00FF00;stroke-width:0.1;" >
<path d="M295.93542 248.89304 L293.107 246.0646 L295.93542 248.89304 Z "/>
</g>
<g  style="stroke:#00FF00;stroke-width:0.1;" >
<path d="M299.2956 245.53287 L296.46716 242.70444 L299.2956 245.53287 Z "/>
</g>
<g  style="stroke:#00FF00;stroke-width:0.1;" >
<path d="M302.65576 242.17267 L299.82733 239.34424 L302.65576 242.17267 Z "/>
</g>
<g  style="stroke:#00FF00;stroke-width:0.1;" >
<path d="M309.3761 235.45233 L306.54767 232.6239 L309.3761 235.45233 Z "/>
</g>
<g  style="stroke:#00FF00;stroke-width:0.1;" >
<path d="M312.73627 232.09216 L309.90784 229.26373 L312.73627 232.09216 Z "/>
</g>
<g  style="stroke:#00FF00;stroke-width:0.1;" >
<path d="M316.09644 228.732 L313.268 225.90356 L316.09644 228.732 Z "/>
</g>
<g  style="stroke:#00FF00;stroke-width:0.1;" >
<path d="M319.4566 225.37183 L316.62817 222.5434 L319.4566 225.37183 Z "/>
</g>
<g  style="stroke:#00FF00;stroke-width:0.1;" >
<path d="M322.81677 222.01163 L319.98834 219.1832 L322.81677 222.01163 Z "/>
</g>
<g  style="stroke:#00FF00;stroke-width:0.1;" >
<path d="M326.17694 218.65146 L323.3485 215.82303 L326.17694 218.65146 Z "/>
</g>
<g  style="stroke:#00FF00;stroke-width:0.1;" >
<path d="M329.5371 215.29129 L326.70868 212.46286 L329.5371 215.29129 Z "/>
</g>
<g  style="stroke:#00FF00;stroke-width:0.1;" >
<path d="M332.89728 211.93112 L330.06885 209.10269 L332.89728 211.93112 Z "/>
</g>
<g  style="stroke:#00FF00;stroke-width:0.1;" >
<path d="M336.25745 208.57095 L333.42902 205.74252 L336.25745 208.57095 Z "/>
</g>
<g  style="stroke:#00FF00;stroke-width:0.1;" >
<path d="M342.9778 201.85062 L340.14938 199.02219 L342.9778 201.85062 Z "/>
</g>
<g  style="stroke:#00FF00;stroke-width:0.1;" >
<path d="M346.33798 198.49045 L343.50955 195.66202 L346.33798 198.49045 Z "/>
</g>
<g  style="stroke:#00FF00;stroke-width:0.1;" >
<path d="M349.69815 195.13028 L346.86972 192.30185 L349.69815 195.13028 Z "/>
</g>
<g  style="stroke:#00FF00;stroke-width:0.1;" >
<path d="M353.05832 191.77011 L350.2299 188.94168 L353.05832 191.77011 Z "/>
</g>
<g  style="stroke:#00FF00;stroke-width:0.1;" >
<path d="M356.4185 188.40994 L353.59006 185.58151 L356.4185 188.40994 Z "/>
</g>
<g  style="stroke:#00FF00;stroke-width:0.1;" >
<path d="M359.7787 185.04977 L356.95026 182.22134 L359.7787 185.04977 Z "/>
</g>
<g  style="stroke:#00FF00;stroke-width:0.1;" >
<path d="M363.13885 181.6896 L360.31042 178.86118 L363.13885 181.6896 Z "/>
</g>
<g  style="stroke:#00FF00;stroke-width:0.1;" >
<path d="M366.49902 178.32944 L363.6706 175.501 L366.49902 178.32944 Z "/>
</g>
<g  style="stroke:#00FF00;stroke-width:0.1;" >
<path d="M369.8592 174.96927 L367.03076 172.14084 L369.8592 174.96927 Z "/>
</g>
<g  style="stroke:#00FF00;stroke-width:0.1;" >
<path d="M376.57953 168.2489 L373.7511 165.42047 L376.57953 168.2489 Z "/>
</g>
<g  style="fill:#F6921E;stroke:#F6921E;stroke-width:0.1;" >
<path d="M539.5 542.0 L3.5 542.0 L1.0 541.0 L1.0 537.0 L1.0 533.0 L1.0 529.0 L1.0 525.0 L1.0 521.0 L1.0 517.0 L1.0 513.0 L1.0 509.0 L1.0 505.0 L1.0 501.0 L1.0 497.0 L1.0 493.0 L1.0 489.0 L1.0 485.0 L1.0 481.0 L1.0 477.0 L1.0 473.0 L1.0 469.0 L1.0 465.0 L1.0 461.0 L1.0 457.0 L1.0 453.0 L1.0 449.0 L1.0 445.0 L1.0 441.0 L1.0 437.0 L1.0 433.0 L1.0 429.0 L1.0 425.0 L1.0 421.0 L1.0 417.0 L1.0 413.0 L1.0 409.0 L1.0 405.0 L1.0 401.0 L1.0 397.0 L1.0 393.0 L1.0 389.0 L1.0 385.0 L1.0 381.0 L1.0 377.0 L1.0 373.0 L1.0 369.0 L1.0 365.0 L1.0 361.0 L1.0 357.0 L1.0 353.0 L1.0 349.0 L1.0 345.0 L1.0 341.0 L1.0 337.0 L1.0 333.0 L1.0 329.0 L1.0 325.0 L1.0 321.0 L1.0 317.0 L1.0 313.0 L1.0 309.0 L1.0 305.0 L1.0 301.0 L1.0 297.0 L1.0 293.0 L1.0 289.0 L1.0 285.0 L1.0 281.0 L1.0 277.0 L1.0 273.0 L1.0 269.0 L1.0 265.0 L1.0 261.0 L1.0 257.0 L1.0 253.0 L1.0 249.0 L1.0 245.0 L1.0 241.0 L1.0 237.0 L1.0 233.0 L1.0 229.0 L1.0 225.0 L1.0 221.0 L1.0 217.0 L1.0 213.0 L1.0 209.0 L1.0 205.0 L1.0 201.0 L1.0 197.0 L1.0 193.0 L1.0 189.0 L1.0 185.0 L1.0 181.0 L1.0 177.0 L1.0 173.0 L1.0 169.0 L1.0 165.0 L1.0 161.0 L1.0 157.0 L1.0 153.0 L1.0 149.0 L1.0 145.0 L1.0 141.0 L1.0 137.0 L1.0 133.0 L1.0 129.0 L1.0 125.0 L1.0 121.0 L1.0 117.0 L1.0 113.0 L1.0 109.0 L1.0 105.0 L1.0 101.0 L1.0 97.0 L1.0 93.0 L1.0 89.0 L1.0 85.0 L1.0 81.0 L1.0 77.0 L1.0 73.0 L1.0 69.0 L1.0 65.0 L1.0 61.0 L1.0 57.0 L1.0 53.0 L1.0 49.0 L1.0 45.0 L1.0 41.0 L1.0 37.0 L1.0 33.0 L1.0 29.0 L1.0 25.0 L1.0 21.0 L1.0 17.0 L1.0 13.0 L1.0 9.0 L1.0 5.0 L1.0 1.0 L542.0 1.0 L542.0 5.0 L542.0 9.0 L542.0 13.0 L542.0 17.0 L542.0 21.0 L542.0 25.0 L542.0 29.0 L542.0 33.0 L542.0 37.0 L542.0 41.0 L542.0 45.0 L542.0 49.0 L542.0 53.0 L542.0 57.0 L542.0 61.0 L542.0 65.0 L542.0 69.0 L542.0 73.0 L542.0 77.0 L542.0 81.0 L542.0 85.0 L542.0 89.0 L542.0 93.0 L542.0 97.0 L542.0 101.0 L542.0 105.0 L542.0 109.0 L542.0 113.0 L542.0 117.0 L542.0 121.0 L542.0 125.0 L542.0 129.0 L542.0 133.0 L542.0 137.0 L542.0 141.0 L542.0 145.0 L542.0 149.0 L542.0 153.0 L542.0 157.0 L542.0 161.0 L542.0 165.0 L542.0 169.0 L542.0 173.0 L542.0 177.0 L542.0 181.0 L542.0 185.0 L542.0 189.0 L542.0 193.0 L542.0 197.0 L542.0 201.0 L542.0 205.0 L542.0 209.0 L542.0 213.0 L542.0 217.0 L542.0 221.0 L542.0 225.0 L542.0 229.0 L542.0 233.0 L542.0 237.0 L542.0 241.0 L542.0 245.0 L542.0 249.0 L542.0 253.0 L542.0 257.0 L542.0 261.0 L542.0 265.0 L542.0 269.0 L542.0 273.0 L542.0 277.0 L542.0 281.0 L542.0 285.0 L542.0 289.0 L542.0 293.0 L542.0 297.0 L542.0 301.0 L542.0 305.0 L542.0 309.0 L542.0 313.0 L542.0 317.0 L542.0 321.0 L542.0 325.0 L542.0 329.0 L542.0 333.0 L542.0 337.0 L542.0 341.0 L542.0 345.0 L542.0 349.0 L542.0 353.0 L542.0 357.0 L542.0 361.0 L542.0 365.0 L542.0 369.0 L542.0 373.0 L542.0 377.0 L542.0 381.0 L542.0 385.0 L542.0 389.0 L542.0 393.0 L542.0 397.0 L542.0 401.0 L542.0 405.0 L542.0 409.0 L542.0 413.0 L542.0 417.0 L542.0 421.0 L542.0 425.0 L542.0 429.0 L542.0 433.0 L542.0 437.0 L542.0 441.0 L542.0 445.0 L542.0 449.0 L542.0 453.0 L542.0 457.0 L542.0 461.0 L542.0 465.0 L542.0 469.0 L542.0 473.0 L542.0 477.0 L542.0 481.0 L542.0 485.0 L542.0 489.0 L542.0 493.0 L542.0 497.0 L542.0 501.0 L542.0 505.0 L542.0 509.0 L542.0 513.0 L542.0 517.0 L542.0 521.0 L542.0 525.0 L542.0 529.0 L542.0 533.0 L542.0 537.0 L542.0 541.0 L539.5 542.0 Z M528.0 525.5 L528.0 521.5 L528.0 517.5 L528.0 513.5 L528.0 509.5 L528.0 505.5 L528.0 501.5 L528.0 497.5 L528.0 493.5 L528.0 489.5 L528.0 485.5 L528.0 481.5 L528.0 477.5 L528.0 473.5 L528.0 469.5 L528.0 465.5 L528.0 461.5 L528.0 457.5 L528.0 453.5 L528.0 449.5 L528.0 445.5 L528.0 441.5 L528.0 437.5 L528.0 433.5 L528.0 429.5 L528.0 425.5 L528.0 421.5 L528.0 417.5 L528.0 413.5 L528.0 409.5 L528.0 405.5 L528.0 401.5 L528.0 397.5 L528.0 393.5 L528.0 389.5 L528.0 385.5 L528.0 381.5 L528.0 377.5 L528.0 373.5 L528.0 369.5 L528.0 365.5 L528.0 361.5 L528.0 357.5 L528.0 353.5 L528.0 349.5 L528.0 345.5 L528.0 341.5 L528.0 337.5 L528.0 333.5 L528.0 329.5 L528.0 325.5 L528.0 321.5 L528.0 317.5 L528.0 313.5 L528.0 309.5 L528.0 305.5 L528.0 301.5 L528.0 297.5 L528.0 293.5 L528.0 289.5 L528.0 285.5 L528.0 281.5 L528.0 277.5 L528.0 273.5 L528.0 269.5 L528.0 265.5 L528.0 261.5 L528.0 257.5 L528.0 253.5 L528.0 249.5 L528.0 245.5 L528.0 241.5 L528.0 237.5 L528.0 233.5 L528.0 229.5 L528.0 225.5 L528.0 221.5 L528.0 217.5 L528.0 213.5 L528.0 209.5 L528.0 205.5 L528.0 201.5 L528.0 197.5 L528.0 193.5 L528.0 189.5 L528.0 185.5 L528.0 181.5 L528.0 177.5 L528.0 173.5 L528.0 169.5 L528.0 165.5 L528.0 161.5 L528.0 157.5 L528.0 153.5 L528.0 149.5 L528.0 145.5 L528.0 141.5 L528.0 137.5 L528.0 133.5 L528.0 129.5 L528.0 125.5 L528.0 121.5 L528.0 117.5 L528.0 113.5 L528.0 109.5 L528.0 105.5 L528.0 101.5 L528.0 97.5 L528.0 93.5 L528.0 89.5 L528.0 85.5 L528.0 81.5 L528.0 77.5 L528.0 73.5 L528.0 69.5 L528.0 65.5 L528.0 61.5 L528.0 57.5 L528.0 53.5 L528.0 49.5 L528.0 45.5 L528.0 41.5 L528.0 37.5 L528.0 33.5 L528.0 29.5 L528.0 25.5 L528.0 21.5 L528.0 17.5 L527.0 15.0 L15.0 15.0 L15.0 528.0 L527.0 528.0 L528.0 525.5 Z "/>
</g>
</g>
</svg>
