<?xml version="1.0" standalone="no"?>
<!DOCTYPE svg PUBLIC "-//W3C//DTD SVG 1.1//EN" "http://www.w3.org/Graphics/SVG/1.1/DTD/svg11.dtd">
<svg width="100%" height="100%" version="1.1" xmlns="http://www.w3.org/2000/svg">
<g  style="fill:#F6F6F6;stroke:#0000FF;stroke-width:0.1;" >
<path d="M272.51483 421.71884 L268.9796 421.67444 L264.93884 421.32336 L261.40317 421.01617 L257.3624 420.6651 L253.32172 420.31403 L249.83536 419.58514 L245.8599 418.67108 L241.88443 417.75702 L237.90897 416.84296 L234.43044 416.04315 L231.05138 414.97183 L227.23509 413.62344 L223.41881 412.27505 L219.60252 410.92667 L215.78624 409.57828 L212.50885 408.24942 L208.85687 406.50455 L205.2049 404.75967 L201.55292 403.0148 L198.35744 401.48804 L195.16194 399.96066 L191.70454 397.79587 L188.24715 395.63107 L184.78975 393.46628 L181.33235 391.30148 L178.30695 389.40762 L175.58977 387.12463 L172.48442 384.5155 L169.37907 381.90637 L166.27373 379.29724 L163.6807 376.8907 L161.07169 373.78522 L158.46268 370.67975 L155.85367 367.57428 L153.24466 364.4688 L151.50995 361.96423 L149.34528 358.5067 L147.1806 355.0492 L145.01593 351.59167 L142.85126 348.13416 L141.16678 345.01196 L139.42178 341.35986 L137.67679 337.70776 L136.14992 334.51218 L134.40492 330.86008 L132.92769 327.6446 L131.5793 323.82843 L130.23091 320.01227 L128.88252 316.1961 L127.53411 312.37994 L126.18566 308.56378 L125.38565 305.08478 L124.585846 301.60614 L123.67178 297.63055 L122.75772 293.65497 L121.84366 289.67938 L121.46608 286.15244 L121.11513 282.11166 L120.764175 278.0709 L120.41322 274.03012 L120.150085 271.0 L120.50104 266.95923 L120.85199 262.91846 L121.20294 258.8777 L121.553894 254.83696 L122.0721 251.32616 L122.98616 247.3507 L123.90022 243.37523 L124.70003 239.8967 L125.61409 235.92123 L126.52264 232.4825 L127.871086 228.66621 L129.21948 224.84993 L130.56787 221.03365 L131.91626 217.21736 L133.09628 213.87839 L134.84128 210.22641 L136.36815 207.03093 L138.11314 203.37895 L139.85814 199.72697 L141.60313 196.075 L143.39227 193.00114 L145.55695 189.54375 L147.72162 186.08635 L149.88629 182.62895 L151.78038 179.60373 L153.89687 176.75433 L156.50587 173.64899 L159.11488 170.54364 L161.72389 167.4383 L164.3329 164.33295 L167.05022 162.05013 L170.15556 159.44112 L173.26091 156.8321 L175.97809 154.54922 L178.73926 152.32176 L182.19666 150.15709 L185.65405 147.99242 L189.11145 145.82774 L192.56885 143.66307 L195.61856 141.82118 L198.81404 140.29431 L202.46602 138.54932 L206.118 136.80432 L209.76997 135.05933 L213.42195 133.31433 L216.74055 132.08495 L220.55672 130.73656 L224.37288 129.38817 L228.18904 128.03978 L232.0052 126.69133 L234.92735 125.84267 L238.90282 124.928604 L242.87828 124.01454 L246.85374 123.10048 L250.82921 122.18642 L254.33217 121.59766 L258.3729 121.246704 L261.90857 120.93962 L265.94934 120.58867 L269.9901 120.23772 L273.52548 120.3694 L277.56625 120.72035 L281.60703 121.071304 L285.6478 121.42226 L289.183 121.729294 L293.1586 122.64336 L296.63724 123.44316 L300.61282 124.35722 L304.5884 125.271286 L308.564 126.18535 L311.90256 127.36539 L315.71872 128.7138 L319.53488 130.0622 L323.35104 131.41058 L326.6902 132.59042 L329.9475 133.96878 L333.59937 135.71378 L337.25122 137.45877 L340.90308 139.20377 L344.55493 140.94876 L347.7023 142.58052 L351.15982 144.7452 L354.61734 146.90987 L357.64267 148.80396 L361.1002 150.96863 L363.6929 152.59238 L377.667 164.33307 L380.27612 167.43842 L382.88525 170.54376 L385.4944 173.64911 L388.10352 176.75446 L390.21945 179.60364 L392.38425 183.06104 L394.54904 186.51843 L396.44324 189.54366 L398.60803 193.00105 L400.3969 196.07509 L402.14203 199.72707 L403.88715 203.37904 L405.63226 207.03102 L407.37738 210.683 L408.90375 213.87843 L410.25214 217.6946 L411.60052 221.51076 L412.78036 224.8499 L414.12875 228.66606 L415.47714 232.48222 L416.38574 235.92122 L417.2998 239.89668 L418.21387 243.87215 L419.12793 247.84761 L419.92773 251.32614 L420.44614 254.83725 L420.7972 258.878 L421.1483 262.91876 L421.49936 266.95953 L421.85043 271.0003 L421.54294 274.53568 L421.1921 278.57645 L420.84128 282.61722 L420.5343 286.1529 L420.15643 289.67996 L419.24237 293.65555 L418.3283 297.63113 L417.41425 301.60672 L416.50018 305.5823 L415.64597 309.04044 L414.46613 312.37958 L413.11774 316.19574 L411.76935 320.0119 L410.42096 323.82806 L409.07257 327.64423 L407.5949 330.86053 L405.8498 334.5124 L404.10468 338.16425 L402.35956 341.8161 L400.61444 345.46796 L398.87823 348.56674 L396.98404 351.59207 L394.81924 355.0496 L392.65445 358.5071 L390.48965 361.96463 L388.42926 364.85748 L385.82037 367.96295 L383.2115 371.06842 L380.9287 373.7857 L378.31982 376.89117 L375.72614 379.29776 L372.62067 381.9069 L369.5152 384.51602 L366.40973 387.12515 L363.693 389.40768 L360.23547 391.57248 L357.21014 393.46667 L353.75262 395.63147 L350.2951 397.79626 L346.8376 399.96106 L343.64243 401.4875 L339.99033 403.23236 L336.33823 404.97723 L332.68613 406.7221 L329.03403 408.46698 L326.21353 409.578 L322.39737 410.9264 L318.5812 412.27478 L314.76505 413.62317 L310.94888 414.97156 L307.56952 416.04306 L303.59393 416.95712 L299.61835 417.8712 L296.1397 418.671 L292.16412 419.58505 L288.67792 420.31454 L284.63715 420.66562 L280.59637 421.0167 L276.5556 421.36777 L272.51483 421.71884 Z M277.74 292.41278 L278.74802 289.84 L286.8149 289.84 L289.84 289.33615 L289.84 285.3027 L289.84 281.26926 L289.83987 277.74 L293.95633 277.74 L295.5 276.22513 L295.5 272.1851 L295.5 268.14505 L295.5 264.105 L292.41278 263.6 L289.84 262.59665 L289.84 258.58395 L289.84 254.57121 L289.84033 251.06 L277.74 251.06 L277.74 247.9727 L276.73013 245.4 L264.61002 245.4 L263.6 247.97275 L263.0982 251.05975 L259.0838 251.05817 L255.0694 251.05658 L251.055 251.055 L251.06 263.6 L246.42908 263.6 L245.4 266.12488 L245.4 270.16492 L245.4 274.20496 L245.40004 277.74 L249.51637 277.74 L251.06 279.75638 L251.06 283.28564 L251.06 287.3191 L252.06339 289.84 L260.0889 289.84 L263.6 289.83987 L263.6 293.95633 L265.61987 295.5 L277.74 295.5 L277.74 292.41278 Z "/>
<g  style="stroke:#FF0000;stroke-width:0.1;" >
<path d="M290.0 271.0 L421.8499 271.0 L290.0 271.0 Z "/>
</g>
<g  style="stroke:#00FF00;stroke-width:0.1;" >
<path d="M318.52 276.0 L318.52 266.0 L318.52 276.0 Z "/>
</g>
<g  style="stroke:#00FF00;stroke-width:0.1;" >
<path d="M366.03998 276.0 L366.03998 266.0 L366.03998 276.0 Z "/>
</g>
<g  style="stroke:#00FF00;stroke-width:0.1;" >
<path d="M413.56 276.0 L413.56 266.0 L413.56 276.0 Z "/>
</g>
<g  style="stroke:#00FF00;stroke-width:0.1;" >
<path d="M275.752 273.0 L275.752 269.0 L275.752 273.0 Z "/>
</g>
<g  style="stroke:#00FF00;stroke-width:0.1;" >
<path d="M280.504 273.0 L280.504 269.0 L280.504 273.0 Z "/>
</g>
<g  style="stroke:#00FF00;stroke-width:0.1;" >
<path d="M285.256 273.0 L285.256 269.0 L285.256 273.0 Z "/>
</g>
<g  style="stroke:#00FF00;stroke-width:0.1;" >
<path d="M290.008 273.0 L290.008 269.0 L290.008 273.0 Z "/>
</g>
<g  style="stroke:#00FF00;stroke-width:0.1;" >
<path d="M294.75998 273.0 L294.75998 269.0 L294.75998 273.0 Z "/>
</g>
<g  style="stroke:#00FF00;stroke-width:0.1;" >
<path d="M299.51196 273.0 L299.51196 269.0 L299.51196 273.0 Z "/>
</g>
<g  style="stroke:#00FF00;stroke-width:0.1;" >
<path d="M304.26398 273.0 L304.26398 269.0 L304.26398 273.0 Z "/>
</g>
<g  style="stroke:#00FF00;stroke-width:0.1;" >
<path d="M309.016 273.0 L309.016 269.0 L309.016 273.0 Z "/>
</g>
<g  style="stroke:#00FF00;stroke-width:0.1;" >
<path d="M313.768 273.0 L313.768 269.0 L313.768 273.0 Z "/>
</g>
<g  style="stroke:#00FF00;stroke-width:0.1;" >
<path d="M323.27197 273.0 L323.27197 269.0 L323.27197 273.0 Z "/>
</g>
<g  style="stroke:#00FF00;stroke-width:0.1;" >
<path d="M328.024 273.0 L328.024 269.0 L328.024 273.0 Z "/>
</g>
<g  style="stroke:#00FF00;stroke-width:0.1;" >
<path d="M332.776 273.0 L332.776 269.0 L332.776 273.0 Z "/>
</g>
<g  style="stroke:#00FF00;stroke-width:0.1;" >
<path d="M337.52798 273.0 L337.52798 269.0 L337.52798 273.0 Z "/>
</g>
<g  style="stroke:#00FF00;stroke-width:0.1;" >
<path d="M342.27997 273.0 L342.27997 269.0 L342.27997 273.0 Z "/>
</g>
<g  style="stroke:#00FF00;stroke-width:0.1;" >
<path d="M347.03198 273.0 L347.03198 269.0 L347.03198 273.0 Z "/>
</g>
<g  style="stroke:#00FF00;stroke-width:0.1;" >
<path d="M351.784 273.0 L351.784 269.0 L351.784 273.0 Z "/>
</g>
<g  style="stroke:#00FF00;stroke-width:0.1;" >
<path d="M356.53598 273.0 L356.53598 269.0 L356.53598 273.0 Z "/>
</g>
<g  style="stroke:#00FF00;stroke-width:0.1;" >
<path d="M361.28796 273.0 L361.28796 269.0 L361.28796 273.0 Z "/>
</g>
<g  style="stroke:#00FF00;stroke-width:0.1;" >
<path d="M370.792 273.0 L370.792 269.0 L370.792 273.0 Z "/>
</g>
<g  style="stroke:#00FF00;stroke-width:0.1;" >
<path d="M375.544 273.0 L375.544 269.0 L375.544 273.0 Z "/>
</g>
<g  style="stroke:#00FF00;stroke-width:0.1;" >
<path d="M380.29596 273.0 L380.29596 269.0 L380.29596 273.0 Z "/>
</g>
<g  style="stroke:#00FF00;stroke-width:0.1;" >
<path d="M385.04797 273.0 L385.04797 269.0 L385.04797 273.0 Z "/>
</g>
<g  style="stroke:#00FF00;stroke-width:0.1;" >
<path d="M389.8 273.0 L389.8 269.0 L389.8 273.0 Z "/>
</g>
<g  style="stroke:#00FF00;stroke-width:0.1;" >
<path d="M394.552 273.0 L394.552 269.0 L394.552 273.0 Z "/>
</g>
<g  style="stroke:#00FF00;stroke-width:0.1;" >
<path d="M399.304 273.0 L399.304 269.0 L399.304 273.0 Z "/>
</g>
<g  style="stroke:#00FF00;stroke-width:0.1;" >
<path d="M404.05597 273.0 L404.05597 269.0 L404.05597 273.0 Z "/>
</g>
<g  style="stroke:#00FF00;stroke-width:0.1;" >
<path d="M408.80798 273.0 L408.80798 269.0 L408.80798 273.0 Z "/>
</g>
<g  style="stroke:#00FF00;stroke-width:0.1;" >
<path d="M418.312 273.0 L418.312 269.0 L418.312 273.0 Z "/>
</g>
<g  style="fill:#F6921E;stroke:#F6921E;stroke-width:0.1;" >
<path d="M539.5 542.0 L3.5 542.0 L1.0 541.0 L1.0 537.0 L1.0 533.0 L1.0 529.0 L1.0 525.0 L1.0 521.0 L1.0 517.0 L1.0 513.0 L1.0 509.0 L1.0 505.0 L1.0 501.0 L1.0 497.0 L1.0 493.0 L1.0 489.0 L1.0 485.0 L1.0 481.0 L1.0 477.0 L1.0 473.0 L1.0 469.0 L1.0 465.0 L1.0 461.0 L1.0 457.0 L1.0 453.0 L1.0 449.0 L1.0 445.0 L1.0 441.0 L1.0 437.0 L1.0 433.0 L1.0 429.0 L1.0 425.0 L1.0 421.0 L1.0 417.0 L1.0 413.0 L1.0 409.0 L1.0 405.0 L1.0 401.0 L1.0 397.0 L1.0 393.0 L1.0 389.0 L1.0 385.0 L1.0 381.0 L1.0 377.0 L1.0 373.0 L1.0 369.0 L1.0 365.0 L1.0 361.0 L1.0 357.0 L1.0 353.0 L1.0 349.0 L1.0 345.0 L1.0 341.0 L1.0 337.0 L1.0 333.0 L1.0 329.0 L1.0 325.0 L1.0 321.0 L1.0 317.0 L1.0 313.0 L1.0 309.0 L1.0 305.0 L1.0 301.0 L1.0 297.0 L1.0 293.0 L1.0 289.0 L1.0 285.0 L1.0 281.0 L1.0 277.0 L1.0 273.0 L1.0 269.0 L1.0 265.0 L1.0 261.0 L1.0 257.0 L1.0 253.0 L1.0 249.0 L1.0 245.0 L1.0 241.0 L1.0 237.0 L1.0 233.0 L1.0 229.0 L1.0 225.0 L1.0 221.0 L1.0 217.0 L1.0 213.0 L1.0 209.0 L1.0 205.0 L1.0 201.0 L1.0 197.0 L1.0 193.0 L1.0 189.0 L1.0 185.0 L1.0 181.0 L1.0 177.0 L1.0 173.0 L1.0 169.0 L1.0 165.0 L1.0 161.0 L1.0 157.0 L1.0 153.0 L1.0 149.0 L1.0 145.0 L1.0 141.0 L1.0 137.0 L1.0 133.0 L1.0 129.0 L1.0 125.0 L1.0 121.0 L1.0 117.0 L1.0 113.0 L1.0 109.0 L1.0 105.0 L1.0 101.0 L1.0 97.0 L1.0 93.0 L1.0 89.0 L1.0 85.0 L1.0 81.0 L1.0 77.0 L1.0 73.0 L1.0 69.0 L1.0 65.0 L1.0 61.0 L1.0 57.0 L1.0 53.0 L1.0 49.0 L1.0 45.0 L1.0 41.0 L1.0 37.0 L1.0 33.0 L1.0 29.0 L1.0 25.0 L1.0 21.0 L1.0 17.0 L1.0 13.0 L1.0 9.0 L1.0 5.0 L1.0 1.0 L542.0 1.0 L542.0 5.0 L542.0 9.0 L542.0 13.0 L542.0 17.0 L542.0 21.0 L542.0 25.0 L542.0 29.0 L542.0 33.0 L542.0 37.0 L542.0 41.0 L542.0 45.0 L542.0 49.0 L542.0 53.0 L542.0 57.0 L542.0 61.0 L542.0 65.0 L542.0 69.0 L542.0 73.0 L542.0 77.0 L542.0 81.0 L542.0 85.0 L542.0 89.0 L542.0 93.0 L542.0 97.0 L542.0 101.0 L542.0 105.0 L542.0 109.0 L542.0 113.0 L542.0 117.0 L542.0 121.0 L542.0 125.0 L542.0 129.0 L542.0 133.0 L542.0 137.0 L542.0 141.0 L542.0 145.0 L542.0 149.0 L542.0 153.0 L542.0 157.0 L542.0 161.0 L542.0 165.0 L542.0 169.0 L542.0 173.0 L542.0 177.0 L542.0 181.0 L542.0 185.0 L542.0 189.0 L542.0 193.0 L542.0 197.0 L542.0 201.0 L542.0 205.0 L542.0 209.0 L542.0 213.0 L542.0 217.0 L542.0 221.0 L542.0 225.0 L542.0 229.0 L542.0 233.0 L542.0 237.0 L542.0 241.0 L542.0 245.0 L542.0 249.0 L542.0 253.0 L542.0 257.0 L542.0 261.0 L542.0 265.0 L542.0 269.0 L542.0 273.0 L542.0 277.0 L542.0 281.0 L542.0 285.0 L542.0 289.0 L542.0 293.0 L542.0 297.0 L542.0 301.0 L542.0 305.0 L542.0 309.0 L542.0 313.0 L542.0 317.0 L542.0 321.0 L542.0 325.0 L542.0 329.0 L542.0 333.0 L542.0 337.0 L542.0 341.0 L542.0 345.0 L542.0 349.0 L542.0 353.0 L542.0 357.0 L542.0 361.0 L542.0 365.0 L542.0 369.0 L542.0 373.0 L542.0 377.0 L542.0 381.0 L542.0 385.0 L542.0 389.0 L542.0 393.0 L542.0 397.0 L542.0 401.0 L542.0 405.0 L542.0 409.0 L542.0 413.0 L542.0 417.0 L542.0 421.0 L542.0 425.0 L542.0 429.0 L542.0 433.0 L542.0 437.0 L542.0 441.0 L542.0 445.0 L542.0 449.0 L542.0 453.0 L542.0 457.0 L542.0 461.0 L542.0 465.0 L542.0 469.0 L542.0 473.0 L542.0 477.0 L542.0 481.0 L542.0 485.0 L542.0 489.0 L542.0 493.0 L542.0 497.0 L542.0 501.0 L542.0 505.0 L542.0 509.0 L542.0 513.0 L542.0 517.0 L542.0 521.0 L542.0 525.0 L542.0 529.0 L542.0 533.0 L542.0 537.0 L542.0 541.0 L539.5 542.0 Z M528.0 525.5 L528.0 521.5 L528.0 517.5 L528.0 513.5 L528.0 509.5 L528.0 505.5 L528.0 501.5 L528.0 497.5 L528.0 493.5 L528.0 489.5 L528.0 485.5 L528.0 481.5 L528.0 477.5 L528.0 473.5 L528.0 469.5 L528.0 465.5 L528.0 461.5 L528.0 457.5 L528.0 453.5 L528.0 449.5 L528.0 445.5 L528.0 441.5 L528.0 437.5 L528.0 433.5 L528.0 429.5 L528.0 425.5 L528.0 421.5 L528.0 417.5 L528.0 413.5 L528.0 409.5 L528.0 405.5 L528.0 401.5 L528.0 397.5 L528.0 393.5 L528.0 389.5 L528.0 385.5 L528.0 381.5 L528.0 377.5 L528.0 373.5 L528.0 369.5 L528.0 365.5 L528.0 361.5 L528.0 357.5 L528.0 353.5 L528.0 349.5 L528.0 345.5 L528.0 341.5 L528.0 337.5 L528.0 333.5 L528.0 329.5 L528.0 325.5 L528.0 321.5 L528.0 317.5 L528.0 313.5 L528.0 309.5 L528.0 305.5 L528.0 301.5 L528.0 297.5 L528.0 293.5 L528.0 289.5 L528.0 285.5 L528.0 281.5 L528.0 277.5 L528.0 273.5 L528.0 269.5 L528.0 265.5 L528.0 261.5 L528.0 257.5 L528.0 253.5 L528.0 249.5 L528.0 245.5 L528.0 241.5 L528.0 237.5 L528.0 233.5 L528.0 229.5 L528.0 225.5 L528.0 221.5 L528.0 217.5 L528.0 213.5 L528.0 209.5 L528.0 205.5 L528.0 201.5 L528.0 197.5 L528.0 193.5 L528.0 189.5 L528.0 185.5 L528.0 181.5 L528.0 177.5 L528.0 173.5 L528.0 169.5 L528.0 165.5 L528.0 161.5 L528.0 157.5 L528.0 153.5 L528.0 149.5 L528.0 145.5 L528.0 141.5 L528.0 137.5 L528.0 133.5 L528.0 129.5 L528.0 125.5 L528.0 121.5 L528.0 117.5 L528.0 113.5 L528.0 109.5 L528.0 105.5 L528.0 101.5 L528.0 97.5 L528.0 93.5 L528.0 89.5 L528.0 85.5 L528.0 81.5 L528.0 77.5 L528.0 73.5 L528.0 69.5 L528.0 65.5 L528.0 61.5 L528.0 57.5 L528.0 53.5 L528.0 49.5 L528.0 45.5 L528.0 41.5 L528.0 37.5 L528.0 33.5 L528.0 29.5 L528.0 25.5 L528.0 21.5 L528.0 17.5 L527.0 15.0 L15.0 15.0 L15.0 528.0 L527.0 528.0 L528.0 525.5 Z "/>
</g>
<g  style="stroke:#FF0000;stroke-width:0.1;" >
<path d="M284.43503 284.43503 L377.66705 377.66705 L284.43503 284.43503 Z "/>
</g>
<g  style="stroke:#00FF00;stroke-width:0.1;" >
<path d="M301.06616 308.13727 L308.1372 301.06616 L301.06616 308.13727 Z "/>
</g>
<g  style="stroke:#00FF00;stroke-width:0.1;" >
<path d="M334.66785 341.73895 L341.73895 334.6679 L334.66785 341.73895 Z "/>
</g>
<g  style="stroke:#00FF00;stroke-width:0.1;" >
<path d="M368.2696 375.3407 L375.34064 368.2696 L368.2696 375.3407 Z "/>
</g>
<g  style="stroke:#00FF00;stroke-width:0.1;" >
<path d="M272.94592 275.7744 L275.77435 272.94598 L272.94592 275.7744 Z "/>
</g>
<g  style="stroke:#00FF00;stroke-width:0.1;" >
<path d="M276.3061 279.13455 L279.13452 276.30612 L276.3061 279.13455 Z "/>
</g>
<g  style="stroke:#00FF00;stroke-width:0.1;" >
<path d="M279.66626 282.49475 L282.4947 279.66632 L279.66626 282.49475 Z "/>
</g>
<g  style="stroke:#00FF00;stroke-width:0.1;" >
<path d="M283.02643 285.8549 L285.85486 283.02646 L283.02643 285.8549 Z "/>
</g>
<g  style="stroke:#00FF00;stroke-width:0.1;" >
<path d="M286.3866 289.21506 L289.21503 286.38663 L286.3866 289.21506 Z "/>
</g>
<g  style="stroke:#00FF00;stroke-width:0.1;" >
<path d="M289.74677 292.57526 L292.5752 289.74683 L289.74677 292.57526 Z "/>
</g>
<g  style="stroke:#00FF00;stroke-width:0.1;" >
<path d="M293.10693 295.93542 L295.93536 293.107 L293.10693 295.93542 Z "/>
</g>
<g  style="stroke:#00FF00;stroke-width:0.1;" >
<path d="M296.4671 299.2956 L299.29553 296.46716 L296.4671 299.2956 Z "/>
</g>
<g  style="stroke:#00FF00;stroke-width:0.1;" >
<path d="M299.8273 302.65576 L302.65573 299.82733 L299.8273 302.65576 Z "/>
</g>
<g  style="stroke:#00FF00;stroke-width:0.1;" >
<path d="M306.54764 309.3761 L309.37607 306.54767 L306.54764 309.3761 Z "/>
</g>
<g  style="stroke:#00FF00;stroke-width:0.1;" >
<path d="M309.9078 312.73627 L312.73624 309.90784 L309.9078 312.73627 Z "/>
</g>
<g  style="stroke:#00FF00;stroke-width:0.1;" >
<path d="M313.26797 316.09644 L316.0964 313.268 L313.26797 316.09644 Z "/>
</g>
<g  style="stroke:#00FF00;stroke-width:0.1;" >
<path d="M316.62814 319.4566 L319.45657 316.62817 L316.62814 319.4566 Z "/>
</g>
<g  style="stroke:#00FF00;stroke-width:0.1;" >
<path d="M319.98834 322.81677 L322.81677 319.98834 L319.98834 322.81677 Z "/>
</g>
<g  style="stroke:#00FF00;stroke-width:0.1;" >
<path d="M323.3485 326.17694 L326.17694 323.3485 L323.3485 326.17694 Z "/>
</g>
<g  style="stroke:#00FF00;stroke-width:0.1;" >
<path d="M326.70868 329.5371 L329.5371 326.70868 L326.70868 329.5371 Z "/>
</g>
<g  style="stroke:#00FF00;stroke-width:0.1;" >
<path d="M330.06885 332.89728 L332.89728 330.06885 L330.06885 332.89728 Z "/>
</g>
<g  style="stroke:#00FF00;stroke-width:0.1;" >
<path d="M333.42902 336.25745 L336.25745 333.42902 L333.42902 336.25745 Z "/>
</g>
<g  style="stroke:#00FF00;stroke-width:0.1;" >
<path d="M340.14935 342.9778 L342.97778 340.14938 L340.14935 342.9778 Z "/>
</g>
<g  style="stroke:#00FF00;stroke-width:0.1;" >
<path d="M343.50952 346.33798 L346.33795 343.50955 L343.50952 346.33798 Z "/>
</g>
<g  style="stroke:#00FF00;stroke-width:0.1;" >
<path d="M346.8697 349.69815 L349.69812 346.86972 L346.8697 349.69815 Z "/>
</g>
<g  style="stroke:#00FF00;stroke-width:0.1;" >
<path d="M350.22986 353.05832 L353.0583 350.2299 L350.22986 353.05832 Z "/>
</g>
<g  style="stroke:#00FF00;stroke-width:0.1;" >
<path d="M353.59003 356.4185 L356.41846 353.59006 L353.59003 356.4185 Z "/>
</g>
<g  style="stroke:#00FF00;stroke-width:0.1;" >
<path d="M356.9502 359.7787 L359.77863 356.95026 L356.9502 359.7787 Z "/>
</g>
<g  style="stroke:#00FF00;stroke-width:0.1;" >
<path d="M360.31036 363.13885 L363.1388 360.31042 L360.31036 363.13885 Z "/>
</g>
<g  style="stroke:#00FF00;stroke-width:0.1;" >
<path d="M363.67053 366.49902 L366.49896 363.6706 L363.67053 366.49902 Z "/>
</g>
<g  style="stroke:#00FF00;stroke-width:0.1;" >
<path d="M367.0307 369.8592 L369.85913 367.03076 L367.0307 369.8592 Z "/>
</g>
<g  style="stroke:#00FF00;stroke-width:0.1;" >
<path d="M373.75107 376.57953 L376.5795 373.7511 L373.75107 376.57953 Z "/>
</g>
<g  style="fill:#F6921E;stroke:#F6921E;stroke-width:0.1;" >
<path d="M539.5 542.0 L3.5 542.0 L1.0 541.0 L1.0 537.0 L1.0 533.0 L1.0 529.0 L1.0 525.0 L1.0 521.0 L1.0 517.0 L1.0 513.0 L1.0 509.0 L1.0 505.0 L1.0 501.0 L1.0 497.0 L1.0 493.0 L1.0 489.0 L1.0 485.0 L1.0 481.0 L1.0 477.0 L1.0 473.0 L1.0 469.0 L1.0 465.0 L1.0 461.0 L1.0 457.0 L1.0 453.0 L1.0 449.0 L1.0 445.0 L1.0 441.0 L1.0 437.0 L1.0 433.0 L1.0 429.0 L1.0 425.0 L1.0 421.0 L1.0 417.0 L1.0 413.0 L1.0 409.0 L1.0 405.0 L1.0 401.0 L1.0 397.0 L1.0 393.0 L1.0 389.0 L1.0 385.0 L1.0 381.0 L1.0 377.0 L1.0 373.0 L1.0 369.0 L1.0 365.0 L1.0 361.0 L1.0 357.0 L1.0 353.0 L1.0 349.0 L1.0 345.0 L1.0 341.0 L1.0 337.0 L1.0 333.0 L1.0 329.0 L1.0 325.0 L1.0 321.0 L1.0 317.0 L1.0 313.0 L1.0 309.0 L1.0 305.0 L1.0 301.0 L1.0 297.0 L1.0 293.0 L1.0 289.0 L1.0 285.0 L1.0 281.0 L1.0 277.0 L1.0 273.0 L1.0 269.0 L1.0 265.0 L1.0 261.0 L1.0 257.0 L1.0 253.0 L1.0 249.0 L1.0 245.0 L1.0 241.0 L1.0 237.0 L1.0 233.0 L1.0 229.0 L1.0 225.0 L1.0 221.0 L1.0 217.0 L1.0 213.0 L1.0 209.0 L1.0 205.0 L1.0 201.0 L1.0 197.0 L1.0 193.0 L1.0 189.0 L1.0 185.0 L1.0 181.0 L1.0 177.0 L1.0 173.0 L1.0 169.0 L1.0 165.0 L1.0 161.0 L1.0 157.0 L1.0 153.0 L1.0 149.0 L1.0 145.0 L1.0 141.0 L1.0 137.0 L1.0 133.0 L1.0 129.0 L1.0 125.0 L1.0 121.0 L1.0 117.0 L1.0 113.0 L1.0 109.0 L1.0 105.0 L1.0 101.0 L1.0 97.0 L1.0 93.0 L1.0 89.0 L1.0 85.0 L1.0 81.0 L1.0 77.0 L1.0 73.0 L1.0 69.0 L1.0 65.0 L1.0 61.0 L1.0 57.0 L1.0 53.0 L1.0 49.0 L1.0 45.0 L1.0 41.0 L1.0 37.0 L1.0 33.0 L1.0 29.0 L1.0 25.0 L1.0 21.0 L1.0 17.0 L1.0 13.0 L1.0 9.0 L1.0 5.0 L1.0 1.0 L542.0 1.0 L542.0 5.0 L542.0 9.0 L542.0 13.0 L542.0 17.0 L542.0 21.0 L542.0 25.0 L542.0 29.0 L542.0 33.0 L542.0 37.0 L542.0 41.0 L542.0 45.0 L542.0 49.0 L542.0 53.0 L542.0 57.0 L542.0 61.0 L542.0 65.0 L542.0 69.0 L542.0 73.0 L542.0 77.0 L542.0 81.0 L542.0 85.0 L542.0 89.0 L542.0 93.0 L542.0 97.0 L542.0 101.0 L542.0 105.0 L542.0 109.0 L542.0 113.0 L542.0 117.0 L542.0 121.0 L542.0 125.0 L542.0 129.0 L542.0 133.0 L542.0 137.0 L542.0 141.0 L542.0 145.0 L542.0 149.0 L542.0 153.0 L542.0 157.0 L542.0 161.0 L542.0 165.0 L542.0 169.0 L542.0 173.0 L542.0 177.0 L542.0 181.0 L542.0 185.0 L542.0 189.0 L542.0 193.0 L542.0 197.0 L542.0 201.0 L542.0 205.0 L542.0 209.0 L542.0 213.0 L542.0 217.0 L542.0 221.0 L542.0 225.0 L542.0 229.0 L542.0 233.0 L542.0 237.0 L542.0 241.0 L542.0 245.0 L542.0 249.0 L542.0 253.0 L542.0 257.0 L542.0 261.0 L542.0 265.0 L542.0 269.0 L542.0 273.0 L542.0 277.0 L542.0 281.0 L542.0 285.0 L542.0 289.0 L542.0 293.0 L542.0 297.0 L542.0 301.0 L542.0 305.0 L542.0 309.0 L542.0 313.0 L542.0 317.0 L542.0 321.0 L542.0 325.0 L542.0 329.0 L542.0 333.0 L542.0 337.0 L542.0 341.0 L542.0 345.0 L542.0 349.0 L542.0 353.0 L542.0 357.0 L542.0 361.0 L542.0 365.0 L542.0 369.0 L542.0 373.0 L542.0 377.0 L542.0 381.0 L542.0 385.0 L542.0 389.0 L542.0 393.0 L542.0 397.0 L542.0 401.0 L542.0 405.0 L542.0 409.0 L542.0 413.0 L542.0 417.0 L542.0 421.0 L542.0 425.0 L542.0 429.0 L542.0 433.0 L542.0 437.0 L542.0 441.0 L542.0 445.0 L542.0 449.0 L542.0 453.0 L542.0 457.0 L542.0 461.0 L542.0 465.0 L542.0 469.0 L542.0 473.0 L542.0 477.0 L542.0 481.0 L542.0 485.0 L542.0 489.0 L542.0 493.0 L542.0 497.0 L542.0 501.0 L542.0 505.0 L542.0 509.0 L542.0 513.0 L542.0 517.0 L542.0 521.0 L542.0 525.0 L542.0 529.0 L542.0 533.0 L542.0 537.0 L542.0 541.0 L539.5 542.0 Z M528.0 525.5 L528.0 521.5 L528.0 517.5 L528.0 513.5 L528.0 509.5 L528.0 505.5 L528.0 501.5 L528.0 497.5 L528.0 493.5 L528.0 489.5 L528.0 485.5 L528.0 481.5 L528.0 477.5 L528.0 473.5 L528.0 469.5 L528.0 465.5 L528.0 461.5 L528.0 457.5 L528.0 453.5 L528.0 449.5 L528.0 445.5 L528.0 441.5 L528.0 437.5 L528.0 433.5 L528.0 429.5 L528.0 425.5 L528.0 421.5 L528.0 417.5 L528.0 413.5 L528.0 409.5 L528.0 405.5 L528.0 401.5 L528.0 397.5 L528.0 393.5 L528.0 389.5 L528.0 385.5 L528.0 381.5 L528.0 377.5 L528.0 373.5 L528.0 369.5 L528.0 365.5 L528.0 361.5 L528.0 357.5 L528.0 353.5 L528.0 349.5 L528.0 345.5 L528.0 341.5 L528.0 337.5 L528.0 333.5 L528.0 329.5 L528.0 325.5 L528.0 321.5 L528.0 317.5 L528.0 313.5 L528.0 309.5 L528.0 305.5 L528.0 301.5 L528.0 297.5 L528.0 293.5 L528.0 289.5 L528.0 285.5 L528.0 281.5 L528.0 277.5 L528.0 273.5 L528.0 269.5 L528.0 265.5 L528.0 261.5 L528.0 257.5 L528.0 253.5 L528.0 249.5 L528.0 245.5 L528.0 241.5 L528.0 237.5 L528.0 233.5 L528.0 229.5 L528.0 225.5 L528.0 221.5 L528.0 217.5 L528.0 213.5 L528.0 209.5 L528.0 205.5 L528.0 201.5 L528.0 197.5 L528.0 193.5 L528.0 189.5 L528.0 185.5 L528.0 181.5 L528.0 177.5 L528.0 173.5 L528.0 169.5 L528.0 165.5 L528.0 161.5 L528.0 157.5 L528.0 153.5 L528.0 149.5 L528.0 145.5 L528.0 141.5 L528.0 137.5 L528.0 133.5 L528.0 129.5 L528.0 125.5 L528.0 121.5 L528.0 117.5 L528.0 113.5 L528.0 109.5 L528.0 105.5 L528.0 101.5 L528.0 97.5 L528.0 93.5 L528.0 89.5 L528.0 85.5 L528.0 81.5 L528.0 77.5 L528.0 73.5 L528.0 69.5 L528.0 65.5 L528.0 61.5 L528.0 57.5 L528.0 53.5 L528.0 49.5 L528.0 45.5 L528.0 41.5 L528.0 37.5 L528.0 33.5 L528.0 29.5 L528.0 25.5 L528.0 21.5 L528.0 17.5 L527.0 15.0 L15.0 15.0 L15.0 528.0 L527.0 528.0 L528.0 525.5 Z "/>
</g>
<g  style="stroke:#FF0000;stroke-width:0.1;" >
<path d="M271.0 290.0 L271.0 421.84998 L271.0 290.0 Z "/>
</g>
<g  style="stroke:#00FF00;stroke-width:0.1;" >
<path d="M266.00003 318.51996 L276.00003 318.51996 L266.00003 318.51996 Z "/>
</g>
<g  style="stroke:#00FF00;stroke-width:0.1;" >
<path d="M266.00003 366.03998 L276.00003 366.03998 L266.00003 366.03998 Z "/>
</g>
<g  style="stroke:#00FF00;stroke-width:0.1;" >
<path d="M266.0 413.56 L276.0 413.56 L266.0 413.56 Z "/>
</g>
<g  style="stroke:#00FF00;stroke-width:0.1;" >
<path d="M269.00003 275.75198 L273.00003 275.75198 L269.00003 275.75198 Z "/>
</g>
<g  style="stroke:#00FF00;stroke-width:0.1;" >
<path d="M269.00003 280.50397 L273.00003 280.50397 L269.00003 280.50397 Z "/>
</g>
<g  style="stroke:#00FF00;stroke-width:0.1;" >
<path d="M269.00003 285.25598 L273.00003 285.25598 L269.00003 285.25598 Z "/>
</g>
<g  style="stroke:#00FF00;stroke-width:0.1;" >
<path d="M269.00003 290.00797 L273.00003 290.00797 L269.00003 290.00797 Z "/>
</g>
<g  style="stroke:#00FF00;stroke-width:0.1;" >
<path d="M269.00003 294.75995 L273.00003 294.75995 L269.00003 294.75995 Z "/>
</g>
<g  style="stroke:#00FF00;stroke-width:0.1;" >
<path d="M269.00003 299.51196 L273.00003 299.51196 L269.00003 299.51196 Z "/>
</g>
<g  style="stroke:#00FF00;stroke-width:0.1;" >
<path d="M269.00003 304.26398 L273.00003 304.26398 L269.00003 304.26398 Z "/>
</g>
<g  style="stroke:#00FF00;stroke-width:0.1;" >
<path d="M269.00003 309.01596 L273.00003 309.01596 L269.00003 309.01596 Z "/>
</g>
<g  style="stroke:#00FF00;stroke-width:0.1;" >
<path d="M269.00003 313.76797 L273.00003 313.76797 L269.00003 313.76797 Z "/>
</g>
<g  style="stroke:#00FF00;stroke-width:0.1;" >
<path d="M269.00003 323.27197 L273.00003 323.27197 L269.00003 323.27197 Z "/>
</g>
<g  style="stroke:#00FF00;stroke-width:0.1;" >
<path d="M269.00003 328.024 L273.00003 328.024 L269.00003 328.024 Z "/>
</g>
<g  style="stroke:#00FF00;stroke-width:0.1;" >
<path d="M269.00003 332.77597 L273.00003 332.77597 L269.00003 332.77597 Z "/>
</g>
<g  style="stroke:#00FF00;stroke-width:0.1;" >
<path d="M269.00003 337.52795 L273.00003 337.52795 L269.00003 337.52795 Z "/>
</g>
<g  style="stroke:#00FF00;stroke-width:0.1;" >
<path d="M269.00003 342.27997 L273.00003 342.27997 L269.00003 342.27997 Z "/>
</g>
<g  style="stroke:#00FF00;stroke-width:0.1;" >
<path d="M269.00003 347.03198 L273.00003 347.03198 L269.00003 347.03198 Z "/>
</g>
<g  style="stroke:#00FF00;stroke-width:0.1;" >
<path d="M269.00003 351.78397 L273.00003 351.78397 L269.00003 351.78397 Z "/>
</g>
<g  style="stroke:#00FF00;stroke-width:0.1;" >
<path d="M269.00003 356.53595 L273.00003 356.53595 L269.00003 356.53595 Z "/>
</g>
<g  style="stroke:#00FF00;stroke-width:0.1;" >
<path d="M269.00003 361.28796 L273.00003 361.28796 L269.00003 361.28796 Z "/>
</g>
<g  style="stroke:#00FF00;stroke-width:0.1;" >
<path d="M269.0 370.79196 L273.0 370.79196 L269.0 370.79196 Z "/>
</g>
<g  style="stroke:#00FF00;stroke-width:0.1;" >
<path d="M269.0 375.54398 L273.0 375.54398 L269.0 375.54398 Z "/>
</g>
<g  style="stroke:#00FF00;stroke-width:0.1;" >
<path d="M269.0 380.29596 L273.0 380.29596 L269.0 380.29596 Z "/>
</g>
<g  style="stroke:#00FF00;stroke-width:0.1;" >
<path d="M269.0 385.04797 L273.0 385.04797 L269.0 385.04797 Z "/>
</g>
<g  style="stroke:#00FF00;stroke-width:0.1;" >
<path d="M269.0 389.8 L273.0 389.8 L269.0 389.8 Z "/>
</g>
<g  style="stroke:#00FF00;stroke-width:0.1;" >
<path d="M269.0 394.55197 L273.0 394.55197 L269.0 394.55197 Z "/>
</g>
<g  style="stroke:#00FF00;stroke-width:0.1;" >
<path d="M269.0 399.30396 L273.0 399.30396 L269.0 399.30396 Z "/>
</g>
<g  style="stroke:#00FF00;stroke-width:0.1;" >
<path d="M269.0 404.05597 L273.0 404.05597 L269.0 404.05597 Z "/>
</g>
<g  style="stroke:#00FF00;stroke-width:0.1;" >
<path d="M269.0 408.80798 L273.0 408.80798 L269.0 408.80798 Z "/>
</g>
<g  style="stroke:#00FF00;stroke-width:0.1;" >
<path d="M269.0 418.31198 L273.0 418.31198 L269.0 418.31198 Z "/>
</g>
<g  style="fill:#F6921E;stroke:#F6921E;stroke-width:0.1;" >
<path d="M539.5 542.0 L3.5 542.0 L1.0 541.0 L1.0 537.0 L1.0 533.0 L1.0 529.0 L1.0 525.0 L1.0 521.0 L1.0 517.0 L1.0 513.0 L1.0 509.0 L1.0 505.0 L1.0 501.0 L1.0 497.0 L1.0 493.0 L1.0 489.0 L1.0 485.0 L1.0 481.0 L1.0 477.0 L1.0 473.0 L1.0 469.0 L1.0 465.0 L1.0 461.0 L1.0 457.0 L1.0 453.0 L1.0 449.0 L1.0 445.0 L1.0 441.0 L1.0 437.0 L1.0 433.0 L1.0 429.0 L1.0 425.0 L1.0 421.0 L1.0 417.0 L1.0 413.0 L1.0 409.0 L1.0 405.0 L1.0 401.0 L1.0 397.0 L1.0 393.0 L1.0 389.0 L1.0 385.0 L1.0 381.0 L1.0 377.0 L1.0 373.0 L1.0 369.0 L1.0 365.0 L1.0 361.0 L1.0 357.0 L1.0 353.0 L1.0 349.0 L1.0 345.0 L1.0 341.0 L1.0 337.0 L1.0 333.0 L1.0 329.0 L1.0 325.0 L1.0 321.0 L1.0 317.0 L1.0 313.0 L1.0 309.0 L1.0 305.0 L1.0 301.0 L1.0 297.0 L1.0 293.0 L1.0 289.0 L1.0 285.0 L1.0 281.0 L1.0 277.0 L1.0 273.0 L1.0 269.0 L1.0 265.0 L1.0 261.0 L1.0 257.0 L1.0 253.0 L1.0 249.0 L1.0 245.0 L1.0 241.0 L1.0 237.0 L1.0 233.0 L1.0 229.0 L1.0 225.0 L1.0 221.0 L1.0 217.0 L1.0 213.0 L1.0 209.0 L1.0 205.0 L1.0 201.0 L1.0 197.0 L1.0 193.0 L1.0 189.0 L1.0 185.0 L1.0 181.0 L1.0 177.0 L1.0 173.0 L1.0 169.0 L1.0 165.0 L1.0 161.0 L1.0 157.0 L1.0 153.0 L1.0 149.0 L1.0 145.0 L1.0 141.0 L1.0 137.0 L1.0 133.0 L1.0 129.0 L1.0 125.0 L1.0 121.0 L1.0 117.0 L1.0 113.0 L1.0 109.0 L1.0 105.0 L1.0 101.0 L1.0 97.0 L1.0 93.0 L1.0 89.0 L1.0 85.0 L1.0 81.0 L1.0 77.0 L1.0 73.0 L1.0 69.0 L1.0 65.0 L1.0 61.0 L1.0 57.0 L1.0 53.0 L1.0 49.0 L1.0 45.0 L1.0 41.0 L1.0 37.0 L1.0 33.0 L1.0 29.0 L1.0 25.0 L1.0 21.0 L1.0 17.0 L1.0 13.0 L1.0 9.0 L1.0 5.0 L1.0 1.0 L542.0 1.0 L542.0 5.0 L542.0 9.0 L542.0 13.0 L542.0 17.0 L542.0 21.0 L542.0 25.0 L542.0 29.0 L542.0 33.0 L542.0 37.0 L542.0 41.0 L542.0 45.0 L542.0 49.0 L542.0 53.0 L542.0 57.0 L542.0 61.0 L542.0 65.0 L542.0 69.0 L542.0 73.0 L542.0 77.0 L542.0 81.0 L542.0 85.0 L542.0 89.0 L542.0 93.0 L542.0 97.0 L542.0 101.0 L542.0 105.0 L542.0 109.0 L542.0 113.0 L542.0 117.0 L542.0 121.0 L542.0 125.0 L542.0 129.0 L542.0 133.0 L542.0 137.0 L542.0 141.0 L542.0 145.0 L542.0 149.0 L542.0 153.0 L542.0 157.0 L542.0 161.0 L542.0 165.0 L542.0 169.0 L542.0 173.0 L542.0 177.0 L542.0 181.0 L542.0 185.0 L542.0 189.0 L542.0 193.0 L542.0 197.0 L542.0 201.0 L542.0 205.0 L542.0 209.0 L542.0 213.0 L542.0 217.0 L542.0 221.0 L542.0 225.0 L542.0 229.0 L542.0 233.0 L542.0 237.0 L542.0 241.0 L542.0 245.0 L542.0 249.0 L542.0 253.0 L542.0 257.0 L542.0 261.0 L542.0 265.0 L542.0 269.0 L542.0 273.0 L542.0 277.0 L542.0 281.0 L542.0 285.0 L542.0 289.0 L542.0 293.0 L542.0 297.0 L542.0 301.0 L542.0 305.0 L542.0 309.0 L542.0 313.0 L542.0 317.0 L542.0 321.0 L542.0 325.0 L542.0 329.0 L542.0 333.0 L542.0 337.0 L542.0 341.0 L542.0 345.0 L542.0 349.0 L542.0 353.0 L542.0 357.0 L542.0 361.0 L542.0 365.0 L542.0 369.0 L542.0 373.0 L542.0 377.0 L542.0 381.0 L542.0 385.0 L542.0 389.0 L542.0 393.0 L542.0 397.0 L542.0 401.0 L542.0 405.0 L542.0 409.0 L542.0 413.0 L542.0 417.0 L542.0 421.0 L542.0 425.0 L542.0 429.0 L542.0 433.0 L542.0 437.0 L542.0 441.0 L542.0 445.0 L542.0 449.0 L542.0 453.0 L542.0 457.0 L542.0 461.0 L542.0 465.0 L542.0 469.0 L542.0 473.0 L542.0 477.0 L542.0 481.0 L542.0 485.0 L542.0 489.0 L542.0 493.0 L542.0 497.0 L542.0 501.0 L542.0 505.0 L542.0 509.0 L542.0 513.0 L542.0 517.0 L542.0 521.0 L542.0 525.0 L542.0 529.0 L542.0 533.0 L542.0 537.0 L542.0 541.0 L539.5 542.0 Z M528.0 525.5 L528.0 521.5 L528.0 517.5 L528.0 513.5 L528.0 509.5 L528.0 505.5 L528.0 501.5 L528.0 497.5 L528.0 493.5 L528.0 489.5 L528.0 485.5 L528.0 481.5 L528.0 477.5 L528.0 473.5 L528.0 469.5 L528.0 465.5 L528.0 461.5 L528.0 457.5 L528.0 453.5 L528.0 449.5 L528.0 445.5 L528.0 441.5 L528.0 437.5 L528.0 433.5 L528.0 429.5 L528.0 425.5 L528.0 421.5 L528.0 417.5 L528.0 413.5 L528.0 409.5 L528.0 405.5 L528.0 401.5 L528.0 397.5 L528.0 393.5 L528.0 389.5 L528.0 385.5 L528.0 381.5 L528.0 377.5 L528.0 373.5 L528.0 369.5 L528.0 365.5 L528.0 361.5 L528.0 357.5 L528.0 353.5 L528.0 349.5 L528.0 345.5 L528.0 341.5 L528.0 337.5 L528.0 333.5 L528.0 329.5 L528.0 325.5 L528.0 321.5 L528.0 317.5 L528.0 313.5 L528.0 309.5 L528.0 305.5 L528.0 301.5 L528.0 297.5 L528.0 293.5 L528.0 289.5 L528.0 285.5 L528.0 281.5 L528.0 277.5 L528.0 273.5 L528.0 269.5 L528.0 265.5 L528.0 261.5 L528.0 257.5 L528.0 253.5 L528.0 249.5 L528.0 245.5 L528.0 241.5 L528.0 237.5 L528.0 233.5 L528.0 229.5 L528.0 225.5 L528.0 221.5 L528.0 217.5 L528.0 213.5 L528.0 209.5 L528.0 205.5 L528.0 201.5 L528.0 197.5 L528.0 193.5 L528.0 189.5 L528.0 185.5 L528.0 181.5 L528.0 177.5 L528.0 173.5 L528.0 169.5 L528.0 165.5 L528.0 161.5 L528.0 157.5 L528.0 153.5 L528.0 149.5 L528.0 145.5 L528.0 141.5 L528.0 137.5 L528.0 133.5 L528.0 129.5 L528.0 125.5 L528.0 121.5 L528.0 117.5 L528.0 113.5 L528.0 109.5 L528.0 105.5 L528.0 101.5 L528.0 97.5 L528.0 93.5 L528.0 89.5 L528.0 85.5 L528.0 81.5 L528.0 77.5 L528.0 73.5 L528.0 69.5 L528.0 65.5 L528.0 61.5 L528.0 57.5 L528.0 53.5 L528.0 49.5 L528.0 45.5 L528.0 41.5 L528.0 37.5 L528.0 33.5 L528.0 29.5 L528.0 25.5 L528.0 21.5 L528.0 17.5 L527.0 15.0 L15.0 15.0 L15.0 528.0 L527.0 528.0 L528.0 525.5 Z "/>
</g>
<g  style="stroke:#FF0000;stroke-width:0.1;" >
<path d="M257.56497 284.43503 L164.33295 377.66705 L257.56497 284.43503 Z "/>
</g>
<g  style="stroke:#00FF00;stroke-width:0.1;" >
<path d="M233.86275 301.06616 L240.93382 308.1372 L233.86275 301.06616 Z "/>
</g>
<g  style="stroke:#00FF00;stroke-width:0.1;" >
<path d="M200.26102 334.66785 L207.33209 341.73892 L200.26102 334.66785 Z "/>
</g>
<g  style="stroke:#00FF00;stroke-width:0.1;" >
<path d="M166.6593 368.26956 L173.73038 375.34064 L166.6593 368.26956 Z "/>
</g>
<g  style="stroke:#00FF00;stroke-width:0.1;" >
<path d="M266.2256 272.94592 L269.05402 275.77435 L266.2256 272.94592 Z "/>
</g>
<g  style="stroke:#00FF00;stroke-width:0.1;" >
<path d="M262.86545 276.3061 L265.69388 279.13452 L262.86545 276.3061 Z "/>
</g>
<g  style="stroke:#00FF00;stroke-width:0.1;" >
<path d="M259.50525 279.66626 L262.33368 282.4947 L259.50525 279.66626 Z "/>
</g>
<g  style="stroke:#00FF00;stroke-width:0.1;" >
<path d="M256.1451 283.02643 L258.97354 285.85486 L256.1451 283.02643 Z "/>
</g>
<g  style="stroke:#00FF00;stroke-width:0.1;" >
<path d="M252.78493 286.3866 L255.61336 289.21503 L252.78493 286.3866 Z "/>
</g>
<g  style="stroke:#00FF00;stroke-width:0.1;" >
<path d="M249.42476 289.74677 L252.25319 292.5752 L249.42476 289.74677 Z "/>
</g>
<g  style="stroke:#00FF00;stroke-width:0.1;" >
<path d="M246.06458 293.10693 L248.893 295.93536 L246.06458 293.10693 Z "/>
</g>
<g  style="stroke:#00FF00;stroke-width:0.1;" >
<path d="M242.70442 296.4671 L245.53285 299.29553 L242.70442 296.4671 Z "/>
</g>
<g  style="stroke:#00FF00;stroke-width:0.1;" >
<path d="M239.34424 299.8273 L242.17267 302.65573 L239.34424 299.8273 Z "/>
</g>
<g  style="stroke:#00FF00;stroke-width:0.1;" >
<path d="M232.6239 306.54764 L235.45233 309.37607 L232.6239 306.54764 Z "/>
</g>
<g  style="stroke:#00FF00;stroke-width:0.1;" >
<path d="M229.26373 309.9078 L232.09216 312.73624 L229.26373 309.9078 Z "/>
</g>
<g  style="stroke:#00FF00;stroke-width:0.1;" >
<path d="M225.90355 313.26797 L228.73198 316.0964 L225.90355 313.26797 Z "/>
</g>
<g  style="stroke:#00FF00;stroke-width:0.1;" >
<path d="M222.54338 316.62814 L225.37181 319.45657 L222.54338 316.62814 Z "/>
</g>
<g  style="stroke:#00FF00;stroke-width:0.1;" >
<path d="M219.18321 319.9883 L222.01164 322.81674 L219.18321 319.9883 Z "/>
</g>
<g  style="stroke:#00FF00;stroke-width:0.1;" >
<path d="M215.82304 323.34848 L218.65147 326.1769 L215.82304 323.34848 Z "/>
</g>
<g  style="stroke:#00FF00;stroke-width:0.1;" >
<path d="M212.46288 326.70865 L215.2913 329.53708 L212.46288 326.70865 Z "/>
</g>
<g  style="stroke:#00FF00;stroke-width:0.1;" >
<path d="M209.10269 330.06882 L211.93112 332.89725 L209.10269 330.06882 Z "/>
</g>
<g  style="stroke:#00FF00;stroke-width:0.1;" >
<path d="M205.74252 333.429 L208.57095 336.25742 L205.74252 333.429 Z "/>
</g>
<g  style="stroke:#00FF00;stroke-width:0.1;" >
<path d="M199.02219 340.14932 L201.85062 342.97775 L199.02219 340.14932 Z "/>
</g>
<g  style="stroke:#00FF00;stroke-width:0.1;" >
<path d="M195.662 343.50952 L198.49043 346.33795 L195.662 343.50952 Z "/>
</g>
<g  style="stroke:#00FF00;stroke-width:0.1;" >
<path d="M192.30185 346.8697 L195.13028 349.69812 L192.30185 346.8697 Z "/>
</g>
<g  style="stroke:#00FF00;stroke-width:0.1;" >
<path d="M188.94165 350.22986 L191.77008 353.0583 L188.94165 350.22986 Z "/>
</g>
<g  style="stroke:#00FF00;stroke-width:0.1;" >
<path d="M185.58148 353.59003 L188.40991 356.41846 L185.58148 353.59003 Z "/>
</g>
<g  style="stroke:#00FF00;stroke-width:0.1;" >
<path d="M182.22131 356.9502 L185.04974 359.77863 L182.22131 356.9502 Z "/>
</g>
<g  style="stroke:#00FF00;stroke-width:0.1;" >
<path d="M178.86115 360.31036 L181.68958 363.1388 L178.86115 360.31036 Z "/>
</g>
<g  style="stroke:#00FF00;stroke-width:0.1;" >
<path d="M175.50098 363.67053 L178.3294 366.49896 L175.50098 363.67053 Z "/>
</g>
<g  style="stroke:#00FF00;stroke-width:0.1;" >
<path d="M172.14081 367.0307 L174.96924 369.85913 L172.14081 367.0307 Z "/>
</g>
<g  style="stroke:#00FF00;stroke-width:0.1;" >
<path d="M165.42046 373.75104 L168.24889 376.57947 L165.42046 373.75104 Z "/>
</g>
<g  style="fill:#F6921E;stroke:#F6921E;stroke-width:0.1;" >
<path d="M539.5 542.0 L3.5 542.0 L1.0 541.0 L1.0 537.0 L1.0 533.0 L1.0 529.0 L1.0 525.0 L1.0 521.0 L1.0 517.0 L1.0 513.0 L1.0 509.0 L1.0 505.0 L1.0 501.0 L1.0 497.0 L1.0 493.0 L1.0 489.0 L1.0 485.0 L1.0 481.0 L1.0 477.0 L1.0 473.0 L1.0 469.0 L1.0 465.0 L1.0 461.0 L1.0 457.0 L1.0 453.0 L1.0 449.0 L1.0 445.0 L1.0 441.0 L1.0 437.0 L1.0 433.0 L1.0 429.0 L1.0 425.0 L1.0 421.0 L1.0 417.0 L1.0 413.0 L1.0 409.0 L1.0 405.0 L1.0 401.0 L1.0 397.0 L1.0 393.0 L1.0 389.0 L1.0 385.0 L1.0 381.0 L1.0 377.0 L1.0 373.0 L1.0 369.0 L1.0 365.0 L1.0 361.0 L1.0 357.0 L1.0 353.0 L1.0 349.0 L1.0 345.0 L1.0 341.0 L1.0 337.0 L1.0 333.0 L1.0 329.0 L1.0 325.0 L1.0 321.0 L1.0 317.0 L1.0 313.0 L1.0 309.0 L1.0 305.0 L1.0 301.0 L1.0 297.0 L1.0 293.0 L1.0 289.0 L1.0 285.0 L1.0 281.0 L1.0 277.0 L1.0 273.0 L1.0 269.0 L1.0 265.0 L1.0 261.0 L1.0 257.0 L1.0 253.0 L1.0 249.0 L1.0 245.0 L1.0 241.0 L1.0 237.0 L1.0 233.0 L1.0 229.0 L1.0 225.0 L1.0 221.0 L1.0 217.0 L1.0 213.0 L1.0 209.0 L1.0 205.0 L1.0 201.0 L1.0 197.0 L1.0 193.0 L1.0 189.0 L1.0 185.0 L1.0 181.0 L1.0 177.0 L1.0 173.0 L1.0 169.0 L1.0 165.0 L1.0 161.0 L1.0 157.0 L1.0 153.0 L1.0 149.0 L1.0 145.0 L1.0 141.0 L1.0 137.0 L1.0 133.0 L1.0 129.0 L1.0 125.0 L1.0 121.0 L1.0 117.0 L1.0 113.0 L1.0 109.0 L1.0 105.0 L1.0 101.0 L1.0 97.0 L1.0 93.0 L1.0 89.0 L1.0 85.0 L1.0 81.0 L1.0 77.0 L1.0 73.0 L1.0 69.0 L1.0 65.0 L1.0 61.0 L1.0 57.0 L1.0 53.0 L1.0 49.0 L1.0 45.0 L1.0 41.0 L1.0 37.0 L1.0 33.0 L1.0 29.0 L1.0 25.0 L1.0 21.0 L1.0 17.0 L1.0 13.0 L1.0 9.0 L1.0 5.0 L1.0 1.0 L542.0 1.0 L542.0 5.0 L542.0 9.0 L542.0 13.0 L542.0 17.0 L542.0 21.0 L542.0 25.0 L542.0 29.0 L542.0 33.0 L542.0 37.0 L542.0 41.0 L542.0 45.0 L542.0 49.0 L542.0 53.0 L542.0 57.0 L542.0 61.0 L542.0 65.0 L542.0 69.0 L542.0 73.0 L542.0 77.0 L542.0 81.0 L542.0 85.0 L542.0 89.0 L542.0 93.0 L542.0 97.0 L542.0 101.0 L542.0 105.0 L542.0 109.0 L542.0 113.0 L542.0 117.0 L542.0 121.0 L542.0 125.0 L542.0 129.0 L542.0 133.0 L542.0 137.0 L542.0 141.0 L542.0 145.0 L542.0 149.0 L542.0 153.0 L542.0 157.0 L542.0 161.0 L542.0 165.0 L542.0 169.0 L542.0 173.0 L542.0 177.0 L542.0 181.0 L542.0 185.0 L542.0 189.0 L542.0 193.0 L542.0 197.0 L542.0 201.0 L542.0 205.0 L542.0 209.0 L542.0 213.0 L542.0 217.0 L542.0 221.0 L542.0 225.0 L542.0 229.0 L542.0 233.0 L542.0 237.0 L542.0 241.0 L542.0 245.0 L542.0 249.0 L542.0 253.0 L542.0 257.0 L542.0 261.0 L542.0 265.0 L542.0 269.0 L542.0 273.0 L542.0 277.0 L542.0 281.0 L542.0 285.0 L542.0 289.0 L542.0 293.0 L542.0 297.0 L542.0 301.0 L542.0 305.0 L542.0 309.0 L542.0 313.0 L542.0 317.0 L542.0 321.0 L542.0 325.0 L542.0 329.0 L542.0 333.0 L542.0 337.0 L542.0 341.0 L542.0 345.0 L542.0 349.0 L542.0 353.0 L542.0 357.0 L542.0 361.0 L542.0 365.0 L542.0 369.0 L542.0 373.0 L542.0 377.0 L542.0 381.0 L542.0 385.0 L542.0 389.0 L542.0 393.0 L542.0 397.0 L542.0 401.0 L542.0 405.0 L542.0 409.0 L542.0 413.0 L542.0 417.0 L542.0 421.0 L542.0 425.0 L542.0 429.0 L542.0 433.0 L542.0 437.0 L542.0 441.0 L542.0 445.0 L542.0 449.0 L542.0 453.0 L542.0 457.0 L542.0 461.0 L542.0 465.0 L542.0 469.0 L542.0 473.0 L542.0 477.0 L542.0 481.0 L542.0 485.0 L542.0 489.0 L542.0 493.0 L542.0 497.0 L542.0 501.0 L542.0 505.0 L542.0 509.0 L542.0 513.0 L542.0 517.0 L542.0 521.0 L542.0 525.0 L542.0 529.0 L542.0 533.0 L542.0 537.0 L542.0 541.0 L539.5 542.0 Z M528.0 525.5 L528.0 521.5 L528.0 517.5 L528.0 513.5 L528.0 509.5 L528.0 505.5 L528.0 501.5 L528.0 497.5 L528.0 493.5 L528.0 489.5 L528.0 485.5 L528.0 481.5 L528.0 477.5 L528.0 473.5 L528.0 469.5 L528.0 465.5 L528.0 461.5 L528.0 457.5 L528.0 453.5 L528.0 449.5 L528.0 445.5 L528.0 441.5 L528.0 437.5 L528.0 433.5 L528.0 429.5 L528.0 425.5 L528.0 421.5 L528.0 417.5 L528.0 413.5 L528.0 409.5 L528.0 405.5 L528.0 401.5 L528.0 397.5 L528.0 393.5 L528.0 389.5 L528.0 385.5 L528.0 381.5 L528.0 377.5 L528.0 373.5 L528.0 369.5 L528.0 365.5 L528.0 361.5 L528.0 357.5 L528.0 353.5 L528.0 349.5 L528.0 345.5 L528.0 341.5 L528.0 337.5 L528.0 333.5 L528.0 329.5 L528.0 325.5 L528.0 321.5 L528.0 317.5 L528.0 313.5 L528.0 309.5 L528.0 305.5 L528.0 301.5 L528.0 297.5 L528.0 293.5 L528.0 289.5 L528.0 285.5 L528.0 281.5 L528.0 277.5 L528.0 273.5 L528.0 269.5 L528.0 265.5 L528.0 261.5 L528.0 257.5 L528.0 253.5 L528.0 249.5 L528.0 245.5 L528.0 241.5 L528.0 237.5 L528.0 233.5 L528.0 229.5 L528.0 225.5 L528.0 221.5 L528.0 217.5 L528.0 213.5 L528.0 209.5 L528.0 205.5 L528.0 201.5 L528.0 197.5 L528.0 193.5 L528.0 189.5 L528.0 185.5 L528.0 181.5 L528.0 177.5 L528.0 173.5 L528.0 169.5 L528.0 165.5 L528.0 161.5 L528.0 157.5 L528.0 153.5 L528.0 149.5 L528.0 145.5 L528.0 141.5 L528.0 137.5 L528.0 133.5 L528.0 129.5 L528.0 125.5 L528.0 121.5 L528.0 117.5 L528.0 113.5 L528.0 109.5 L528.0 105.5 L528.0 101.5 L528.0 97.5 L528.0 93.5 L528.0 89.5 L528.0 85.5 L528.0 81.5 L528.0 77.5 L528.0 73.5 L528.0 69.5 L528.0 65.5 L528.0 61.5 L528.0 57.5 L528.0 53.5 L528.0 49.5 L528.0 45.5 L528.0 41.5 L528.0 37.5 L528.0 33.5 L528.0 29.5 L528.0 25.5 L528.0 21.5 L528.0 17.5 L527.0 15.0 L15.0 15.0 L15.0 528.0 L527.0 528.0 L528.0 525.5 Z "/>
</g>
<g  style="stroke:#FF0000;stroke-width:0.1;" >
<path d="M252.0 271.0 L120.150085 271.0 L252.0 271.0 Z "/>
</g>
<g  style="stroke:#00FF00;stroke-width:0.1;" >
<path d="M223.48 266.0 L223.48 276.0 L223.48 266.0 Z "/>
</g>
<g  style="stroke:#00FF00;stroke-width:0.1;" >
<path d="M175.95999 266.0 L175.95999 276.0 L175.95999 266.0 Z "/>
</g>
<g  style="stroke:#00FF00;stroke-width:0.1;" >
<path d="M128.43999 266.0 L128.43999 276.0 L128.43999 266.0 Z "/>
</g>
<g  style="stroke:#00FF00;stroke-width:0.1;" >
<path d="M266.248 269.0 L266.248 273.0 L266.248 269.0 Z "/>
</g>
<g  style="stroke:#00FF00;stroke-width:0.1;" >
<path d="M261.496 269.0 L261.496 273.0 L261.496 269.0 Z "/>
</g>
<g  style="stroke:#00FF00;stroke-width:0.1;" >
<path d="M256.744 269.0 L256.744 273.0 L256.744 269.0 Z "/>
</g>
<g  style="stroke:#00FF00;stroke-width:0.1;" >
<path d="M251.992 269.0 L251.992 273.0 L251.992 269.0 Z "/>
</g>
<g  style="stroke:#00FF00;stroke-width:0.1;" >
<path d="M247.24 269.0 L247.24 273.0 L247.24 269.0 Z "/>
</g>
<g  style="stroke:#00FF00;stroke-width:0.1;" >
<path d="M242.488 269.0 L242.488 273.0 L242.488 269.0 Z "/>
</g>
<g  style="stroke:#00FF00;stroke-width:0.1;" >
<path d="M237.736 269.0 L237.736 273.0 L237.736 269.0 Z "/>
</g>
<g  style="stroke:#00FF00;stroke-width:0.1;" >
<path d="M232.98401 269.0 L232.98401 273.0 L232.98401 269.0 Z "/>
</g>
<g  style="stroke:#00FF00;stroke-width:0.1;" >
<path d="M228.232 269.0 L228.232 273.0 L228.232 269.0 Z "/>
</g>
<g  style="stroke:#00FF00;stroke-width:0.1;" >
<path d="M218.728 269.0 L218.728 273.0 L218.728 269.0 Z "/>
</g>
<g  style="stroke:#00FF00;stroke-width:0.1;" >
<path d="M213.976 269.0 L213.976 273.0 L213.976 269.0 Z "/>
</g>
<g  style="stroke:#00FF00;stroke-width:0.1;" >
<path d="M209.224 269.0 L209.224 273.0 L209.224 269.0 Z "/>
</g>
<g  style="stroke:#00FF00;stroke-width:0.1;" >
<path d="M204.472 269.0 L204.472 273.0 L204.472 269.0 Z "/>
</g>
<g  style="stroke:#00FF00;stroke-width:0.1;" >
<path d="M199.72 269.0 L199.72 273.0 L199.72 269.0 Z "/>
</g>
<g  style="stroke:#00FF00;stroke-width:0.1;" >
<path d="M194.968 269.0 L194.968 273.0 L194.968 269.0 Z "/>
</g>
<g  style="stroke:#00FF00;stroke-width:0.1;" >
<path d="M190.216 269.0 L190.216 273.0 L190.216 269.0 Z "/>
</g>
<g  style="stroke:#00FF00;stroke-width:0.1;" >
<path d="M185.464 269.0 L185.464 273.0 L185.464 269.0 Z "/>
</g>
<g  style="stroke:#00FF00;stroke-width:0.1;" >
<path d="M180.712 269.0 L180.712 273.0 L180.712 269.0 Z "/>
</g>
<g  style="stroke:#00FF00;stroke-width:0.1;" >
<path d="M171.20801 269.0 L171.20801 273.0 L171.20801 269.0 Z "/>
</g>
<g  style="stroke:#00FF00;stroke-width:0.1;" >
<path d="M166.456 269.0 L166.456 273.0 L166.456 269.0 Z "/>
</g>
<g  style="stroke:#00FF00;stroke-width:0.1;" >
<path d="M161.70401 269.0 L161.70401 273.0 L161.70401 269.0 Z "/>
</g>
<g  style="stroke:#00FF00;stroke-width:0.1;" >
<path d="M156.952 269.0 L156.952 273.0 L156.952 269.0 Z "/>
</g>
<g  style="stroke:#00FF00;stroke-width:0.1;" >
<path d="M152.2 269.0 L152.2 273.0 L152.2 269.0 Z "/>
</g>
<g  style="stroke:#00FF00;stroke-width:0.1;" >
<path d="M147.448 269.0 L147.448 273.0 L147.448 269.0 Z "/>
</g>
<g  style="stroke:#00FF00;stroke-width:0.1;" >
<path d="M142.696 269.0 L142.696 273.0 L142.696 269.0 Z "/>
</g>
<g  style="stroke:#00FF00;stroke-width:0.1;" >
<path d="M137.944 269.0 L137.944 273.0 L137.944 269.0 Z "/>
</g>
<g  style="stroke:#00FF00;stroke-width:0.1;" >
<path d="M133.192 269.0 L133.192 273.0 L133.192 269.0 Z "/>
</g>
<g  style="stroke:#00FF00;stroke-width:0.1;" >
<path d="M123.68799 269.0 L123.68799 273.0 L123.68799 269.0 Z "/>
</g>
<g  style="fill:#F6921E;stroke:#F6921E;stroke-width:0.1;" >
<path d="M539.5 542.0 L3.5 542.0 L1.0 541.0 L1.0 537.0 L1.0 533.0 L1.0 529.0 L1.0 525.0 L1.0 521.0 L1.0 517.0 L1.0 513.0 L1.0 509.0 L1.0 505.0 L1.0 501.0 L1.0 497.0 L1.0 493.0 L1.0 489.0 L1.0 485.0 L1.0 481.0 L1.0 477.0 L1.0 473.0 L1.0 469.0 L1.0 465.0 L1.0 461.0 L1.0 457.0 L1.0 453.0 L1.0 449.0 L1.0 445.0 L1.0 441.0 L1.0 437.0 L1.0 433.0 L1.0 429.0 L1.0 425.0 L1.0 421.0 L1.0 417.0 L1.0 413.0 L1.0 409.0 L1.0 405.0 L1.0 401.0 L1.0 397.0 L1.0 393.0 L1.0 389.0 L1.0 385.0 L1.0 381.0 L1.0 377.0 L1.0 373.0 L1.0 369.0 L1.0 365.0 L1.0 361.0 L1.0 357.0 L1.0 353.0 L1.0 349.0 L1.0 345.0 L1.0 341.0 L1.0 337.0 L1.0 333.0 L1.0 329.0 L1.0 325.0 L1.0 321.0 L1.0 317.0 L1.0 313.0 L1.0 309.0 L1.0 305.0 L1.0 301.0 L1.0 297.0 L1.0 293.0 L1.0 289.0 L1.0 285.0 L1.0 281.0 L1.0 277.0 L1.0 273.0 L1.0 269.0 L1.0 265.0 L1.0 261.0 L1.0 257.0 L1.0 253.0 L1.0 249.0 L1.0 245.0 L1.0 241.0 L1.0 237.0 L1.0 233.0 L1.0 229.0 L1.0 225.0 L1.0 221.0 L1.0 217.0 L1.0 213.0 L1.0 209.0 L1.0 205.0 L1.0 201.0 L1.0 197.0 L1.0 193.0 L1.0 189.0 L1.0 185.0 L1.0 181.0 L1.0 177.0 L1.0 173.0 L1.0 169.0 L1.0 165.0 L1.0 161.0 L1.0 157.0 L1.0 153.0 L1.0 149.0 L1.0 145.0 L1.0 141.0 L1.0 137.0 L1.0 133.0 L1.0 129.0 L1.0 125.0 L1.0 121.0 L1.0 117.0 L1.0 113.0 L1.0 109.0 L1.0 105.0 L1.0 101.0 L1.0 97.0 L1.0 93.0 L1.0 89.0 L1.0 85.0 L1.0 81.0 L1.0 77.0 L1.0 73.0 L1.0 69.0 L1.0 65.0 L1.0 61.0 L1.0 57.0 L1.0 53.0 L1.0 49.0 L1.0 45.0 L1.0 41.0 L1.0 37.0 L1.0 33.0 L1.0 29.0 L1.0 25.0 L1.0 21.0 L1.0 17.0 L1.0 13.0 L1.0 9.0 L1.0 5.0 L1.0 1.0 L542.0 1.0 L542.0 5.0 L542.0 9.0 L542.0 13.0 L542.0 17.0 L542.0 21.0 L542.0 25.0 L542.0 29.0 L542.0 33.0 L542.0 37.0 L542.0 41.0 L542.0 45.0 L542.0 49.0 L542.0 53.0 L542.0 57.0 L542.0 61.0 L542.0 65.0 L542.0 69.0 L542.0 73.0 L542.0 77.0 L542.0 81.0 L542.0 85.0 L542.0 89.0 L542.0 93.0 L542.0 97.0 L542.0 101.0 L542.0 105.0 L542.0 109.0 L542.0 113.0 L542.0 117.0 L542.0 121.0 L542.0 125.0 L542.0 129.0 L542.0 133.0 L542.0 137.0 L542.0 141.0 L542.0 145.0 L542.0 149.0 L542.0 153.0 L542.0 157.0 L542.0 161.0 L542.0 165.0 L542.0 169.0 L542.0 173.0 L542.0 177.0 L542.0 181.0 L542.0 185.0 L542.0 189.0 L542.0 193.0 L542.0 197.0 L542.0 201.0 L542.0 205.0 L542.0 209.0 L542.0 213.0 L542.0 217.0 L542.0 221.0 L542.0 225.0 L542.0 229.0 L542.0 233.0 L542.0 237.0 L542.0 241.0 L542.0 245.0 L542.0 249.0 L542.0 253.0 L542.0 257.0 L542.0 261.0 L542.0 265.0 L542.0 269.0 L542.0 273.0 L542.0 277.0 L542.0 281.0 L542.0 285.0 L542.0 289.0 L542.0 293.0 L542.0 297.0 L542.0 301.0 L542.0 305.0 L542.0 309.0 L542.0 313.0 L542.0 317.0 L542.0 321.0 L542.0 325.0 L542.0 329.0 L542.0 333.0 L542.0 337.0 L542.0 341.0 L542.0 345.0 L542.0 349.0 L542.0 353.0 L542.0 357.0 L542.0 361.0 L542.0 365.0 L542.0 369.0 L542.0 373.0 L542.0 377.0 L542.0 381.0 L542.0 385.0 L542.0 389.0 L542.0 393.0 L542.0 397.0 L542.0 401.0 L542.0 405.0 L542.0 409.0 L542.0 413.0 L542.0 417.0 L542.0 421.0 L542.0 425.0 L542.0 429.0 L542.0 433.0 L542.0 437.0 L542.0 441.0 L542.0 445.0 L542.0 449.0 L542.0 453.0 L542.0 457.0 L542.0 461.0 L542.0 465.0 L542.0 469.0 L542.0 473.0 L542.0 477.0 L542.0 481.0 L542.0 485.0 L542.0 489.0 L542.0 493.0 L542.0 497.0 L542.0 501.0 L542.0 505.0 L542.0 509.0 L542.0 513.0 L542.0 517.0 L542.0 521.0 L542.0 525.0 L542.0 529.0 L542.0 533.0 L542.0 537.0 L542.0 541.0 L539.5 542.0 Z M528.0 525.5 L528.0 521.5 L528.0 517.5 L528.0 513.5 L528.0 509.5 L528.0 505.5 L528.0 501.5 L528.0 497.5 L528.0 493.5 L528.0 489.5 L528.0 485.5 L528.0 481.5 L528.0 477.5 L528.0 473.5 L528.0 469.5 L528.0 465.5 L528.0 461.5 L528.0 457.5 L528.0 453.5 L528.0 449.5 L528.0 445.5 L528.0 441.5 L528.0 437.5 L528.0 433.5 L528.0 429.5 L528.0 425.5 L528.0 421.5 L528.0 417.5 L528.0 413.5 L528.0 409.5 L528.0 405.5 L528.0 401.5 L528.0 397.5 L528.0 393.5 L528.0 389.5 L528.0 385.5 L528.0 381.5 L528.0 377.5 L528.0 373.5 L528.0 369.5 L528.0 365.5 L528.0 361.5 L528.0 357.5 L528.0 353.5 L528.0 349.5 L528.0 345.5 L528.0 341.5 L528.0 337.5 L528.0 333.5 L528.0 329.5 L528.0 325.5 L528.0 321.5 L528.0 317.5 L528.0 313.5 L528.0 309.5 L528.0 305.5 L528.0 301.5 L528.0 297.5 L528.0 293.5 L528.0 289.5 L528.0 285.5 L528.0 281.5 L528.0 277.5 L528.0 273.5 L528.0 269.5 L528.0 265.5 L528.0 261.5 L528.0 257.5 L528.0 253.5 L528.0 249.5 L528.0 245.5 L528.0 241.5 L528.0 237.5 L528.0 233.5 L528.0 229.5 L528.0 225.5 L528.0 221.5 L528.0 217.5 L528.0 213.5 L528.0 209.5 L528.0 205.5 L528.0 201.5 L528.0 197.5 L528.0 193.5 L528.0 189.5 L528.0 185.5 L528.0 181.5 L528.0 177.5 L528.0 173.5 L528.0 169.5 L528.0 165.5 L528.0 161.5 L528.0 157.5 L528.0 153.5 L528.0 149.5 L528.0 145.5 L528.0 141.5 L528.0 137.5 L528.0 133.5 L528.0 129.5 L528.0 125.5 L528.0 121.5 L528.0 117.5 L528.0 113.5 L528.0 109.5 L528.0 105.5 L528.0 101.5 L528.0 97.5 L528.0 93.5 L528.0 89.5 L528.0 85.5 L528.0 81.5 L528.0 77.5 L528.0 73.5 L528.0 69.5 L528.0 65.5 L528.0 61.5 L528.0 57.5 L528.0 53.5 L528.0 49.5 L528.0 45.5 L528.0 41.5 L528.0 37.5 L528.0 33.5 L528.0 29.5 L528.0 25.5 L528.0 21.5 L528.0 17.5 L527.0 15.0 L15.0 15.0 L15.0 528.0 L527.0 528.0 L528.0 525.5 Z "/>
</g>
<g  style="stroke:#FF0000;stroke-width:0.1;" >
<path d="M257.56497 257.56497 L164.33304 164.33301 L257.56497 257.56497 Z "/>
</g>
<g  style="stroke:#00FF00;stroke-width:0.1;" >
<path d="M240.93384 233.86275 L233.86276 240.93382 L240.93384 233.86275 Z "/>
</g>
<g  style="stroke:#00FF00;stroke-width:0.1;" >
<path d="M207.33212 200.26102 L200.26108 207.33209 L207.33212 200.26102 Z "/>
</g>
<g  style="stroke:#00FF00;stroke-width:0.1;" >
<path d="M173.73044 166.65929 L166.65936 173.73036 L173.73044 166.65929 Z "/>
</g>
<g  style="stroke:#00FF00;stroke-width:0.1;" >
<path d="M269.05405 266.22562 L266.22562 269.05405 L269.05405 266.22562 Z "/>
</g>
<g  style="stroke:#00FF00;stroke-width:0.1;" >
<path d="M265.69388 262.86545 L262.86545 265.69388 L265.69388 262.86545 Z "/>
</g>
<g  style="stroke:#00FF00;stroke-width:0.1;" >
<path d="M262.3337 259.50525 L259.50528 262.33368 L262.3337 259.50525 Z "/>
</g>
<g  style="stroke:#00FF00;stroke-width:0.1;" >
<path d="M258.97354 256.1451 L256.1451 258.97354 L258.97354 256.1451 Z "/>
</g>
<g  style="stroke:#00FF00;stroke-width:0.1;" >
<path d="M255.61337 252.78493 L252.78494 255.61336 L255.61337 252.78493 Z "/>
</g>
<g  style="stroke:#00FF00;stroke-width:0.1;" >
<path d="M252.2532 249.42476 L249.42477 252.25319 L252.2532 249.42476 Z "/>
</g>
<g  style="stroke:#00FF00;stroke-width:0.1;" >
<path d="M248.89304 246.06458 L246.0646 248.893 L248.89304 246.06458 Z "/>
</g>
<g  style="stroke:#00FF00;stroke-width:0.1;" >
<path d="M245.53287 242.70442 L242.70444 245.53285 L245.53287 242.70442 Z "/>
</g>
<g  style="stroke:#00FF00;stroke-width:0.1;" >
<path d="M242.1727 239.34424 L239.34427 242.17267 L242.1727 239.34424 Z "/>
</g>
<g  style="stroke:#00FF00;stroke-width:0.1;" >
<path d="M235.45236 232.62389 L232.62393 235.45232 L235.45236 232.62389 Z "/>
</g>
<g  style="stroke:#00FF00;stroke-width:0.1;" >
<path d="M232.0922 229.26372 L229.26376 232.09215 L232.0922 229.26372 Z "/>
</g>
<g  style="stroke:#00FF00;stroke-width:0.1;" >
<path d="M228.732 225.90355 L225.9036 228.73198 L228.732 225.90355 Z "/>
</g>
<g  style="stroke:#00FF00;stroke-width:0.1;" >
<path d="M225.37183 222.54338 L222.54343 225.37181 L225.37183 222.54338 Z "/>
</g>
<g  style="stroke:#00FF00;stroke-width:0.1;" >
<path d="M222.01166 219.18321 L219.18326 222.01164 L222.01166 219.18321 Z "/>
</g>
<g  style="stroke:#00FF00;stroke-width:0.1;" >
<path d="M218.65149 215.82303 L215.82309 218.65146 L218.65149 215.82303 Z "/>
</g>
<g  style="stroke:#00FF00;stroke-width:0.1;" >
<path d="M215.29132 212.46286 L212.46292 215.29129 L215.29132 212.46286 Z "/>
</g>
<g  style="stroke:#00FF00;stroke-width:0.1;" >
<path d="M211.93115 209.10269 L209.10275 211.93112 L211.93115 209.10269 Z "/>
</g>
<g  style="stroke:#00FF00;stroke-width:0.1;" >
<path d="M208.57098 205.74252 L205.74258 208.57095 L208.57098 205.74252 Z "/>
</g>
<g  style="stroke:#00FF00;stroke-width:0.1;" >
<path d="M201.85065 199.02219 L199.02225 201.85062 L201.85065 199.02219 Z "/>
</g>
<g  style="stroke:#00FF00;stroke-width:0.1;" >
<path d="M198.49045 195.66199 L195.66205 198.49042 L198.49045 195.66199 Z "/>
</g>
<g  style="stroke:#00FF00;stroke-width:0.1;" >
<path d="M195.13031 192.30183 L192.30191 195.13026 L195.13031 192.30183 Z "/>
</g>
<g  style="stroke:#00FF00;stroke-width:0.1;" >
<path d="M191.77011 188.94165 L188.94171 191.77008 L191.77011 188.94165 Z "/>
</g>
<g  style="stroke:#00FF00;stroke-width:0.1;" >
<path d="M188.40994 185.58148 L185.58154 188.40991 L188.40994 185.58148 Z "/>
</g>
<g  style="stroke:#00FF00;stroke-width:0.1;" >
<path d="M185.04977 182.22131 L182.22137 185.04974 L185.04977 182.22131 Z "/>
</g>
<g  style="stroke:#00FF00;stroke-width:0.1;" >
<path d="M181.6896 178.86115 L178.8612 181.68958 L181.6896 178.86115 Z "/>
</g>
<g  style="stroke:#00FF00;stroke-width:0.1;" >
<path d="M178.32944 175.50096 L175.50104 178.32939 L178.32944 175.50096 Z "/>
</g>
<g  style="stroke:#00FF00;stroke-width:0.1;" >
<path d="M174.96927 172.1408 L172.14087 174.96922 L174.96927 172.1408 Z "/>
</g>
<g  style="stroke:#00FF00;stroke-width:0.1;" >
<path d="M168.24893 165.42044 L165.4205 168.24887 L168.24893 165.42044 Z "/>
</g>
<g  style="fill:#F6921E;stroke:#F6921E;stroke-width:0.1;" >
<path d="M539.5 542.0 L3.5 542.0 L1.0 541.0 L1.0 537.0 L1.0 533.0 L1.0 529.0 L1.0 525.0 L1.0 521.0 L1.0 517.0 L1.0 513.0 L1.0 509.0 L1.0 505.0 L1.0 501.0 L1.0 497.0 L1.0 493.0 L1.0 489.0 L1.0 485.0 L1.0 481.0 L1.0 477.0 L1.0 473.0 L1.0 469.0 L1.0 465.0 L1.0 461.0 L1.0 457.0 L1.0 453.0 L1.0 449.0 L1.0 445.0 L1.0 441.0 L1.0 437.0 L1.0 433.0 L1.0 429.0 L1.0 425.0 L1.0 421.0 L1.0 417.0 L1.0 413.0 L1.0 409.0 L1.0 405.0 L1.0 401.0 L1.0 397.0 L1.0 393.0 L1.0 389.0 L1.0 385.0 L1.0 381.0 L1.0 377.0 L1.0 373.0 L1.0 369.0 L1.0 365.0 L1.0 361.0 L1.0 357.0 L1.0 353.0 L1.0 349.0 L1.0 345.0 L1.0 341.0 L1.0 337.0 L1.0 333.0 L1.0 329.0 L1.0 325.0 L1.0 321.0 L1.0 317.0 L1.0 313.0 L1.0 309.0 L1.0 305.0 L1.0 301.0 L1.0 297.0 L1.0 293.0 L1.0 289.0 L1.0 285.0 L1.0 281.0 L1.0 277.0 L1.0 273.0 L1.0 269.0 L1.0 265.0 L1.0 261.0 L1.0 257.0 L1.0 253.0 L1.0 249.0 L1.0 245.0 L1.0 241.0 L1.0 237.0 L1.0 233.0 L1.0 229.0 L1.0 225.0 L1.0 221.0 L1.0 217.0 L1.0 213.0 L1.0 209.0 L1.0 205.0 L1.0 201.0 L1.0 197.0 L1.0 193.0 L1.0 189.0 L1.0 185.0 L1.0 181.0 L1.0 177.0 L1.0 173.0 L1.0 169.0 L1.0 165.0 L1.0 161.0 L1.0 157.0 L1.0 153.0 L1.0 149.0 L1.0 145.0 L1.0 141.0 L1.0 137.0 L1.0 133.0 L1.0 129.0 L1.0 125.0 L1.0 121.0 L1.0 117.0 L1.0 113.0 L1.0 109.0 L1.0 105.0 L1.0 101.0 L1.0 97.0 L1.0 93.0 L1.0 89.0 L1.0 85.0 L1.0 81.0 L1.0 77.0 L1.0 73.0 L1.0 69.0 L1.0 65.0 L1.0 61.0 L1.0 57.0 L1.0 53.0 L1.0 49.0 L1.0 45.0 L1.0 41.0 L1.0 37.0 L1.0 33.0 L1.0 29.0 L1.0 25.0 L1.0 21.0 L1.0 17.0 L1.0 13.0 L1.0 9.0 L1.0 5.0 L1.0 1.0 L542.0 1.0 L542.0 5.0 L542.0 9.0 L542.0 13.0 L542.0 17.0 L542.0 21.0 L542.0 25.0 L542.0 29.0 L542.0 33.0 L542.0 37.0 L542.0 41.0 L542.0 45.0 L542.0 49.0 L542.0 53.0 L542.0 57.0 L542.0 61.0 L542.0 65.0 L542.0 69.0 L542.0 73.0 L542.0 77.0 L542.0 81.0 L542.0 85.0 L542.0 89.0 L542.0 93.0 L542.0 97.0 L542.0 101.0 L542.0 105.0 L542.0 109.0 L542.0 113.0 L542.0 117.0 L542.0 121.0 L542.0 125.0 L542.0 129.0 L542.0 133.0 L542.0 137.0 L542.0 141.0 L542.0 145.0 L542.0 149.0 L542.0 153.0 L542.0 157.0 L542.0 161.0 L542.0 165.0 L542.0 169.0 L542.0 173.0 L542.0 177.0 L542.0 181.0 L542.0 185.0 L542.0 189.0 L542.0 193.0 L542.0 197.0 L542.0 201.0 L542.0 205.0 L542.0 209.0 L542.0 213.0 L542.0 217.0 L542.0 221.0 L542.0 225.0 L542.0 229.0 L542.0 233.0 L542.0 237.0 L542.0 241.0 L542.0 245.0 L542.0 249.0 L542.0 253.0 L542.0 257.0 L542.0 261.0 L542.0 265.0 L542.0 269.0 L542.0 273.0 L542.0 277.0 L542.0 281.0 L542.0 285.0 L542.0 289.0 L542.0 293.0 L542.0 297.0 L542.0 301.0 L542.0 305.0 L542.0 309.0 L542.0 313.0 L542.0 317.0 L542.0 321.0 L542.0 325.0 L542.0 329.0 L542.0 333.0 L542.0 337.0 L542.0 341.0 L542.0 345.0 L542.0 349.0 L542.0 353.0 L542.0 357.0 L542.0 361.0 L542.0 365.0 L542.0 369.0 L542.0 373.0 L542.0 377.0 L542.0 381.0 L542.0 385.0 L542.0 389.0 L542.0 393.0 L542.0 397.0 L542.0 401.0 L542.0 405.0 L542.0 409.0 L542.0 413.0 L542.0 417.0 L542.0 421.0 L542.0 425.0 L542.0 429.0 L542.0 433.0 L542.0 437.0 L542.0 441.0 L542.0 445.0 L542.0 449.0 L542.0 453.0 L542.0 457.0 L542.0 461.0 L542.0 465.0 L542.0 469.0 L542.0 473.0 L542.0 477.0 L542.0 481.0 L542.0 485.0 L542.0 489.0 L542.0 493.0 L542.0 497.0 L542.0 501.0 L542.0 505.0 L542.0 509.0 L542.0 513.0 L542.0 517.0 L542.0 521.0 L542.0 525.0 L542.0 529.0 L542.0 533.0 L542.0 537.0 L542.0 541.0 L539.5 542.0 Z M528.0 525.5 L528.0 521.5 L528.0 517.5 L528.0 513.5 L528.0 509.5 L528.0 505.5 L528.0 501.5 L528.0 497.5 L528.0 493.5 L528.0 489.5 L528.0 485.5 L528.0 481.5 L528.0 477.5 L528.0 473.5 L528.0 469.5 L528.0 465.5 L528.0 461.5 L528.0 457.5 L528.0 453.5 L528.0 449.5 L528.0 445.5 L528.0 441.5 L528.0 437.5 L528.0 433.5 L528.0 429.5 L528.0 425.5 L528.0 421.5 L528.0 417.5 L528.0 413.5 L528.0 409.5 L528.0 405.5 L528.0 401.5 L528.0 397.5 L528.0 393.5 L528.0 389.5 L528.0 385.5 L528.0 381.5 L528.0 377.5 L528.0 373.5 L528.0 369.5 L528.0 365.5 L528.0 361.5 L528.0 357.5 L528.0 353.5 L528.0 349.5 L528.0 345.5 L528.0 341.5 L528.0 337.5 L528.0 333.5 L528.0 329.5 L528.0 325.5 L528.0 321.5 L528.0 317.5 L528.0 313.5 L528.0 309.5 L528.0 305.5 L528.0 301.5 L528.0 297.5 L528.0 293.5 L528.0 289.5 L528.0 285.5 L528.0 281.5 L528.0 277.5 L528.0 273.5 L528.0 269.5 L528.0 265.5 L528.0 261.5 L528.0 257.5 L528.0 253.5 L528.0 249.5 L528.0 245.5 L528.0 241.5 L528.0 237.5 L528.0 233.5 L528.0 229.5 L528.0 225.5 L528.0 221.5 L528.0 217.5 L528.0 213.5 L528.0 209.5 L528.0 205.5 L528.0 201.5 L528.0 197.5 L528.0 193.5 L528.0 189.5 L528.0 185.5 L528.0 181.5 L528.0 177.5 L528.0 173.5 L528.0 169.5 L528.0 165.5 L528.0 161.5 L528.0 157.5 L528.0 153.5 L528.0 149.5 L528.0 145.5 L528.0 141.5 L528.0 137.5 L528.0 133.5 L528.0 129.5 L528.0 125.5 L528.0 121.5 L528.0 117.5 L528.0 113.5 L528.0 109.5 L528.0 105.5 L528.0 101.5 L528.0 97.5 L528.0 93.5 L528.0 89.5 L528.0 85.5 L528.0 81.5 L528.0 77.5 L528.0 73.5 L528.0 69.5 L528.0 65.5 L528.0 61.5 L528.0 57.5 L528.0 53.5 L528.0 49.5 L528.0 45.5 L528.0 41.5 L528.0 37.5 L528.0 33.5 L528.0 29.5 L528.0 25.5 L528.0 21.5 L528.0 17.5 L527.0 15.0 L15.0 15.0 L15.0 528.0 L527.0 528.0 L528.0 525.5 Z "/>
</g>
<g  style="stroke:#FF0000;stroke-width:0.1;" >
<path d="M271.0 252.0 L271.0 120.150055 L271.0 252.0 Z "/>
</g>
<g  style="stroke:#00FF00;stroke-width:0.1;" >
<path d="M276.00003 223.47998 L266.00003 223.47998 L276.00003 223.47998 Z "/>
</g>
<g  style="stroke:#00FF00;stroke-width:0.1;" >
<path d="M276.00003 175.95998 L266.00003 175.95998 L276.00003 175.95998 Z "/>
</g>
<g  style="stroke:#00FF00;stroke-width:0.1;" >
<path d="M276.00003 128.43997 L266.00003 128.43997 L276.00003 128.43997 Z "/>
</g>
<g  style="stroke:#00FF00;stroke-width:0.1;" >
<path d="M273.0 266.248 L269.0 266.248 L273.0 266.248 Z "/>
</g>
<g  style="stroke:#00FF00;stroke-width:0.1;" >
<path d="M273.00003 261.496 L269.00003 261.496 L273.00003 261.496 Z "/>
</g>
<g  style="stroke:#00FF00;stroke-width:0.1;" >
<path d="M273.00003 256.744 L269.00003 256.744 L273.00003 256.744 Z "/>
</g>
<g  style="stroke:#00FF00;stroke-width:0.1;" >
<path d="M273.00003 251.99199 L269.00003 251.99199 L273.00003 251.99199 Z "/>
</g>
<g  style="stroke:#00FF00;stroke-width:0.1;" >
<path d="M273.00003 247.23999 L269.00003 247.23999 L273.00003 247.23999 Z "/>
</g>
<g  style="stroke:#00FF00;stroke-width:0.1;" >
<path d="M273.00003 242.48799 L269.00003 242.48799 L273.00003 242.48799 Z "/>
</g>
<g  style="stroke:#00FF00;stroke-width:0.1;" >
<path d="M273.00003 237.73598 L269.00003 237.73598 L273.00003 237.73598 Z "/>
</g>
<g  style="stroke:#00FF00;stroke-width:0.1;" >
<path d="M273.00003 232.984 L269.00003 232.984 L273.00003 232.984 Z "/>
</g>
<g  style="stroke:#00FF00;stroke-width:0.1;" >
<path d="M273.00003 228.23198 L269.00003 228.23198 L273.00003 228.23198 Z "/>
</g>
<g  style="stroke:#00FF00;stroke-width:0.1;" >
<path d="M273.00003 218.72798 L269.00003 218.72798 L273.00003 218.72798 Z "/>
</g>
<g  style="stroke:#00FF00;stroke-width:0.1;" >
<path d="M273.00003 213.97598 L269.00003 213.97598 L273.00003 213.97598 Z "/>
</g>
<g  style="stroke:#00FF00;stroke-width:0.1;" >
<path d="M273.00003 209.22398 L269.00003 209.22398 L273.00003 209.22398 Z "/>
</g>
<g  style="stroke:#00FF00;stroke-width:0.1;" >
<path d="M273.00003 204.47198 L269.00003 204.47198 L273.00003 204.47198 Z "/>
</g>
<g  style="stroke:#00FF00;stroke-width:0.1;" >
<path d="M273.00003 199.71999 L269.00003 199.71999 L273.00003 199.71999 Z "/>
</g>
<g  style="stroke:#00FF00;stroke-width:0.1;" >
<path d="M273.00003 194.96799 L269.00003 194.96799 L273.00003 194.96799 Z "/>
</g>
<g  style="stroke:#00FF00;stroke-width:0.1;" >
<path d="M273.00003 190.21599 L269.00003 190.21599 L273.00003 190.21599 Z "/>
</g>
<g  style="stroke:#00FF00;stroke-width:0.1;" >
<path d="M273.00003 185.46399 L269.00003 185.46399 L273.00003 185.46399 Z "/>
</g>
<g  style="stroke:#00FF00;stroke-width:0.1;" >
<path d="M273.00003 180.71199 L269.00003 180.71199 L273.00003 180.71199 Z "/>
</g>
<g  style="stroke:#00FF00;stroke-width:0.1;" >
<path d="M273.00003 171.208 L269.00003 171.208 L273.00003 171.208 Z "/>
</g>
<g  style="stroke:#00FF00;stroke-width:0.1;" >
<path d="M273.00003 166.45598 L269.00003 166.45598 L273.00003 166.45598 Z "/>
</g>
<g  style="stroke:#00FF00;stroke-width:0.1;" >
<path d="M273.00003 161.704 L269.00003 161.704 L273.00003 161.704 Z "/>
</g>
<g  style="stroke:#00FF00;stroke-width:0.1;" >
<path d="M273.00003 156.95198 L269.00003 156.95198 L273.00003 156.95198 Z "/>
</g>
<g  style="stroke:#00FF00;stroke-width:0.1;" >
<path d="M273.00003 152.19998 L269.00003 152.19998 L273.00003 152.19998 Z "/>
</g>
<g  style="stroke:#00FF00;stroke-width:0.1;" >
<path d="M273.00003 147.44798 L269.00003 147.44798 L273.00003 147.44798 Z "/>
</g>
<g  style="stroke:#00FF00;stroke-width:0.1;" >
<path d="M273.00003 142.69598 L269.00003 142.69598 L273.00003 142.69598 Z "/>
</g>
<g  style="stroke:#00FF00;stroke-width:0.1;" >
<path d="M273.00003 137.94398 L269.00003 137.94398 L273.00003 137.94398 Z "/>
</g>
<g  style="stroke:#00FF00;stroke-width:0.1;" >
<path d="M273.00003 133.19199 L269.00003 133.19199 L273.00003 133.19199 Z "/>
</g>
<g  style="stroke:#00FF00;stroke-width:0.1;" >
<path d="M273.00003 123.68797 L269.00003 123.68797 L273.00003 123.68797 Z "/>
</g>
<g  style="fill:#F6921E;stroke:#F6921E;stroke-width:0.1;" >
<path d="M539.5 542.0 L3.5 542.0 L1.0 541.0 L1.0 537.0 L1.0 533.0 L1.0 529.0 L1.0 525.0 L1.0 521.0 L1.0 517.0 L1.0 513.0 L1.0 509.0 L1.0 505.0 L1.0 501.0 L1.0 497.0 L1.0 493.0 L1.0 489.0 L1.0 485.0 L1.0 481.0 L1.0 477.0 L1.0 473.0 L1.0 469.0 L1.0 465.0 L1.0 461.0 L1.0 457.0 L1.0 453.0 L1.0 449.0 L1.0 445.0 L1.0 441.0 L1.0 437.0 L1.0 433.0 L1.0 429.0 L1.0 425.0 L1.0 421.0 L1.0 417.0 L1.0 413.0 L1.0 409.0 L1.0 405.0 L1.0 401.0 L1.0 397.0 L1.0 393.0 L1.0 389.0 L1.0 385.0 L1.0 381.0 L1.0 377.0 L1.0 373.0 L1.0 369.0 L1.0 365.0 L1.0 361.0 L1.0 357.0 L1.0 353.0 L1.0 349.0 L1.0 345.0 L1.0 341.0 L1.0 337.0 L1.0 333.0 L1.0 329.0 L1.0 325.0 L1.0 321.0 L1.0 317.0 L1.0 313.0 L1.0 309.0 L1.0 305.0 L1.0 301.0 L1.0 297.0 L1.0 293.0 L1.0 289.0 L1.0 285.0 L1.0 281.0 L1.0 277.0 L1.0 273.0 L1.0 269.0 L1.0 265.0 L1.0 261.0 L1.0 257.0 L1.0 253.0 L1.0 249.0 L1.0 245.0 L1.0 241.0 L1.0 237.0 L1.0 233.0 L1.0 229.0 L1.0 225.0 L1.0 221.0 L1.0 217.0 L1.0 213.0 L1.0 209.0 L1.0 205.0 L1.0 201.0 L1.0 197.0 L1.0 193.0 L1.0 189.0 L1.0 185.0 L1.0 181.0 L1.0 177.0 L1.0 173.0 L1.0 169.0 L1.0 165.0 L1.0 161.0 L1.0 157.0 L1.0 153.0 L1.0 149.0 L1.0 145.0 L1.0 141.0 L1.0 137.0 L1.0 133.0 L1.0 129.0 L1.0 125.0 L1.0 121.0 L1.0 117.0 L1.0 113.0 L1.0 109.0 L1.0 105.0 L1.0 101.0 L1.0 97.0 L1.0 93.0 L1.0 89.0 L1.0 85.0 L1.0 81.0 L1.0 77.0 L1.0 73.0 L1.0 69.0 L1.0 65.0 L1.0 61.0 L1.0 57.0 L1.0 53.0 L1.0 49.0 L1.0 45.0 L1.0 41.0 L1.0 37.0 L1.0 33.0 L1.0 29.0 L1.0 25.0 L1.0 21.0 L1.0 17.0 L1.0 13.0 L1.0 9.0 L1.0 5.0 L1.0 1.0 L542.0 1.0 L542.0 5.0 L542.0 9.0 L542.0 13.0 L542.0 17.0 L542.0 21.0 L542.0 25.0 L542.0 29.0 L542.0 33.0 L542.0 37.0 L542.0 41.0 L542.0 45.0 L542.0 49.0 L542.0 53.0 L542.0 57.0 L542.0 61.0 L542.0 65.0 L542.0 69.0 L542.0 73.0 L542.0 77.0 L542.0 81.0 L542.0 85.0 L542.0 89.0 L542.0 93.0 L542.0 97.0 L542.0 101.0 L542.0 105.0 L542.0 109.0 L542.0 113.0 L542.0 117.0 L542.0 121.0 L542.0 125.0 L542.0 129.0 L542.0 133.0 L542.0 137.0 L542.0 141.0 L542.0 145.0 L542.0 149.0 L542.0 153.0 L542.0 157.0 L542.0 161.0 L542.0 165.0 L542.0 169.0 L542.0 173.0 L542.0 177.0 L542.0 181.0 L542.0 185.0 L542.0 189.0 L542.0 193.0 L542.0 197.0 L542.0 201.0 L542.0 205.0 L542.0 209.0 L542.0 213.0 L542.0 217.0 L542.0 221.0 L542.0 225.0 L542.0 229.0 L542.0 233.0 L542.0 237.0 L542.0 241.0 L542.0 245.0 L542.0 249.0 L542.0 253.0 L542.0 257.0 L542.0 261.0 L542.0 265.0 L542.0 269.0 L542.0 273.0 L542.0 277.0 L542.0 281.0 L542.0 285.0 L542.0 289.0 L542.0 293.0 L542.0 297.0 L542.0 301.0 L542.0 305.0 L542.0 309.0 L542.0 313.0 L542.0 317.0 L542.0 321.0 L542.0 325.0 L542.0 329.0 L542.0 333.0 L542.0 337.0 L542.0 341.0 L542.0 345.0 L542.0 349.0 L542.0 353.0 L542.0 357.0 L542.0 361.0 L542.0 365.0 L542.0 369.0 L542.0 373.0 L542.0 377.0 L542.0 381.0 L542.0 385.0 L542.0 389.0 L542.0 393.0 L542.0 397.0 L542.0 401.0 L542.0 405.0 L542.0 409.0 L542.0 413.0 L542.0 417.0 L542.0 421.0 L542.0 425.0 L542.0 429.0 L542.0 433.0 L542.0 437.0 L542.0 441.0 L542.0 445.0 L542.0 449.0 L542.0 453.0 L542.0 457.0 L542.0 461.0 L542.0 465.0 L542.0 469.0 L542.0 473.0 L542.0 477.0 L542.0 481.0 L542.0 485.0 L542.0 489.0 L542.0 493.0 L542.0 497.0 L542.0 501.0 L542.0 505.0 L542.0 509.0 L542.0 513.0 L542.0 517.0 L542.0 521.0 L542.0 525.0 L542.0 529.0 L542.0 533.0 L542.0 537.0 L542.0 541.0 L539.5 542.0 Z M528.0 525.5 L528.0 521.5 L528.0 517.5 L528.0 513.5 L528.0 509.5 L528.0 505.5 L528.0 501.5 L528.0 497.5 L528.0 493.5 L528.0 489.5 L528.0 485.5 L528.0 481.5 L528.0 477.5 L528.0 473.5 L528.0 469.5 L528.0 465.5 L528.0 461.5 L528.0 457.5 L528.0 453.5 L528.0 449.5 L528.0 445.5 L528.0 441.5 L528.0 437.5 L528.0 433.5 L528.0 429.5 L528.0 425.5 L528.0 421.5 L528.0 417.5 L528.0 413.5 L528.0 409.5 L528.0 405.5 L528.0 401.5 L528.0 397.5 L528.0 393.5 L528.0 389.5 L528.0 385.5 L528.0 381.5 L528.0 377.5 L528.0 373.5 L528.0 369.5 L528.0 365.5 L528.0 361.5 L528.0 357.5 L528.0 353.5 L528.0 349.5 L528.0 345.5 L528.0 341.5 L528.0 337.5 L528.0 333.5 L528.0 329.5 L528.0 325.5 L528.0 321.5 L528.0 317.5 L528.0 313.5 L528.0 309.5 L528.0 305.5 L528.0 301.5 L528.0 297.5 L528.0 293.5 L528.0 289.5 L528.0 285.5 L528.0 281.5 L528.0 277.5 L528.0 273.5 L528.0 269.5 L528.0 265.5 L528.0 261.5 L528.0 257.5 L528.0 253.5 L528.0 249.5 L528.0 245.5 L528.0 241.5 L528.0 237.5 L528.0 233.5 L528.0 229.5 L528.0 225.5 L528.0 221.5 L528.0 217.5 L528.0 213.5 L528.0 209.5 L528.0 205.5 L528.0 201.5 L528.0 197.5 L528.0 193.5 L528.0 189.5 L528.0 185.5 L528.0 181.5 L528.0 177.5 L528.0 173.5 L528.0 169.5 L528.0 165.5 L528.0 161.5 L528.0 157.5 L528.0 153.5 L528.0 149.5 L528.0 145.5 L528.0 141.5 L528.0 137.5 L528.0 133.5 L528.0 129.5 L528.0 125.5 L528.0 121.5 L528.0 117.5 L528.0 113.5 L528.0 109.5 L528.0 105.5 L528.0 101.5 L528.0 97.5 L528.0 93.5 L528.0 89.5 L528.0 85.5 L528.0 81.5 L528.0 77.5 L528.0 73.5 L528.0 69.5 L528.0 65.5 L528.0 61.5 L528.0 57.5 L528.0 53.5 L528.0 49.5 L528.0 45.5 L528.0 41.5 L528.0 37.5 L528.0 33.5 L528.0 29.5 L528.0 25.5 L528.0 21.5 L528.0 17.5 L527.0 15.0 L15.0 15.0 L15.0 528.0 L527.0 528.0 L528.0 525.5 Z "/>
</g>
<g  style="stroke:#FF0000;stroke-width:0.1;" >
<path d="M284.43503 257.56497 L377.667 164.33307 L284.43503 257.56497 Z "/>
</g>
<g  style="stroke:#00FF00;stroke-width:0.1;" >
<path d="M308.13727 240.9338 L301.06616 233.86276 L308.13727 240.9338 Z "/>
</g>
<g  style="stroke:#00FF00;stroke-width:0.1;" >
<path d="M341.73895 207.33212 L334.6679 200.26102 L341.73895 207.33212 Z "/>
</g>
<g  style="stroke:#00FF00;stroke-width:0.1;" >
<path d="M375.3407 173.73038 L368.2696 166.65933 L375.3407 173.73038 Z "/>
</g>
<g  style="stroke:#00FF00;stroke-width:0.1;" >
<path d="M275.7744 269.05405 L272.94598 266.22562 L275.7744 269.05405 Z "/>
</g>
<g  style="stroke:#00FF00;stroke-width:0.1;" >
<path d="M279.13455 265.69388 L276.30612 262.86545 L279.13455 265.69388 Z "/>
</g>
<g  style="stroke:#00FF00;stroke-width:0.1;" >
<path d="M282.49475 262.3337 L279.66632 259.50528 L282.49475 262.3337 Z "/>
</g>
<g  style="stroke:#00FF00;stroke-width:0.1;" >
<path d="M285.8549 258.97354 L283.02646 256.1451 L285.8549 258.97354 Z "/>
</g>
<g  style="stroke:#00FF00;stroke-width:0.1;" >
<path d="M289.21506 255.61337 L286.38663 252.78494 L289.21506 255.61337 Z "/>
</g>
<g  style="stroke:#00FF00;stroke-width:0.1;" >
<path d="M292.57526 252.2532 L289.74683 249.42477 L292.57526 252.2532 Z "/>
</g>
<g  style="stroke:#00FF00;stroke-width:0.1;" >
<path d="M295.93542 248.89304 L293.107 246.0646 L295.93542 248.89304 Z "/>
</g>
<g  style="stroke:#00FF00;stroke-width:0.1;" >
<path d="M299.2956 245.53287 L296.46716 242.70444 L299.2956 245.53287 Z "/>
</g>
<g  style="stroke:#00FF00;stroke-width:0.1;" >
<path d="M302.65576 242.17267 L299.82733 239.34424 L302.65576 242.17267 Z "/>
</g>
<g  style="stroke:#00FF00;stroke-width:0.1;" >
<path d="M309.3761 235.45233 L306.54767 232.6239 L309.3761 235.45233 Z "/>
</g>
<g  style="stroke:#00FF00;stroke-width:0.1;" >
<path d="M312.73627 232.09216 L309.90784 229.26373 L312.73627 232.09216 Z "/>
</g>
<g  style="stroke:#00FF00;stroke-width:0.1;" >
<path d="M316.09644 228.732 L313.268 225.90356 L316.09644 228.732 Z "/>
</g>
<g  style="stroke:#00FF00;stroke-width:0.1;" >
<path d="M319.4566 225.37183 L316.62817 222.5434 L319.4566 225.37183 Z "/>
</g>
<g  style="stroke:#00FF00;stroke-width:0.1;" >
<path d="M322.81677 222.01163 L319.98834 219.1832 L322.81677 222.01163 Z "/>
</g>
<g  style="stroke:#00FF00;stroke-width:0.1;" >
<path d="M326.17694 218.65146 L323.3485 215.82303 L326.17694 218.65146 Z "/>
</g>
<g  style="stroke:#00FF00;stroke-width:0.1;" >
<path d="M329.5371 215.29129 L326.70868 212.46286 L329.5371 215.29129 Z "/>
</g>
<g  style="stroke:#00FF00;stroke-width:0.1;" >
<path d="M332.89728 211.93112 L330.06885 209.10269 L332.89728 211.93112 Z "/>
</g>
<g  style="stroke:#00FF00;stroke-width:0.1;" >
<path d="M336.25745 208.57095 L333.42902 205.74252 L336.25745 208.57095 Z "/>
</g>
<g  style="stroke:#00FF00;stroke-width:0.1;" >
<path d="M342.9778 201.85062 L340.14938 199.02219 L342.9778 201.85062 Z "/>
</g>
<g  style="stroke:#00FF00;stroke-width:0.1;" >
<path d="M346.33798 198.49045 L343.50955 195.66202 L346.33798 198.49045 Z "/>
</g>
<g  style="stroke:#00FF00;stroke-width:0.1;" >
<path d="M349.69815 195.13028 L346.86972 192.30185 L349.69815 195.13028 Z "/>
</g>
<g  style="stroke:#00FF00;stroke-width:0.1;" >
<path d="M353.05832 191.77011 L350.2299 188.94168 L353.05832 191.77011 Z "/>
</g>
<g  style="stroke:#00FF00;stroke-width:0.1;" >
<path d="M356.4185 188.40994 L353.59006 185.58151 L356.4185 188.40994 Z "/>
</g>
<g  style="stroke:#00FF00;stroke-width:0.1;" >
<path d="M359.7787 185.04977 L356.95026 182.22134 L359.7787 185.04977 Z "/>
</g>
<g  style="stroke:#00FF00;stroke-width:0.1;" >
<path d="M363.13885 181.6896 L360.31042 178.86118 L363.13885 181.6896 Z "/>
</g>
<g  style="stroke:#00FF00;stroke-width:0.1;" >
<path d="M366.49902 178.32944 L363.6706 175.501 L366.49902 178.32944 Z "/>
</g>
<g  style="stroke:#00FF00;stroke-width:0.1;" >
<path d="M369.8592 174.96927 L367.03076 172.14084 L369.8592 174.96927 Z "/>
</g>
<g  style="stroke:#00FF00;stroke-width:0.1;" >
<path d="M376.57953 168.2489 L373.7511 165.42047 L376.57953 168.2489 Z "/>
</g>
<g  style="fill:#F6921E;stroke:#F6921E;stroke-width:0.1;" >
<path d="M539.5 542.0 L3.5 542.0 L1.0 541.0 L1.0 537.0 L1.0 533.0 L1.0 529.0 L1.0 525.0 L1.0 521.0 L1.0 517.0 L1.0 513.0 L1.0 509.0 L1.0 505.0 L1.0 501.0 L1.0 497.0 L1.0 493.0 L1.0 489.0 L1.0 485.0 L1.0 481.0 L1.0 477.0 L1.0 473.0 L1.0 469.0 L1.0 465.0 L1.0 461.0 L1.0 457.0 L1.0 453.0 L1.0 449.0 L1.0 445.0 L1.0 441.0 L1.0 437.0 L1.0 433.0 L1.0 429.0 L1.0 425.0 L1.0 421.0 L1.0 417.0 L1.0 413.0 L1.0 409.0 L1.0 405.0 L1.0 401.0 L1.0 397.0 L1.0 393.0 L1.0 389.0 L1.0 385.0 L1.0 381.0 L1.0 377.0 L1.0 373.0 L1.0 369.0 L1.0 365.0 L1.0 361.0 L1.0 357.0 L1.0 353.0 L1.0 349.0 L1.0 345.0 L1.0 341.0 L1.0 337.0 L1.0 333.0 L1.0 329.0 L1.0 325.0 L1.0 321.0 L1.0 317.0 L1.0 313.0 L1.0 309.0 L1.0 305.0 L1.0 301.0 L1.0 297.0 L1.0 293.0 L1.0 289.0 L1.0 285.0 L1.0 281.0 L1.0 277.0 L1.0 273.0 L1.0 269.0 L1.0 265.0 L1.0 261.0 L1.0 257.0 L1.0 253.0 L1.0 249.0 L1.0 245.0 L1.0 241.0 L1.0 237.0 L1.0 233.0 L1.0 229.0 L1.0 225.0 L1.0 221.0 L1.0 217.0 L1.0 213.0 L1.0 209.0 L1.0 205.0 L1.0 201.0 L1.0 197.0 L1.0 193.0 L1.0 189.0 L1.0 185.0 L1.0 181.0 L1.0 177.0 L1.0 173.0 L1.0 169.0 L1.0 165.0 L1.0 161.0 L1.0 157.0 L1.0 153.0 L1.0 149.0 L1.0 145.0 L1.0 141.0 L1.0 137.0 L1.0 133.0 L1.0 129.0 L1.0 125.0 L1.0 121.0 L1.0 117.0 L1.0 113.0 L1.0 109.0 L1.0 105.0 L1.0 101.0 L1.0 97.0 L1.0 93.0 L1.0 89.0 L1.0 85.0 L1.0 81.0 L1.0 77.0 L1.0 73.0 L1.0 69.0 L1.0 65.0 L1.0 61.0 L1.0 57.0 L1.0 53.0 L1.0 49.0 L1.0 45.0 L1.0 41.0 L1.0 37.0 L1.0 33.0 L1.0 29.0 L1.0 25.0 L1.0 21.0 L1.0 17.0 L1.0 13.0 L1.0 9.0 L1.0 5.0 L1.0 1.0 L542.0 1.0 L542.0 5.0 L542.0 9.0 L542.0 13.0 L542.0 17.0 L542.0 21.0 L542.0 25.0 L542.0 29.0 L542.0 33.0 L542.0 37.0 L542.0 41.0 L542.0 45.0 L542.0 49.0 L542.0 53.0 L542.0 57.0 L542.0 61.0 L542.0 65.0 L542.0 69.0 L542.0 73.0 L542.0 77.0 L542.0 81.0 L542.0 85.0 L542.0 89.0 L542.0 93.0 L542.0 97.0 L542.0 101.0 L542.0 105.0 L542.0 109.0 L542.0 113.0 L542.0 117.0 L542.0 121.0 L542.0 125.0 L542.0 129.0 L542.0 133.0 L542.0 137.0 L542.0 141.0 L542.0 145.0 L542.0 149.0 L542.0 153.0 L542.0 157.0 L542.0 161.0 L542.0 165.0 L542.0 169.0 L542.0 173.0 L542.0 177.0 L542.0 181.0 L542.0 185.0 L542.0 189.0 L542.0 193.0 L542.0 197.0 L542.0 201.0 L542.0 205.0 L542.0 209.0 L542.0 213.0 L542.0 217.0 L542.0 221.0 L542.0 225.0 L542.0 229.0 L542.0 233.0 L542.0 237.0 L542.0 241.0 L542.0 245.0 L542.0 249.0 L542.0 253.0 L542.0 257.0 L542.0 261.0 L542.0 265.0 L542.0 269.0 L542.0 273.0 L542.0 277.0 L542.0 281.0 L542.0 285.0 L542.0 289.0 L542.0 293.0 L542.0 297.0 L542.0 301.0 L542.0 305.0 L542.0 309.0 L542.0 313.0 L542.0 317.0 L542.0 321.0 L542.0 325.0 L542.0 329.0 L542.0 333.0 L542.0 337.0 L542.0 341.0 L542.0 345.0 L542.0 349.0 L542.0 353.0 L542.0 357.0 L542.0 361.0 L542.0 365.0 L542.0 369.0 L542.0 373.0 L542.0 377.0 L542.0 381.0 L542.0 385.0 L542.0 389.0 L542.0 393.0 L542.0 397.0 L542.0 401.0 L542.0 405.0 L542.0 409.0 L542.0 413.0 L542.0 417.0 L542.0 421.0 L542.0 425.0 L542.0 429.0 L542.0 433.0 L542.0 437.0 L542.0 441.0 L542.0 445.0 L542.0 449.0 L542.0 453.0 L542.0 457.0 L542.0 461.0 L542.0 465.0 L542.0 469.0 L542.0 473.0 L542.0 477.0 L542.0 481.0 L542.0 485.0 L542.0 489.0 L542.0 493.0 L542.0 497.0 L542.0 501.0 L542.0 505.0 L542.0 509.0 L542.0 513.0 L542.0 517.0 L542.0 521.0 L542.0 525.0 L542.0 529.0 L542.0 533.0 L542.0 537.0 L542.0 541.0 L539.5 542.0 Z M528.0 525.5 L528.0 521.5 L528.0 517.5 L528.0 513.5 L528.0 509.5 L528.0 505.5 L528.0 501.5 L528.0 497.5 L528.0 493.5 L528.0 489.5 L528.0 485.5 L528.0 481.5 L528.0 477.5 L528.0 473.5 L528.0 469.5 L528.0 465.5 L528.0 461.5 L528.0 457.5 L528.0 453.5 L528.0 449.5 L528.0 445.5 L528.0 441.5 L528.0 437.5 L528.0 433.5 L528.0 429.5 L528.0 425.5 L528.0 421.5 L528.0 417.5 L528.0 413.5 L528.0 409.5 L528.0 405.5 L528.0 401.5 L528.0 397.5 L528.0 393.5 L528.0 389.5 L528.0 385.5 L528.0 381.5 L528.0 377.5 L528.0 373.5 L528.0 369.5 L528.0 365.5 L528.0 361.5 L528.0 357.5 L528.0 353.5 L528.0 349.5 L528.0 345.5 L528.0 341.5 L528.0 337.5 L528.0 333.5 L528.0 329.5 L528.0 325.5 L528.0 321.5 L528.0 317.5 L528.0 313.5 L528.0 309.5 L528.0 305.5 L528.0 301.5 L528.0 297.5 L528.0 293.5 L528.0 289.5 L528.0 285.5 L528.0 281.5 L528.0 277.5 L528.0 273.5 L528.0 269.5 L528.0 265.5 L528.0 261.5 L528.0 257.5 L528.0 253.5 L528.0 249.5 L528.0 245.5 L528.0 241.5 L528.0 237.5 L528.0 233.5 L528.0 229.5 L528.0 225.5 L528.0 221.5 L528.0 217.5 L528.0 213.5 L528.0 209.5 L528.0 205.5 L528.0 201.5 L528.0 197.5 L528.0 193.5 L528.0 189.5 L528.0 185.5 L528.0 181.5 L528.0 177.5 L528.0 173.5 L528.0 169.5 L528.0 165.5 L528.0 161.5 L528.0 157.5 L528.0 153.5 L528.0 149.5 L528.0 145.5 L528.0 141.5 L528.0 137.5 L528.0 133.5 L528.0 129.5 L528.0 125.5 L528.0 121.5 L528.0 117.5 L528.0 113.5 L528.0 109.5 L528.0 105.5 L528.0 101.5 L528.0 97.5 L528.0 93.5 L528.0 89.5 L528.0 85.5 L528.0 81.5 L528.0 77.5 L528.0 73.5 L528.0 69.5 L528.0 65.5 L528.0 61.5 L528.0 57.5 L528.0 53.5 L528.0 49.5 L528.0 45.5 L528.0 41.5 L528.0 37.5 L528.0 33.5 L528.0 29.5 L528.0 25.5 L528.0 21.5 L528.0 17.5 L527.0 15.0 L15.0 15.0 L15.0 528.0 L527.0 528.0 L528.0 525.5 Z "/>
</g>
</g>
</svg>
